%TF.GenerationSoftware,KiCad,Pcbnew,(5.1.0)-1*%
%TF.CreationDate,2019-07-09T02:14:38+01:00*%
%TF.ProjectId,SmartGluttonV1,536d6172-7447-46c7-9574-746f6e56312e,rev?*%
%TF.SameCoordinates,Original*%
%TF.FileFunction,Copper,L2,Bot*%
%TF.FilePolarity,Positive*%
%FSLAX46Y46*%
G04 Gerber Fmt 4.6, Leading zero omitted, Abs format (unit mm)*
G04 Created by KiCad (PCBNEW (5.1.0)-1) date 2019-07-09 02:14:38*
%MOMM*%
%LPD*%
G04 APERTURE LIST*
%ADD10R,1.700000X1.700000*%
%ADD11C,1.700000*%
%ADD12C,3.000000*%
%ADD13O,1.350000X1.350000*%
%ADD14C,1.350000*%
%ADD15R,1.350000X1.350000*%
%ADD16C,3.500000*%
%ADD17O,1.700000X1.700000*%
%ADD18O,2.400000X1.600000*%
%ADD19R,2.400000X1.600000*%
%ADD20R,1.800000X1.100000*%
%ADD21C,0.100000*%
%ADD22C,1.100000*%
%ADD23C,2.000000*%
%ADD24C,1.800000*%
%ADD25R,1.800000X1.800000*%
%ADD26C,1.600000*%
%ADD27R,1.600000X1.600000*%
%ADD28C,0.800000*%
%ADD29C,0.250000*%
%ADD30C,0.254000*%
G04 APERTURE END LIST*
D10*
X189712600Y-68808600D03*
D11*
X189712600Y-71308600D03*
X191712600Y-71308600D03*
X191712600Y-68808600D03*
D12*
X194422600Y-64508600D03*
X194422600Y-75608600D03*
D13*
X116330000Y-71660000D03*
X116330000Y-79660000D03*
X116330000Y-83660000D03*
X116330000Y-81660000D03*
X116330000Y-73660000D03*
X116330000Y-77660000D03*
X116330000Y-75660000D03*
D14*
X116330000Y-85660000D03*
D13*
X98770000Y-67670000D03*
X96770000Y-67670000D03*
D14*
X88770000Y-67670000D03*
D13*
X92770000Y-67670000D03*
X104770000Y-67670000D03*
X90770000Y-67670000D03*
X106770000Y-67670000D03*
X100770000Y-67670000D03*
X94770000Y-67670000D03*
X102770000Y-67670000D03*
D15*
X88770000Y-89670000D03*
D13*
X90770000Y-89670000D03*
X92770000Y-89670000D03*
X94770000Y-89670000D03*
X96770000Y-89670000D03*
X98770000Y-89670000D03*
X100770000Y-89670000D03*
X102770000Y-89670000D03*
X104770000Y-89670000D03*
X106770000Y-89670000D03*
D16*
X194468800Y-83879400D03*
X194468800Y-97019400D03*
D17*
X162052000Y-88646000D03*
X164592000Y-88646000D03*
X167132000Y-88646000D03*
X169672000Y-88646000D03*
X172212000Y-88646000D03*
X174752000Y-88646000D03*
X177292000Y-88646000D03*
X179832000Y-88646000D03*
X182372000Y-88646000D03*
D10*
X184912000Y-88646000D03*
D17*
X121920000Y-71755000D03*
X121920000Y-74295000D03*
X121920000Y-76835000D03*
X121920000Y-79375000D03*
X121920000Y-81915000D03*
X121920000Y-84455000D03*
X121920000Y-86995000D03*
D10*
X121920000Y-89535000D03*
D17*
X154305000Y-96520000D03*
X151765000Y-96520000D03*
X149225000Y-96520000D03*
X146685000Y-96520000D03*
X144145000Y-96520000D03*
X141605000Y-96520000D03*
X139065000Y-96520000D03*
X136525000Y-96520000D03*
D10*
X133985000Y-96520000D03*
D18*
X147955000Y-73025000D03*
X140335000Y-88265000D03*
X147955000Y-75565000D03*
X140335000Y-85725000D03*
X147955000Y-78105000D03*
X140335000Y-83185000D03*
X147955000Y-80645000D03*
X140335000Y-80645000D03*
X147955000Y-83185000D03*
X140335000Y-78105000D03*
X147955000Y-85725000D03*
X140335000Y-75565000D03*
X147955000Y-88265000D03*
D19*
X140335000Y-73025000D03*
D20*
X175279000Y-61874400D03*
D21*
G36*
X175930955Y-58785724D02*
G01*
X175957650Y-58789684D01*
X175983828Y-58796241D01*
X176009238Y-58805333D01*
X176033634Y-58816872D01*
X176056782Y-58830746D01*
X176078458Y-58846822D01*
X176098454Y-58864946D01*
X176116578Y-58884942D01*
X176132654Y-58906618D01*
X176146528Y-58929766D01*
X176158067Y-58954162D01*
X176167159Y-58979572D01*
X176173716Y-59005750D01*
X176177676Y-59032445D01*
X176179000Y-59059400D01*
X176179000Y-59609400D01*
X176177676Y-59636355D01*
X176173716Y-59663050D01*
X176167159Y-59689228D01*
X176158067Y-59714638D01*
X176146528Y-59739034D01*
X176132654Y-59762182D01*
X176116578Y-59783858D01*
X176098454Y-59803854D01*
X176078458Y-59821978D01*
X176056782Y-59838054D01*
X176033634Y-59851928D01*
X176009238Y-59863467D01*
X175983828Y-59872559D01*
X175957650Y-59879116D01*
X175930955Y-59883076D01*
X175904000Y-59884400D01*
X174654000Y-59884400D01*
X174627045Y-59883076D01*
X174600350Y-59879116D01*
X174574172Y-59872559D01*
X174548762Y-59863467D01*
X174524366Y-59851928D01*
X174501218Y-59838054D01*
X174479542Y-59821978D01*
X174459546Y-59803854D01*
X174441422Y-59783858D01*
X174425346Y-59762182D01*
X174411472Y-59739034D01*
X174399933Y-59714638D01*
X174390841Y-59689228D01*
X174384284Y-59663050D01*
X174380324Y-59636355D01*
X174379000Y-59609400D01*
X174379000Y-59059400D01*
X174380324Y-59032445D01*
X174384284Y-59005750D01*
X174390841Y-58979572D01*
X174399933Y-58954162D01*
X174411472Y-58929766D01*
X174425346Y-58906618D01*
X174441422Y-58884942D01*
X174459546Y-58864946D01*
X174479542Y-58846822D01*
X174501218Y-58830746D01*
X174524366Y-58816872D01*
X174548762Y-58805333D01*
X174574172Y-58796241D01*
X174600350Y-58789684D01*
X174627045Y-58785724D01*
X174654000Y-58784400D01*
X175904000Y-58784400D01*
X175930955Y-58785724D01*
X175930955Y-58785724D01*
G37*
D22*
X175279000Y-59334400D03*
D21*
G36*
X173860955Y-60055724D02*
G01*
X173887650Y-60059684D01*
X173913828Y-60066241D01*
X173939238Y-60075333D01*
X173963634Y-60086872D01*
X173986782Y-60100746D01*
X174008458Y-60116822D01*
X174028454Y-60134946D01*
X174046578Y-60154942D01*
X174062654Y-60176618D01*
X174076528Y-60199766D01*
X174088067Y-60224162D01*
X174097159Y-60249572D01*
X174103716Y-60275750D01*
X174107676Y-60302445D01*
X174109000Y-60329400D01*
X174109000Y-60879400D01*
X174107676Y-60906355D01*
X174103716Y-60933050D01*
X174097159Y-60959228D01*
X174088067Y-60984638D01*
X174076528Y-61009034D01*
X174062654Y-61032182D01*
X174046578Y-61053858D01*
X174028454Y-61073854D01*
X174008458Y-61091978D01*
X173986782Y-61108054D01*
X173963634Y-61121928D01*
X173939238Y-61133467D01*
X173913828Y-61142559D01*
X173887650Y-61149116D01*
X173860955Y-61153076D01*
X173834000Y-61154400D01*
X172584000Y-61154400D01*
X172557045Y-61153076D01*
X172530350Y-61149116D01*
X172504172Y-61142559D01*
X172478762Y-61133467D01*
X172454366Y-61121928D01*
X172431218Y-61108054D01*
X172409542Y-61091978D01*
X172389546Y-61073854D01*
X172371422Y-61053858D01*
X172355346Y-61032182D01*
X172341472Y-61009034D01*
X172329933Y-60984638D01*
X172320841Y-60959228D01*
X172314284Y-60933050D01*
X172310324Y-60906355D01*
X172309000Y-60879400D01*
X172309000Y-60329400D01*
X172310324Y-60302445D01*
X172314284Y-60275750D01*
X172320841Y-60249572D01*
X172329933Y-60224162D01*
X172341472Y-60199766D01*
X172355346Y-60176618D01*
X172371422Y-60154942D01*
X172389546Y-60134946D01*
X172409542Y-60116822D01*
X172431218Y-60100746D01*
X172454366Y-60086872D01*
X172478762Y-60075333D01*
X172504172Y-60066241D01*
X172530350Y-60059684D01*
X172557045Y-60055724D01*
X172584000Y-60054400D01*
X173834000Y-60054400D01*
X173860955Y-60055724D01*
X173860955Y-60055724D01*
G37*
D22*
X173209000Y-60604400D03*
D23*
X119888000Y-97790000D03*
X119888000Y-93290000D03*
X126388000Y-97790000D03*
X126388000Y-93290000D03*
D18*
X160020000Y-68808600D03*
X167640000Y-66268600D03*
X160020000Y-66268600D03*
D19*
X167640000Y-68808600D03*
D17*
X109220000Y-93980000D03*
X106680000Y-93980000D03*
X104140000Y-93980000D03*
X101600000Y-93980000D03*
X99060000Y-93980000D03*
X96520000Y-93980000D03*
X93980000Y-93980000D03*
X91440000Y-93980000D03*
X88900000Y-93980000D03*
D10*
X86360000Y-93980000D03*
D17*
X86360000Y-62865000D03*
X88900000Y-62865000D03*
X91440000Y-62865000D03*
X93980000Y-62865000D03*
X96520000Y-62865000D03*
X99060000Y-62865000D03*
X101600000Y-62865000D03*
X104140000Y-62865000D03*
X106680000Y-62865000D03*
D10*
X109220000Y-62865000D03*
D24*
X153670000Y-63500000D03*
D25*
X153670000Y-60960000D03*
D24*
X147320000Y-63500000D03*
D25*
X147320000Y-60960000D03*
D24*
X140970000Y-63500000D03*
D25*
X140970000Y-60960000D03*
D24*
X131572000Y-85852000D03*
D25*
X129032000Y-85852000D03*
D24*
X131572000Y-80518000D03*
D25*
X129032000Y-80518000D03*
D24*
X131572000Y-75692000D03*
D25*
X129032000Y-75692000D03*
D26*
X178282600Y-66308600D03*
D27*
X178282600Y-68808600D03*
D28*
X171297600Y-75920600D03*
X183311800Y-71297800D03*
X196418200Y-61036200D03*
X188073100Y-94855100D03*
X171932600Y-81305400D03*
X143129000Y-90297000D03*
X170434000Y-84328000D03*
X188214000Y-91440000D03*
X194691000Y-91440000D03*
X188214000Y-89408000D03*
X194437000Y-89535000D03*
D29*
X118473787Y-97790000D02*
X119888000Y-97790000D01*
X99127919Y-97790000D02*
X118473787Y-97790000D01*
X96520000Y-95182081D02*
X99127919Y-97790000D01*
X96520000Y-93980000D02*
X96520000Y-95182081D01*
X157861000Y-71755000D02*
X121920000Y-71755000D01*
X170434000Y-84328000D02*
X157861000Y-71755000D01*
X91567000Y-57658000D02*
X193675000Y-57658000D01*
X86360000Y-62865000D02*
X91567000Y-57658000D01*
X193675000Y-57658000D02*
X201930000Y-57658000D01*
X201930000Y-57658000D02*
X203835000Y-59563000D01*
X203835000Y-59563000D02*
X203835000Y-77470000D01*
X203835000Y-77470000D02*
X203835000Y-80645000D01*
X203835000Y-80645000D02*
X203835000Y-82296000D01*
X203835000Y-82296000D02*
X194691000Y-91440000D01*
X188214000Y-91440000D02*
X188214000Y-91440000D01*
X194691000Y-91440000D02*
X194691000Y-91440000D01*
X188214000Y-89408000D02*
X188214000Y-89408000D01*
X194437000Y-89535000D02*
X194437000Y-89535000D01*
X195959590Y-89535000D02*
X194437000Y-89535000D01*
X88900000Y-60961410D02*
X91753400Y-58108010D01*
X88900000Y-62865000D02*
X88900000Y-60961410D01*
X91753400Y-58108010D02*
X201743600Y-58108010D01*
X201743600Y-58108010D02*
X203384990Y-59749400D01*
X203384990Y-59749400D02*
X203384990Y-82109600D01*
X203384990Y-82109600D02*
X195959590Y-89535000D01*
X96061000Y-68961000D02*
X94770000Y-67670000D01*
X103424590Y-68961000D02*
X96061000Y-68961000D01*
X140335000Y-78105000D02*
X121450998Y-78105000D01*
X105167395Y-69340215D02*
X107582180Y-71755000D01*
X103424590Y-68961000D02*
X103803805Y-69340215D01*
X103803805Y-69340215D02*
X105167395Y-69340215D01*
X118005998Y-74660000D02*
X121450998Y-78105000D01*
X115213588Y-74660000D02*
X118005998Y-74660000D01*
X112308588Y-71755000D02*
X115213588Y-74660000D01*
X107582180Y-71755000D02*
X112308588Y-71755000D01*
X97769999Y-66669999D02*
X98095001Y-66995001D01*
X88289999Y-66669999D02*
X97769999Y-66669999D01*
X87769999Y-67189999D02*
X88289999Y-66669999D01*
X87769999Y-68150001D02*
X87769999Y-67189999D01*
X98095001Y-66995001D02*
X98770000Y-67670000D01*
X110329999Y-90710001D02*
X87769999Y-68150001D01*
X139881003Y-90710001D02*
X110329999Y-90710001D01*
X144866004Y-85725000D02*
X139881003Y-90710001D01*
X147955000Y-85725000D02*
X144866004Y-85725000D01*
X147555000Y-80645000D02*
X147955000Y-80645000D01*
X143889990Y-76979990D02*
X147555000Y-80645000D01*
X126763990Y-76979990D02*
X143889990Y-76979990D01*
X125443999Y-75659999D02*
X126763990Y-76979990D01*
X118545998Y-72660000D02*
X121545997Y-75659999D01*
X102770000Y-67670000D02*
X103990205Y-68890205D01*
X121545997Y-75659999D02*
X125443999Y-75659999D01*
X103990205Y-68890205D02*
X105353795Y-68890205D01*
X105353795Y-68890205D02*
X107710590Y-71247000D01*
X107710590Y-71247000D02*
X112436998Y-71247000D01*
X112436998Y-71247000D02*
X113849998Y-72660000D01*
X113849998Y-72660000D02*
X118545998Y-72660000D01*
X146505000Y-75565000D02*
X147955000Y-75565000D01*
X145379990Y-74439990D02*
X146505000Y-75565000D01*
X139164988Y-74439990D02*
X145379990Y-74439990D01*
X137654999Y-72930001D02*
X139164988Y-74439990D01*
X121355999Y-72930001D02*
X137654999Y-72930001D01*
X119085997Y-70659999D02*
X121355999Y-72930001D01*
X107759999Y-70659999D02*
X119085997Y-70659999D01*
X104770000Y-67670000D02*
X107759999Y-70659999D01*
D30*
G36*
X86725996Y-61424203D02*
G01*
X86651111Y-61401487D01*
X86432950Y-61380000D01*
X86287050Y-61380000D01*
X86068889Y-61401487D01*
X85788966Y-61486401D01*
X85530986Y-61624294D01*
X85304866Y-61809866D01*
X85119294Y-62035986D01*
X84981401Y-62293966D01*
X84896487Y-62573889D01*
X84867815Y-62865000D01*
X84896487Y-63156111D01*
X84981401Y-63436034D01*
X85119294Y-63694014D01*
X85304866Y-63920134D01*
X85530986Y-64105706D01*
X85788966Y-64243599D01*
X86068889Y-64328513D01*
X86287050Y-64350000D01*
X86432950Y-64350000D01*
X86651111Y-64328513D01*
X86931034Y-64243599D01*
X87189014Y-64105706D01*
X87415134Y-63920134D01*
X87600706Y-63694014D01*
X87630000Y-63639209D01*
X87659294Y-63694014D01*
X87844866Y-63920134D01*
X88070986Y-64105706D01*
X88328966Y-64243599D01*
X88608889Y-64328513D01*
X88827050Y-64350000D01*
X88972950Y-64350000D01*
X89191111Y-64328513D01*
X89471034Y-64243599D01*
X89729014Y-64105706D01*
X89955134Y-63920134D01*
X90140706Y-63694014D01*
X90170000Y-63639209D01*
X90199294Y-63694014D01*
X90384866Y-63920134D01*
X90610986Y-64105706D01*
X90868966Y-64243599D01*
X91148889Y-64328513D01*
X91367050Y-64350000D01*
X91512950Y-64350000D01*
X91731111Y-64328513D01*
X92011034Y-64243599D01*
X92269014Y-64105706D01*
X92495134Y-63920134D01*
X92680706Y-63694014D01*
X92710000Y-63639209D01*
X92739294Y-63694014D01*
X92924866Y-63920134D01*
X93150986Y-64105706D01*
X93408966Y-64243599D01*
X93688889Y-64328513D01*
X93907050Y-64350000D01*
X94052950Y-64350000D01*
X94271111Y-64328513D01*
X94551034Y-64243599D01*
X94809014Y-64105706D01*
X95035134Y-63920134D01*
X95220706Y-63694014D01*
X95250000Y-63639209D01*
X95279294Y-63694014D01*
X95464866Y-63920134D01*
X95690986Y-64105706D01*
X95948966Y-64243599D01*
X96228889Y-64328513D01*
X96447050Y-64350000D01*
X96592950Y-64350000D01*
X96811111Y-64328513D01*
X97091034Y-64243599D01*
X97349014Y-64105706D01*
X97575134Y-63920134D01*
X97760706Y-63694014D01*
X97790000Y-63639209D01*
X97819294Y-63694014D01*
X98004866Y-63920134D01*
X98230986Y-64105706D01*
X98488966Y-64243599D01*
X98768889Y-64328513D01*
X98987050Y-64350000D01*
X99132950Y-64350000D01*
X99351111Y-64328513D01*
X99631034Y-64243599D01*
X99889014Y-64105706D01*
X100115134Y-63920134D01*
X100300706Y-63694014D01*
X100330000Y-63639209D01*
X100359294Y-63694014D01*
X100544866Y-63920134D01*
X100770986Y-64105706D01*
X101028966Y-64243599D01*
X101308889Y-64328513D01*
X101527050Y-64350000D01*
X101672950Y-64350000D01*
X101891111Y-64328513D01*
X102171034Y-64243599D01*
X102429014Y-64105706D01*
X102655134Y-63920134D01*
X102840706Y-63694014D01*
X102870000Y-63639209D01*
X102899294Y-63694014D01*
X103084866Y-63920134D01*
X103310986Y-64105706D01*
X103568966Y-64243599D01*
X103848889Y-64328513D01*
X104067050Y-64350000D01*
X104212950Y-64350000D01*
X104431111Y-64328513D01*
X104711034Y-64243599D01*
X104969014Y-64105706D01*
X105195134Y-63920134D01*
X105380706Y-63694014D01*
X105410000Y-63639209D01*
X105439294Y-63694014D01*
X105624866Y-63920134D01*
X105850986Y-64105706D01*
X106108966Y-64243599D01*
X106388889Y-64328513D01*
X106607050Y-64350000D01*
X106752950Y-64350000D01*
X106971111Y-64328513D01*
X107251034Y-64243599D01*
X107509014Y-64105706D01*
X107735134Y-63920134D01*
X107759607Y-63890313D01*
X107780498Y-63959180D01*
X107839463Y-64069494D01*
X107918815Y-64166185D01*
X108015506Y-64245537D01*
X108125820Y-64304502D01*
X108245518Y-64340812D01*
X108370000Y-64353072D01*
X110070000Y-64353072D01*
X110194482Y-64340812D01*
X110314180Y-64304502D01*
X110424494Y-64245537D01*
X110521185Y-64166185D01*
X110600537Y-64069494D01*
X110659502Y-63959180D01*
X110695812Y-63839482D01*
X110708072Y-63715000D01*
X110708072Y-62015000D01*
X110695812Y-61890518D01*
X110686555Y-61860000D01*
X139431928Y-61860000D01*
X139444188Y-61984482D01*
X139480498Y-62104180D01*
X139539463Y-62214494D01*
X139618815Y-62311185D01*
X139715506Y-62390537D01*
X139825820Y-62449502D01*
X139844127Y-62455056D01*
X139777688Y-62521495D01*
X139609701Y-62772905D01*
X139493989Y-63052257D01*
X139435000Y-63348816D01*
X139435000Y-63651184D01*
X139493989Y-63947743D01*
X139609701Y-64227095D01*
X139777688Y-64478505D01*
X139991495Y-64692312D01*
X140242905Y-64860299D01*
X140522257Y-64976011D01*
X140818816Y-65035000D01*
X141121184Y-65035000D01*
X141417743Y-64976011D01*
X141697095Y-64860299D01*
X141948505Y-64692312D01*
X142162312Y-64478505D01*
X142330299Y-64227095D01*
X142446011Y-63947743D01*
X142505000Y-63651184D01*
X142505000Y-63348816D01*
X142446011Y-63052257D01*
X142330299Y-62772905D01*
X142162312Y-62521495D01*
X142095873Y-62455056D01*
X142114180Y-62449502D01*
X142224494Y-62390537D01*
X142321185Y-62311185D01*
X142400537Y-62214494D01*
X142459502Y-62104180D01*
X142495812Y-61984482D01*
X142508072Y-61860000D01*
X145781928Y-61860000D01*
X145794188Y-61984482D01*
X145830498Y-62104180D01*
X145889463Y-62214494D01*
X145968815Y-62311185D01*
X146065506Y-62390537D01*
X146175820Y-62449502D01*
X146194127Y-62455056D01*
X146127688Y-62521495D01*
X145959701Y-62772905D01*
X145843989Y-63052257D01*
X145785000Y-63348816D01*
X145785000Y-63651184D01*
X145843989Y-63947743D01*
X145959701Y-64227095D01*
X146127688Y-64478505D01*
X146341495Y-64692312D01*
X146592905Y-64860299D01*
X146872257Y-64976011D01*
X147168816Y-65035000D01*
X147471184Y-65035000D01*
X147767743Y-64976011D01*
X148047095Y-64860299D01*
X148298505Y-64692312D01*
X148512312Y-64478505D01*
X148680299Y-64227095D01*
X148796011Y-63947743D01*
X148855000Y-63651184D01*
X148855000Y-63348816D01*
X148796011Y-63052257D01*
X148680299Y-62772905D01*
X148512312Y-62521495D01*
X148445873Y-62455056D01*
X148464180Y-62449502D01*
X148574494Y-62390537D01*
X148671185Y-62311185D01*
X148750537Y-62214494D01*
X148809502Y-62104180D01*
X148845812Y-61984482D01*
X148858072Y-61860000D01*
X152131928Y-61860000D01*
X152144188Y-61984482D01*
X152180498Y-62104180D01*
X152239463Y-62214494D01*
X152318815Y-62311185D01*
X152415506Y-62390537D01*
X152525820Y-62449502D01*
X152544127Y-62455056D01*
X152477688Y-62521495D01*
X152309701Y-62772905D01*
X152193989Y-63052257D01*
X152135000Y-63348816D01*
X152135000Y-63651184D01*
X152193989Y-63947743D01*
X152309701Y-64227095D01*
X152477688Y-64478505D01*
X152691495Y-64692312D01*
X152942905Y-64860299D01*
X153222257Y-64976011D01*
X153518816Y-65035000D01*
X153821184Y-65035000D01*
X154117743Y-64976011D01*
X154397095Y-64860299D01*
X154648505Y-64692312D01*
X154862312Y-64478505D01*
X154982707Y-64298321D01*
X192287600Y-64298321D01*
X192287600Y-64718879D01*
X192369647Y-65131356D01*
X192530588Y-65519902D01*
X192764237Y-65869583D01*
X193061617Y-66166963D01*
X193411298Y-66400612D01*
X193799844Y-66561553D01*
X194212321Y-66643600D01*
X194632879Y-66643600D01*
X195045356Y-66561553D01*
X195433902Y-66400612D01*
X195783583Y-66166963D01*
X196080963Y-65869583D01*
X196314612Y-65519902D01*
X196475553Y-65131356D01*
X196557600Y-64718879D01*
X196557600Y-64298321D01*
X196475553Y-63885844D01*
X196314612Y-63497298D01*
X196080963Y-63147617D01*
X195783583Y-62850237D01*
X195433902Y-62616588D01*
X195045356Y-62455647D01*
X194632879Y-62373600D01*
X194212321Y-62373600D01*
X193799844Y-62455647D01*
X193411298Y-62616588D01*
X193061617Y-62850237D01*
X192764237Y-63147617D01*
X192530588Y-63497298D01*
X192369647Y-63885844D01*
X192287600Y-64298321D01*
X154982707Y-64298321D01*
X155030299Y-64227095D01*
X155146011Y-63947743D01*
X155205000Y-63651184D01*
X155205000Y-63348816D01*
X155146011Y-63052257D01*
X155030299Y-62772905D01*
X154862312Y-62521495D01*
X154795873Y-62455056D01*
X154814180Y-62449502D01*
X154861141Y-62424400D01*
X173740928Y-62424400D01*
X173753188Y-62548882D01*
X173789498Y-62668580D01*
X173848463Y-62778894D01*
X173927815Y-62875585D01*
X174024506Y-62954937D01*
X174134820Y-63013902D01*
X174254518Y-63050212D01*
X174379000Y-63062472D01*
X174993250Y-63059400D01*
X175152000Y-62900650D01*
X175152000Y-62001400D01*
X175406000Y-62001400D01*
X175406000Y-62900650D01*
X175564750Y-63059400D01*
X176179000Y-63062472D01*
X176303482Y-63050212D01*
X176423180Y-63013902D01*
X176533494Y-62954937D01*
X176630185Y-62875585D01*
X176709537Y-62778894D01*
X176768502Y-62668580D01*
X176804812Y-62548882D01*
X176817072Y-62424400D01*
X176814000Y-62160150D01*
X176655250Y-62001400D01*
X175406000Y-62001400D01*
X175152000Y-62001400D01*
X173902750Y-62001400D01*
X173744000Y-62160150D01*
X173740928Y-62424400D01*
X154861141Y-62424400D01*
X154924494Y-62390537D01*
X155021185Y-62311185D01*
X155100537Y-62214494D01*
X155159502Y-62104180D01*
X155195812Y-61984482D01*
X155208072Y-61860000D01*
X155205000Y-61245750D01*
X155046250Y-61087000D01*
X153797000Y-61087000D01*
X153797000Y-61107000D01*
X153543000Y-61107000D01*
X153543000Y-61087000D01*
X152293750Y-61087000D01*
X152135000Y-61245750D01*
X152131928Y-61860000D01*
X148858072Y-61860000D01*
X148855000Y-61245750D01*
X148696250Y-61087000D01*
X147447000Y-61087000D01*
X147447000Y-61107000D01*
X147193000Y-61107000D01*
X147193000Y-61087000D01*
X145943750Y-61087000D01*
X145785000Y-61245750D01*
X145781928Y-61860000D01*
X142508072Y-61860000D01*
X142505000Y-61245750D01*
X142346250Y-61087000D01*
X141097000Y-61087000D01*
X141097000Y-61107000D01*
X140843000Y-61107000D01*
X140843000Y-61087000D01*
X139593750Y-61087000D01*
X139435000Y-61245750D01*
X139431928Y-61860000D01*
X110686555Y-61860000D01*
X110659502Y-61770820D01*
X110600537Y-61660506D01*
X110521185Y-61563815D01*
X110424494Y-61484463D01*
X110314180Y-61425498D01*
X110194482Y-61389188D01*
X110070000Y-61376928D01*
X108370000Y-61376928D01*
X108245518Y-61389188D01*
X108125820Y-61425498D01*
X108015506Y-61484463D01*
X107918815Y-61563815D01*
X107839463Y-61660506D01*
X107780498Y-61770820D01*
X107759607Y-61839687D01*
X107735134Y-61809866D01*
X107509014Y-61624294D01*
X107251034Y-61486401D01*
X106971111Y-61401487D01*
X106752950Y-61380000D01*
X106607050Y-61380000D01*
X106388889Y-61401487D01*
X106108966Y-61486401D01*
X105850986Y-61624294D01*
X105624866Y-61809866D01*
X105439294Y-62035986D01*
X105410000Y-62090791D01*
X105380706Y-62035986D01*
X105195134Y-61809866D01*
X104969014Y-61624294D01*
X104711034Y-61486401D01*
X104431111Y-61401487D01*
X104212950Y-61380000D01*
X104067050Y-61380000D01*
X103848889Y-61401487D01*
X103568966Y-61486401D01*
X103310986Y-61624294D01*
X103084866Y-61809866D01*
X102899294Y-62035986D01*
X102870000Y-62090791D01*
X102840706Y-62035986D01*
X102655134Y-61809866D01*
X102429014Y-61624294D01*
X102171034Y-61486401D01*
X101891111Y-61401487D01*
X101672950Y-61380000D01*
X101527050Y-61380000D01*
X101308889Y-61401487D01*
X101028966Y-61486401D01*
X100770986Y-61624294D01*
X100544866Y-61809866D01*
X100359294Y-62035986D01*
X100330000Y-62090791D01*
X100300706Y-62035986D01*
X100115134Y-61809866D01*
X99889014Y-61624294D01*
X99631034Y-61486401D01*
X99351111Y-61401487D01*
X99132950Y-61380000D01*
X98987050Y-61380000D01*
X98768889Y-61401487D01*
X98488966Y-61486401D01*
X98230986Y-61624294D01*
X98004866Y-61809866D01*
X97819294Y-62035986D01*
X97790000Y-62090791D01*
X97760706Y-62035986D01*
X97575134Y-61809866D01*
X97349014Y-61624294D01*
X97091034Y-61486401D01*
X96811111Y-61401487D01*
X96592950Y-61380000D01*
X96447050Y-61380000D01*
X96228889Y-61401487D01*
X95948966Y-61486401D01*
X95690986Y-61624294D01*
X95464866Y-61809866D01*
X95279294Y-62035986D01*
X95250000Y-62090791D01*
X95220706Y-62035986D01*
X95035134Y-61809866D01*
X94809014Y-61624294D01*
X94551034Y-61486401D01*
X94271111Y-61401487D01*
X94052950Y-61380000D01*
X93907050Y-61380000D01*
X93688889Y-61401487D01*
X93408966Y-61486401D01*
X93150986Y-61624294D01*
X92924866Y-61809866D01*
X92739294Y-62035986D01*
X92710000Y-62090791D01*
X92680706Y-62035986D01*
X92495134Y-61809866D01*
X92269014Y-61624294D01*
X92011034Y-61486401D01*
X91731111Y-61401487D01*
X91512950Y-61380000D01*
X91367050Y-61380000D01*
X91148889Y-61401487D01*
X90868966Y-61486401D01*
X90610986Y-61624294D01*
X90384866Y-61809866D01*
X90199294Y-62035986D01*
X90170000Y-62090791D01*
X90140706Y-62035986D01*
X89955134Y-61809866D01*
X89729014Y-61624294D01*
X89660000Y-61587405D01*
X89660000Y-61276211D01*
X90876211Y-60060000D01*
X139431928Y-60060000D01*
X139435000Y-60674250D01*
X139593750Y-60833000D01*
X140843000Y-60833000D01*
X140843000Y-59583750D01*
X141097000Y-59583750D01*
X141097000Y-60833000D01*
X142346250Y-60833000D01*
X142505000Y-60674250D01*
X142508072Y-60060000D01*
X145781928Y-60060000D01*
X145785000Y-60674250D01*
X145943750Y-60833000D01*
X147193000Y-60833000D01*
X147193000Y-59583750D01*
X147447000Y-59583750D01*
X147447000Y-60833000D01*
X148696250Y-60833000D01*
X148855000Y-60674250D01*
X148858072Y-60060000D01*
X152131928Y-60060000D01*
X152135000Y-60674250D01*
X152293750Y-60833000D01*
X153543000Y-60833000D01*
X153543000Y-59583750D01*
X153797000Y-59583750D01*
X153797000Y-60833000D01*
X155046250Y-60833000D01*
X155205000Y-60674250D01*
X155208072Y-60060000D01*
X155195812Y-59935518D01*
X155159502Y-59815820D01*
X155100537Y-59705506D01*
X155021185Y-59608815D01*
X154924494Y-59529463D01*
X154814180Y-59470498D01*
X154694482Y-59434188D01*
X154570000Y-59421928D01*
X153955750Y-59425000D01*
X153797000Y-59583750D01*
X153543000Y-59583750D01*
X153384250Y-59425000D01*
X152770000Y-59421928D01*
X152645518Y-59434188D01*
X152525820Y-59470498D01*
X152415506Y-59529463D01*
X152318815Y-59608815D01*
X152239463Y-59705506D01*
X152180498Y-59815820D01*
X152144188Y-59935518D01*
X152131928Y-60060000D01*
X148858072Y-60060000D01*
X148845812Y-59935518D01*
X148809502Y-59815820D01*
X148750537Y-59705506D01*
X148671185Y-59608815D01*
X148574494Y-59529463D01*
X148464180Y-59470498D01*
X148344482Y-59434188D01*
X148220000Y-59421928D01*
X147605750Y-59425000D01*
X147447000Y-59583750D01*
X147193000Y-59583750D01*
X147034250Y-59425000D01*
X146420000Y-59421928D01*
X146295518Y-59434188D01*
X146175820Y-59470498D01*
X146065506Y-59529463D01*
X145968815Y-59608815D01*
X145889463Y-59705506D01*
X145830498Y-59815820D01*
X145794188Y-59935518D01*
X145781928Y-60060000D01*
X142508072Y-60060000D01*
X142495812Y-59935518D01*
X142459502Y-59815820D01*
X142400537Y-59705506D01*
X142321185Y-59608815D01*
X142224494Y-59529463D01*
X142114180Y-59470498D01*
X141994482Y-59434188D01*
X141870000Y-59421928D01*
X141255750Y-59425000D01*
X141097000Y-59583750D01*
X140843000Y-59583750D01*
X140684250Y-59425000D01*
X140070000Y-59421928D01*
X139945518Y-59434188D01*
X139825820Y-59470498D01*
X139715506Y-59529463D01*
X139618815Y-59608815D01*
X139539463Y-59705506D01*
X139480498Y-59815820D01*
X139444188Y-59935518D01*
X139431928Y-60060000D01*
X90876211Y-60060000D01*
X92068202Y-58868010D01*
X173762494Y-58868010D01*
X173758472Y-58881268D01*
X173740928Y-59059400D01*
X173740928Y-59416328D01*
X172584000Y-59416328D01*
X172405868Y-59433872D01*
X172234582Y-59485831D01*
X172076724Y-59570208D01*
X171938361Y-59683761D01*
X171824808Y-59822124D01*
X171740431Y-59979982D01*
X171688472Y-60151268D01*
X171670928Y-60329400D01*
X171670928Y-60879400D01*
X171688472Y-61057532D01*
X171740431Y-61228818D01*
X171824808Y-61386676D01*
X171938361Y-61525039D01*
X172076724Y-61638592D01*
X172234582Y-61722969D01*
X172405868Y-61774928D01*
X172584000Y-61792472D01*
X173834000Y-61792472D01*
X174012132Y-61774928D01*
X174102880Y-61747400D01*
X175152000Y-61747400D01*
X175152000Y-60848150D01*
X175406000Y-60848150D01*
X175406000Y-61747400D01*
X176655250Y-61747400D01*
X176814000Y-61588650D01*
X176817072Y-61324400D01*
X176804812Y-61199918D01*
X176768502Y-61080220D01*
X176709537Y-60969906D01*
X176630185Y-60873215D01*
X176533494Y-60793863D01*
X176423180Y-60734898D01*
X176303482Y-60698588D01*
X176179000Y-60686328D01*
X175564750Y-60689400D01*
X175406000Y-60848150D01*
X175152000Y-60848150D01*
X174993250Y-60689400D01*
X174747072Y-60688169D01*
X174747072Y-60522472D01*
X175904000Y-60522472D01*
X176082132Y-60504928D01*
X176253418Y-60452969D01*
X176411276Y-60368592D01*
X176549639Y-60255039D01*
X176663192Y-60116676D01*
X176747569Y-59958818D01*
X176799528Y-59787532D01*
X176817072Y-59609400D01*
X176817072Y-59059400D01*
X176799528Y-58881268D01*
X176795506Y-58868010D01*
X201428799Y-58868010D01*
X202624990Y-60064202D01*
X202624991Y-81794796D01*
X195644789Y-88775000D01*
X195140711Y-88775000D01*
X195096774Y-88731063D01*
X194927256Y-88617795D01*
X194738898Y-88539774D01*
X194538939Y-88500000D01*
X194335061Y-88500000D01*
X194135102Y-88539774D01*
X193946744Y-88617795D01*
X193777226Y-88731063D01*
X193633063Y-88875226D01*
X193519795Y-89044744D01*
X193441774Y-89233102D01*
X193402000Y-89433061D01*
X193402000Y-89636939D01*
X193441774Y-89836898D01*
X193519795Y-90025256D01*
X193633063Y-90194774D01*
X193777226Y-90338937D01*
X193946744Y-90452205D01*
X194135102Y-90530226D01*
X194177116Y-90538583D01*
X194031226Y-90636063D01*
X193887063Y-90780226D01*
X193773795Y-90949744D01*
X193695774Y-91138102D01*
X193656000Y-91338061D01*
X193656000Y-91541939D01*
X193695774Y-91741898D01*
X193773795Y-91930256D01*
X193887063Y-92099774D01*
X194031226Y-92243937D01*
X194200744Y-92357205D01*
X194389102Y-92435226D01*
X194589061Y-92475000D01*
X194792939Y-92475000D01*
X194992898Y-92435226D01*
X195181256Y-92357205D01*
X195350774Y-92243937D01*
X195494937Y-92099774D01*
X195608205Y-91930256D01*
X195686226Y-91741898D01*
X195726000Y-91541939D01*
X195726000Y-91479801D01*
X203810001Y-83395801D01*
X203810001Y-99670000D01*
X80035000Y-99670000D01*
X80035000Y-93130000D01*
X84871928Y-93130000D01*
X84871928Y-94830000D01*
X84884188Y-94954482D01*
X84920498Y-95074180D01*
X84979463Y-95184494D01*
X85058815Y-95281185D01*
X85155506Y-95360537D01*
X85265820Y-95419502D01*
X85385518Y-95455812D01*
X85510000Y-95468072D01*
X87210000Y-95468072D01*
X87334482Y-95455812D01*
X87454180Y-95419502D01*
X87564494Y-95360537D01*
X87661185Y-95281185D01*
X87740537Y-95184494D01*
X87799502Y-95074180D01*
X87820393Y-95005313D01*
X87844866Y-95035134D01*
X88070986Y-95220706D01*
X88328966Y-95358599D01*
X88608889Y-95443513D01*
X88827050Y-95465000D01*
X88972950Y-95465000D01*
X89191111Y-95443513D01*
X89471034Y-95358599D01*
X89729014Y-95220706D01*
X89955134Y-95035134D01*
X90140706Y-94809014D01*
X90170000Y-94754209D01*
X90199294Y-94809014D01*
X90384866Y-95035134D01*
X90610986Y-95220706D01*
X90868966Y-95358599D01*
X91148889Y-95443513D01*
X91367050Y-95465000D01*
X91512950Y-95465000D01*
X91731111Y-95443513D01*
X92011034Y-95358599D01*
X92269014Y-95220706D01*
X92495134Y-95035134D01*
X92680706Y-94809014D01*
X92710000Y-94754209D01*
X92739294Y-94809014D01*
X92924866Y-95035134D01*
X93150986Y-95220706D01*
X93408966Y-95358599D01*
X93688889Y-95443513D01*
X93907050Y-95465000D01*
X94052950Y-95465000D01*
X94271111Y-95443513D01*
X94551034Y-95358599D01*
X94809014Y-95220706D01*
X95035134Y-95035134D01*
X95220706Y-94809014D01*
X95250000Y-94754209D01*
X95279294Y-94809014D01*
X95464866Y-95035134D01*
X95690986Y-95220706D01*
X95763971Y-95259717D01*
X95770998Y-95331067D01*
X95784180Y-95374523D01*
X95814454Y-95474327D01*
X95885026Y-95606357D01*
X95937257Y-95670000D01*
X95980000Y-95722082D01*
X96008998Y-95745880D01*
X98564124Y-98301008D01*
X98587918Y-98330001D01*
X98616911Y-98353795D01*
X98616915Y-98353799D01*
X98687604Y-98411811D01*
X98703643Y-98424974D01*
X98835672Y-98495546D01*
X98978933Y-98539003D01*
X99090586Y-98550000D01*
X99090595Y-98550000D01*
X99127918Y-98553676D01*
X99165241Y-98550000D01*
X118433091Y-98550000D01*
X118439082Y-98564463D01*
X118618013Y-98832252D01*
X118845748Y-99059987D01*
X119113537Y-99238918D01*
X119411088Y-99362168D01*
X119726967Y-99425000D01*
X120049033Y-99425000D01*
X120364912Y-99362168D01*
X120662463Y-99238918D01*
X120930252Y-99059987D01*
X121157987Y-98832252D01*
X121336918Y-98564463D01*
X121460168Y-98266912D01*
X121523000Y-97951033D01*
X121523000Y-97628967D01*
X124753000Y-97628967D01*
X124753000Y-97951033D01*
X124815832Y-98266912D01*
X124939082Y-98564463D01*
X125118013Y-98832252D01*
X125345748Y-99059987D01*
X125613537Y-99238918D01*
X125911088Y-99362168D01*
X126226967Y-99425000D01*
X126549033Y-99425000D01*
X126864912Y-99362168D01*
X127162463Y-99238918D01*
X127430252Y-99059987D01*
X127657987Y-98832252D01*
X127836918Y-98564463D01*
X127960168Y-98266912D01*
X128023000Y-97951033D01*
X128023000Y-97628967D01*
X127960168Y-97313088D01*
X127836918Y-97015537D01*
X127657987Y-96747748D01*
X127430252Y-96520013D01*
X127162463Y-96341082D01*
X126864912Y-96217832D01*
X126549033Y-96155000D01*
X126226967Y-96155000D01*
X125911088Y-96217832D01*
X125613537Y-96341082D01*
X125345748Y-96520013D01*
X125118013Y-96747748D01*
X124939082Y-97015537D01*
X124815832Y-97313088D01*
X124753000Y-97628967D01*
X121523000Y-97628967D01*
X121460168Y-97313088D01*
X121336918Y-97015537D01*
X121157987Y-96747748D01*
X120930252Y-96520013D01*
X120662463Y-96341082D01*
X120364912Y-96217832D01*
X120049033Y-96155000D01*
X119726967Y-96155000D01*
X119411088Y-96217832D01*
X119113537Y-96341082D01*
X118845748Y-96520013D01*
X118618013Y-96747748D01*
X118439082Y-97015537D01*
X118433091Y-97030000D01*
X99442722Y-97030000D01*
X98082721Y-95670000D01*
X132496928Y-95670000D01*
X132496928Y-97370000D01*
X132509188Y-97494482D01*
X132545498Y-97614180D01*
X132604463Y-97724494D01*
X132683815Y-97821185D01*
X132780506Y-97900537D01*
X132890820Y-97959502D01*
X133010518Y-97995812D01*
X133135000Y-98008072D01*
X134835000Y-98008072D01*
X134959482Y-97995812D01*
X135079180Y-97959502D01*
X135189494Y-97900537D01*
X135286185Y-97821185D01*
X135365537Y-97724494D01*
X135424502Y-97614180D01*
X135445393Y-97545313D01*
X135469866Y-97575134D01*
X135695986Y-97760706D01*
X135953966Y-97898599D01*
X136233889Y-97983513D01*
X136452050Y-98005000D01*
X136597950Y-98005000D01*
X136816111Y-97983513D01*
X137096034Y-97898599D01*
X137354014Y-97760706D01*
X137580134Y-97575134D01*
X137765706Y-97349014D01*
X137795000Y-97294209D01*
X137824294Y-97349014D01*
X138009866Y-97575134D01*
X138235986Y-97760706D01*
X138493966Y-97898599D01*
X138773889Y-97983513D01*
X138992050Y-98005000D01*
X139137950Y-98005000D01*
X139356111Y-97983513D01*
X139636034Y-97898599D01*
X139894014Y-97760706D01*
X140120134Y-97575134D01*
X140305706Y-97349014D01*
X140335000Y-97294209D01*
X140364294Y-97349014D01*
X140549866Y-97575134D01*
X140775986Y-97760706D01*
X141033966Y-97898599D01*
X141313889Y-97983513D01*
X141532050Y-98005000D01*
X141677950Y-98005000D01*
X141896111Y-97983513D01*
X142176034Y-97898599D01*
X142434014Y-97760706D01*
X142660134Y-97575134D01*
X142845706Y-97349014D01*
X142875000Y-97294209D01*
X142904294Y-97349014D01*
X143089866Y-97575134D01*
X143315986Y-97760706D01*
X143573966Y-97898599D01*
X143853889Y-97983513D01*
X144072050Y-98005000D01*
X144217950Y-98005000D01*
X144436111Y-97983513D01*
X144716034Y-97898599D01*
X144974014Y-97760706D01*
X145200134Y-97575134D01*
X145385706Y-97349014D01*
X145415000Y-97294209D01*
X145444294Y-97349014D01*
X145629866Y-97575134D01*
X145855986Y-97760706D01*
X146113966Y-97898599D01*
X146393889Y-97983513D01*
X146612050Y-98005000D01*
X146757950Y-98005000D01*
X146976111Y-97983513D01*
X147256034Y-97898599D01*
X147514014Y-97760706D01*
X147740134Y-97575134D01*
X147925706Y-97349014D01*
X147960201Y-97284477D01*
X148029822Y-97401355D01*
X148224731Y-97617588D01*
X148458080Y-97791641D01*
X148720901Y-97916825D01*
X148868110Y-97961476D01*
X149098000Y-97840155D01*
X149098000Y-96647000D01*
X149078000Y-96647000D01*
X149078000Y-96393000D01*
X149098000Y-96393000D01*
X149098000Y-95199845D01*
X149352000Y-95199845D01*
X149352000Y-96393000D01*
X149372000Y-96393000D01*
X149372000Y-96647000D01*
X149352000Y-96647000D01*
X149352000Y-97840155D01*
X149581890Y-97961476D01*
X149729099Y-97916825D01*
X149991920Y-97791641D01*
X150225269Y-97617588D01*
X150420178Y-97401355D01*
X150489799Y-97284477D01*
X150524294Y-97349014D01*
X150709866Y-97575134D01*
X150935986Y-97760706D01*
X151193966Y-97898599D01*
X151473889Y-97983513D01*
X151692050Y-98005000D01*
X151837950Y-98005000D01*
X152056111Y-97983513D01*
X152336034Y-97898599D01*
X152594014Y-97760706D01*
X152820134Y-97575134D01*
X153005706Y-97349014D01*
X153035000Y-97294209D01*
X153064294Y-97349014D01*
X153249866Y-97575134D01*
X153475986Y-97760706D01*
X153733966Y-97898599D01*
X154013889Y-97983513D01*
X154232050Y-98005000D01*
X154377950Y-98005000D01*
X154596111Y-97983513D01*
X154876034Y-97898599D01*
X155134014Y-97760706D01*
X155360134Y-97575134D01*
X155545706Y-97349014D01*
X155683599Y-97091034D01*
X155768513Y-96811111D01*
X155771134Y-96784498D01*
X192083800Y-96784498D01*
X192083800Y-97254302D01*
X192175454Y-97715079D01*
X192355240Y-98149121D01*
X192616250Y-98539749D01*
X192948451Y-98871950D01*
X193339079Y-99132960D01*
X193773121Y-99312746D01*
X194233898Y-99404400D01*
X194703702Y-99404400D01*
X195164479Y-99312746D01*
X195598521Y-99132960D01*
X195989149Y-98871950D01*
X196321350Y-98539749D01*
X196582360Y-98149121D01*
X196762146Y-97715079D01*
X196853800Y-97254302D01*
X196853800Y-96784498D01*
X196762146Y-96323721D01*
X196582360Y-95889679D01*
X196321350Y-95499051D01*
X195989149Y-95166850D01*
X195598521Y-94905840D01*
X195164479Y-94726054D01*
X194703702Y-94634400D01*
X194233898Y-94634400D01*
X193773121Y-94726054D01*
X193339079Y-94905840D01*
X192948451Y-95166850D01*
X192616250Y-95499051D01*
X192355240Y-95889679D01*
X192175454Y-96323721D01*
X192083800Y-96784498D01*
X155771134Y-96784498D01*
X155797185Y-96520000D01*
X155768513Y-96228889D01*
X155683599Y-95948966D01*
X155545706Y-95690986D01*
X155360134Y-95464866D01*
X155134014Y-95279294D01*
X154876034Y-95141401D01*
X154596111Y-95056487D01*
X154377950Y-95035000D01*
X154232050Y-95035000D01*
X154013889Y-95056487D01*
X153733966Y-95141401D01*
X153475986Y-95279294D01*
X153249866Y-95464866D01*
X153064294Y-95690986D01*
X153035000Y-95745791D01*
X153005706Y-95690986D01*
X152820134Y-95464866D01*
X152594014Y-95279294D01*
X152336034Y-95141401D01*
X152056111Y-95056487D01*
X151837950Y-95035000D01*
X151692050Y-95035000D01*
X151473889Y-95056487D01*
X151193966Y-95141401D01*
X150935986Y-95279294D01*
X150709866Y-95464866D01*
X150524294Y-95690986D01*
X150489799Y-95755523D01*
X150420178Y-95638645D01*
X150225269Y-95422412D01*
X149991920Y-95248359D01*
X149729099Y-95123175D01*
X149581890Y-95078524D01*
X149352000Y-95199845D01*
X149098000Y-95199845D01*
X148868110Y-95078524D01*
X148720901Y-95123175D01*
X148458080Y-95248359D01*
X148224731Y-95422412D01*
X148029822Y-95638645D01*
X147960201Y-95755523D01*
X147925706Y-95690986D01*
X147740134Y-95464866D01*
X147514014Y-95279294D01*
X147256034Y-95141401D01*
X146976111Y-95056487D01*
X146757950Y-95035000D01*
X146612050Y-95035000D01*
X146393889Y-95056487D01*
X146113966Y-95141401D01*
X145855986Y-95279294D01*
X145629866Y-95464866D01*
X145444294Y-95690986D01*
X145415000Y-95745791D01*
X145385706Y-95690986D01*
X145200134Y-95464866D01*
X144974014Y-95279294D01*
X144716034Y-95141401D01*
X144436111Y-95056487D01*
X144217950Y-95035000D01*
X144072050Y-95035000D01*
X143853889Y-95056487D01*
X143573966Y-95141401D01*
X143315986Y-95279294D01*
X143089866Y-95464866D01*
X142904294Y-95690986D01*
X142875000Y-95745791D01*
X142845706Y-95690986D01*
X142660134Y-95464866D01*
X142434014Y-95279294D01*
X142176034Y-95141401D01*
X141896111Y-95056487D01*
X141677950Y-95035000D01*
X141532050Y-95035000D01*
X141313889Y-95056487D01*
X141033966Y-95141401D01*
X140775986Y-95279294D01*
X140549866Y-95464866D01*
X140364294Y-95690986D01*
X140335000Y-95745791D01*
X140305706Y-95690986D01*
X140120134Y-95464866D01*
X139894014Y-95279294D01*
X139636034Y-95141401D01*
X139356111Y-95056487D01*
X139137950Y-95035000D01*
X138992050Y-95035000D01*
X138773889Y-95056487D01*
X138493966Y-95141401D01*
X138235986Y-95279294D01*
X138009866Y-95464866D01*
X137824294Y-95690986D01*
X137795000Y-95745791D01*
X137765706Y-95690986D01*
X137580134Y-95464866D01*
X137354014Y-95279294D01*
X137096034Y-95141401D01*
X136816111Y-95056487D01*
X136597950Y-95035000D01*
X136452050Y-95035000D01*
X136233889Y-95056487D01*
X135953966Y-95141401D01*
X135695986Y-95279294D01*
X135469866Y-95464866D01*
X135445393Y-95494687D01*
X135424502Y-95425820D01*
X135365537Y-95315506D01*
X135286185Y-95218815D01*
X135189494Y-95139463D01*
X135079180Y-95080498D01*
X134959482Y-95044188D01*
X134835000Y-95031928D01*
X133135000Y-95031928D01*
X133010518Y-95044188D01*
X132890820Y-95080498D01*
X132780506Y-95139463D01*
X132683815Y-95218815D01*
X132604463Y-95315506D01*
X132545498Y-95425820D01*
X132509188Y-95545518D01*
X132496928Y-95670000D01*
X98082721Y-95670000D01*
X97505226Y-95092506D01*
X97575134Y-95035134D01*
X97760706Y-94809014D01*
X97790000Y-94754209D01*
X97819294Y-94809014D01*
X98004866Y-95035134D01*
X98230986Y-95220706D01*
X98488966Y-95358599D01*
X98768889Y-95443513D01*
X98987050Y-95465000D01*
X99132950Y-95465000D01*
X99351111Y-95443513D01*
X99631034Y-95358599D01*
X99889014Y-95220706D01*
X100115134Y-95035134D01*
X100300706Y-94809014D01*
X100330000Y-94754209D01*
X100359294Y-94809014D01*
X100544866Y-95035134D01*
X100770986Y-95220706D01*
X101028966Y-95358599D01*
X101308889Y-95443513D01*
X101527050Y-95465000D01*
X101672950Y-95465000D01*
X101891111Y-95443513D01*
X102171034Y-95358599D01*
X102429014Y-95220706D01*
X102655134Y-95035134D01*
X102840706Y-94809014D01*
X102870000Y-94754209D01*
X102899294Y-94809014D01*
X103084866Y-95035134D01*
X103310986Y-95220706D01*
X103568966Y-95358599D01*
X103848889Y-95443513D01*
X104067050Y-95465000D01*
X104212950Y-95465000D01*
X104431111Y-95443513D01*
X104711034Y-95358599D01*
X104969014Y-95220706D01*
X105195134Y-95035134D01*
X105380706Y-94809014D01*
X105410000Y-94754209D01*
X105439294Y-94809014D01*
X105624866Y-95035134D01*
X105850986Y-95220706D01*
X106108966Y-95358599D01*
X106388889Y-95443513D01*
X106607050Y-95465000D01*
X106752950Y-95465000D01*
X106971111Y-95443513D01*
X107251034Y-95358599D01*
X107509014Y-95220706D01*
X107735134Y-95035134D01*
X107920706Y-94809014D01*
X107955201Y-94744477D01*
X108024822Y-94861355D01*
X108219731Y-95077588D01*
X108453080Y-95251641D01*
X108715901Y-95376825D01*
X108863110Y-95421476D01*
X109093000Y-95300155D01*
X109093000Y-94107000D01*
X109347000Y-94107000D01*
X109347000Y-95300155D01*
X109576890Y-95421476D01*
X109724099Y-95376825D01*
X109986920Y-95251641D01*
X110220269Y-95077588D01*
X110415178Y-94861355D01*
X110564157Y-94611252D01*
X110630079Y-94425413D01*
X118932192Y-94425413D01*
X119027956Y-94689814D01*
X119317571Y-94830704D01*
X119629108Y-94912384D01*
X119950595Y-94931718D01*
X120269675Y-94887961D01*
X120574088Y-94782795D01*
X120748044Y-94689814D01*
X120843808Y-94425413D01*
X125432192Y-94425413D01*
X125527956Y-94689814D01*
X125817571Y-94830704D01*
X126129108Y-94912384D01*
X126450595Y-94931718D01*
X126769675Y-94887961D01*
X127074088Y-94782795D01*
X127248044Y-94689814D01*
X127343808Y-94425413D01*
X126388000Y-93469605D01*
X125432192Y-94425413D01*
X120843808Y-94425413D01*
X119888000Y-93469605D01*
X118932192Y-94425413D01*
X110630079Y-94425413D01*
X110661481Y-94336891D01*
X110540814Y-94107000D01*
X109347000Y-94107000D01*
X109093000Y-94107000D01*
X109073000Y-94107000D01*
X109073000Y-93853000D01*
X109093000Y-93853000D01*
X109093000Y-92659845D01*
X109347000Y-92659845D01*
X109347000Y-93853000D01*
X110540814Y-93853000D01*
X110661481Y-93623109D01*
X110565522Y-93352595D01*
X118246282Y-93352595D01*
X118290039Y-93671675D01*
X118395205Y-93976088D01*
X118488186Y-94150044D01*
X118752587Y-94245808D01*
X119708395Y-93290000D01*
X120067605Y-93290000D01*
X121023413Y-94245808D01*
X121287814Y-94150044D01*
X121428704Y-93860429D01*
X121510384Y-93548892D01*
X121522189Y-93352595D01*
X124746282Y-93352595D01*
X124790039Y-93671675D01*
X124895205Y-93976088D01*
X124988186Y-94150044D01*
X125252587Y-94245808D01*
X126208395Y-93290000D01*
X126567605Y-93290000D01*
X127523413Y-94245808D01*
X127787814Y-94150044D01*
X127928704Y-93860429D01*
X128010384Y-93548892D01*
X128029718Y-93227405D01*
X127985961Y-92908325D01*
X127880795Y-92603912D01*
X127787814Y-92429956D01*
X127523413Y-92334192D01*
X126567605Y-93290000D01*
X126208395Y-93290000D01*
X125252587Y-92334192D01*
X124988186Y-92429956D01*
X124847296Y-92719571D01*
X124765616Y-93031108D01*
X124746282Y-93352595D01*
X121522189Y-93352595D01*
X121529718Y-93227405D01*
X121485961Y-92908325D01*
X121380795Y-92603912D01*
X121287814Y-92429956D01*
X121023413Y-92334192D01*
X120067605Y-93290000D01*
X119708395Y-93290000D01*
X118752587Y-92334192D01*
X118488186Y-92429956D01*
X118347296Y-92719571D01*
X118265616Y-93031108D01*
X118246282Y-93352595D01*
X110565522Y-93352595D01*
X110564157Y-93348748D01*
X110415178Y-93098645D01*
X110220269Y-92882412D01*
X109986920Y-92708359D01*
X109724099Y-92583175D01*
X109576890Y-92538524D01*
X109347000Y-92659845D01*
X109093000Y-92659845D01*
X108863110Y-92538524D01*
X108715901Y-92583175D01*
X108453080Y-92708359D01*
X108219731Y-92882412D01*
X108024822Y-93098645D01*
X107955201Y-93215523D01*
X107920706Y-93150986D01*
X107735134Y-92924866D01*
X107509014Y-92739294D01*
X107251034Y-92601401D01*
X106971111Y-92516487D01*
X106752950Y-92495000D01*
X106607050Y-92495000D01*
X106388889Y-92516487D01*
X106108966Y-92601401D01*
X105850986Y-92739294D01*
X105624866Y-92924866D01*
X105439294Y-93150986D01*
X105410000Y-93205791D01*
X105380706Y-93150986D01*
X105195134Y-92924866D01*
X104969014Y-92739294D01*
X104711034Y-92601401D01*
X104431111Y-92516487D01*
X104212950Y-92495000D01*
X104067050Y-92495000D01*
X103848889Y-92516487D01*
X103568966Y-92601401D01*
X103310986Y-92739294D01*
X103084866Y-92924866D01*
X102899294Y-93150986D01*
X102870000Y-93205791D01*
X102840706Y-93150986D01*
X102655134Y-92924866D01*
X102429014Y-92739294D01*
X102171034Y-92601401D01*
X101891111Y-92516487D01*
X101672950Y-92495000D01*
X101527050Y-92495000D01*
X101308889Y-92516487D01*
X101028966Y-92601401D01*
X100770986Y-92739294D01*
X100544866Y-92924866D01*
X100359294Y-93150986D01*
X100330000Y-93205791D01*
X100300706Y-93150986D01*
X100115134Y-92924866D01*
X99889014Y-92739294D01*
X99631034Y-92601401D01*
X99351111Y-92516487D01*
X99132950Y-92495000D01*
X98987050Y-92495000D01*
X98768889Y-92516487D01*
X98488966Y-92601401D01*
X98230986Y-92739294D01*
X98004866Y-92924866D01*
X97819294Y-93150986D01*
X97790000Y-93205791D01*
X97760706Y-93150986D01*
X97575134Y-92924866D01*
X97349014Y-92739294D01*
X97091034Y-92601401D01*
X96811111Y-92516487D01*
X96592950Y-92495000D01*
X96447050Y-92495000D01*
X96228889Y-92516487D01*
X95948966Y-92601401D01*
X95690986Y-92739294D01*
X95464866Y-92924866D01*
X95279294Y-93150986D01*
X95250000Y-93205791D01*
X95220706Y-93150986D01*
X95035134Y-92924866D01*
X94809014Y-92739294D01*
X94551034Y-92601401D01*
X94271111Y-92516487D01*
X94052950Y-92495000D01*
X93907050Y-92495000D01*
X93688889Y-92516487D01*
X93408966Y-92601401D01*
X93150986Y-92739294D01*
X92924866Y-92924866D01*
X92739294Y-93150986D01*
X92710000Y-93205791D01*
X92680706Y-93150986D01*
X92495134Y-92924866D01*
X92269014Y-92739294D01*
X92011034Y-92601401D01*
X91731111Y-92516487D01*
X91512950Y-92495000D01*
X91367050Y-92495000D01*
X91148889Y-92516487D01*
X90868966Y-92601401D01*
X90610986Y-92739294D01*
X90384866Y-92924866D01*
X90199294Y-93150986D01*
X90170000Y-93205791D01*
X90140706Y-93150986D01*
X89955134Y-92924866D01*
X89729014Y-92739294D01*
X89471034Y-92601401D01*
X89191111Y-92516487D01*
X88972950Y-92495000D01*
X88827050Y-92495000D01*
X88608889Y-92516487D01*
X88328966Y-92601401D01*
X88070986Y-92739294D01*
X87844866Y-92924866D01*
X87820393Y-92954687D01*
X87799502Y-92885820D01*
X87740537Y-92775506D01*
X87661185Y-92678815D01*
X87564494Y-92599463D01*
X87454180Y-92540498D01*
X87334482Y-92504188D01*
X87210000Y-92491928D01*
X85510000Y-92491928D01*
X85385518Y-92504188D01*
X85265820Y-92540498D01*
X85155506Y-92599463D01*
X85058815Y-92678815D01*
X84979463Y-92775506D01*
X84920498Y-92885820D01*
X84884188Y-93005518D01*
X84871928Y-93130000D01*
X80035000Y-93130000D01*
X80035000Y-92154587D01*
X118932192Y-92154587D01*
X119888000Y-93110395D01*
X120843808Y-92154587D01*
X125432192Y-92154587D01*
X126388000Y-93110395D01*
X127343808Y-92154587D01*
X127248044Y-91890186D01*
X126958429Y-91749296D01*
X126646892Y-91667616D01*
X126325405Y-91648282D01*
X126006325Y-91692039D01*
X125701912Y-91797205D01*
X125527956Y-91890186D01*
X125432192Y-92154587D01*
X120843808Y-92154587D01*
X120748044Y-91890186D01*
X120458429Y-91749296D01*
X120146892Y-91667616D01*
X119825405Y-91648282D01*
X119506325Y-91692039D01*
X119201912Y-91797205D01*
X119027956Y-91890186D01*
X118932192Y-92154587D01*
X80035000Y-92154587D01*
X80035000Y-88995000D01*
X87456928Y-88995000D01*
X87456928Y-90345000D01*
X87469188Y-90469482D01*
X87505498Y-90589180D01*
X87564463Y-90699494D01*
X87643815Y-90796185D01*
X87740506Y-90875537D01*
X87850820Y-90934502D01*
X87970518Y-90970812D01*
X88095000Y-90983072D01*
X89445000Y-90983072D01*
X89569482Y-90970812D01*
X89689180Y-90934502D01*
X89799494Y-90875537D01*
X89896185Y-90796185D01*
X89969074Y-90707369D01*
X90038682Y-90764495D01*
X90266259Y-90886138D01*
X90513195Y-90961045D01*
X90705649Y-90980000D01*
X90834351Y-90980000D01*
X91026805Y-90961045D01*
X91273741Y-90886138D01*
X91501318Y-90764495D01*
X91700792Y-90600792D01*
X91770000Y-90516461D01*
X91839208Y-90600792D01*
X92038682Y-90764495D01*
X92266259Y-90886138D01*
X92513195Y-90961045D01*
X92705649Y-90980000D01*
X92834351Y-90980000D01*
X93026805Y-90961045D01*
X93273741Y-90886138D01*
X93501318Y-90764495D01*
X93700792Y-90600792D01*
X93770000Y-90516461D01*
X93839208Y-90600792D01*
X94038682Y-90764495D01*
X94266259Y-90886138D01*
X94513195Y-90961045D01*
X94705649Y-90980000D01*
X94834351Y-90980000D01*
X95026805Y-90961045D01*
X95273741Y-90886138D01*
X95501318Y-90764495D01*
X95700792Y-90600792D01*
X95770000Y-90516461D01*
X95839208Y-90600792D01*
X96038682Y-90764495D01*
X96266259Y-90886138D01*
X96513195Y-90961045D01*
X96705649Y-90980000D01*
X96834351Y-90980000D01*
X97026805Y-90961045D01*
X97273741Y-90886138D01*
X97501318Y-90764495D01*
X97700792Y-90600792D01*
X97770000Y-90516461D01*
X97839208Y-90600792D01*
X98038682Y-90764495D01*
X98266259Y-90886138D01*
X98513195Y-90961045D01*
X98705649Y-90980000D01*
X98834351Y-90980000D01*
X99026805Y-90961045D01*
X99273741Y-90886138D01*
X99501318Y-90764495D01*
X99700792Y-90600792D01*
X99770000Y-90516461D01*
X99839208Y-90600792D01*
X100038682Y-90764495D01*
X100266259Y-90886138D01*
X100513195Y-90961045D01*
X100705649Y-90980000D01*
X100834351Y-90980000D01*
X101026805Y-90961045D01*
X101273741Y-90886138D01*
X101501318Y-90764495D01*
X101700792Y-90600792D01*
X101770000Y-90516461D01*
X101839208Y-90600792D01*
X102038682Y-90764495D01*
X102266259Y-90886138D01*
X102513195Y-90961045D01*
X102705649Y-90980000D01*
X102834351Y-90980000D01*
X103026805Y-90961045D01*
X103273741Y-90886138D01*
X103501318Y-90764495D01*
X103700792Y-90600792D01*
X103770000Y-90516461D01*
X103839208Y-90600792D01*
X104038682Y-90764495D01*
X104266259Y-90886138D01*
X104513195Y-90961045D01*
X104705649Y-90980000D01*
X104834351Y-90980000D01*
X105026805Y-90961045D01*
X105273741Y-90886138D01*
X105501318Y-90764495D01*
X105700792Y-90600792D01*
X105773372Y-90512352D01*
X105898773Y-90648303D01*
X106106371Y-90799473D01*
X106339472Y-90907238D01*
X106440600Y-90937910D01*
X106643000Y-90814224D01*
X106643000Y-89797000D01*
X106897000Y-89797000D01*
X106897000Y-90814224D01*
X107099400Y-90937910D01*
X107200528Y-90907238D01*
X107433629Y-90799473D01*
X107641227Y-90648303D01*
X107815344Y-90459537D01*
X107949289Y-90240430D01*
X108037915Y-89999401D01*
X107915085Y-89797000D01*
X106897000Y-89797000D01*
X106643000Y-89797000D01*
X106623000Y-89797000D01*
X106623000Y-89543000D01*
X106643000Y-89543000D01*
X106643000Y-88525776D01*
X106440600Y-88402090D01*
X106339472Y-88432762D01*
X106106371Y-88540527D01*
X105898773Y-88691697D01*
X105773372Y-88827648D01*
X105700792Y-88739208D01*
X105501318Y-88575505D01*
X105273741Y-88453862D01*
X105026805Y-88378955D01*
X104834351Y-88360000D01*
X104705649Y-88360000D01*
X104513195Y-88378955D01*
X104266259Y-88453862D01*
X104038682Y-88575505D01*
X103839208Y-88739208D01*
X103770000Y-88823539D01*
X103700792Y-88739208D01*
X103501318Y-88575505D01*
X103273741Y-88453862D01*
X103026805Y-88378955D01*
X102834351Y-88360000D01*
X102705649Y-88360000D01*
X102513195Y-88378955D01*
X102266259Y-88453862D01*
X102038682Y-88575505D01*
X101839208Y-88739208D01*
X101770000Y-88823539D01*
X101700792Y-88739208D01*
X101501318Y-88575505D01*
X101273741Y-88453862D01*
X101026805Y-88378955D01*
X100834351Y-88360000D01*
X100705649Y-88360000D01*
X100513195Y-88378955D01*
X100266259Y-88453862D01*
X100038682Y-88575505D01*
X99839208Y-88739208D01*
X99770000Y-88823539D01*
X99700792Y-88739208D01*
X99501318Y-88575505D01*
X99273741Y-88453862D01*
X99026805Y-88378955D01*
X98834351Y-88360000D01*
X98705649Y-88360000D01*
X98513195Y-88378955D01*
X98266259Y-88453862D01*
X98038682Y-88575505D01*
X97839208Y-88739208D01*
X97770000Y-88823539D01*
X97700792Y-88739208D01*
X97501318Y-88575505D01*
X97273741Y-88453862D01*
X97026805Y-88378955D01*
X96834351Y-88360000D01*
X96705649Y-88360000D01*
X96513195Y-88378955D01*
X96266259Y-88453862D01*
X96038682Y-88575505D01*
X95839208Y-88739208D01*
X95770000Y-88823539D01*
X95700792Y-88739208D01*
X95501318Y-88575505D01*
X95273741Y-88453862D01*
X95026805Y-88378955D01*
X94834351Y-88360000D01*
X94705649Y-88360000D01*
X94513195Y-88378955D01*
X94266259Y-88453862D01*
X94038682Y-88575505D01*
X93839208Y-88739208D01*
X93770000Y-88823539D01*
X93700792Y-88739208D01*
X93501318Y-88575505D01*
X93273741Y-88453862D01*
X93026805Y-88378955D01*
X92834351Y-88360000D01*
X92705649Y-88360000D01*
X92513195Y-88378955D01*
X92266259Y-88453862D01*
X92038682Y-88575505D01*
X91839208Y-88739208D01*
X91770000Y-88823539D01*
X91700792Y-88739208D01*
X91501318Y-88575505D01*
X91273741Y-88453862D01*
X91026805Y-88378955D01*
X90834351Y-88360000D01*
X90705649Y-88360000D01*
X90513195Y-88378955D01*
X90266259Y-88453862D01*
X90038682Y-88575505D01*
X89969074Y-88632631D01*
X89896185Y-88543815D01*
X89799494Y-88464463D01*
X89689180Y-88405498D01*
X89569482Y-88369188D01*
X89445000Y-88356928D01*
X88095000Y-88356928D01*
X87970518Y-88369188D01*
X87850820Y-88405498D01*
X87740506Y-88464463D01*
X87643815Y-88543815D01*
X87564463Y-88640506D01*
X87505498Y-88750820D01*
X87469188Y-88870518D01*
X87456928Y-88995000D01*
X80035000Y-88995000D01*
X80035000Y-67189999D01*
X87006323Y-67189999D01*
X87010000Y-67227331D01*
X87009999Y-68112678D01*
X87006323Y-68150001D01*
X87009999Y-68187323D01*
X87009999Y-68187333D01*
X87020996Y-68298986D01*
X87029314Y-68326406D01*
X87064453Y-68442247D01*
X87135025Y-68574277D01*
X87154460Y-68597958D01*
X87229998Y-68690002D01*
X87259002Y-68713805D01*
X107004984Y-88459788D01*
X106897000Y-88525776D01*
X106897000Y-89543000D01*
X107915085Y-89543000D01*
X107980464Y-89435268D01*
X109766200Y-91221004D01*
X109789998Y-91250002D01*
X109818996Y-91273800D01*
X109905722Y-91344975D01*
X110037752Y-91415547D01*
X110181013Y-91459004D01*
X110292666Y-91470001D01*
X110292676Y-91470001D01*
X110329999Y-91473677D01*
X110367322Y-91470001D01*
X139843681Y-91470001D01*
X139881003Y-91473677D01*
X139918325Y-91470001D01*
X139918336Y-91470001D01*
X140029989Y-91459004D01*
X140173250Y-91415547D01*
X140305279Y-91344975D01*
X140421004Y-91250002D01*
X140444807Y-91220998D01*
X145180806Y-86485000D01*
X146334099Y-86485000D01*
X146356068Y-86526101D01*
X146535392Y-86744608D01*
X146753899Y-86923932D01*
X146886858Y-86995000D01*
X146753899Y-87066068D01*
X146535392Y-87245392D01*
X146356068Y-87463899D01*
X146222818Y-87713192D01*
X146140764Y-87983691D01*
X146113057Y-88265000D01*
X146140764Y-88546309D01*
X146222818Y-88816808D01*
X146356068Y-89066101D01*
X146535392Y-89284608D01*
X146753899Y-89463932D01*
X147003192Y-89597182D01*
X147273691Y-89679236D01*
X147484508Y-89700000D01*
X148425492Y-89700000D01*
X148636309Y-89679236D01*
X148906808Y-89597182D01*
X149156101Y-89463932D01*
X149374608Y-89284608D01*
X149553932Y-89066101D01*
X149687182Y-88816808D01*
X149738995Y-88646000D01*
X160559815Y-88646000D01*
X160588487Y-88937111D01*
X160673401Y-89217034D01*
X160811294Y-89475014D01*
X160996866Y-89701134D01*
X161222986Y-89886706D01*
X161480966Y-90024599D01*
X161760889Y-90109513D01*
X161979050Y-90131000D01*
X162124950Y-90131000D01*
X162343111Y-90109513D01*
X162623034Y-90024599D01*
X162881014Y-89886706D01*
X163107134Y-89701134D01*
X163292706Y-89475014D01*
X163322000Y-89420209D01*
X163351294Y-89475014D01*
X163536866Y-89701134D01*
X163762986Y-89886706D01*
X164020966Y-90024599D01*
X164300889Y-90109513D01*
X164519050Y-90131000D01*
X164664950Y-90131000D01*
X164883111Y-90109513D01*
X165163034Y-90024599D01*
X165421014Y-89886706D01*
X165647134Y-89701134D01*
X165832706Y-89475014D01*
X165862000Y-89420209D01*
X165891294Y-89475014D01*
X166076866Y-89701134D01*
X166302986Y-89886706D01*
X166560966Y-90024599D01*
X166840889Y-90109513D01*
X167059050Y-90131000D01*
X167204950Y-90131000D01*
X167423111Y-90109513D01*
X167703034Y-90024599D01*
X167961014Y-89886706D01*
X168187134Y-89701134D01*
X168372706Y-89475014D01*
X168402000Y-89420209D01*
X168431294Y-89475014D01*
X168616866Y-89701134D01*
X168842986Y-89886706D01*
X169100966Y-90024599D01*
X169380889Y-90109513D01*
X169599050Y-90131000D01*
X169744950Y-90131000D01*
X169963111Y-90109513D01*
X170243034Y-90024599D01*
X170501014Y-89886706D01*
X170727134Y-89701134D01*
X170912706Y-89475014D01*
X170942000Y-89420209D01*
X170971294Y-89475014D01*
X171156866Y-89701134D01*
X171382986Y-89886706D01*
X171640966Y-90024599D01*
X171920889Y-90109513D01*
X172139050Y-90131000D01*
X172284950Y-90131000D01*
X172503111Y-90109513D01*
X172783034Y-90024599D01*
X173041014Y-89886706D01*
X173267134Y-89701134D01*
X173452706Y-89475014D01*
X173482000Y-89420209D01*
X173511294Y-89475014D01*
X173696866Y-89701134D01*
X173922986Y-89886706D01*
X174180966Y-90024599D01*
X174460889Y-90109513D01*
X174679050Y-90131000D01*
X174824950Y-90131000D01*
X175043111Y-90109513D01*
X175323034Y-90024599D01*
X175581014Y-89886706D01*
X175807134Y-89701134D01*
X175992706Y-89475014D01*
X176022000Y-89420209D01*
X176051294Y-89475014D01*
X176236866Y-89701134D01*
X176462986Y-89886706D01*
X176720966Y-90024599D01*
X177000889Y-90109513D01*
X177219050Y-90131000D01*
X177364950Y-90131000D01*
X177583111Y-90109513D01*
X177863034Y-90024599D01*
X178121014Y-89886706D01*
X178347134Y-89701134D01*
X178532706Y-89475014D01*
X178562000Y-89420209D01*
X178591294Y-89475014D01*
X178776866Y-89701134D01*
X179002986Y-89886706D01*
X179260966Y-90024599D01*
X179540889Y-90109513D01*
X179759050Y-90131000D01*
X179904950Y-90131000D01*
X180123111Y-90109513D01*
X180403034Y-90024599D01*
X180661014Y-89886706D01*
X180887134Y-89701134D01*
X181072706Y-89475014D01*
X181102000Y-89420209D01*
X181131294Y-89475014D01*
X181316866Y-89701134D01*
X181542986Y-89886706D01*
X181800966Y-90024599D01*
X182080889Y-90109513D01*
X182299050Y-90131000D01*
X182444950Y-90131000D01*
X182663111Y-90109513D01*
X182943034Y-90024599D01*
X183201014Y-89886706D01*
X183427134Y-89701134D01*
X183451607Y-89671313D01*
X183472498Y-89740180D01*
X183531463Y-89850494D01*
X183610815Y-89947185D01*
X183707506Y-90026537D01*
X183817820Y-90085502D01*
X183937518Y-90121812D01*
X184062000Y-90134072D01*
X185762000Y-90134072D01*
X185886482Y-90121812D01*
X186006180Y-90085502D01*
X186116494Y-90026537D01*
X186213185Y-89947185D01*
X186292537Y-89850494D01*
X186351502Y-89740180D01*
X186387812Y-89620482D01*
X186400072Y-89496000D01*
X186400072Y-89306061D01*
X187179000Y-89306061D01*
X187179000Y-89509939D01*
X187218774Y-89709898D01*
X187296795Y-89898256D01*
X187410063Y-90067774D01*
X187554226Y-90211937D01*
X187723744Y-90325205D01*
X187912102Y-90403226D01*
X188016541Y-90424000D01*
X187912102Y-90444774D01*
X187723744Y-90522795D01*
X187554226Y-90636063D01*
X187410063Y-90780226D01*
X187296795Y-90949744D01*
X187218774Y-91138102D01*
X187179000Y-91338061D01*
X187179000Y-91541939D01*
X187218774Y-91741898D01*
X187296795Y-91930256D01*
X187410063Y-92099774D01*
X187554226Y-92243937D01*
X187723744Y-92357205D01*
X187912102Y-92435226D01*
X188112061Y-92475000D01*
X188315939Y-92475000D01*
X188515898Y-92435226D01*
X188704256Y-92357205D01*
X188873774Y-92243937D01*
X189017937Y-92099774D01*
X189131205Y-91930256D01*
X189209226Y-91741898D01*
X189249000Y-91541939D01*
X189249000Y-91338061D01*
X189209226Y-91138102D01*
X189131205Y-90949744D01*
X189017937Y-90780226D01*
X188873774Y-90636063D01*
X188704256Y-90522795D01*
X188515898Y-90444774D01*
X188411459Y-90424000D01*
X188515898Y-90403226D01*
X188704256Y-90325205D01*
X188873774Y-90211937D01*
X189017937Y-90067774D01*
X189131205Y-89898256D01*
X189209226Y-89709898D01*
X189249000Y-89509939D01*
X189249000Y-89306061D01*
X189209226Y-89106102D01*
X189131205Y-88917744D01*
X189017937Y-88748226D01*
X188873774Y-88604063D01*
X188704256Y-88490795D01*
X188515898Y-88412774D01*
X188315939Y-88373000D01*
X188112061Y-88373000D01*
X187912102Y-88412774D01*
X187723744Y-88490795D01*
X187554226Y-88604063D01*
X187410063Y-88748226D01*
X187296795Y-88917744D01*
X187218774Y-89106102D01*
X187179000Y-89306061D01*
X186400072Y-89306061D01*
X186400072Y-87796000D01*
X186387812Y-87671518D01*
X186351502Y-87551820D01*
X186292537Y-87441506D01*
X186213185Y-87344815D01*
X186116494Y-87265463D01*
X186006180Y-87206498D01*
X185886482Y-87170188D01*
X185762000Y-87157928D01*
X184062000Y-87157928D01*
X183937518Y-87170188D01*
X183817820Y-87206498D01*
X183707506Y-87265463D01*
X183610815Y-87344815D01*
X183531463Y-87441506D01*
X183472498Y-87551820D01*
X183451607Y-87620687D01*
X183427134Y-87590866D01*
X183201014Y-87405294D01*
X182943034Y-87267401D01*
X182663111Y-87182487D01*
X182444950Y-87161000D01*
X182299050Y-87161000D01*
X182080889Y-87182487D01*
X181800966Y-87267401D01*
X181542986Y-87405294D01*
X181316866Y-87590866D01*
X181131294Y-87816986D01*
X181102000Y-87871791D01*
X181072706Y-87816986D01*
X180887134Y-87590866D01*
X180661014Y-87405294D01*
X180403034Y-87267401D01*
X180123111Y-87182487D01*
X179904950Y-87161000D01*
X179759050Y-87161000D01*
X179540889Y-87182487D01*
X179260966Y-87267401D01*
X179002986Y-87405294D01*
X178776866Y-87590866D01*
X178591294Y-87816986D01*
X178562000Y-87871791D01*
X178532706Y-87816986D01*
X178347134Y-87590866D01*
X178121014Y-87405294D01*
X177863034Y-87267401D01*
X177583111Y-87182487D01*
X177364950Y-87161000D01*
X177219050Y-87161000D01*
X177000889Y-87182487D01*
X176720966Y-87267401D01*
X176462986Y-87405294D01*
X176236866Y-87590866D01*
X176051294Y-87816986D01*
X176022000Y-87871791D01*
X175992706Y-87816986D01*
X175807134Y-87590866D01*
X175581014Y-87405294D01*
X175323034Y-87267401D01*
X175043111Y-87182487D01*
X174824950Y-87161000D01*
X174679050Y-87161000D01*
X174460889Y-87182487D01*
X174180966Y-87267401D01*
X173922986Y-87405294D01*
X173696866Y-87590866D01*
X173511294Y-87816986D01*
X173482000Y-87871791D01*
X173452706Y-87816986D01*
X173267134Y-87590866D01*
X173041014Y-87405294D01*
X172783034Y-87267401D01*
X172503111Y-87182487D01*
X172284950Y-87161000D01*
X172139050Y-87161000D01*
X171920889Y-87182487D01*
X171640966Y-87267401D01*
X171382986Y-87405294D01*
X171156866Y-87590866D01*
X170971294Y-87816986D01*
X170942000Y-87871791D01*
X170912706Y-87816986D01*
X170727134Y-87590866D01*
X170501014Y-87405294D01*
X170243034Y-87267401D01*
X169963111Y-87182487D01*
X169744950Y-87161000D01*
X169599050Y-87161000D01*
X169380889Y-87182487D01*
X169100966Y-87267401D01*
X168842986Y-87405294D01*
X168616866Y-87590866D01*
X168431294Y-87816986D01*
X168402000Y-87871791D01*
X168372706Y-87816986D01*
X168187134Y-87590866D01*
X167961014Y-87405294D01*
X167703034Y-87267401D01*
X167423111Y-87182487D01*
X167204950Y-87161000D01*
X167059050Y-87161000D01*
X166840889Y-87182487D01*
X166560966Y-87267401D01*
X166302986Y-87405294D01*
X166076866Y-87590866D01*
X165891294Y-87816986D01*
X165862000Y-87871791D01*
X165832706Y-87816986D01*
X165647134Y-87590866D01*
X165421014Y-87405294D01*
X165163034Y-87267401D01*
X164883111Y-87182487D01*
X164664950Y-87161000D01*
X164519050Y-87161000D01*
X164300889Y-87182487D01*
X164020966Y-87267401D01*
X163762986Y-87405294D01*
X163536866Y-87590866D01*
X163351294Y-87816986D01*
X163322000Y-87871791D01*
X163292706Y-87816986D01*
X163107134Y-87590866D01*
X162881014Y-87405294D01*
X162623034Y-87267401D01*
X162343111Y-87182487D01*
X162124950Y-87161000D01*
X161979050Y-87161000D01*
X161760889Y-87182487D01*
X161480966Y-87267401D01*
X161222986Y-87405294D01*
X160996866Y-87590866D01*
X160811294Y-87816986D01*
X160673401Y-88074966D01*
X160588487Y-88354889D01*
X160559815Y-88646000D01*
X149738995Y-88646000D01*
X149769236Y-88546309D01*
X149796943Y-88265000D01*
X149769236Y-87983691D01*
X149687182Y-87713192D01*
X149553932Y-87463899D01*
X149374608Y-87245392D01*
X149156101Y-87066068D01*
X149023142Y-86995000D01*
X149156101Y-86923932D01*
X149374608Y-86744608D01*
X149553932Y-86526101D01*
X149687182Y-86276808D01*
X149769236Y-86006309D01*
X149796943Y-85725000D01*
X149769236Y-85443691D01*
X149687182Y-85173192D01*
X149553932Y-84923899D01*
X149374608Y-84705392D01*
X149156101Y-84526068D01*
X149023142Y-84455000D01*
X149156101Y-84383932D01*
X149374608Y-84204608D01*
X149553932Y-83986101D01*
X149687182Y-83736808D01*
X149769236Y-83466309D01*
X149796943Y-83185000D01*
X149769236Y-82903691D01*
X149687182Y-82633192D01*
X149553932Y-82383899D01*
X149374608Y-82165392D01*
X149156101Y-81986068D01*
X149023142Y-81915000D01*
X149156101Y-81843932D01*
X149374608Y-81664608D01*
X149553932Y-81446101D01*
X149687182Y-81196808D01*
X149769236Y-80926309D01*
X149796943Y-80645000D01*
X149769236Y-80363691D01*
X149687182Y-80093192D01*
X149553932Y-79843899D01*
X149374608Y-79625392D01*
X149156101Y-79446068D01*
X149023142Y-79375000D01*
X149156101Y-79303932D01*
X149374608Y-79124608D01*
X149553932Y-78906101D01*
X149687182Y-78656808D01*
X149769236Y-78386309D01*
X149796943Y-78105000D01*
X149769236Y-77823691D01*
X149687182Y-77553192D01*
X149553932Y-77303899D01*
X149374608Y-77085392D01*
X149156101Y-76906068D01*
X149023142Y-76835000D01*
X149156101Y-76763932D01*
X149374608Y-76584608D01*
X149553932Y-76366101D01*
X149687182Y-76116808D01*
X149769236Y-75846309D01*
X149796943Y-75565000D01*
X149769236Y-75283691D01*
X149687182Y-75013192D01*
X149553932Y-74763899D01*
X149374608Y-74545392D01*
X149156101Y-74366068D01*
X149023142Y-74295000D01*
X149156101Y-74223932D01*
X149374608Y-74044608D01*
X149553932Y-73826101D01*
X149687182Y-73576808D01*
X149769236Y-73306309D01*
X149796943Y-73025000D01*
X149769236Y-72743691D01*
X149699864Y-72515000D01*
X157546199Y-72515000D01*
X169399000Y-84367802D01*
X169399000Y-84429939D01*
X169438774Y-84629898D01*
X169516795Y-84818256D01*
X169630063Y-84987774D01*
X169774226Y-85131937D01*
X169943744Y-85245205D01*
X170132102Y-85323226D01*
X170332061Y-85363000D01*
X170535939Y-85363000D01*
X170735898Y-85323226D01*
X170924256Y-85245205D01*
X171093774Y-85131937D01*
X171237937Y-84987774D01*
X171351205Y-84818256D01*
X171429226Y-84629898D01*
X171469000Y-84429939D01*
X171469000Y-84226061D01*
X171429226Y-84026102D01*
X171351205Y-83837744D01*
X171237937Y-83668226D01*
X171214209Y-83644498D01*
X192083800Y-83644498D01*
X192083800Y-84114302D01*
X192175454Y-84575079D01*
X192355240Y-85009121D01*
X192616250Y-85399749D01*
X192948451Y-85731950D01*
X193339079Y-85992960D01*
X193773121Y-86172746D01*
X194233898Y-86264400D01*
X194703702Y-86264400D01*
X195164479Y-86172746D01*
X195598521Y-85992960D01*
X195989149Y-85731950D01*
X196321350Y-85399749D01*
X196582360Y-85009121D01*
X196762146Y-84575079D01*
X196853800Y-84114302D01*
X196853800Y-83644498D01*
X196762146Y-83183721D01*
X196582360Y-82749679D01*
X196321350Y-82359051D01*
X195989149Y-82026850D01*
X195598521Y-81765840D01*
X195164479Y-81586054D01*
X194703702Y-81494400D01*
X194233898Y-81494400D01*
X193773121Y-81586054D01*
X193339079Y-81765840D01*
X192948451Y-82026850D01*
X192616250Y-82359051D01*
X192355240Y-82749679D01*
X192175454Y-83183721D01*
X192083800Y-83644498D01*
X171214209Y-83644498D01*
X171093774Y-83524063D01*
X170924256Y-83410795D01*
X170735898Y-83332774D01*
X170535939Y-83293000D01*
X170473802Y-83293000D01*
X162579123Y-75398321D01*
X192287600Y-75398321D01*
X192287600Y-75818879D01*
X192369647Y-76231356D01*
X192530588Y-76619902D01*
X192764237Y-76969583D01*
X193061617Y-77266963D01*
X193411298Y-77500612D01*
X193799844Y-77661553D01*
X194212321Y-77743600D01*
X194632879Y-77743600D01*
X195045356Y-77661553D01*
X195433902Y-77500612D01*
X195783583Y-77266963D01*
X196080963Y-76969583D01*
X196314612Y-76619902D01*
X196475553Y-76231356D01*
X196557600Y-75818879D01*
X196557600Y-75398321D01*
X196475553Y-74985844D01*
X196314612Y-74597298D01*
X196080963Y-74247617D01*
X195783583Y-73950237D01*
X195433902Y-73716588D01*
X195045356Y-73555647D01*
X194632879Y-73473600D01*
X194212321Y-73473600D01*
X193799844Y-73555647D01*
X193411298Y-73716588D01*
X193061617Y-73950237D01*
X192764237Y-74247617D01*
X192530588Y-74597298D01*
X192369647Y-74985844D01*
X192287600Y-75398321D01*
X162579123Y-75398321D01*
X158424804Y-71244003D01*
X158401001Y-71214999D01*
X158285276Y-71120026D01*
X158153247Y-71049454D01*
X158009986Y-71005997D01*
X157898333Y-70995000D01*
X157898322Y-70995000D01*
X157861000Y-70991324D01*
X157823678Y-70995000D01*
X123197595Y-70995000D01*
X123160706Y-70925986D01*
X122975134Y-70699866D01*
X122749014Y-70514294D01*
X122491034Y-70376401D01*
X122211111Y-70291487D01*
X121992950Y-70270000D01*
X121847050Y-70270000D01*
X121628889Y-70291487D01*
X121348966Y-70376401D01*
X121090986Y-70514294D01*
X120864866Y-70699866D01*
X120679294Y-70925986D01*
X120591339Y-71090539D01*
X119649801Y-70149002D01*
X119625998Y-70119998D01*
X119510273Y-70025025D01*
X119378244Y-69954453D01*
X119234983Y-69910996D01*
X119123330Y-69899999D01*
X119123319Y-69899999D01*
X119085997Y-69896323D01*
X119048675Y-69899999D01*
X108074801Y-69899999D01*
X107110468Y-68935666D01*
X107273741Y-68886138D01*
X107501318Y-68764495D01*
X107700792Y-68600792D01*
X107864495Y-68401318D01*
X107986138Y-68173741D01*
X108061045Y-67926805D01*
X108086338Y-67670000D01*
X108061045Y-67413195D01*
X107986138Y-67166259D01*
X107864495Y-66938682D01*
X107700792Y-66739208D01*
X107501318Y-66575505D01*
X107273741Y-66453862D01*
X107026805Y-66378955D01*
X106834351Y-66360000D01*
X106705649Y-66360000D01*
X106513195Y-66378955D01*
X106266259Y-66453862D01*
X106038682Y-66575505D01*
X105839208Y-66739208D01*
X105770000Y-66823539D01*
X105700792Y-66739208D01*
X105501318Y-66575505D01*
X105273741Y-66453862D01*
X105026805Y-66378955D01*
X104834351Y-66360000D01*
X104705649Y-66360000D01*
X104513195Y-66378955D01*
X104266259Y-66453862D01*
X104038682Y-66575505D01*
X103839208Y-66739208D01*
X103770000Y-66823539D01*
X103700792Y-66739208D01*
X103501318Y-66575505D01*
X103273741Y-66453862D01*
X103026805Y-66378955D01*
X102834351Y-66360000D01*
X102705649Y-66360000D01*
X102513195Y-66378955D01*
X102266259Y-66453862D01*
X102038682Y-66575505D01*
X101839208Y-66739208D01*
X101770000Y-66823539D01*
X101700792Y-66739208D01*
X101501318Y-66575505D01*
X101273741Y-66453862D01*
X101026805Y-66378955D01*
X100834351Y-66360000D01*
X100705649Y-66360000D01*
X100513195Y-66378955D01*
X100266259Y-66453862D01*
X100038682Y-66575505D01*
X99839208Y-66739208D01*
X99770000Y-66823539D01*
X99700792Y-66739208D01*
X99501318Y-66575505D01*
X99273741Y-66453862D01*
X99026805Y-66378955D01*
X98834351Y-66360000D01*
X98705649Y-66360000D01*
X98550119Y-66375318D01*
X98443401Y-66268600D01*
X158178057Y-66268600D01*
X158205764Y-66549909D01*
X158287818Y-66820408D01*
X158421068Y-67069701D01*
X158600392Y-67288208D01*
X158818899Y-67467532D01*
X158951858Y-67538600D01*
X158818899Y-67609668D01*
X158600392Y-67788992D01*
X158421068Y-68007499D01*
X158287818Y-68256792D01*
X158205764Y-68527291D01*
X158178057Y-68808600D01*
X158205764Y-69089909D01*
X158287818Y-69360408D01*
X158421068Y-69609701D01*
X158600392Y-69828208D01*
X158818899Y-70007532D01*
X159068192Y-70140782D01*
X159338691Y-70222836D01*
X159549508Y-70243600D01*
X160490492Y-70243600D01*
X160701309Y-70222836D01*
X160971808Y-70140782D01*
X161221101Y-70007532D01*
X161439608Y-69828208D01*
X161618932Y-69609701D01*
X161752182Y-69360408D01*
X161834236Y-69089909D01*
X161861943Y-68808600D01*
X161834236Y-68527291D01*
X161752182Y-68256792D01*
X161618932Y-68007499D01*
X161439608Y-67788992D01*
X161221101Y-67609668D01*
X161088142Y-67538600D01*
X161221101Y-67467532D01*
X161439608Y-67288208D01*
X161618932Y-67069701D01*
X161752182Y-66820408D01*
X161834236Y-66549909D01*
X161861943Y-66268600D01*
X165798057Y-66268600D01*
X165825764Y-66549909D01*
X165907818Y-66820408D01*
X166041068Y-67069701D01*
X166220392Y-67288208D01*
X166333482Y-67381019D01*
X166315518Y-67382788D01*
X166195820Y-67419098D01*
X166085506Y-67478063D01*
X165988815Y-67557415D01*
X165909463Y-67654106D01*
X165850498Y-67764420D01*
X165814188Y-67884118D01*
X165801928Y-68008600D01*
X165801928Y-69608600D01*
X165814188Y-69733082D01*
X165850498Y-69852780D01*
X165909463Y-69963094D01*
X165988815Y-70059785D01*
X166085506Y-70139137D01*
X166195820Y-70198102D01*
X166315518Y-70234412D01*
X166440000Y-70246672D01*
X168840000Y-70246672D01*
X168964482Y-70234412D01*
X169084180Y-70198102D01*
X169194494Y-70139137D01*
X169291185Y-70059785D01*
X169370537Y-69963094D01*
X169429502Y-69852780D01*
X169465812Y-69733082D01*
X169478072Y-69608600D01*
X169478072Y-68008600D01*
X176844528Y-68008600D01*
X176844528Y-69608600D01*
X176856788Y-69733082D01*
X176893098Y-69852780D01*
X176952063Y-69963094D01*
X177031415Y-70059785D01*
X177128106Y-70139137D01*
X177238420Y-70198102D01*
X177358118Y-70234412D01*
X177482600Y-70246672D01*
X179082600Y-70246672D01*
X179207082Y-70234412D01*
X179326780Y-70198102D01*
X179437094Y-70139137D01*
X179533785Y-70059785D01*
X179613137Y-69963094D01*
X179672102Y-69852780D01*
X179708412Y-69733082D01*
X179720672Y-69608600D01*
X179720672Y-68008600D01*
X179715748Y-67958600D01*
X188224528Y-67958600D01*
X188224528Y-69658600D01*
X188236788Y-69783082D01*
X188273098Y-69902780D01*
X188332063Y-70013094D01*
X188411415Y-70109785D01*
X188508106Y-70189137D01*
X188618420Y-70248102D01*
X188660290Y-70260803D01*
X188559125Y-70361968D01*
X188396610Y-70605189D01*
X188284668Y-70875442D01*
X188227600Y-71162340D01*
X188227600Y-71454860D01*
X188284668Y-71741758D01*
X188396610Y-72012011D01*
X188559125Y-72255232D01*
X188765968Y-72462075D01*
X189009189Y-72624590D01*
X189279442Y-72736532D01*
X189566340Y-72793600D01*
X189858860Y-72793600D01*
X190145758Y-72736532D01*
X190416011Y-72624590D01*
X190659232Y-72462075D01*
X190712600Y-72408707D01*
X190765968Y-72462075D01*
X191009189Y-72624590D01*
X191279442Y-72736532D01*
X191566340Y-72793600D01*
X191858860Y-72793600D01*
X192145758Y-72736532D01*
X192416011Y-72624590D01*
X192659232Y-72462075D01*
X192866075Y-72255232D01*
X193028590Y-72012011D01*
X193140532Y-71741758D01*
X193197600Y-71454860D01*
X193197600Y-71162340D01*
X193140532Y-70875442D01*
X193028590Y-70605189D01*
X192866075Y-70361968D01*
X192659232Y-70155125D01*
X192496190Y-70046184D01*
X192561392Y-69836997D01*
X191712600Y-68988205D01*
X191698458Y-69002348D01*
X191518853Y-68822743D01*
X191532995Y-68808600D01*
X191892205Y-68808600D01*
X192740997Y-69657392D01*
X192990072Y-69579757D01*
X193115971Y-69315717D01*
X193187939Y-69032189D01*
X193203211Y-68740069D01*
X193161199Y-68450581D01*
X193063519Y-68174853D01*
X192990072Y-68037443D01*
X192740997Y-67959808D01*
X191892205Y-68808600D01*
X191532995Y-68808600D01*
X191518853Y-68794458D01*
X191698458Y-68614853D01*
X191712600Y-68628995D01*
X192561392Y-67780203D01*
X192483757Y-67531128D01*
X192219717Y-67405229D01*
X191936189Y-67333261D01*
X191644069Y-67317989D01*
X191354581Y-67360001D01*
X191078853Y-67457681D01*
X191002750Y-67498359D01*
X190917094Y-67428063D01*
X190806780Y-67369098D01*
X190687082Y-67332788D01*
X190562600Y-67320528D01*
X188862600Y-67320528D01*
X188738118Y-67332788D01*
X188618420Y-67369098D01*
X188508106Y-67428063D01*
X188411415Y-67507415D01*
X188332063Y-67604106D01*
X188273098Y-67714420D01*
X188236788Y-67834118D01*
X188224528Y-67958600D01*
X179715748Y-67958600D01*
X179708412Y-67884118D01*
X179672102Y-67764420D01*
X179613137Y-67654106D01*
X179533785Y-67557415D01*
X179437094Y-67478063D01*
X179326780Y-67419098D01*
X179207082Y-67382788D01*
X179082600Y-67370528D01*
X179075385Y-67370528D01*
X179095697Y-67301302D01*
X178282600Y-66488205D01*
X177469503Y-67301302D01*
X177489815Y-67370528D01*
X177482600Y-67370528D01*
X177358118Y-67382788D01*
X177238420Y-67419098D01*
X177128106Y-67478063D01*
X177031415Y-67557415D01*
X176952063Y-67654106D01*
X176893098Y-67764420D01*
X176856788Y-67884118D01*
X176844528Y-68008600D01*
X169478072Y-68008600D01*
X169465812Y-67884118D01*
X169429502Y-67764420D01*
X169370537Y-67654106D01*
X169291185Y-67557415D01*
X169194494Y-67478063D01*
X169084180Y-67419098D01*
X168964482Y-67382788D01*
X168946518Y-67381019D01*
X169059608Y-67288208D01*
X169238932Y-67069701D01*
X169372182Y-66820408D01*
X169454236Y-66549909D01*
X169471058Y-66379112D01*
X176842383Y-66379112D01*
X176883813Y-66658730D01*
X176978997Y-66924892D01*
X177045929Y-67050114D01*
X177289898Y-67121697D01*
X178102995Y-66308600D01*
X178462205Y-66308600D01*
X179275302Y-67121697D01*
X179519271Y-67050114D01*
X179640171Y-66794604D01*
X179708900Y-66520416D01*
X179722817Y-66238088D01*
X179681387Y-65958470D01*
X179586203Y-65692308D01*
X179519271Y-65567086D01*
X179275302Y-65495503D01*
X178462205Y-66308600D01*
X178102995Y-66308600D01*
X177289898Y-65495503D01*
X177045929Y-65567086D01*
X176925029Y-65822596D01*
X176856300Y-66096784D01*
X176842383Y-66379112D01*
X169471058Y-66379112D01*
X169481943Y-66268600D01*
X169454236Y-65987291D01*
X169372182Y-65716792D01*
X169238932Y-65467499D01*
X169114517Y-65315898D01*
X177469503Y-65315898D01*
X178282600Y-66128995D01*
X179095697Y-65315898D01*
X179024114Y-65071929D01*
X178768604Y-64951029D01*
X178494416Y-64882300D01*
X178212088Y-64868383D01*
X177932470Y-64909813D01*
X177666308Y-65004997D01*
X177541086Y-65071929D01*
X177469503Y-65315898D01*
X169114517Y-65315898D01*
X169059608Y-65248992D01*
X168841101Y-65069668D01*
X168591808Y-64936418D01*
X168321309Y-64854364D01*
X168110492Y-64833600D01*
X167169508Y-64833600D01*
X166958691Y-64854364D01*
X166688192Y-64936418D01*
X166438899Y-65069668D01*
X166220392Y-65248992D01*
X166041068Y-65467499D01*
X165907818Y-65716792D01*
X165825764Y-65987291D01*
X165798057Y-66268600D01*
X161861943Y-66268600D01*
X161834236Y-65987291D01*
X161752182Y-65716792D01*
X161618932Y-65467499D01*
X161439608Y-65248992D01*
X161221101Y-65069668D01*
X160971808Y-64936418D01*
X160701309Y-64854364D01*
X160490492Y-64833600D01*
X159549508Y-64833600D01*
X159338691Y-64854364D01*
X159068192Y-64936418D01*
X158818899Y-65069668D01*
X158600392Y-65248992D01*
X158421068Y-65467499D01*
X158287818Y-65716792D01*
X158205764Y-65987291D01*
X158178057Y-66268600D01*
X98443401Y-66268600D01*
X98333803Y-66159002D01*
X98310000Y-66129998D01*
X98194275Y-66035025D01*
X98062246Y-65964453D01*
X97918985Y-65920996D01*
X97807332Y-65909999D01*
X97807321Y-65909999D01*
X97769999Y-65906323D01*
X97732677Y-65909999D01*
X88327321Y-65909999D01*
X88289998Y-65906323D01*
X88252675Y-65909999D01*
X88252666Y-65909999D01*
X88141013Y-65920996D01*
X88017476Y-65958470D01*
X87997752Y-65964453D01*
X87865722Y-66035025D01*
X87790469Y-66096784D01*
X87749998Y-66129998D01*
X87726199Y-66158997D01*
X87258997Y-66626200D01*
X87229999Y-66649998D01*
X87206201Y-66678996D01*
X87206200Y-66678997D01*
X87135025Y-66765723D01*
X87064453Y-66897753D01*
X87034955Y-66995000D01*
X87020997Y-67041013D01*
X87013050Y-67121697D01*
X87006323Y-67189999D01*
X80035000Y-67189999D01*
X80035000Y-57810000D01*
X90340198Y-57810000D01*
X86725996Y-61424203D01*
X86725996Y-61424203D01*
G37*
X86725996Y-61424203D02*
X86651111Y-61401487D01*
X86432950Y-61380000D01*
X86287050Y-61380000D01*
X86068889Y-61401487D01*
X85788966Y-61486401D01*
X85530986Y-61624294D01*
X85304866Y-61809866D01*
X85119294Y-62035986D01*
X84981401Y-62293966D01*
X84896487Y-62573889D01*
X84867815Y-62865000D01*
X84896487Y-63156111D01*
X84981401Y-63436034D01*
X85119294Y-63694014D01*
X85304866Y-63920134D01*
X85530986Y-64105706D01*
X85788966Y-64243599D01*
X86068889Y-64328513D01*
X86287050Y-64350000D01*
X86432950Y-64350000D01*
X86651111Y-64328513D01*
X86931034Y-64243599D01*
X87189014Y-64105706D01*
X87415134Y-63920134D01*
X87600706Y-63694014D01*
X87630000Y-63639209D01*
X87659294Y-63694014D01*
X87844866Y-63920134D01*
X88070986Y-64105706D01*
X88328966Y-64243599D01*
X88608889Y-64328513D01*
X88827050Y-64350000D01*
X88972950Y-64350000D01*
X89191111Y-64328513D01*
X89471034Y-64243599D01*
X89729014Y-64105706D01*
X89955134Y-63920134D01*
X90140706Y-63694014D01*
X90170000Y-63639209D01*
X90199294Y-63694014D01*
X90384866Y-63920134D01*
X90610986Y-64105706D01*
X90868966Y-64243599D01*
X91148889Y-64328513D01*
X91367050Y-64350000D01*
X91512950Y-64350000D01*
X91731111Y-64328513D01*
X92011034Y-64243599D01*
X92269014Y-64105706D01*
X92495134Y-63920134D01*
X92680706Y-63694014D01*
X92710000Y-63639209D01*
X92739294Y-63694014D01*
X92924866Y-63920134D01*
X93150986Y-64105706D01*
X93408966Y-64243599D01*
X93688889Y-64328513D01*
X93907050Y-64350000D01*
X94052950Y-64350000D01*
X94271111Y-64328513D01*
X94551034Y-64243599D01*
X94809014Y-64105706D01*
X95035134Y-63920134D01*
X95220706Y-63694014D01*
X95250000Y-63639209D01*
X95279294Y-63694014D01*
X95464866Y-63920134D01*
X95690986Y-64105706D01*
X95948966Y-64243599D01*
X96228889Y-64328513D01*
X96447050Y-64350000D01*
X96592950Y-64350000D01*
X96811111Y-64328513D01*
X97091034Y-64243599D01*
X97349014Y-64105706D01*
X97575134Y-63920134D01*
X97760706Y-63694014D01*
X97790000Y-63639209D01*
X97819294Y-63694014D01*
X98004866Y-63920134D01*
X98230986Y-64105706D01*
X98488966Y-64243599D01*
X98768889Y-64328513D01*
X98987050Y-64350000D01*
X99132950Y-64350000D01*
X99351111Y-64328513D01*
X99631034Y-64243599D01*
X99889014Y-64105706D01*
X100115134Y-63920134D01*
X100300706Y-63694014D01*
X100330000Y-63639209D01*
X100359294Y-63694014D01*
X100544866Y-63920134D01*
X100770986Y-64105706D01*
X101028966Y-64243599D01*
X101308889Y-64328513D01*
X101527050Y-64350000D01*
X101672950Y-64350000D01*
X101891111Y-64328513D01*
X102171034Y-64243599D01*
X102429014Y-64105706D01*
X102655134Y-63920134D01*
X102840706Y-63694014D01*
X102870000Y-63639209D01*
X102899294Y-63694014D01*
X103084866Y-63920134D01*
X103310986Y-64105706D01*
X103568966Y-64243599D01*
X103848889Y-64328513D01*
X104067050Y-64350000D01*
X104212950Y-64350000D01*
X104431111Y-64328513D01*
X104711034Y-64243599D01*
X104969014Y-64105706D01*
X105195134Y-63920134D01*
X105380706Y-63694014D01*
X105410000Y-63639209D01*
X105439294Y-63694014D01*
X105624866Y-63920134D01*
X105850986Y-64105706D01*
X106108966Y-64243599D01*
X106388889Y-64328513D01*
X106607050Y-64350000D01*
X106752950Y-64350000D01*
X106971111Y-64328513D01*
X107251034Y-64243599D01*
X107509014Y-64105706D01*
X107735134Y-63920134D01*
X107759607Y-63890313D01*
X107780498Y-63959180D01*
X107839463Y-64069494D01*
X107918815Y-64166185D01*
X108015506Y-64245537D01*
X108125820Y-64304502D01*
X108245518Y-64340812D01*
X108370000Y-64353072D01*
X110070000Y-64353072D01*
X110194482Y-64340812D01*
X110314180Y-64304502D01*
X110424494Y-64245537D01*
X110521185Y-64166185D01*
X110600537Y-64069494D01*
X110659502Y-63959180D01*
X110695812Y-63839482D01*
X110708072Y-63715000D01*
X110708072Y-62015000D01*
X110695812Y-61890518D01*
X110686555Y-61860000D01*
X139431928Y-61860000D01*
X139444188Y-61984482D01*
X139480498Y-62104180D01*
X139539463Y-62214494D01*
X139618815Y-62311185D01*
X139715506Y-62390537D01*
X139825820Y-62449502D01*
X139844127Y-62455056D01*
X139777688Y-62521495D01*
X139609701Y-62772905D01*
X139493989Y-63052257D01*
X139435000Y-63348816D01*
X139435000Y-63651184D01*
X139493989Y-63947743D01*
X139609701Y-64227095D01*
X139777688Y-64478505D01*
X139991495Y-64692312D01*
X140242905Y-64860299D01*
X140522257Y-64976011D01*
X140818816Y-65035000D01*
X141121184Y-65035000D01*
X141417743Y-64976011D01*
X141697095Y-64860299D01*
X141948505Y-64692312D01*
X142162312Y-64478505D01*
X142330299Y-64227095D01*
X142446011Y-63947743D01*
X142505000Y-63651184D01*
X142505000Y-63348816D01*
X142446011Y-63052257D01*
X142330299Y-62772905D01*
X142162312Y-62521495D01*
X142095873Y-62455056D01*
X142114180Y-62449502D01*
X142224494Y-62390537D01*
X142321185Y-62311185D01*
X142400537Y-62214494D01*
X142459502Y-62104180D01*
X142495812Y-61984482D01*
X142508072Y-61860000D01*
X145781928Y-61860000D01*
X145794188Y-61984482D01*
X145830498Y-62104180D01*
X145889463Y-62214494D01*
X145968815Y-62311185D01*
X146065506Y-62390537D01*
X146175820Y-62449502D01*
X146194127Y-62455056D01*
X146127688Y-62521495D01*
X145959701Y-62772905D01*
X145843989Y-63052257D01*
X145785000Y-63348816D01*
X145785000Y-63651184D01*
X145843989Y-63947743D01*
X145959701Y-64227095D01*
X146127688Y-64478505D01*
X146341495Y-64692312D01*
X146592905Y-64860299D01*
X146872257Y-64976011D01*
X147168816Y-65035000D01*
X147471184Y-65035000D01*
X147767743Y-64976011D01*
X148047095Y-64860299D01*
X148298505Y-64692312D01*
X148512312Y-64478505D01*
X148680299Y-64227095D01*
X148796011Y-63947743D01*
X148855000Y-63651184D01*
X148855000Y-63348816D01*
X148796011Y-63052257D01*
X148680299Y-62772905D01*
X148512312Y-62521495D01*
X148445873Y-62455056D01*
X148464180Y-62449502D01*
X148574494Y-62390537D01*
X148671185Y-62311185D01*
X148750537Y-62214494D01*
X148809502Y-62104180D01*
X148845812Y-61984482D01*
X148858072Y-61860000D01*
X152131928Y-61860000D01*
X152144188Y-61984482D01*
X152180498Y-62104180D01*
X152239463Y-62214494D01*
X152318815Y-62311185D01*
X152415506Y-62390537D01*
X152525820Y-62449502D01*
X152544127Y-62455056D01*
X152477688Y-62521495D01*
X152309701Y-62772905D01*
X152193989Y-63052257D01*
X152135000Y-63348816D01*
X152135000Y-63651184D01*
X152193989Y-63947743D01*
X152309701Y-64227095D01*
X152477688Y-64478505D01*
X152691495Y-64692312D01*
X152942905Y-64860299D01*
X153222257Y-64976011D01*
X153518816Y-65035000D01*
X153821184Y-65035000D01*
X154117743Y-64976011D01*
X154397095Y-64860299D01*
X154648505Y-64692312D01*
X154862312Y-64478505D01*
X154982707Y-64298321D01*
X192287600Y-64298321D01*
X192287600Y-64718879D01*
X192369647Y-65131356D01*
X192530588Y-65519902D01*
X192764237Y-65869583D01*
X193061617Y-66166963D01*
X193411298Y-66400612D01*
X193799844Y-66561553D01*
X194212321Y-66643600D01*
X194632879Y-66643600D01*
X195045356Y-66561553D01*
X195433902Y-66400612D01*
X195783583Y-66166963D01*
X196080963Y-65869583D01*
X196314612Y-65519902D01*
X196475553Y-65131356D01*
X196557600Y-64718879D01*
X196557600Y-64298321D01*
X196475553Y-63885844D01*
X196314612Y-63497298D01*
X196080963Y-63147617D01*
X195783583Y-62850237D01*
X195433902Y-62616588D01*
X195045356Y-62455647D01*
X194632879Y-62373600D01*
X194212321Y-62373600D01*
X193799844Y-62455647D01*
X193411298Y-62616588D01*
X193061617Y-62850237D01*
X192764237Y-63147617D01*
X192530588Y-63497298D01*
X192369647Y-63885844D01*
X192287600Y-64298321D01*
X154982707Y-64298321D01*
X155030299Y-64227095D01*
X155146011Y-63947743D01*
X155205000Y-63651184D01*
X155205000Y-63348816D01*
X155146011Y-63052257D01*
X155030299Y-62772905D01*
X154862312Y-62521495D01*
X154795873Y-62455056D01*
X154814180Y-62449502D01*
X154861141Y-62424400D01*
X173740928Y-62424400D01*
X173753188Y-62548882D01*
X173789498Y-62668580D01*
X173848463Y-62778894D01*
X173927815Y-62875585D01*
X174024506Y-62954937D01*
X174134820Y-63013902D01*
X174254518Y-63050212D01*
X174379000Y-63062472D01*
X174993250Y-63059400D01*
X175152000Y-62900650D01*
X175152000Y-62001400D01*
X175406000Y-62001400D01*
X175406000Y-62900650D01*
X175564750Y-63059400D01*
X176179000Y-63062472D01*
X176303482Y-63050212D01*
X176423180Y-63013902D01*
X176533494Y-62954937D01*
X176630185Y-62875585D01*
X176709537Y-62778894D01*
X176768502Y-62668580D01*
X176804812Y-62548882D01*
X176817072Y-62424400D01*
X176814000Y-62160150D01*
X176655250Y-62001400D01*
X175406000Y-62001400D01*
X175152000Y-62001400D01*
X173902750Y-62001400D01*
X173744000Y-62160150D01*
X173740928Y-62424400D01*
X154861141Y-62424400D01*
X154924494Y-62390537D01*
X155021185Y-62311185D01*
X155100537Y-62214494D01*
X155159502Y-62104180D01*
X155195812Y-61984482D01*
X155208072Y-61860000D01*
X155205000Y-61245750D01*
X155046250Y-61087000D01*
X153797000Y-61087000D01*
X153797000Y-61107000D01*
X153543000Y-61107000D01*
X153543000Y-61087000D01*
X152293750Y-61087000D01*
X152135000Y-61245750D01*
X152131928Y-61860000D01*
X148858072Y-61860000D01*
X148855000Y-61245750D01*
X148696250Y-61087000D01*
X147447000Y-61087000D01*
X147447000Y-61107000D01*
X147193000Y-61107000D01*
X147193000Y-61087000D01*
X145943750Y-61087000D01*
X145785000Y-61245750D01*
X145781928Y-61860000D01*
X142508072Y-61860000D01*
X142505000Y-61245750D01*
X142346250Y-61087000D01*
X141097000Y-61087000D01*
X141097000Y-61107000D01*
X140843000Y-61107000D01*
X140843000Y-61087000D01*
X139593750Y-61087000D01*
X139435000Y-61245750D01*
X139431928Y-61860000D01*
X110686555Y-61860000D01*
X110659502Y-61770820D01*
X110600537Y-61660506D01*
X110521185Y-61563815D01*
X110424494Y-61484463D01*
X110314180Y-61425498D01*
X110194482Y-61389188D01*
X110070000Y-61376928D01*
X108370000Y-61376928D01*
X108245518Y-61389188D01*
X108125820Y-61425498D01*
X108015506Y-61484463D01*
X107918815Y-61563815D01*
X107839463Y-61660506D01*
X107780498Y-61770820D01*
X107759607Y-61839687D01*
X107735134Y-61809866D01*
X107509014Y-61624294D01*
X107251034Y-61486401D01*
X106971111Y-61401487D01*
X106752950Y-61380000D01*
X106607050Y-61380000D01*
X106388889Y-61401487D01*
X106108966Y-61486401D01*
X105850986Y-61624294D01*
X105624866Y-61809866D01*
X105439294Y-62035986D01*
X105410000Y-62090791D01*
X105380706Y-62035986D01*
X105195134Y-61809866D01*
X104969014Y-61624294D01*
X104711034Y-61486401D01*
X104431111Y-61401487D01*
X104212950Y-61380000D01*
X104067050Y-61380000D01*
X103848889Y-61401487D01*
X103568966Y-61486401D01*
X103310986Y-61624294D01*
X103084866Y-61809866D01*
X102899294Y-62035986D01*
X102870000Y-62090791D01*
X102840706Y-62035986D01*
X102655134Y-61809866D01*
X102429014Y-61624294D01*
X102171034Y-61486401D01*
X101891111Y-61401487D01*
X101672950Y-61380000D01*
X101527050Y-61380000D01*
X101308889Y-61401487D01*
X101028966Y-61486401D01*
X100770986Y-61624294D01*
X100544866Y-61809866D01*
X100359294Y-62035986D01*
X100330000Y-62090791D01*
X100300706Y-62035986D01*
X100115134Y-61809866D01*
X99889014Y-61624294D01*
X99631034Y-61486401D01*
X99351111Y-61401487D01*
X99132950Y-61380000D01*
X98987050Y-61380000D01*
X98768889Y-61401487D01*
X98488966Y-61486401D01*
X98230986Y-61624294D01*
X98004866Y-61809866D01*
X97819294Y-62035986D01*
X97790000Y-62090791D01*
X97760706Y-62035986D01*
X97575134Y-61809866D01*
X97349014Y-61624294D01*
X97091034Y-61486401D01*
X96811111Y-61401487D01*
X96592950Y-61380000D01*
X96447050Y-61380000D01*
X96228889Y-61401487D01*
X95948966Y-61486401D01*
X95690986Y-61624294D01*
X95464866Y-61809866D01*
X95279294Y-62035986D01*
X95250000Y-62090791D01*
X95220706Y-62035986D01*
X95035134Y-61809866D01*
X94809014Y-61624294D01*
X94551034Y-61486401D01*
X94271111Y-61401487D01*
X94052950Y-61380000D01*
X93907050Y-61380000D01*
X93688889Y-61401487D01*
X93408966Y-61486401D01*
X93150986Y-61624294D01*
X92924866Y-61809866D01*
X92739294Y-62035986D01*
X92710000Y-62090791D01*
X92680706Y-62035986D01*
X92495134Y-61809866D01*
X92269014Y-61624294D01*
X92011034Y-61486401D01*
X91731111Y-61401487D01*
X91512950Y-61380000D01*
X91367050Y-61380000D01*
X91148889Y-61401487D01*
X90868966Y-61486401D01*
X90610986Y-61624294D01*
X90384866Y-61809866D01*
X90199294Y-62035986D01*
X90170000Y-62090791D01*
X90140706Y-62035986D01*
X89955134Y-61809866D01*
X89729014Y-61624294D01*
X89660000Y-61587405D01*
X89660000Y-61276211D01*
X90876211Y-60060000D01*
X139431928Y-60060000D01*
X139435000Y-60674250D01*
X139593750Y-60833000D01*
X140843000Y-60833000D01*
X140843000Y-59583750D01*
X141097000Y-59583750D01*
X141097000Y-60833000D01*
X142346250Y-60833000D01*
X142505000Y-60674250D01*
X142508072Y-60060000D01*
X145781928Y-60060000D01*
X145785000Y-60674250D01*
X145943750Y-60833000D01*
X147193000Y-60833000D01*
X147193000Y-59583750D01*
X147447000Y-59583750D01*
X147447000Y-60833000D01*
X148696250Y-60833000D01*
X148855000Y-60674250D01*
X148858072Y-60060000D01*
X152131928Y-60060000D01*
X152135000Y-60674250D01*
X152293750Y-60833000D01*
X153543000Y-60833000D01*
X153543000Y-59583750D01*
X153797000Y-59583750D01*
X153797000Y-60833000D01*
X155046250Y-60833000D01*
X155205000Y-60674250D01*
X155208072Y-60060000D01*
X155195812Y-59935518D01*
X155159502Y-59815820D01*
X155100537Y-59705506D01*
X155021185Y-59608815D01*
X154924494Y-59529463D01*
X154814180Y-59470498D01*
X154694482Y-59434188D01*
X154570000Y-59421928D01*
X153955750Y-59425000D01*
X153797000Y-59583750D01*
X153543000Y-59583750D01*
X153384250Y-59425000D01*
X152770000Y-59421928D01*
X152645518Y-59434188D01*
X152525820Y-59470498D01*
X152415506Y-59529463D01*
X152318815Y-59608815D01*
X152239463Y-59705506D01*
X152180498Y-59815820D01*
X152144188Y-59935518D01*
X152131928Y-60060000D01*
X148858072Y-60060000D01*
X148845812Y-59935518D01*
X148809502Y-59815820D01*
X148750537Y-59705506D01*
X148671185Y-59608815D01*
X148574494Y-59529463D01*
X148464180Y-59470498D01*
X148344482Y-59434188D01*
X148220000Y-59421928D01*
X147605750Y-59425000D01*
X147447000Y-59583750D01*
X147193000Y-59583750D01*
X147034250Y-59425000D01*
X146420000Y-59421928D01*
X146295518Y-59434188D01*
X146175820Y-59470498D01*
X146065506Y-59529463D01*
X145968815Y-59608815D01*
X145889463Y-59705506D01*
X145830498Y-59815820D01*
X145794188Y-59935518D01*
X145781928Y-60060000D01*
X142508072Y-60060000D01*
X142495812Y-59935518D01*
X142459502Y-59815820D01*
X142400537Y-59705506D01*
X142321185Y-59608815D01*
X142224494Y-59529463D01*
X142114180Y-59470498D01*
X141994482Y-59434188D01*
X141870000Y-59421928D01*
X141255750Y-59425000D01*
X141097000Y-59583750D01*
X140843000Y-59583750D01*
X140684250Y-59425000D01*
X140070000Y-59421928D01*
X139945518Y-59434188D01*
X139825820Y-59470498D01*
X139715506Y-59529463D01*
X139618815Y-59608815D01*
X139539463Y-59705506D01*
X139480498Y-59815820D01*
X139444188Y-59935518D01*
X139431928Y-60060000D01*
X90876211Y-60060000D01*
X92068202Y-58868010D01*
X173762494Y-58868010D01*
X173758472Y-58881268D01*
X173740928Y-59059400D01*
X173740928Y-59416328D01*
X172584000Y-59416328D01*
X172405868Y-59433872D01*
X172234582Y-59485831D01*
X172076724Y-59570208D01*
X171938361Y-59683761D01*
X171824808Y-59822124D01*
X171740431Y-59979982D01*
X171688472Y-60151268D01*
X171670928Y-60329400D01*
X171670928Y-60879400D01*
X171688472Y-61057532D01*
X171740431Y-61228818D01*
X171824808Y-61386676D01*
X171938361Y-61525039D01*
X172076724Y-61638592D01*
X172234582Y-61722969D01*
X172405868Y-61774928D01*
X172584000Y-61792472D01*
X173834000Y-61792472D01*
X174012132Y-61774928D01*
X174102880Y-61747400D01*
X175152000Y-61747400D01*
X175152000Y-60848150D01*
X175406000Y-60848150D01*
X175406000Y-61747400D01*
X176655250Y-61747400D01*
X176814000Y-61588650D01*
X176817072Y-61324400D01*
X176804812Y-61199918D01*
X176768502Y-61080220D01*
X176709537Y-60969906D01*
X176630185Y-60873215D01*
X176533494Y-60793863D01*
X176423180Y-60734898D01*
X176303482Y-60698588D01*
X176179000Y-60686328D01*
X175564750Y-60689400D01*
X175406000Y-60848150D01*
X175152000Y-60848150D01*
X174993250Y-60689400D01*
X174747072Y-60688169D01*
X174747072Y-60522472D01*
X175904000Y-60522472D01*
X176082132Y-60504928D01*
X176253418Y-60452969D01*
X176411276Y-60368592D01*
X176549639Y-60255039D01*
X176663192Y-60116676D01*
X176747569Y-59958818D01*
X176799528Y-59787532D01*
X176817072Y-59609400D01*
X176817072Y-59059400D01*
X176799528Y-58881268D01*
X176795506Y-58868010D01*
X201428799Y-58868010D01*
X202624990Y-60064202D01*
X202624991Y-81794796D01*
X195644789Y-88775000D01*
X195140711Y-88775000D01*
X195096774Y-88731063D01*
X194927256Y-88617795D01*
X194738898Y-88539774D01*
X194538939Y-88500000D01*
X194335061Y-88500000D01*
X194135102Y-88539774D01*
X193946744Y-88617795D01*
X193777226Y-88731063D01*
X193633063Y-88875226D01*
X193519795Y-89044744D01*
X193441774Y-89233102D01*
X193402000Y-89433061D01*
X193402000Y-89636939D01*
X193441774Y-89836898D01*
X193519795Y-90025256D01*
X193633063Y-90194774D01*
X193777226Y-90338937D01*
X193946744Y-90452205D01*
X194135102Y-90530226D01*
X194177116Y-90538583D01*
X194031226Y-90636063D01*
X193887063Y-90780226D01*
X193773795Y-90949744D01*
X193695774Y-91138102D01*
X193656000Y-91338061D01*
X193656000Y-91541939D01*
X193695774Y-91741898D01*
X193773795Y-91930256D01*
X193887063Y-92099774D01*
X194031226Y-92243937D01*
X194200744Y-92357205D01*
X194389102Y-92435226D01*
X194589061Y-92475000D01*
X194792939Y-92475000D01*
X194992898Y-92435226D01*
X195181256Y-92357205D01*
X195350774Y-92243937D01*
X195494937Y-92099774D01*
X195608205Y-91930256D01*
X195686226Y-91741898D01*
X195726000Y-91541939D01*
X195726000Y-91479801D01*
X203810001Y-83395801D01*
X203810001Y-99670000D01*
X80035000Y-99670000D01*
X80035000Y-93130000D01*
X84871928Y-93130000D01*
X84871928Y-94830000D01*
X84884188Y-94954482D01*
X84920498Y-95074180D01*
X84979463Y-95184494D01*
X85058815Y-95281185D01*
X85155506Y-95360537D01*
X85265820Y-95419502D01*
X85385518Y-95455812D01*
X85510000Y-95468072D01*
X87210000Y-95468072D01*
X87334482Y-95455812D01*
X87454180Y-95419502D01*
X87564494Y-95360537D01*
X87661185Y-95281185D01*
X87740537Y-95184494D01*
X87799502Y-95074180D01*
X87820393Y-95005313D01*
X87844866Y-95035134D01*
X88070986Y-95220706D01*
X88328966Y-95358599D01*
X88608889Y-95443513D01*
X88827050Y-95465000D01*
X88972950Y-95465000D01*
X89191111Y-95443513D01*
X89471034Y-95358599D01*
X89729014Y-95220706D01*
X89955134Y-95035134D01*
X90140706Y-94809014D01*
X90170000Y-94754209D01*
X90199294Y-94809014D01*
X90384866Y-95035134D01*
X90610986Y-95220706D01*
X90868966Y-95358599D01*
X91148889Y-95443513D01*
X91367050Y-95465000D01*
X91512950Y-95465000D01*
X91731111Y-95443513D01*
X92011034Y-95358599D01*
X92269014Y-95220706D01*
X92495134Y-95035134D01*
X92680706Y-94809014D01*
X92710000Y-94754209D01*
X92739294Y-94809014D01*
X92924866Y-95035134D01*
X93150986Y-95220706D01*
X93408966Y-95358599D01*
X93688889Y-95443513D01*
X93907050Y-95465000D01*
X94052950Y-95465000D01*
X94271111Y-95443513D01*
X94551034Y-95358599D01*
X94809014Y-95220706D01*
X95035134Y-95035134D01*
X95220706Y-94809014D01*
X95250000Y-94754209D01*
X95279294Y-94809014D01*
X95464866Y-95035134D01*
X95690986Y-95220706D01*
X95763971Y-95259717D01*
X95770998Y-95331067D01*
X95784180Y-95374523D01*
X95814454Y-95474327D01*
X95885026Y-95606357D01*
X95937257Y-95670000D01*
X95980000Y-95722082D01*
X96008998Y-95745880D01*
X98564124Y-98301008D01*
X98587918Y-98330001D01*
X98616911Y-98353795D01*
X98616915Y-98353799D01*
X98687604Y-98411811D01*
X98703643Y-98424974D01*
X98835672Y-98495546D01*
X98978933Y-98539003D01*
X99090586Y-98550000D01*
X99090595Y-98550000D01*
X99127918Y-98553676D01*
X99165241Y-98550000D01*
X118433091Y-98550000D01*
X118439082Y-98564463D01*
X118618013Y-98832252D01*
X118845748Y-99059987D01*
X119113537Y-99238918D01*
X119411088Y-99362168D01*
X119726967Y-99425000D01*
X120049033Y-99425000D01*
X120364912Y-99362168D01*
X120662463Y-99238918D01*
X120930252Y-99059987D01*
X121157987Y-98832252D01*
X121336918Y-98564463D01*
X121460168Y-98266912D01*
X121523000Y-97951033D01*
X121523000Y-97628967D01*
X124753000Y-97628967D01*
X124753000Y-97951033D01*
X124815832Y-98266912D01*
X124939082Y-98564463D01*
X125118013Y-98832252D01*
X125345748Y-99059987D01*
X125613537Y-99238918D01*
X125911088Y-99362168D01*
X126226967Y-99425000D01*
X126549033Y-99425000D01*
X126864912Y-99362168D01*
X127162463Y-99238918D01*
X127430252Y-99059987D01*
X127657987Y-98832252D01*
X127836918Y-98564463D01*
X127960168Y-98266912D01*
X128023000Y-97951033D01*
X128023000Y-97628967D01*
X127960168Y-97313088D01*
X127836918Y-97015537D01*
X127657987Y-96747748D01*
X127430252Y-96520013D01*
X127162463Y-96341082D01*
X126864912Y-96217832D01*
X126549033Y-96155000D01*
X126226967Y-96155000D01*
X125911088Y-96217832D01*
X125613537Y-96341082D01*
X125345748Y-96520013D01*
X125118013Y-96747748D01*
X124939082Y-97015537D01*
X124815832Y-97313088D01*
X124753000Y-97628967D01*
X121523000Y-97628967D01*
X121460168Y-97313088D01*
X121336918Y-97015537D01*
X121157987Y-96747748D01*
X120930252Y-96520013D01*
X120662463Y-96341082D01*
X120364912Y-96217832D01*
X120049033Y-96155000D01*
X119726967Y-96155000D01*
X119411088Y-96217832D01*
X119113537Y-96341082D01*
X118845748Y-96520013D01*
X118618013Y-96747748D01*
X118439082Y-97015537D01*
X118433091Y-97030000D01*
X99442722Y-97030000D01*
X98082721Y-95670000D01*
X132496928Y-95670000D01*
X132496928Y-97370000D01*
X132509188Y-97494482D01*
X132545498Y-97614180D01*
X132604463Y-97724494D01*
X132683815Y-97821185D01*
X132780506Y-97900537D01*
X132890820Y-97959502D01*
X133010518Y-97995812D01*
X133135000Y-98008072D01*
X134835000Y-98008072D01*
X134959482Y-97995812D01*
X135079180Y-97959502D01*
X135189494Y-97900537D01*
X135286185Y-97821185D01*
X135365537Y-97724494D01*
X135424502Y-97614180D01*
X135445393Y-97545313D01*
X135469866Y-97575134D01*
X135695986Y-97760706D01*
X135953966Y-97898599D01*
X136233889Y-97983513D01*
X136452050Y-98005000D01*
X136597950Y-98005000D01*
X136816111Y-97983513D01*
X137096034Y-97898599D01*
X137354014Y-97760706D01*
X137580134Y-97575134D01*
X137765706Y-97349014D01*
X137795000Y-97294209D01*
X137824294Y-97349014D01*
X138009866Y-97575134D01*
X138235986Y-97760706D01*
X138493966Y-97898599D01*
X138773889Y-97983513D01*
X138992050Y-98005000D01*
X139137950Y-98005000D01*
X139356111Y-97983513D01*
X139636034Y-97898599D01*
X139894014Y-97760706D01*
X140120134Y-97575134D01*
X140305706Y-97349014D01*
X140335000Y-97294209D01*
X140364294Y-97349014D01*
X140549866Y-97575134D01*
X140775986Y-97760706D01*
X141033966Y-97898599D01*
X141313889Y-97983513D01*
X141532050Y-98005000D01*
X141677950Y-98005000D01*
X141896111Y-97983513D01*
X142176034Y-97898599D01*
X142434014Y-97760706D01*
X142660134Y-97575134D01*
X142845706Y-97349014D01*
X142875000Y-97294209D01*
X142904294Y-97349014D01*
X143089866Y-97575134D01*
X143315986Y-97760706D01*
X143573966Y-97898599D01*
X143853889Y-97983513D01*
X144072050Y-98005000D01*
X144217950Y-98005000D01*
X144436111Y-97983513D01*
X144716034Y-97898599D01*
X144974014Y-97760706D01*
X145200134Y-97575134D01*
X145385706Y-97349014D01*
X145415000Y-97294209D01*
X145444294Y-97349014D01*
X145629866Y-97575134D01*
X145855986Y-97760706D01*
X146113966Y-97898599D01*
X146393889Y-97983513D01*
X146612050Y-98005000D01*
X146757950Y-98005000D01*
X146976111Y-97983513D01*
X147256034Y-97898599D01*
X147514014Y-97760706D01*
X147740134Y-97575134D01*
X147925706Y-97349014D01*
X147960201Y-97284477D01*
X148029822Y-97401355D01*
X148224731Y-97617588D01*
X148458080Y-97791641D01*
X148720901Y-97916825D01*
X148868110Y-97961476D01*
X149098000Y-97840155D01*
X149098000Y-96647000D01*
X149078000Y-96647000D01*
X149078000Y-96393000D01*
X149098000Y-96393000D01*
X149098000Y-95199845D01*
X149352000Y-95199845D01*
X149352000Y-96393000D01*
X149372000Y-96393000D01*
X149372000Y-96647000D01*
X149352000Y-96647000D01*
X149352000Y-97840155D01*
X149581890Y-97961476D01*
X149729099Y-97916825D01*
X149991920Y-97791641D01*
X150225269Y-97617588D01*
X150420178Y-97401355D01*
X150489799Y-97284477D01*
X150524294Y-97349014D01*
X150709866Y-97575134D01*
X150935986Y-97760706D01*
X151193966Y-97898599D01*
X151473889Y-97983513D01*
X151692050Y-98005000D01*
X151837950Y-98005000D01*
X152056111Y-97983513D01*
X152336034Y-97898599D01*
X152594014Y-97760706D01*
X152820134Y-97575134D01*
X153005706Y-97349014D01*
X153035000Y-97294209D01*
X153064294Y-97349014D01*
X153249866Y-97575134D01*
X153475986Y-97760706D01*
X153733966Y-97898599D01*
X154013889Y-97983513D01*
X154232050Y-98005000D01*
X154377950Y-98005000D01*
X154596111Y-97983513D01*
X154876034Y-97898599D01*
X155134014Y-97760706D01*
X155360134Y-97575134D01*
X155545706Y-97349014D01*
X155683599Y-97091034D01*
X155768513Y-96811111D01*
X155771134Y-96784498D01*
X192083800Y-96784498D01*
X192083800Y-97254302D01*
X192175454Y-97715079D01*
X192355240Y-98149121D01*
X192616250Y-98539749D01*
X192948451Y-98871950D01*
X193339079Y-99132960D01*
X193773121Y-99312746D01*
X194233898Y-99404400D01*
X194703702Y-99404400D01*
X195164479Y-99312746D01*
X195598521Y-99132960D01*
X195989149Y-98871950D01*
X196321350Y-98539749D01*
X196582360Y-98149121D01*
X196762146Y-97715079D01*
X196853800Y-97254302D01*
X196853800Y-96784498D01*
X196762146Y-96323721D01*
X196582360Y-95889679D01*
X196321350Y-95499051D01*
X195989149Y-95166850D01*
X195598521Y-94905840D01*
X195164479Y-94726054D01*
X194703702Y-94634400D01*
X194233898Y-94634400D01*
X193773121Y-94726054D01*
X193339079Y-94905840D01*
X192948451Y-95166850D01*
X192616250Y-95499051D01*
X192355240Y-95889679D01*
X192175454Y-96323721D01*
X192083800Y-96784498D01*
X155771134Y-96784498D01*
X155797185Y-96520000D01*
X155768513Y-96228889D01*
X155683599Y-95948966D01*
X155545706Y-95690986D01*
X155360134Y-95464866D01*
X155134014Y-95279294D01*
X154876034Y-95141401D01*
X154596111Y-95056487D01*
X154377950Y-95035000D01*
X154232050Y-95035000D01*
X154013889Y-95056487D01*
X153733966Y-95141401D01*
X153475986Y-95279294D01*
X153249866Y-95464866D01*
X153064294Y-95690986D01*
X153035000Y-95745791D01*
X153005706Y-95690986D01*
X152820134Y-95464866D01*
X152594014Y-95279294D01*
X152336034Y-95141401D01*
X152056111Y-95056487D01*
X151837950Y-95035000D01*
X151692050Y-95035000D01*
X151473889Y-95056487D01*
X151193966Y-95141401D01*
X150935986Y-95279294D01*
X150709866Y-95464866D01*
X150524294Y-95690986D01*
X150489799Y-95755523D01*
X150420178Y-95638645D01*
X150225269Y-95422412D01*
X149991920Y-95248359D01*
X149729099Y-95123175D01*
X149581890Y-95078524D01*
X149352000Y-95199845D01*
X149098000Y-95199845D01*
X148868110Y-95078524D01*
X148720901Y-95123175D01*
X148458080Y-95248359D01*
X148224731Y-95422412D01*
X148029822Y-95638645D01*
X147960201Y-95755523D01*
X147925706Y-95690986D01*
X147740134Y-95464866D01*
X147514014Y-95279294D01*
X147256034Y-95141401D01*
X146976111Y-95056487D01*
X146757950Y-95035000D01*
X146612050Y-95035000D01*
X146393889Y-95056487D01*
X146113966Y-95141401D01*
X145855986Y-95279294D01*
X145629866Y-95464866D01*
X145444294Y-95690986D01*
X145415000Y-95745791D01*
X145385706Y-95690986D01*
X145200134Y-95464866D01*
X144974014Y-95279294D01*
X144716034Y-95141401D01*
X144436111Y-95056487D01*
X144217950Y-95035000D01*
X144072050Y-95035000D01*
X143853889Y-95056487D01*
X143573966Y-95141401D01*
X143315986Y-95279294D01*
X143089866Y-95464866D01*
X142904294Y-95690986D01*
X142875000Y-95745791D01*
X142845706Y-95690986D01*
X142660134Y-95464866D01*
X142434014Y-95279294D01*
X142176034Y-95141401D01*
X141896111Y-95056487D01*
X141677950Y-95035000D01*
X141532050Y-95035000D01*
X141313889Y-95056487D01*
X141033966Y-95141401D01*
X140775986Y-95279294D01*
X140549866Y-95464866D01*
X140364294Y-95690986D01*
X140335000Y-95745791D01*
X140305706Y-95690986D01*
X140120134Y-95464866D01*
X139894014Y-95279294D01*
X139636034Y-95141401D01*
X139356111Y-95056487D01*
X139137950Y-95035000D01*
X138992050Y-95035000D01*
X138773889Y-95056487D01*
X138493966Y-95141401D01*
X138235986Y-95279294D01*
X138009866Y-95464866D01*
X137824294Y-95690986D01*
X137795000Y-95745791D01*
X137765706Y-95690986D01*
X137580134Y-95464866D01*
X137354014Y-95279294D01*
X137096034Y-95141401D01*
X136816111Y-95056487D01*
X136597950Y-95035000D01*
X136452050Y-95035000D01*
X136233889Y-95056487D01*
X135953966Y-95141401D01*
X135695986Y-95279294D01*
X135469866Y-95464866D01*
X135445393Y-95494687D01*
X135424502Y-95425820D01*
X135365537Y-95315506D01*
X135286185Y-95218815D01*
X135189494Y-95139463D01*
X135079180Y-95080498D01*
X134959482Y-95044188D01*
X134835000Y-95031928D01*
X133135000Y-95031928D01*
X133010518Y-95044188D01*
X132890820Y-95080498D01*
X132780506Y-95139463D01*
X132683815Y-95218815D01*
X132604463Y-95315506D01*
X132545498Y-95425820D01*
X132509188Y-95545518D01*
X132496928Y-95670000D01*
X98082721Y-95670000D01*
X97505226Y-95092506D01*
X97575134Y-95035134D01*
X97760706Y-94809014D01*
X97790000Y-94754209D01*
X97819294Y-94809014D01*
X98004866Y-95035134D01*
X98230986Y-95220706D01*
X98488966Y-95358599D01*
X98768889Y-95443513D01*
X98987050Y-95465000D01*
X99132950Y-95465000D01*
X99351111Y-95443513D01*
X99631034Y-95358599D01*
X99889014Y-95220706D01*
X100115134Y-95035134D01*
X100300706Y-94809014D01*
X100330000Y-94754209D01*
X100359294Y-94809014D01*
X100544866Y-95035134D01*
X100770986Y-95220706D01*
X101028966Y-95358599D01*
X101308889Y-95443513D01*
X101527050Y-95465000D01*
X101672950Y-95465000D01*
X101891111Y-95443513D01*
X102171034Y-95358599D01*
X102429014Y-95220706D01*
X102655134Y-95035134D01*
X102840706Y-94809014D01*
X102870000Y-94754209D01*
X102899294Y-94809014D01*
X103084866Y-95035134D01*
X103310986Y-95220706D01*
X103568966Y-95358599D01*
X103848889Y-95443513D01*
X104067050Y-95465000D01*
X104212950Y-95465000D01*
X104431111Y-95443513D01*
X104711034Y-95358599D01*
X104969014Y-95220706D01*
X105195134Y-95035134D01*
X105380706Y-94809014D01*
X105410000Y-94754209D01*
X105439294Y-94809014D01*
X105624866Y-95035134D01*
X105850986Y-95220706D01*
X106108966Y-95358599D01*
X106388889Y-95443513D01*
X106607050Y-95465000D01*
X106752950Y-95465000D01*
X106971111Y-95443513D01*
X107251034Y-95358599D01*
X107509014Y-95220706D01*
X107735134Y-95035134D01*
X107920706Y-94809014D01*
X107955201Y-94744477D01*
X108024822Y-94861355D01*
X108219731Y-95077588D01*
X108453080Y-95251641D01*
X108715901Y-95376825D01*
X108863110Y-95421476D01*
X109093000Y-95300155D01*
X109093000Y-94107000D01*
X109347000Y-94107000D01*
X109347000Y-95300155D01*
X109576890Y-95421476D01*
X109724099Y-95376825D01*
X109986920Y-95251641D01*
X110220269Y-95077588D01*
X110415178Y-94861355D01*
X110564157Y-94611252D01*
X110630079Y-94425413D01*
X118932192Y-94425413D01*
X119027956Y-94689814D01*
X119317571Y-94830704D01*
X119629108Y-94912384D01*
X119950595Y-94931718D01*
X120269675Y-94887961D01*
X120574088Y-94782795D01*
X120748044Y-94689814D01*
X120843808Y-94425413D01*
X125432192Y-94425413D01*
X125527956Y-94689814D01*
X125817571Y-94830704D01*
X126129108Y-94912384D01*
X126450595Y-94931718D01*
X126769675Y-94887961D01*
X127074088Y-94782795D01*
X127248044Y-94689814D01*
X127343808Y-94425413D01*
X126388000Y-93469605D01*
X125432192Y-94425413D01*
X120843808Y-94425413D01*
X119888000Y-93469605D01*
X118932192Y-94425413D01*
X110630079Y-94425413D01*
X110661481Y-94336891D01*
X110540814Y-94107000D01*
X109347000Y-94107000D01*
X109093000Y-94107000D01*
X109073000Y-94107000D01*
X109073000Y-93853000D01*
X109093000Y-93853000D01*
X109093000Y-92659845D01*
X109347000Y-92659845D01*
X109347000Y-93853000D01*
X110540814Y-93853000D01*
X110661481Y-93623109D01*
X110565522Y-93352595D01*
X118246282Y-93352595D01*
X118290039Y-93671675D01*
X118395205Y-93976088D01*
X118488186Y-94150044D01*
X118752587Y-94245808D01*
X119708395Y-93290000D01*
X120067605Y-93290000D01*
X121023413Y-94245808D01*
X121287814Y-94150044D01*
X121428704Y-93860429D01*
X121510384Y-93548892D01*
X121522189Y-93352595D01*
X124746282Y-93352595D01*
X124790039Y-93671675D01*
X124895205Y-93976088D01*
X124988186Y-94150044D01*
X125252587Y-94245808D01*
X126208395Y-93290000D01*
X126567605Y-93290000D01*
X127523413Y-94245808D01*
X127787814Y-94150044D01*
X127928704Y-93860429D01*
X128010384Y-93548892D01*
X128029718Y-93227405D01*
X127985961Y-92908325D01*
X127880795Y-92603912D01*
X127787814Y-92429956D01*
X127523413Y-92334192D01*
X126567605Y-93290000D01*
X126208395Y-93290000D01*
X125252587Y-92334192D01*
X124988186Y-92429956D01*
X124847296Y-92719571D01*
X124765616Y-93031108D01*
X124746282Y-93352595D01*
X121522189Y-93352595D01*
X121529718Y-93227405D01*
X121485961Y-92908325D01*
X121380795Y-92603912D01*
X121287814Y-92429956D01*
X121023413Y-92334192D01*
X120067605Y-93290000D01*
X119708395Y-93290000D01*
X118752587Y-92334192D01*
X118488186Y-92429956D01*
X118347296Y-92719571D01*
X118265616Y-93031108D01*
X118246282Y-93352595D01*
X110565522Y-93352595D01*
X110564157Y-93348748D01*
X110415178Y-93098645D01*
X110220269Y-92882412D01*
X109986920Y-92708359D01*
X109724099Y-92583175D01*
X109576890Y-92538524D01*
X109347000Y-92659845D01*
X109093000Y-92659845D01*
X108863110Y-92538524D01*
X108715901Y-92583175D01*
X108453080Y-92708359D01*
X108219731Y-92882412D01*
X108024822Y-93098645D01*
X107955201Y-93215523D01*
X107920706Y-93150986D01*
X107735134Y-92924866D01*
X107509014Y-92739294D01*
X107251034Y-92601401D01*
X106971111Y-92516487D01*
X106752950Y-92495000D01*
X106607050Y-92495000D01*
X106388889Y-92516487D01*
X106108966Y-92601401D01*
X105850986Y-92739294D01*
X105624866Y-92924866D01*
X105439294Y-93150986D01*
X105410000Y-93205791D01*
X105380706Y-93150986D01*
X105195134Y-92924866D01*
X104969014Y-92739294D01*
X104711034Y-92601401D01*
X104431111Y-92516487D01*
X104212950Y-92495000D01*
X104067050Y-92495000D01*
X103848889Y-92516487D01*
X103568966Y-92601401D01*
X103310986Y-92739294D01*
X103084866Y-92924866D01*
X102899294Y-93150986D01*
X102870000Y-93205791D01*
X102840706Y-93150986D01*
X102655134Y-92924866D01*
X102429014Y-92739294D01*
X102171034Y-92601401D01*
X101891111Y-92516487D01*
X101672950Y-92495000D01*
X101527050Y-92495000D01*
X101308889Y-92516487D01*
X101028966Y-92601401D01*
X100770986Y-92739294D01*
X100544866Y-92924866D01*
X100359294Y-93150986D01*
X100330000Y-93205791D01*
X100300706Y-93150986D01*
X100115134Y-92924866D01*
X99889014Y-92739294D01*
X99631034Y-92601401D01*
X99351111Y-92516487D01*
X99132950Y-92495000D01*
X98987050Y-92495000D01*
X98768889Y-92516487D01*
X98488966Y-92601401D01*
X98230986Y-92739294D01*
X98004866Y-92924866D01*
X97819294Y-93150986D01*
X97790000Y-93205791D01*
X97760706Y-93150986D01*
X97575134Y-92924866D01*
X97349014Y-92739294D01*
X97091034Y-92601401D01*
X96811111Y-92516487D01*
X96592950Y-92495000D01*
X96447050Y-92495000D01*
X96228889Y-92516487D01*
X95948966Y-92601401D01*
X95690986Y-92739294D01*
X95464866Y-92924866D01*
X95279294Y-93150986D01*
X95250000Y-93205791D01*
X95220706Y-93150986D01*
X95035134Y-92924866D01*
X94809014Y-92739294D01*
X94551034Y-92601401D01*
X94271111Y-92516487D01*
X94052950Y-92495000D01*
X93907050Y-92495000D01*
X93688889Y-92516487D01*
X93408966Y-92601401D01*
X93150986Y-92739294D01*
X92924866Y-92924866D01*
X92739294Y-93150986D01*
X92710000Y-93205791D01*
X92680706Y-93150986D01*
X92495134Y-92924866D01*
X92269014Y-92739294D01*
X92011034Y-92601401D01*
X91731111Y-92516487D01*
X91512950Y-92495000D01*
X91367050Y-92495000D01*
X91148889Y-92516487D01*
X90868966Y-92601401D01*
X90610986Y-92739294D01*
X90384866Y-92924866D01*
X90199294Y-93150986D01*
X90170000Y-93205791D01*
X90140706Y-93150986D01*
X89955134Y-92924866D01*
X89729014Y-92739294D01*
X89471034Y-92601401D01*
X89191111Y-92516487D01*
X88972950Y-92495000D01*
X88827050Y-92495000D01*
X88608889Y-92516487D01*
X88328966Y-92601401D01*
X88070986Y-92739294D01*
X87844866Y-92924866D01*
X87820393Y-92954687D01*
X87799502Y-92885820D01*
X87740537Y-92775506D01*
X87661185Y-92678815D01*
X87564494Y-92599463D01*
X87454180Y-92540498D01*
X87334482Y-92504188D01*
X87210000Y-92491928D01*
X85510000Y-92491928D01*
X85385518Y-92504188D01*
X85265820Y-92540498D01*
X85155506Y-92599463D01*
X85058815Y-92678815D01*
X84979463Y-92775506D01*
X84920498Y-92885820D01*
X84884188Y-93005518D01*
X84871928Y-93130000D01*
X80035000Y-93130000D01*
X80035000Y-92154587D01*
X118932192Y-92154587D01*
X119888000Y-93110395D01*
X120843808Y-92154587D01*
X125432192Y-92154587D01*
X126388000Y-93110395D01*
X127343808Y-92154587D01*
X127248044Y-91890186D01*
X126958429Y-91749296D01*
X126646892Y-91667616D01*
X126325405Y-91648282D01*
X126006325Y-91692039D01*
X125701912Y-91797205D01*
X125527956Y-91890186D01*
X125432192Y-92154587D01*
X120843808Y-92154587D01*
X120748044Y-91890186D01*
X120458429Y-91749296D01*
X120146892Y-91667616D01*
X119825405Y-91648282D01*
X119506325Y-91692039D01*
X119201912Y-91797205D01*
X119027956Y-91890186D01*
X118932192Y-92154587D01*
X80035000Y-92154587D01*
X80035000Y-88995000D01*
X87456928Y-88995000D01*
X87456928Y-90345000D01*
X87469188Y-90469482D01*
X87505498Y-90589180D01*
X87564463Y-90699494D01*
X87643815Y-90796185D01*
X87740506Y-90875537D01*
X87850820Y-90934502D01*
X87970518Y-90970812D01*
X88095000Y-90983072D01*
X89445000Y-90983072D01*
X89569482Y-90970812D01*
X89689180Y-90934502D01*
X89799494Y-90875537D01*
X89896185Y-90796185D01*
X89969074Y-90707369D01*
X90038682Y-90764495D01*
X90266259Y-90886138D01*
X90513195Y-90961045D01*
X90705649Y-90980000D01*
X90834351Y-90980000D01*
X91026805Y-90961045D01*
X91273741Y-90886138D01*
X91501318Y-90764495D01*
X91700792Y-90600792D01*
X91770000Y-90516461D01*
X91839208Y-90600792D01*
X92038682Y-90764495D01*
X92266259Y-90886138D01*
X92513195Y-90961045D01*
X92705649Y-90980000D01*
X92834351Y-90980000D01*
X93026805Y-90961045D01*
X93273741Y-90886138D01*
X93501318Y-90764495D01*
X93700792Y-90600792D01*
X93770000Y-90516461D01*
X93839208Y-90600792D01*
X94038682Y-90764495D01*
X94266259Y-90886138D01*
X94513195Y-90961045D01*
X94705649Y-90980000D01*
X94834351Y-90980000D01*
X95026805Y-90961045D01*
X95273741Y-90886138D01*
X95501318Y-90764495D01*
X95700792Y-90600792D01*
X95770000Y-90516461D01*
X95839208Y-90600792D01*
X96038682Y-90764495D01*
X96266259Y-90886138D01*
X96513195Y-90961045D01*
X96705649Y-90980000D01*
X96834351Y-90980000D01*
X97026805Y-90961045D01*
X97273741Y-90886138D01*
X97501318Y-90764495D01*
X97700792Y-90600792D01*
X97770000Y-90516461D01*
X97839208Y-90600792D01*
X98038682Y-90764495D01*
X98266259Y-90886138D01*
X98513195Y-90961045D01*
X98705649Y-90980000D01*
X98834351Y-90980000D01*
X99026805Y-90961045D01*
X99273741Y-90886138D01*
X99501318Y-90764495D01*
X99700792Y-90600792D01*
X99770000Y-90516461D01*
X99839208Y-90600792D01*
X100038682Y-90764495D01*
X100266259Y-90886138D01*
X100513195Y-90961045D01*
X100705649Y-90980000D01*
X100834351Y-90980000D01*
X101026805Y-90961045D01*
X101273741Y-90886138D01*
X101501318Y-90764495D01*
X101700792Y-90600792D01*
X101770000Y-90516461D01*
X101839208Y-90600792D01*
X102038682Y-90764495D01*
X102266259Y-90886138D01*
X102513195Y-90961045D01*
X102705649Y-90980000D01*
X102834351Y-90980000D01*
X103026805Y-90961045D01*
X103273741Y-90886138D01*
X103501318Y-90764495D01*
X103700792Y-90600792D01*
X103770000Y-90516461D01*
X103839208Y-90600792D01*
X104038682Y-90764495D01*
X104266259Y-90886138D01*
X104513195Y-90961045D01*
X104705649Y-90980000D01*
X104834351Y-90980000D01*
X105026805Y-90961045D01*
X105273741Y-90886138D01*
X105501318Y-90764495D01*
X105700792Y-90600792D01*
X105773372Y-90512352D01*
X105898773Y-90648303D01*
X106106371Y-90799473D01*
X106339472Y-90907238D01*
X106440600Y-90937910D01*
X106643000Y-90814224D01*
X106643000Y-89797000D01*
X106897000Y-89797000D01*
X106897000Y-90814224D01*
X107099400Y-90937910D01*
X107200528Y-90907238D01*
X107433629Y-90799473D01*
X107641227Y-90648303D01*
X107815344Y-90459537D01*
X107949289Y-90240430D01*
X108037915Y-89999401D01*
X107915085Y-89797000D01*
X106897000Y-89797000D01*
X106643000Y-89797000D01*
X106623000Y-89797000D01*
X106623000Y-89543000D01*
X106643000Y-89543000D01*
X106643000Y-88525776D01*
X106440600Y-88402090D01*
X106339472Y-88432762D01*
X106106371Y-88540527D01*
X105898773Y-88691697D01*
X105773372Y-88827648D01*
X105700792Y-88739208D01*
X105501318Y-88575505D01*
X105273741Y-88453862D01*
X105026805Y-88378955D01*
X104834351Y-88360000D01*
X104705649Y-88360000D01*
X104513195Y-88378955D01*
X104266259Y-88453862D01*
X104038682Y-88575505D01*
X103839208Y-88739208D01*
X103770000Y-88823539D01*
X103700792Y-88739208D01*
X103501318Y-88575505D01*
X103273741Y-88453862D01*
X103026805Y-88378955D01*
X102834351Y-88360000D01*
X102705649Y-88360000D01*
X102513195Y-88378955D01*
X102266259Y-88453862D01*
X102038682Y-88575505D01*
X101839208Y-88739208D01*
X101770000Y-88823539D01*
X101700792Y-88739208D01*
X101501318Y-88575505D01*
X101273741Y-88453862D01*
X101026805Y-88378955D01*
X100834351Y-88360000D01*
X100705649Y-88360000D01*
X100513195Y-88378955D01*
X100266259Y-88453862D01*
X100038682Y-88575505D01*
X99839208Y-88739208D01*
X99770000Y-88823539D01*
X99700792Y-88739208D01*
X99501318Y-88575505D01*
X99273741Y-88453862D01*
X99026805Y-88378955D01*
X98834351Y-88360000D01*
X98705649Y-88360000D01*
X98513195Y-88378955D01*
X98266259Y-88453862D01*
X98038682Y-88575505D01*
X97839208Y-88739208D01*
X97770000Y-88823539D01*
X97700792Y-88739208D01*
X97501318Y-88575505D01*
X97273741Y-88453862D01*
X97026805Y-88378955D01*
X96834351Y-88360000D01*
X96705649Y-88360000D01*
X96513195Y-88378955D01*
X96266259Y-88453862D01*
X96038682Y-88575505D01*
X95839208Y-88739208D01*
X95770000Y-88823539D01*
X95700792Y-88739208D01*
X95501318Y-88575505D01*
X95273741Y-88453862D01*
X95026805Y-88378955D01*
X94834351Y-88360000D01*
X94705649Y-88360000D01*
X94513195Y-88378955D01*
X94266259Y-88453862D01*
X94038682Y-88575505D01*
X93839208Y-88739208D01*
X93770000Y-88823539D01*
X93700792Y-88739208D01*
X93501318Y-88575505D01*
X93273741Y-88453862D01*
X93026805Y-88378955D01*
X92834351Y-88360000D01*
X92705649Y-88360000D01*
X92513195Y-88378955D01*
X92266259Y-88453862D01*
X92038682Y-88575505D01*
X91839208Y-88739208D01*
X91770000Y-88823539D01*
X91700792Y-88739208D01*
X91501318Y-88575505D01*
X91273741Y-88453862D01*
X91026805Y-88378955D01*
X90834351Y-88360000D01*
X90705649Y-88360000D01*
X90513195Y-88378955D01*
X90266259Y-88453862D01*
X90038682Y-88575505D01*
X89969074Y-88632631D01*
X89896185Y-88543815D01*
X89799494Y-88464463D01*
X89689180Y-88405498D01*
X89569482Y-88369188D01*
X89445000Y-88356928D01*
X88095000Y-88356928D01*
X87970518Y-88369188D01*
X87850820Y-88405498D01*
X87740506Y-88464463D01*
X87643815Y-88543815D01*
X87564463Y-88640506D01*
X87505498Y-88750820D01*
X87469188Y-88870518D01*
X87456928Y-88995000D01*
X80035000Y-88995000D01*
X80035000Y-67189999D01*
X87006323Y-67189999D01*
X87010000Y-67227331D01*
X87009999Y-68112678D01*
X87006323Y-68150001D01*
X87009999Y-68187323D01*
X87009999Y-68187333D01*
X87020996Y-68298986D01*
X87029314Y-68326406D01*
X87064453Y-68442247D01*
X87135025Y-68574277D01*
X87154460Y-68597958D01*
X87229998Y-68690002D01*
X87259002Y-68713805D01*
X107004984Y-88459788D01*
X106897000Y-88525776D01*
X106897000Y-89543000D01*
X107915085Y-89543000D01*
X107980464Y-89435268D01*
X109766200Y-91221004D01*
X109789998Y-91250002D01*
X109818996Y-91273800D01*
X109905722Y-91344975D01*
X110037752Y-91415547D01*
X110181013Y-91459004D01*
X110292666Y-91470001D01*
X110292676Y-91470001D01*
X110329999Y-91473677D01*
X110367322Y-91470001D01*
X139843681Y-91470001D01*
X139881003Y-91473677D01*
X139918325Y-91470001D01*
X139918336Y-91470001D01*
X140029989Y-91459004D01*
X140173250Y-91415547D01*
X140305279Y-91344975D01*
X140421004Y-91250002D01*
X140444807Y-91220998D01*
X145180806Y-86485000D01*
X146334099Y-86485000D01*
X146356068Y-86526101D01*
X146535392Y-86744608D01*
X146753899Y-86923932D01*
X146886858Y-86995000D01*
X146753899Y-87066068D01*
X146535392Y-87245392D01*
X146356068Y-87463899D01*
X146222818Y-87713192D01*
X146140764Y-87983691D01*
X146113057Y-88265000D01*
X146140764Y-88546309D01*
X146222818Y-88816808D01*
X146356068Y-89066101D01*
X146535392Y-89284608D01*
X146753899Y-89463932D01*
X147003192Y-89597182D01*
X147273691Y-89679236D01*
X147484508Y-89700000D01*
X148425492Y-89700000D01*
X148636309Y-89679236D01*
X148906808Y-89597182D01*
X149156101Y-89463932D01*
X149374608Y-89284608D01*
X149553932Y-89066101D01*
X149687182Y-88816808D01*
X149738995Y-88646000D01*
X160559815Y-88646000D01*
X160588487Y-88937111D01*
X160673401Y-89217034D01*
X160811294Y-89475014D01*
X160996866Y-89701134D01*
X161222986Y-89886706D01*
X161480966Y-90024599D01*
X161760889Y-90109513D01*
X161979050Y-90131000D01*
X162124950Y-90131000D01*
X162343111Y-90109513D01*
X162623034Y-90024599D01*
X162881014Y-89886706D01*
X163107134Y-89701134D01*
X163292706Y-89475014D01*
X163322000Y-89420209D01*
X163351294Y-89475014D01*
X163536866Y-89701134D01*
X163762986Y-89886706D01*
X164020966Y-90024599D01*
X164300889Y-90109513D01*
X164519050Y-90131000D01*
X164664950Y-90131000D01*
X164883111Y-90109513D01*
X165163034Y-90024599D01*
X165421014Y-89886706D01*
X165647134Y-89701134D01*
X165832706Y-89475014D01*
X165862000Y-89420209D01*
X165891294Y-89475014D01*
X166076866Y-89701134D01*
X166302986Y-89886706D01*
X166560966Y-90024599D01*
X166840889Y-90109513D01*
X167059050Y-90131000D01*
X167204950Y-90131000D01*
X167423111Y-90109513D01*
X167703034Y-90024599D01*
X167961014Y-89886706D01*
X168187134Y-89701134D01*
X168372706Y-89475014D01*
X168402000Y-89420209D01*
X168431294Y-89475014D01*
X168616866Y-89701134D01*
X168842986Y-89886706D01*
X169100966Y-90024599D01*
X169380889Y-90109513D01*
X169599050Y-90131000D01*
X169744950Y-90131000D01*
X169963111Y-90109513D01*
X170243034Y-90024599D01*
X170501014Y-89886706D01*
X170727134Y-89701134D01*
X170912706Y-89475014D01*
X170942000Y-89420209D01*
X170971294Y-89475014D01*
X171156866Y-89701134D01*
X171382986Y-89886706D01*
X171640966Y-90024599D01*
X171920889Y-90109513D01*
X172139050Y-90131000D01*
X172284950Y-90131000D01*
X172503111Y-90109513D01*
X172783034Y-90024599D01*
X173041014Y-89886706D01*
X173267134Y-89701134D01*
X173452706Y-89475014D01*
X173482000Y-89420209D01*
X173511294Y-89475014D01*
X173696866Y-89701134D01*
X173922986Y-89886706D01*
X174180966Y-90024599D01*
X174460889Y-90109513D01*
X174679050Y-90131000D01*
X174824950Y-90131000D01*
X175043111Y-90109513D01*
X175323034Y-90024599D01*
X175581014Y-89886706D01*
X175807134Y-89701134D01*
X175992706Y-89475014D01*
X176022000Y-89420209D01*
X176051294Y-89475014D01*
X176236866Y-89701134D01*
X176462986Y-89886706D01*
X176720966Y-90024599D01*
X177000889Y-90109513D01*
X177219050Y-90131000D01*
X177364950Y-90131000D01*
X177583111Y-90109513D01*
X177863034Y-90024599D01*
X178121014Y-89886706D01*
X178347134Y-89701134D01*
X178532706Y-89475014D01*
X178562000Y-89420209D01*
X178591294Y-89475014D01*
X178776866Y-89701134D01*
X179002986Y-89886706D01*
X179260966Y-90024599D01*
X179540889Y-90109513D01*
X179759050Y-90131000D01*
X179904950Y-90131000D01*
X180123111Y-90109513D01*
X180403034Y-90024599D01*
X180661014Y-89886706D01*
X180887134Y-89701134D01*
X181072706Y-89475014D01*
X181102000Y-89420209D01*
X181131294Y-89475014D01*
X181316866Y-89701134D01*
X181542986Y-89886706D01*
X181800966Y-90024599D01*
X182080889Y-90109513D01*
X182299050Y-90131000D01*
X182444950Y-90131000D01*
X182663111Y-90109513D01*
X182943034Y-90024599D01*
X183201014Y-89886706D01*
X183427134Y-89701134D01*
X183451607Y-89671313D01*
X183472498Y-89740180D01*
X183531463Y-89850494D01*
X183610815Y-89947185D01*
X183707506Y-90026537D01*
X183817820Y-90085502D01*
X183937518Y-90121812D01*
X184062000Y-90134072D01*
X185762000Y-90134072D01*
X185886482Y-90121812D01*
X186006180Y-90085502D01*
X186116494Y-90026537D01*
X186213185Y-89947185D01*
X186292537Y-89850494D01*
X186351502Y-89740180D01*
X186387812Y-89620482D01*
X186400072Y-89496000D01*
X186400072Y-89306061D01*
X187179000Y-89306061D01*
X187179000Y-89509939D01*
X187218774Y-89709898D01*
X187296795Y-89898256D01*
X187410063Y-90067774D01*
X187554226Y-90211937D01*
X187723744Y-90325205D01*
X187912102Y-90403226D01*
X188016541Y-90424000D01*
X187912102Y-90444774D01*
X187723744Y-90522795D01*
X187554226Y-90636063D01*
X187410063Y-90780226D01*
X187296795Y-90949744D01*
X187218774Y-91138102D01*
X187179000Y-91338061D01*
X187179000Y-91541939D01*
X187218774Y-91741898D01*
X187296795Y-91930256D01*
X187410063Y-92099774D01*
X187554226Y-92243937D01*
X187723744Y-92357205D01*
X187912102Y-92435226D01*
X188112061Y-92475000D01*
X188315939Y-92475000D01*
X188515898Y-92435226D01*
X188704256Y-92357205D01*
X188873774Y-92243937D01*
X189017937Y-92099774D01*
X189131205Y-91930256D01*
X189209226Y-91741898D01*
X189249000Y-91541939D01*
X189249000Y-91338061D01*
X189209226Y-91138102D01*
X189131205Y-90949744D01*
X189017937Y-90780226D01*
X188873774Y-90636063D01*
X188704256Y-90522795D01*
X188515898Y-90444774D01*
X188411459Y-90424000D01*
X188515898Y-90403226D01*
X188704256Y-90325205D01*
X188873774Y-90211937D01*
X189017937Y-90067774D01*
X189131205Y-89898256D01*
X189209226Y-89709898D01*
X189249000Y-89509939D01*
X189249000Y-89306061D01*
X189209226Y-89106102D01*
X189131205Y-88917744D01*
X189017937Y-88748226D01*
X188873774Y-88604063D01*
X188704256Y-88490795D01*
X188515898Y-88412774D01*
X188315939Y-88373000D01*
X188112061Y-88373000D01*
X187912102Y-88412774D01*
X187723744Y-88490795D01*
X187554226Y-88604063D01*
X187410063Y-88748226D01*
X187296795Y-88917744D01*
X187218774Y-89106102D01*
X187179000Y-89306061D01*
X186400072Y-89306061D01*
X186400072Y-87796000D01*
X186387812Y-87671518D01*
X186351502Y-87551820D01*
X186292537Y-87441506D01*
X186213185Y-87344815D01*
X186116494Y-87265463D01*
X186006180Y-87206498D01*
X185886482Y-87170188D01*
X185762000Y-87157928D01*
X184062000Y-87157928D01*
X183937518Y-87170188D01*
X183817820Y-87206498D01*
X183707506Y-87265463D01*
X183610815Y-87344815D01*
X183531463Y-87441506D01*
X183472498Y-87551820D01*
X183451607Y-87620687D01*
X183427134Y-87590866D01*
X183201014Y-87405294D01*
X182943034Y-87267401D01*
X182663111Y-87182487D01*
X182444950Y-87161000D01*
X182299050Y-87161000D01*
X182080889Y-87182487D01*
X181800966Y-87267401D01*
X181542986Y-87405294D01*
X181316866Y-87590866D01*
X181131294Y-87816986D01*
X181102000Y-87871791D01*
X181072706Y-87816986D01*
X180887134Y-87590866D01*
X180661014Y-87405294D01*
X180403034Y-87267401D01*
X180123111Y-87182487D01*
X179904950Y-87161000D01*
X179759050Y-87161000D01*
X179540889Y-87182487D01*
X179260966Y-87267401D01*
X179002986Y-87405294D01*
X178776866Y-87590866D01*
X178591294Y-87816986D01*
X178562000Y-87871791D01*
X178532706Y-87816986D01*
X178347134Y-87590866D01*
X178121014Y-87405294D01*
X177863034Y-87267401D01*
X177583111Y-87182487D01*
X177364950Y-87161000D01*
X177219050Y-87161000D01*
X177000889Y-87182487D01*
X176720966Y-87267401D01*
X176462986Y-87405294D01*
X176236866Y-87590866D01*
X176051294Y-87816986D01*
X176022000Y-87871791D01*
X175992706Y-87816986D01*
X175807134Y-87590866D01*
X175581014Y-87405294D01*
X175323034Y-87267401D01*
X175043111Y-87182487D01*
X174824950Y-87161000D01*
X174679050Y-87161000D01*
X174460889Y-87182487D01*
X174180966Y-87267401D01*
X173922986Y-87405294D01*
X173696866Y-87590866D01*
X173511294Y-87816986D01*
X173482000Y-87871791D01*
X173452706Y-87816986D01*
X173267134Y-87590866D01*
X173041014Y-87405294D01*
X172783034Y-87267401D01*
X172503111Y-87182487D01*
X172284950Y-87161000D01*
X172139050Y-87161000D01*
X171920889Y-87182487D01*
X171640966Y-87267401D01*
X171382986Y-87405294D01*
X171156866Y-87590866D01*
X170971294Y-87816986D01*
X170942000Y-87871791D01*
X170912706Y-87816986D01*
X170727134Y-87590866D01*
X170501014Y-87405294D01*
X170243034Y-87267401D01*
X169963111Y-87182487D01*
X169744950Y-87161000D01*
X169599050Y-87161000D01*
X169380889Y-87182487D01*
X169100966Y-87267401D01*
X168842986Y-87405294D01*
X168616866Y-87590866D01*
X168431294Y-87816986D01*
X168402000Y-87871791D01*
X168372706Y-87816986D01*
X168187134Y-87590866D01*
X167961014Y-87405294D01*
X167703034Y-87267401D01*
X167423111Y-87182487D01*
X167204950Y-87161000D01*
X167059050Y-87161000D01*
X166840889Y-87182487D01*
X166560966Y-87267401D01*
X166302986Y-87405294D01*
X166076866Y-87590866D01*
X165891294Y-87816986D01*
X165862000Y-87871791D01*
X165832706Y-87816986D01*
X165647134Y-87590866D01*
X165421014Y-87405294D01*
X165163034Y-87267401D01*
X164883111Y-87182487D01*
X164664950Y-87161000D01*
X164519050Y-87161000D01*
X164300889Y-87182487D01*
X164020966Y-87267401D01*
X163762986Y-87405294D01*
X163536866Y-87590866D01*
X163351294Y-87816986D01*
X163322000Y-87871791D01*
X163292706Y-87816986D01*
X163107134Y-87590866D01*
X162881014Y-87405294D01*
X162623034Y-87267401D01*
X162343111Y-87182487D01*
X162124950Y-87161000D01*
X161979050Y-87161000D01*
X161760889Y-87182487D01*
X161480966Y-87267401D01*
X161222986Y-87405294D01*
X160996866Y-87590866D01*
X160811294Y-87816986D01*
X160673401Y-88074966D01*
X160588487Y-88354889D01*
X160559815Y-88646000D01*
X149738995Y-88646000D01*
X149769236Y-88546309D01*
X149796943Y-88265000D01*
X149769236Y-87983691D01*
X149687182Y-87713192D01*
X149553932Y-87463899D01*
X149374608Y-87245392D01*
X149156101Y-87066068D01*
X149023142Y-86995000D01*
X149156101Y-86923932D01*
X149374608Y-86744608D01*
X149553932Y-86526101D01*
X149687182Y-86276808D01*
X149769236Y-86006309D01*
X149796943Y-85725000D01*
X149769236Y-85443691D01*
X149687182Y-85173192D01*
X149553932Y-84923899D01*
X149374608Y-84705392D01*
X149156101Y-84526068D01*
X149023142Y-84455000D01*
X149156101Y-84383932D01*
X149374608Y-84204608D01*
X149553932Y-83986101D01*
X149687182Y-83736808D01*
X149769236Y-83466309D01*
X149796943Y-83185000D01*
X149769236Y-82903691D01*
X149687182Y-82633192D01*
X149553932Y-82383899D01*
X149374608Y-82165392D01*
X149156101Y-81986068D01*
X149023142Y-81915000D01*
X149156101Y-81843932D01*
X149374608Y-81664608D01*
X149553932Y-81446101D01*
X149687182Y-81196808D01*
X149769236Y-80926309D01*
X149796943Y-80645000D01*
X149769236Y-80363691D01*
X149687182Y-80093192D01*
X149553932Y-79843899D01*
X149374608Y-79625392D01*
X149156101Y-79446068D01*
X149023142Y-79375000D01*
X149156101Y-79303932D01*
X149374608Y-79124608D01*
X149553932Y-78906101D01*
X149687182Y-78656808D01*
X149769236Y-78386309D01*
X149796943Y-78105000D01*
X149769236Y-77823691D01*
X149687182Y-77553192D01*
X149553932Y-77303899D01*
X149374608Y-77085392D01*
X149156101Y-76906068D01*
X149023142Y-76835000D01*
X149156101Y-76763932D01*
X149374608Y-76584608D01*
X149553932Y-76366101D01*
X149687182Y-76116808D01*
X149769236Y-75846309D01*
X149796943Y-75565000D01*
X149769236Y-75283691D01*
X149687182Y-75013192D01*
X149553932Y-74763899D01*
X149374608Y-74545392D01*
X149156101Y-74366068D01*
X149023142Y-74295000D01*
X149156101Y-74223932D01*
X149374608Y-74044608D01*
X149553932Y-73826101D01*
X149687182Y-73576808D01*
X149769236Y-73306309D01*
X149796943Y-73025000D01*
X149769236Y-72743691D01*
X149699864Y-72515000D01*
X157546199Y-72515000D01*
X169399000Y-84367802D01*
X169399000Y-84429939D01*
X169438774Y-84629898D01*
X169516795Y-84818256D01*
X169630063Y-84987774D01*
X169774226Y-85131937D01*
X169943744Y-85245205D01*
X170132102Y-85323226D01*
X170332061Y-85363000D01*
X170535939Y-85363000D01*
X170735898Y-85323226D01*
X170924256Y-85245205D01*
X171093774Y-85131937D01*
X171237937Y-84987774D01*
X171351205Y-84818256D01*
X171429226Y-84629898D01*
X171469000Y-84429939D01*
X171469000Y-84226061D01*
X171429226Y-84026102D01*
X171351205Y-83837744D01*
X171237937Y-83668226D01*
X171214209Y-83644498D01*
X192083800Y-83644498D01*
X192083800Y-84114302D01*
X192175454Y-84575079D01*
X192355240Y-85009121D01*
X192616250Y-85399749D01*
X192948451Y-85731950D01*
X193339079Y-85992960D01*
X193773121Y-86172746D01*
X194233898Y-86264400D01*
X194703702Y-86264400D01*
X195164479Y-86172746D01*
X195598521Y-85992960D01*
X195989149Y-85731950D01*
X196321350Y-85399749D01*
X196582360Y-85009121D01*
X196762146Y-84575079D01*
X196853800Y-84114302D01*
X196853800Y-83644498D01*
X196762146Y-83183721D01*
X196582360Y-82749679D01*
X196321350Y-82359051D01*
X195989149Y-82026850D01*
X195598521Y-81765840D01*
X195164479Y-81586054D01*
X194703702Y-81494400D01*
X194233898Y-81494400D01*
X193773121Y-81586054D01*
X193339079Y-81765840D01*
X192948451Y-82026850D01*
X192616250Y-82359051D01*
X192355240Y-82749679D01*
X192175454Y-83183721D01*
X192083800Y-83644498D01*
X171214209Y-83644498D01*
X171093774Y-83524063D01*
X170924256Y-83410795D01*
X170735898Y-83332774D01*
X170535939Y-83293000D01*
X170473802Y-83293000D01*
X162579123Y-75398321D01*
X192287600Y-75398321D01*
X192287600Y-75818879D01*
X192369647Y-76231356D01*
X192530588Y-76619902D01*
X192764237Y-76969583D01*
X193061617Y-77266963D01*
X193411298Y-77500612D01*
X193799844Y-77661553D01*
X194212321Y-77743600D01*
X194632879Y-77743600D01*
X195045356Y-77661553D01*
X195433902Y-77500612D01*
X195783583Y-77266963D01*
X196080963Y-76969583D01*
X196314612Y-76619902D01*
X196475553Y-76231356D01*
X196557600Y-75818879D01*
X196557600Y-75398321D01*
X196475553Y-74985844D01*
X196314612Y-74597298D01*
X196080963Y-74247617D01*
X195783583Y-73950237D01*
X195433902Y-73716588D01*
X195045356Y-73555647D01*
X194632879Y-73473600D01*
X194212321Y-73473600D01*
X193799844Y-73555647D01*
X193411298Y-73716588D01*
X193061617Y-73950237D01*
X192764237Y-74247617D01*
X192530588Y-74597298D01*
X192369647Y-74985844D01*
X192287600Y-75398321D01*
X162579123Y-75398321D01*
X158424804Y-71244003D01*
X158401001Y-71214999D01*
X158285276Y-71120026D01*
X158153247Y-71049454D01*
X158009986Y-71005997D01*
X157898333Y-70995000D01*
X157898322Y-70995000D01*
X157861000Y-70991324D01*
X157823678Y-70995000D01*
X123197595Y-70995000D01*
X123160706Y-70925986D01*
X122975134Y-70699866D01*
X122749014Y-70514294D01*
X122491034Y-70376401D01*
X122211111Y-70291487D01*
X121992950Y-70270000D01*
X121847050Y-70270000D01*
X121628889Y-70291487D01*
X121348966Y-70376401D01*
X121090986Y-70514294D01*
X120864866Y-70699866D01*
X120679294Y-70925986D01*
X120591339Y-71090539D01*
X119649801Y-70149002D01*
X119625998Y-70119998D01*
X119510273Y-70025025D01*
X119378244Y-69954453D01*
X119234983Y-69910996D01*
X119123330Y-69899999D01*
X119123319Y-69899999D01*
X119085997Y-69896323D01*
X119048675Y-69899999D01*
X108074801Y-69899999D01*
X107110468Y-68935666D01*
X107273741Y-68886138D01*
X107501318Y-68764495D01*
X107700792Y-68600792D01*
X107864495Y-68401318D01*
X107986138Y-68173741D01*
X108061045Y-67926805D01*
X108086338Y-67670000D01*
X108061045Y-67413195D01*
X107986138Y-67166259D01*
X107864495Y-66938682D01*
X107700792Y-66739208D01*
X107501318Y-66575505D01*
X107273741Y-66453862D01*
X107026805Y-66378955D01*
X106834351Y-66360000D01*
X106705649Y-66360000D01*
X106513195Y-66378955D01*
X106266259Y-66453862D01*
X106038682Y-66575505D01*
X105839208Y-66739208D01*
X105770000Y-66823539D01*
X105700792Y-66739208D01*
X105501318Y-66575505D01*
X105273741Y-66453862D01*
X105026805Y-66378955D01*
X104834351Y-66360000D01*
X104705649Y-66360000D01*
X104513195Y-66378955D01*
X104266259Y-66453862D01*
X104038682Y-66575505D01*
X103839208Y-66739208D01*
X103770000Y-66823539D01*
X103700792Y-66739208D01*
X103501318Y-66575505D01*
X103273741Y-66453862D01*
X103026805Y-66378955D01*
X102834351Y-66360000D01*
X102705649Y-66360000D01*
X102513195Y-66378955D01*
X102266259Y-66453862D01*
X102038682Y-66575505D01*
X101839208Y-66739208D01*
X101770000Y-66823539D01*
X101700792Y-66739208D01*
X101501318Y-66575505D01*
X101273741Y-66453862D01*
X101026805Y-66378955D01*
X100834351Y-66360000D01*
X100705649Y-66360000D01*
X100513195Y-66378955D01*
X100266259Y-66453862D01*
X100038682Y-66575505D01*
X99839208Y-66739208D01*
X99770000Y-66823539D01*
X99700792Y-66739208D01*
X99501318Y-66575505D01*
X99273741Y-66453862D01*
X99026805Y-66378955D01*
X98834351Y-66360000D01*
X98705649Y-66360000D01*
X98550119Y-66375318D01*
X98443401Y-66268600D01*
X158178057Y-66268600D01*
X158205764Y-66549909D01*
X158287818Y-66820408D01*
X158421068Y-67069701D01*
X158600392Y-67288208D01*
X158818899Y-67467532D01*
X158951858Y-67538600D01*
X158818899Y-67609668D01*
X158600392Y-67788992D01*
X158421068Y-68007499D01*
X158287818Y-68256792D01*
X158205764Y-68527291D01*
X158178057Y-68808600D01*
X158205764Y-69089909D01*
X158287818Y-69360408D01*
X158421068Y-69609701D01*
X158600392Y-69828208D01*
X158818899Y-70007532D01*
X159068192Y-70140782D01*
X159338691Y-70222836D01*
X159549508Y-70243600D01*
X160490492Y-70243600D01*
X160701309Y-70222836D01*
X160971808Y-70140782D01*
X161221101Y-70007532D01*
X161439608Y-69828208D01*
X161618932Y-69609701D01*
X161752182Y-69360408D01*
X161834236Y-69089909D01*
X161861943Y-68808600D01*
X161834236Y-68527291D01*
X161752182Y-68256792D01*
X161618932Y-68007499D01*
X161439608Y-67788992D01*
X161221101Y-67609668D01*
X161088142Y-67538600D01*
X161221101Y-67467532D01*
X161439608Y-67288208D01*
X161618932Y-67069701D01*
X161752182Y-66820408D01*
X161834236Y-66549909D01*
X161861943Y-66268600D01*
X165798057Y-66268600D01*
X165825764Y-66549909D01*
X165907818Y-66820408D01*
X166041068Y-67069701D01*
X166220392Y-67288208D01*
X166333482Y-67381019D01*
X166315518Y-67382788D01*
X166195820Y-67419098D01*
X166085506Y-67478063D01*
X165988815Y-67557415D01*
X165909463Y-67654106D01*
X165850498Y-67764420D01*
X165814188Y-67884118D01*
X165801928Y-68008600D01*
X165801928Y-69608600D01*
X165814188Y-69733082D01*
X165850498Y-69852780D01*
X165909463Y-69963094D01*
X165988815Y-70059785D01*
X166085506Y-70139137D01*
X166195820Y-70198102D01*
X166315518Y-70234412D01*
X166440000Y-70246672D01*
X168840000Y-70246672D01*
X168964482Y-70234412D01*
X169084180Y-70198102D01*
X169194494Y-70139137D01*
X169291185Y-70059785D01*
X169370537Y-69963094D01*
X169429502Y-69852780D01*
X169465812Y-69733082D01*
X169478072Y-69608600D01*
X169478072Y-68008600D01*
X176844528Y-68008600D01*
X176844528Y-69608600D01*
X176856788Y-69733082D01*
X176893098Y-69852780D01*
X176952063Y-69963094D01*
X177031415Y-70059785D01*
X177128106Y-70139137D01*
X177238420Y-70198102D01*
X177358118Y-70234412D01*
X177482600Y-70246672D01*
X179082600Y-70246672D01*
X179207082Y-70234412D01*
X179326780Y-70198102D01*
X179437094Y-70139137D01*
X179533785Y-70059785D01*
X179613137Y-69963094D01*
X179672102Y-69852780D01*
X179708412Y-69733082D01*
X179720672Y-69608600D01*
X179720672Y-68008600D01*
X179715748Y-67958600D01*
X188224528Y-67958600D01*
X188224528Y-69658600D01*
X188236788Y-69783082D01*
X188273098Y-69902780D01*
X188332063Y-70013094D01*
X188411415Y-70109785D01*
X188508106Y-70189137D01*
X188618420Y-70248102D01*
X188660290Y-70260803D01*
X188559125Y-70361968D01*
X188396610Y-70605189D01*
X188284668Y-70875442D01*
X188227600Y-71162340D01*
X188227600Y-71454860D01*
X188284668Y-71741758D01*
X188396610Y-72012011D01*
X188559125Y-72255232D01*
X188765968Y-72462075D01*
X189009189Y-72624590D01*
X189279442Y-72736532D01*
X189566340Y-72793600D01*
X189858860Y-72793600D01*
X190145758Y-72736532D01*
X190416011Y-72624590D01*
X190659232Y-72462075D01*
X190712600Y-72408707D01*
X190765968Y-72462075D01*
X191009189Y-72624590D01*
X191279442Y-72736532D01*
X191566340Y-72793600D01*
X191858860Y-72793600D01*
X192145758Y-72736532D01*
X192416011Y-72624590D01*
X192659232Y-72462075D01*
X192866075Y-72255232D01*
X193028590Y-72012011D01*
X193140532Y-71741758D01*
X193197600Y-71454860D01*
X193197600Y-71162340D01*
X193140532Y-70875442D01*
X193028590Y-70605189D01*
X192866075Y-70361968D01*
X192659232Y-70155125D01*
X192496190Y-70046184D01*
X192561392Y-69836997D01*
X191712600Y-68988205D01*
X191698458Y-69002348D01*
X191518853Y-68822743D01*
X191532995Y-68808600D01*
X191892205Y-68808600D01*
X192740997Y-69657392D01*
X192990072Y-69579757D01*
X193115971Y-69315717D01*
X193187939Y-69032189D01*
X193203211Y-68740069D01*
X193161199Y-68450581D01*
X193063519Y-68174853D01*
X192990072Y-68037443D01*
X192740997Y-67959808D01*
X191892205Y-68808600D01*
X191532995Y-68808600D01*
X191518853Y-68794458D01*
X191698458Y-68614853D01*
X191712600Y-68628995D01*
X192561392Y-67780203D01*
X192483757Y-67531128D01*
X192219717Y-67405229D01*
X191936189Y-67333261D01*
X191644069Y-67317989D01*
X191354581Y-67360001D01*
X191078853Y-67457681D01*
X191002750Y-67498359D01*
X190917094Y-67428063D01*
X190806780Y-67369098D01*
X190687082Y-67332788D01*
X190562600Y-67320528D01*
X188862600Y-67320528D01*
X188738118Y-67332788D01*
X188618420Y-67369098D01*
X188508106Y-67428063D01*
X188411415Y-67507415D01*
X188332063Y-67604106D01*
X188273098Y-67714420D01*
X188236788Y-67834118D01*
X188224528Y-67958600D01*
X179715748Y-67958600D01*
X179708412Y-67884118D01*
X179672102Y-67764420D01*
X179613137Y-67654106D01*
X179533785Y-67557415D01*
X179437094Y-67478063D01*
X179326780Y-67419098D01*
X179207082Y-67382788D01*
X179082600Y-67370528D01*
X179075385Y-67370528D01*
X179095697Y-67301302D01*
X178282600Y-66488205D01*
X177469503Y-67301302D01*
X177489815Y-67370528D01*
X177482600Y-67370528D01*
X177358118Y-67382788D01*
X177238420Y-67419098D01*
X177128106Y-67478063D01*
X177031415Y-67557415D01*
X176952063Y-67654106D01*
X176893098Y-67764420D01*
X176856788Y-67884118D01*
X176844528Y-68008600D01*
X169478072Y-68008600D01*
X169465812Y-67884118D01*
X169429502Y-67764420D01*
X169370537Y-67654106D01*
X169291185Y-67557415D01*
X169194494Y-67478063D01*
X169084180Y-67419098D01*
X168964482Y-67382788D01*
X168946518Y-67381019D01*
X169059608Y-67288208D01*
X169238932Y-67069701D01*
X169372182Y-66820408D01*
X169454236Y-66549909D01*
X169471058Y-66379112D01*
X176842383Y-66379112D01*
X176883813Y-66658730D01*
X176978997Y-66924892D01*
X177045929Y-67050114D01*
X177289898Y-67121697D01*
X178102995Y-66308600D01*
X178462205Y-66308600D01*
X179275302Y-67121697D01*
X179519271Y-67050114D01*
X179640171Y-66794604D01*
X179708900Y-66520416D01*
X179722817Y-66238088D01*
X179681387Y-65958470D01*
X179586203Y-65692308D01*
X179519271Y-65567086D01*
X179275302Y-65495503D01*
X178462205Y-66308600D01*
X178102995Y-66308600D01*
X177289898Y-65495503D01*
X177045929Y-65567086D01*
X176925029Y-65822596D01*
X176856300Y-66096784D01*
X176842383Y-66379112D01*
X169471058Y-66379112D01*
X169481943Y-66268600D01*
X169454236Y-65987291D01*
X169372182Y-65716792D01*
X169238932Y-65467499D01*
X169114517Y-65315898D01*
X177469503Y-65315898D01*
X178282600Y-66128995D01*
X179095697Y-65315898D01*
X179024114Y-65071929D01*
X178768604Y-64951029D01*
X178494416Y-64882300D01*
X178212088Y-64868383D01*
X177932470Y-64909813D01*
X177666308Y-65004997D01*
X177541086Y-65071929D01*
X177469503Y-65315898D01*
X169114517Y-65315898D01*
X169059608Y-65248992D01*
X168841101Y-65069668D01*
X168591808Y-64936418D01*
X168321309Y-64854364D01*
X168110492Y-64833600D01*
X167169508Y-64833600D01*
X166958691Y-64854364D01*
X166688192Y-64936418D01*
X166438899Y-65069668D01*
X166220392Y-65248992D01*
X166041068Y-65467499D01*
X165907818Y-65716792D01*
X165825764Y-65987291D01*
X165798057Y-66268600D01*
X161861943Y-66268600D01*
X161834236Y-65987291D01*
X161752182Y-65716792D01*
X161618932Y-65467499D01*
X161439608Y-65248992D01*
X161221101Y-65069668D01*
X160971808Y-64936418D01*
X160701309Y-64854364D01*
X160490492Y-64833600D01*
X159549508Y-64833600D01*
X159338691Y-64854364D01*
X159068192Y-64936418D01*
X158818899Y-65069668D01*
X158600392Y-65248992D01*
X158421068Y-65467499D01*
X158287818Y-65716792D01*
X158205764Y-65987291D01*
X158178057Y-66268600D01*
X98443401Y-66268600D01*
X98333803Y-66159002D01*
X98310000Y-66129998D01*
X98194275Y-66035025D01*
X98062246Y-65964453D01*
X97918985Y-65920996D01*
X97807332Y-65909999D01*
X97807321Y-65909999D01*
X97769999Y-65906323D01*
X97732677Y-65909999D01*
X88327321Y-65909999D01*
X88289998Y-65906323D01*
X88252675Y-65909999D01*
X88252666Y-65909999D01*
X88141013Y-65920996D01*
X88017476Y-65958470D01*
X87997752Y-65964453D01*
X87865722Y-66035025D01*
X87790469Y-66096784D01*
X87749998Y-66129998D01*
X87726199Y-66158997D01*
X87258997Y-66626200D01*
X87229999Y-66649998D01*
X87206201Y-66678996D01*
X87206200Y-66678997D01*
X87135025Y-66765723D01*
X87064453Y-66897753D01*
X87034955Y-66995000D01*
X87020997Y-67041013D01*
X87013050Y-67121697D01*
X87006323Y-67189999D01*
X80035000Y-67189999D01*
X80035000Y-57810000D01*
X90340198Y-57810000D01*
X86725996Y-61424203D01*
G36*
X93839208Y-68600792D02*
G01*
X94038682Y-68764495D01*
X94266259Y-68886138D01*
X94513195Y-68961045D01*
X94705649Y-68980000D01*
X94834351Y-68980000D01*
X94989880Y-68964682D01*
X95497200Y-69472002D01*
X95520999Y-69501001D01*
X95636724Y-69595974D01*
X95768753Y-69666546D01*
X95912014Y-69710003D01*
X96023667Y-69721000D01*
X96023675Y-69721000D01*
X96061000Y-69724676D01*
X96098325Y-69721000D01*
X103109789Y-69721000D01*
X103240001Y-69851212D01*
X103263804Y-69880216D01*
X103379529Y-69975189D01*
X103511558Y-70045761D01*
X103654819Y-70089218D01*
X103766472Y-70100215D01*
X103766482Y-70100215D01*
X103803805Y-70103891D01*
X103841127Y-70100215D01*
X104852594Y-70100215D01*
X107018380Y-72266002D01*
X107042179Y-72295001D01*
X107157904Y-72389974D01*
X107289933Y-72460546D01*
X107433194Y-72504003D01*
X107544847Y-72515000D01*
X107544855Y-72515000D01*
X107582180Y-72518676D01*
X107619505Y-72515000D01*
X111993787Y-72515000D01*
X114649793Y-75171008D01*
X114673587Y-75200001D01*
X114702580Y-75223795D01*
X114702584Y-75223799D01*
X114773273Y-75281811D01*
X114789312Y-75294974D01*
X114921341Y-75365546D01*
X115039503Y-75401389D01*
X115038955Y-75403195D01*
X115013662Y-75660000D01*
X115038955Y-75916805D01*
X115113862Y-76163741D01*
X115235505Y-76391318D01*
X115399208Y-76590792D01*
X115483539Y-76660000D01*
X115399208Y-76729208D01*
X115235505Y-76928682D01*
X115113862Y-77156259D01*
X115038955Y-77403195D01*
X115013662Y-77660000D01*
X115038955Y-77916805D01*
X115113862Y-78163741D01*
X115235505Y-78391318D01*
X115399208Y-78590792D01*
X115483539Y-78660000D01*
X115399208Y-78729208D01*
X115235505Y-78928682D01*
X115113862Y-79156259D01*
X115038955Y-79403195D01*
X115013662Y-79660000D01*
X115038955Y-79916805D01*
X115113862Y-80163741D01*
X115235505Y-80391318D01*
X115399208Y-80590792D01*
X115483539Y-80660000D01*
X115399208Y-80729208D01*
X115235505Y-80928682D01*
X115113862Y-81156259D01*
X115038955Y-81403195D01*
X115013662Y-81660000D01*
X115038955Y-81916805D01*
X115113862Y-82163741D01*
X115235505Y-82391318D01*
X115399208Y-82590792D01*
X115487648Y-82663372D01*
X115351697Y-82788773D01*
X115200527Y-82996371D01*
X115092762Y-83229472D01*
X115062090Y-83330600D01*
X115185776Y-83533000D01*
X116203000Y-83533000D01*
X116203000Y-83513000D01*
X116457000Y-83513000D01*
X116457000Y-83533000D01*
X117474224Y-83533000D01*
X117597910Y-83330600D01*
X117567238Y-83229472D01*
X117459473Y-82996371D01*
X117308303Y-82788773D01*
X117172352Y-82663372D01*
X117260792Y-82590792D01*
X117424495Y-82391318D01*
X117546138Y-82163741D01*
X117621045Y-81916805D01*
X117646338Y-81660000D01*
X117621045Y-81403195D01*
X117546138Y-81156259D01*
X117424495Y-80928682D01*
X117260792Y-80729208D01*
X117176461Y-80660000D01*
X117260792Y-80590792D01*
X117424495Y-80391318D01*
X117546138Y-80163741D01*
X117621045Y-79916805D01*
X117646338Y-79660000D01*
X117621045Y-79403195D01*
X117546138Y-79156259D01*
X117424495Y-78928682D01*
X117260792Y-78729208D01*
X117176461Y-78660000D01*
X117260792Y-78590792D01*
X117424495Y-78391318D01*
X117546138Y-78163741D01*
X117621045Y-77916805D01*
X117646338Y-77660000D01*
X117621045Y-77403195D01*
X117546138Y-77156259D01*
X117424495Y-76928682D01*
X117260792Y-76729208D01*
X117176461Y-76660000D01*
X117260792Y-76590792D01*
X117424495Y-76391318D01*
X117546138Y-76163741D01*
X117621045Y-75916805D01*
X117646338Y-75660000D01*
X117622700Y-75420000D01*
X117691197Y-75420000D01*
X120741448Y-78470252D01*
X120679294Y-78545986D01*
X120541401Y-78803966D01*
X120456487Y-79083889D01*
X120427815Y-79375000D01*
X120456487Y-79666111D01*
X120541401Y-79946034D01*
X120679294Y-80204014D01*
X120864866Y-80430134D01*
X121090986Y-80615706D01*
X121145791Y-80645000D01*
X121090986Y-80674294D01*
X120864866Y-80859866D01*
X120679294Y-81085986D01*
X120541401Y-81343966D01*
X120456487Y-81623889D01*
X120427815Y-81915000D01*
X120456487Y-82206111D01*
X120541401Y-82486034D01*
X120679294Y-82744014D01*
X120864866Y-82970134D01*
X121090986Y-83155706D01*
X121145791Y-83185000D01*
X121090986Y-83214294D01*
X120864866Y-83399866D01*
X120679294Y-83625986D01*
X120541401Y-83883966D01*
X120456487Y-84163889D01*
X120427815Y-84455000D01*
X120456487Y-84746111D01*
X120541401Y-85026034D01*
X120679294Y-85284014D01*
X120864866Y-85510134D01*
X121090986Y-85695706D01*
X121155523Y-85730201D01*
X121038645Y-85799822D01*
X120822412Y-85994731D01*
X120648359Y-86228080D01*
X120523175Y-86490901D01*
X120478524Y-86638110D01*
X120599845Y-86868000D01*
X121793000Y-86868000D01*
X121793000Y-86848000D01*
X122047000Y-86848000D01*
X122047000Y-86868000D01*
X123240155Y-86868000D01*
X123301372Y-86752000D01*
X127493928Y-86752000D01*
X127506188Y-86876482D01*
X127542498Y-86996180D01*
X127601463Y-87106494D01*
X127680815Y-87203185D01*
X127777506Y-87282537D01*
X127887820Y-87341502D01*
X128007518Y-87377812D01*
X128132000Y-87390072D01*
X128746250Y-87387000D01*
X128905000Y-87228250D01*
X128905000Y-85979000D01*
X127655750Y-85979000D01*
X127497000Y-86137750D01*
X127493928Y-86752000D01*
X123301372Y-86752000D01*
X123361476Y-86638110D01*
X123316825Y-86490901D01*
X123191641Y-86228080D01*
X123017588Y-85994731D01*
X122801355Y-85799822D01*
X122684477Y-85730201D01*
X122749014Y-85695706D01*
X122975134Y-85510134D01*
X123160706Y-85284014D01*
X123298599Y-85026034D01*
X123321057Y-84952000D01*
X127493928Y-84952000D01*
X127497000Y-85566250D01*
X127655750Y-85725000D01*
X128905000Y-85725000D01*
X128905000Y-84475750D01*
X129159000Y-84475750D01*
X129159000Y-85725000D01*
X129179000Y-85725000D01*
X129179000Y-85979000D01*
X129159000Y-85979000D01*
X129159000Y-87228250D01*
X129317750Y-87387000D01*
X129932000Y-87390072D01*
X130056482Y-87377812D01*
X130176180Y-87341502D01*
X130286494Y-87282537D01*
X130383185Y-87203185D01*
X130462537Y-87106494D01*
X130521502Y-86996180D01*
X130527056Y-86977873D01*
X130593495Y-87044312D01*
X130844905Y-87212299D01*
X131124257Y-87328011D01*
X131420816Y-87387000D01*
X131723184Y-87387000D01*
X132019743Y-87328011D01*
X132299095Y-87212299D01*
X132550505Y-87044312D01*
X132764312Y-86830505D01*
X132932299Y-86579095D01*
X133048011Y-86299743D01*
X133107000Y-86003184D01*
X133107000Y-85700816D01*
X133048011Y-85404257D01*
X132932299Y-85124905D01*
X132764312Y-84873495D01*
X132550505Y-84659688D01*
X132299095Y-84491701D01*
X132019743Y-84375989D01*
X131723184Y-84317000D01*
X131420816Y-84317000D01*
X131124257Y-84375989D01*
X130844905Y-84491701D01*
X130593495Y-84659688D01*
X130527056Y-84726127D01*
X130521502Y-84707820D01*
X130462537Y-84597506D01*
X130383185Y-84500815D01*
X130286494Y-84421463D01*
X130176180Y-84362498D01*
X130056482Y-84326188D01*
X129932000Y-84313928D01*
X129317750Y-84317000D01*
X129159000Y-84475750D01*
X128905000Y-84475750D01*
X128746250Y-84317000D01*
X128132000Y-84313928D01*
X128007518Y-84326188D01*
X127887820Y-84362498D01*
X127777506Y-84421463D01*
X127680815Y-84500815D01*
X127601463Y-84597506D01*
X127542498Y-84707820D01*
X127506188Y-84827518D01*
X127493928Y-84952000D01*
X123321057Y-84952000D01*
X123383513Y-84746111D01*
X123412185Y-84455000D01*
X123383513Y-84163889D01*
X123298599Y-83883966D01*
X123160706Y-83625986D01*
X122975134Y-83399866D01*
X122749014Y-83214294D01*
X122694209Y-83185000D01*
X122749014Y-83155706D01*
X122975134Y-82970134D01*
X123160706Y-82744014D01*
X123298599Y-82486034D01*
X123383513Y-82206111D01*
X123412185Y-81915000D01*
X123383513Y-81623889D01*
X123321058Y-81418000D01*
X127493928Y-81418000D01*
X127506188Y-81542482D01*
X127542498Y-81662180D01*
X127601463Y-81772494D01*
X127680815Y-81869185D01*
X127777506Y-81948537D01*
X127887820Y-82007502D01*
X128007518Y-82043812D01*
X128132000Y-82056072D01*
X128746250Y-82053000D01*
X128905000Y-81894250D01*
X128905000Y-80645000D01*
X127655750Y-80645000D01*
X127497000Y-80803750D01*
X127493928Y-81418000D01*
X123321058Y-81418000D01*
X123298599Y-81343966D01*
X123160706Y-81085986D01*
X122975134Y-80859866D01*
X122749014Y-80674294D01*
X122694209Y-80645000D01*
X122749014Y-80615706D01*
X122975134Y-80430134D01*
X123160706Y-80204014D01*
X123298599Y-79946034D01*
X123383513Y-79666111D01*
X123388251Y-79618000D01*
X127493928Y-79618000D01*
X127497000Y-80232250D01*
X127655750Y-80391000D01*
X128905000Y-80391000D01*
X128905000Y-79141750D01*
X129159000Y-79141750D01*
X129159000Y-80391000D01*
X129179000Y-80391000D01*
X129179000Y-80645000D01*
X129159000Y-80645000D01*
X129159000Y-81894250D01*
X129317750Y-82053000D01*
X129932000Y-82056072D01*
X130056482Y-82043812D01*
X130176180Y-82007502D01*
X130286494Y-81948537D01*
X130383185Y-81869185D01*
X130462537Y-81772494D01*
X130521502Y-81662180D01*
X130527056Y-81643873D01*
X130593495Y-81710312D01*
X130844905Y-81878299D01*
X131124257Y-81994011D01*
X131420816Y-82053000D01*
X131723184Y-82053000D01*
X132019743Y-81994011D01*
X132299095Y-81878299D01*
X132550505Y-81710312D01*
X132764312Y-81496505D01*
X132932299Y-81245095D01*
X133048011Y-80965743D01*
X133107000Y-80669184D01*
X133107000Y-80366816D01*
X133048011Y-80070257D01*
X132932299Y-79790905D01*
X132764312Y-79539495D01*
X132550505Y-79325688D01*
X132299095Y-79157701D01*
X132019743Y-79041989D01*
X131723184Y-78983000D01*
X131420816Y-78983000D01*
X131124257Y-79041989D01*
X130844905Y-79157701D01*
X130593495Y-79325688D01*
X130527056Y-79392127D01*
X130521502Y-79373820D01*
X130462537Y-79263506D01*
X130383185Y-79166815D01*
X130286494Y-79087463D01*
X130176180Y-79028498D01*
X130056482Y-78992188D01*
X129932000Y-78979928D01*
X129317750Y-78983000D01*
X129159000Y-79141750D01*
X128905000Y-79141750D01*
X128746250Y-78983000D01*
X128132000Y-78979928D01*
X128007518Y-78992188D01*
X127887820Y-79028498D01*
X127777506Y-79087463D01*
X127680815Y-79166815D01*
X127601463Y-79263506D01*
X127542498Y-79373820D01*
X127506188Y-79493518D01*
X127493928Y-79618000D01*
X123388251Y-79618000D01*
X123412185Y-79375000D01*
X123383513Y-79083889D01*
X123317114Y-78865000D01*
X138714099Y-78865000D01*
X138736068Y-78906101D01*
X138915392Y-79124608D01*
X139133899Y-79303932D01*
X139266858Y-79375000D01*
X139133899Y-79446068D01*
X138915392Y-79625392D01*
X138736068Y-79843899D01*
X138602818Y-80093192D01*
X138520764Y-80363691D01*
X138493057Y-80645000D01*
X138520764Y-80926309D01*
X138602818Y-81196808D01*
X138736068Y-81446101D01*
X138915392Y-81664608D01*
X139133899Y-81843932D01*
X139266858Y-81915000D01*
X139133899Y-81986068D01*
X138915392Y-82165392D01*
X138736068Y-82383899D01*
X138602818Y-82633192D01*
X138520764Y-82903691D01*
X138493057Y-83185000D01*
X138520764Y-83466309D01*
X138602818Y-83736808D01*
X138736068Y-83986101D01*
X138915392Y-84204608D01*
X139133899Y-84383932D01*
X139266858Y-84455000D01*
X139133899Y-84526068D01*
X138915392Y-84705392D01*
X138736068Y-84923899D01*
X138602818Y-85173192D01*
X138520764Y-85443691D01*
X138493057Y-85725000D01*
X138520764Y-86006309D01*
X138602818Y-86276808D01*
X138736068Y-86526101D01*
X138915392Y-86744608D01*
X139133899Y-86923932D01*
X139261741Y-86992265D01*
X139032161Y-87142399D01*
X138830500Y-87340105D01*
X138671285Y-87573354D01*
X138560633Y-87833182D01*
X138543096Y-87915961D01*
X138665085Y-88138000D01*
X140208000Y-88138000D01*
X140208000Y-88118000D01*
X140462000Y-88118000D01*
X140462000Y-88138000D01*
X140482000Y-88138000D01*
X140482000Y-88392000D01*
X140462000Y-88392000D01*
X140462000Y-88412000D01*
X140208000Y-88412000D01*
X140208000Y-88392000D01*
X138665085Y-88392000D01*
X138543096Y-88614039D01*
X138560633Y-88696818D01*
X138671285Y-88956646D01*
X138830500Y-89189895D01*
X139032161Y-89387601D01*
X139268517Y-89542166D01*
X139530486Y-89647650D01*
X139808000Y-89700000D01*
X139816203Y-89700000D01*
X139566202Y-89950001D01*
X123408072Y-89950001D01*
X123408072Y-88685000D01*
X123395812Y-88560518D01*
X123359502Y-88440820D01*
X123300537Y-88330506D01*
X123221185Y-88233815D01*
X123124494Y-88154463D01*
X123014180Y-88095498D01*
X122933534Y-88071034D01*
X123017588Y-87995269D01*
X123191641Y-87761920D01*
X123316825Y-87499099D01*
X123361476Y-87351890D01*
X123240155Y-87122000D01*
X122047000Y-87122000D01*
X122047000Y-87142000D01*
X121793000Y-87142000D01*
X121793000Y-87122000D01*
X120599845Y-87122000D01*
X120478524Y-87351890D01*
X120523175Y-87499099D01*
X120648359Y-87761920D01*
X120822412Y-87995269D01*
X120906466Y-88071034D01*
X120825820Y-88095498D01*
X120715506Y-88154463D01*
X120618815Y-88233815D01*
X120539463Y-88330506D01*
X120480498Y-88440820D01*
X120444188Y-88560518D01*
X120431928Y-88685000D01*
X120431928Y-89950001D01*
X110644801Y-89950001D01*
X106225776Y-85530976D01*
X115020000Y-85530976D01*
X115020000Y-85789024D01*
X115070342Y-86042113D01*
X115169093Y-86280518D01*
X115312456Y-86495077D01*
X115494923Y-86677544D01*
X115709482Y-86820907D01*
X115947887Y-86919658D01*
X116200976Y-86970000D01*
X116459024Y-86970000D01*
X116712113Y-86919658D01*
X116950518Y-86820907D01*
X117165077Y-86677544D01*
X117347544Y-86495077D01*
X117490907Y-86280518D01*
X117589658Y-86042113D01*
X117640000Y-85789024D01*
X117640000Y-85530976D01*
X117589658Y-85277887D01*
X117490907Y-85039482D01*
X117347544Y-84824923D01*
X117175940Y-84653319D01*
X117308303Y-84531227D01*
X117459473Y-84323629D01*
X117567238Y-84090528D01*
X117597910Y-83989400D01*
X117474224Y-83787000D01*
X116457000Y-83787000D01*
X116457000Y-83807000D01*
X116203000Y-83807000D01*
X116203000Y-83787000D01*
X115185776Y-83787000D01*
X115062090Y-83989400D01*
X115092762Y-84090528D01*
X115200527Y-84323629D01*
X115351697Y-84531227D01*
X115484060Y-84653319D01*
X115312456Y-84824923D01*
X115169093Y-85039482D01*
X115070342Y-85277887D01*
X115020000Y-85530976D01*
X106225776Y-85530976D01*
X89471557Y-68776758D01*
X89605077Y-68687544D01*
X89772777Y-68519844D01*
X89839208Y-68600792D01*
X90038682Y-68764495D01*
X90266259Y-68886138D01*
X90513195Y-68961045D01*
X90705649Y-68980000D01*
X90834351Y-68980000D01*
X91026805Y-68961045D01*
X91273741Y-68886138D01*
X91501318Y-68764495D01*
X91700792Y-68600792D01*
X91770000Y-68516461D01*
X91839208Y-68600792D01*
X92038682Y-68764495D01*
X92266259Y-68886138D01*
X92513195Y-68961045D01*
X92705649Y-68980000D01*
X92834351Y-68980000D01*
X93026805Y-68961045D01*
X93273741Y-68886138D01*
X93501318Y-68764495D01*
X93700792Y-68600792D01*
X93770000Y-68516461D01*
X93839208Y-68600792D01*
X93839208Y-68600792D01*
G37*
X93839208Y-68600792D02*
X94038682Y-68764495D01*
X94266259Y-68886138D01*
X94513195Y-68961045D01*
X94705649Y-68980000D01*
X94834351Y-68980000D01*
X94989880Y-68964682D01*
X95497200Y-69472002D01*
X95520999Y-69501001D01*
X95636724Y-69595974D01*
X95768753Y-69666546D01*
X95912014Y-69710003D01*
X96023667Y-69721000D01*
X96023675Y-69721000D01*
X96061000Y-69724676D01*
X96098325Y-69721000D01*
X103109789Y-69721000D01*
X103240001Y-69851212D01*
X103263804Y-69880216D01*
X103379529Y-69975189D01*
X103511558Y-70045761D01*
X103654819Y-70089218D01*
X103766472Y-70100215D01*
X103766482Y-70100215D01*
X103803805Y-70103891D01*
X103841127Y-70100215D01*
X104852594Y-70100215D01*
X107018380Y-72266002D01*
X107042179Y-72295001D01*
X107157904Y-72389974D01*
X107289933Y-72460546D01*
X107433194Y-72504003D01*
X107544847Y-72515000D01*
X107544855Y-72515000D01*
X107582180Y-72518676D01*
X107619505Y-72515000D01*
X111993787Y-72515000D01*
X114649793Y-75171008D01*
X114673587Y-75200001D01*
X114702580Y-75223795D01*
X114702584Y-75223799D01*
X114773273Y-75281811D01*
X114789312Y-75294974D01*
X114921341Y-75365546D01*
X115039503Y-75401389D01*
X115038955Y-75403195D01*
X115013662Y-75660000D01*
X115038955Y-75916805D01*
X115113862Y-76163741D01*
X115235505Y-76391318D01*
X115399208Y-76590792D01*
X115483539Y-76660000D01*
X115399208Y-76729208D01*
X115235505Y-76928682D01*
X115113862Y-77156259D01*
X115038955Y-77403195D01*
X115013662Y-77660000D01*
X115038955Y-77916805D01*
X115113862Y-78163741D01*
X115235505Y-78391318D01*
X115399208Y-78590792D01*
X115483539Y-78660000D01*
X115399208Y-78729208D01*
X115235505Y-78928682D01*
X115113862Y-79156259D01*
X115038955Y-79403195D01*
X115013662Y-79660000D01*
X115038955Y-79916805D01*
X115113862Y-80163741D01*
X115235505Y-80391318D01*
X115399208Y-80590792D01*
X115483539Y-80660000D01*
X115399208Y-80729208D01*
X115235505Y-80928682D01*
X115113862Y-81156259D01*
X115038955Y-81403195D01*
X115013662Y-81660000D01*
X115038955Y-81916805D01*
X115113862Y-82163741D01*
X115235505Y-82391318D01*
X115399208Y-82590792D01*
X115487648Y-82663372D01*
X115351697Y-82788773D01*
X115200527Y-82996371D01*
X115092762Y-83229472D01*
X115062090Y-83330600D01*
X115185776Y-83533000D01*
X116203000Y-83533000D01*
X116203000Y-83513000D01*
X116457000Y-83513000D01*
X116457000Y-83533000D01*
X117474224Y-83533000D01*
X117597910Y-83330600D01*
X117567238Y-83229472D01*
X117459473Y-82996371D01*
X117308303Y-82788773D01*
X117172352Y-82663372D01*
X117260792Y-82590792D01*
X117424495Y-82391318D01*
X117546138Y-82163741D01*
X117621045Y-81916805D01*
X117646338Y-81660000D01*
X117621045Y-81403195D01*
X117546138Y-81156259D01*
X117424495Y-80928682D01*
X117260792Y-80729208D01*
X117176461Y-80660000D01*
X117260792Y-80590792D01*
X117424495Y-80391318D01*
X117546138Y-80163741D01*
X117621045Y-79916805D01*
X117646338Y-79660000D01*
X117621045Y-79403195D01*
X117546138Y-79156259D01*
X117424495Y-78928682D01*
X117260792Y-78729208D01*
X117176461Y-78660000D01*
X117260792Y-78590792D01*
X117424495Y-78391318D01*
X117546138Y-78163741D01*
X117621045Y-77916805D01*
X117646338Y-77660000D01*
X117621045Y-77403195D01*
X117546138Y-77156259D01*
X117424495Y-76928682D01*
X117260792Y-76729208D01*
X117176461Y-76660000D01*
X117260792Y-76590792D01*
X117424495Y-76391318D01*
X117546138Y-76163741D01*
X117621045Y-75916805D01*
X117646338Y-75660000D01*
X117622700Y-75420000D01*
X117691197Y-75420000D01*
X120741448Y-78470252D01*
X120679294Y-78545986D01*
X120541401Y-78803966D01*
X120456487Y-79083889D01*
X120427815Y-79375000D01*
X120456487Y-79666111D01*
X120541401Y-79946034D01*
X120679294Y-80204014D01*
X120864866Y-80430134D01*
X121090986Y-80615706D01*
X121145791Y-80645000D01*
X121090986Y-80674294D01*
X120864866Y-80859866D01*
X120679294Y-81085986D01*
X120541401Y-81343966D01*
X120456487Y-81623889D01*
X120427815Y-81915000D01*
X120456487Y-82206111D01*
X120541401Y-82486034D01*
X120679294Y-82744014D01*
X120864866Y-82970134D01*
X121090986Y-83155706D01*
X121145791Y-83185000D01*
X121090986Y-83214294D01*
X120864866Y-83399866D01*
X120679294Y-83625986D01*
X120541401Y-83883966D01*
X120456487Y-84163889D01*
X120427815Y-84455000D01*
X120456487Y-84746111D01*
X120541401Y-85026034D01*
X120679294Y-85284014D01*
X120864866Y-85510134D01*
X121090986Y-85695706D01*
X121155523Y-85730201D01*
X121038645Y-85799822D01*
X120822412Y-85994731D01*
X120648359Y-86228080D01*
X120523175Y-86490901D01*
X120478524Y-86638110D01*
X120599845Y-86868000D01*
X121793000Y-86868000D01*
X121793000Y-86848000D01*
X122047000Y-86848000D01*
X122047000Y-86868000D01*
X123240155Y-86868000D01*
X123301372Y-86752000D01*
X127493928Y-86752000D01*
X127506188Y-86876482D01*
X127542498Y-86996180D01*
X127601463Y-87106494D01*
X127680815Y-87203185D01*
X127777506Y-87282537D01*
X127887820Y-87341502D01*
X128007518Y-87377812D01*
X128132000Y-87390072D01*
X128746250Y-87387000D01*
X128905000Y-87228250D01*
X128905000Y-85979000D01*
X127655750Y-85979000D01*
X127497000Y-86137750D01*
X127493928Y-86752000D01*
X123301372Y-86752000D01*
X123361476Y-86638110D01*
X123316825Y-86490901D01*
X123191641Y-86228080D01*
X123017588Y-85994731D01*
X122801355Y-85799822D01*
X122684477Y-85730201D01*
X122749014Y-85695706D01*
X122975134Y-85510134D01*
X123160706Y-85284014D01*
X123298599Y-85026034D01*
X123321057Y-84952000D01*
X127493928Y-84952000D01*
X127497000Y-85566250D01*
X127655750Y-85725000D01*
X128905000Y-85725000D01*
X128905000Y-84475750D01*
X129159000Y-84475750D01*
X129159000Y-85725000D01*
X129179000Y-85725000D01*
X129179000Y-85979000D01*
X129159000Y-85979000D01*
X129159000Y-87228250D01*
X129317750Y-87387000D01*
X129932000Y-87390072D01*
X130056482Y-87377812D01*
X130176180Y-87341502D01*
X130286494Y-87282537D01*
X130383185Y-87203185D01*
X130462537Y-87106494D01*
X130521502Y-86996180D01*
X130527056Y-86977873D01*
X130593495Y-87044312D01*
X130844905Y-87212299D01*
X131124257Y-87328011D01*
X131420816Y-87387000D01*
X131723184Y-87387000D01*
X132019743Y-87328011D01*
X132299095Y-87212299D01*
X132550505Y-87044312D01*
X132764312Y-86830505D01*
X132932299Y-86579095D01*
X133048011Y-86299743D01*
X133107000Y-86003184D01*
X133107000Y-85700816D01*
X133048011Y-85404257D01*
X132932299Y-85124905D01*
X132764312Y-84873495D01*
X132550505Y-84659688D01*
X132299095Y-84491701D01*
X132019743Y-84375989D01*
X131723184Y-84317000D01*
X131420816Y-84317000D01*
X131124257Y-84375989D01*
X130844905Y-84491701D01*
X130593495Y-84659688D01*
X130527056Y-84726127D01*
X130521502Y-84707820D01*
X130462537Y-84597506D01*
X130383185Y-84500815D01*
X130286494Y-84421463D01*
X130176180Y-84362498D01*
X130056482Y-84326188D01*
X129932000Y-84313928D01*
X129317750Y-84317000D01*
X129159000Y-84475750D01*
X128905000Y-84475750D01*
X128746250Y-84317000D01*
X128132000Y-84313928D01*
X128007518Y-84326188D01*
X127887820Y-84362498D01*
X127777506Y-84421463D01*
X127680815Y-84500815D01*
X127601463Y-84597506D01*
X127542498Y-84707820D01*
X127506188Y-84827518D01*
X127493928Y-84952000D01*
X123321057Y-84952000D01*
X123383513Y-84746111D01*
X123412185Y-84455000D01*
X123383513Y-84163889D01*
X123298599Y-83883966D01*
X123160706Y-83625986D01*
X122975134Y-83399866D01*
X122749014Y-83214294D01*
X122694209Y-83185000D01*
X122749014Y-83155706D01*
X122975134Y-82970134D01*
X123160706Y-82744014D01*
X123298599Y-82486034D01*
X123383513Y-82206111D01*
X123412185Y-81915000D01*
X123383513Y-81623889D01*
X123321058Y-81418000D01*
X127493928Y-81418000D01*
X127506188Y-81542482D01*
X127542498Y-81662180D01*
X127601463Y-81772494D01*
X127680815Y-81869185D01*
X127777506Y-81948537D01*
X127887820Y-82007502D01*
X128007518Y-82043812D01*
X128132000Y-82056072D01*
X128746250Y-82053000D01*
X128905000Y-81894250D01*
X128905000Y-80645000D01*
X127655750Y-80645000D01*
X127497000Y-80803750D01*
X127493928Y-81418000D01*
X123321058Y-81418000D01*
X123298599Y-81343966D01*
X123160706Y-81085986D01*
X122975134Y-80859866D01*
X122749014Y-80674294D01*
X122694209Y-80645000D01*
X122749014Y-80615706D01*
X122975134Y-80430134D01*
X123160706Y-80204014D01*
X123298599Y-79946034D01*
X123383513Y-79666111D01*
X123388251Y-79618000D01*
X127493928Y-79618000D01*
X127497000Y-80232250D01*
X127655750Y-80391000D01*
X128905000Y-80391000D01*
X128905000Y-79141750D01*
X129159000Y-79141750D01*
X129159000Y-80391000D01*
X129179000Y-80391000D01*
X129179000Y-80645000D01*
X129159000Y-80645000D01*
X129159000Y-81894250D01*
X129317750Y-82053000D01*
X129932000Y-82056072D01*
X130056482Y-82043812D01*
X130176180Y-82007502D01*
X130286494Y-81948537D01*
X130383185Y-81869185D01*
X130462537Y-81772494D01*
X130521502Y-81662180D01*
X130527056Y-81643873D01*
X130593495Y-81710312D01*
X130844905Y-81878299D01*
X131124257Y-81994011D01*
X131420816Y-82053000D01*
X131723184Y-82053000D01*
X132019743Y-81994011D01*
X132299095Y-81878299D01*
X132550505Y-81710312D01*
X132764312Y-81496505D01*
X132932299Y-81245095D01*
X133048011Y-80965743D01*
X133107000Y-80669184D01*
X133107000Y-80366816D01*
X133048011Y-80070257D01*
X132932299Y-79790905D01*
X132764312Y-79539495D01*
X132550505Y-79325688D01*
X132299095Y-79157701D01*
X132019743Y-79041989D01*
X131723184Y-78983000D01*
X131420816Y-78983000D01*
X131124257Y-79041989D01*
X130844905Y-79157701D01*
X130593495Y-79325688D01*
X130527056Y-79392127D01*
X130521502Y-79373820D01*
X130462537Y-79263506D01*
X130383185Y-79166815D01*
X130286494Y-79087463D01*
X130176180Y-79028498D01*
X130056482Y-78992188D01*
X129932000Y-78979928D01*
X129317750Y-78983000D01*
X129159000Y-79141750D01*
X128905000Y-79141750D01*
X128746250Y-78983000D01*
X128132000Y-78979928D01*
X128007518Y-78992188D01*
X127887820Y-79028498D01*
X127777506Y-79087463D01*
X127680815Y-79166815D01*
X127601463Y-79263506D01*
X127542498Y-79373820D01*
X127506188Y-79493518D01*
X127493928Y-79618000D01*
X123388251Y-79618000D01*
X123412185Y-79375000D01*
X123383513Y-79083889D01*
X123317114Y-78865000D01*
X138714099Y-78865000D01*
X138736068Y-78906101D01*
X138915392Y-79124608D01*
X139133899Y-79303932D01*
X139266858Y-79375000D01*
X139133899Y-79446068D01*
X138915392Y-79625392D01*
X138736068Y-79843899D01*
X138602818Y-80093192D01*
X138520764Y-80363691D01*
X138493057Y-80645000D01*
X138520764Y-80926309D01*
X138602818Y-81196808D01*
X138736068Y-81446101D01*
X138915392Y-81664608D01*
X139133899Y-81843932D01*
X139266858Y-81915000D01*
X139133899Y-81986068D01*
X138915392Y-82165392D01*
X138736068Y-82383899D01*
X138602818Y-82633192D01*
X138520764Y-82903691D01*
X138493057Y-83185000D01*
X138520764Y-83466309D01*
X138602818Y-83736808D01*
X138736068Y-83986101D01*
X138915392Y-84204608D01*
X139133899Y-84383932D01*
X139266858Y-84455000D01*
X139133899Y-84526068D01*
X138915392Y-84705392D01*
X138736068Y-84923899D01*
X138602818Y-85173192D01*
X138520764Y-85443691D01*
X138493057Y-85725000D01*
X138520764Y-86006309D01*
X138602818Y-86276808D01*
X138736068Y-86526101D01*
X138915392Y-86744608D01*
X139133899Y-86923932D01*
X139261741Y-86992265D01*
X139032161Y-87142399D01*
X138830500Y-87340105D01*
X138671285Y-87573354D01*
X138560633Y-87833182D01*
X138543096Y-87915961D01*
X138665085Y-88138000D01*
X140208000Y-88138000D01*
X140208000Y-88118000D01*
X140462000Y-88118000D01*
X140462000Y-88138000D01*
X140482000Y-88138000D01*
X140482000Y-88392000D01*
X140462000Y-88392000D01*
X140462000Y-88412000D01*
X140208000Y-88412000D01*
X140208000Y-88392000D01*
X138665085Y-88392000D01*
X138543096Y-88614039D01*
X138560633Y-88696818D01*
X138671285Y-88956646D01*
X138830500Y-89189895D01*
X139032161Y-89387601D01*
X139268517Y-89542166D01*
X139530486Y-89647650D01*
X139808000Y-89700000D01*
X139816203Y-89700000D01*
X139566202Y-89950001D01*
X123408072Y-89950001D01*
X123408072Y-88685000D01*
X123395812Y-88560518D01*
X123359502Y-88440820D01*
X123300537Y-88330506D01*
X123221185Y-88233815D01*
X123124494Y-88154463D01*
X123014180Y-88095498D01*
X122933534Y-88071034D01*
X123017588Y-87995269D01*
X123191641Y-87761920D01*
X123316825Y-87499099D01*
X123361476Y-87351890D01*
X123240155Y-87122000D01*
X122047000Y-87122000D01*
X122047000Y-87142000D01*
X121793000Y-87142000D01*
X121793000Y-87122000D01*
X120599845Y-87122000D01*
X120478524Y-87351890D01*
X120523175Y-87499099D01*
X120648359Y-87761920D01*
X120822412Y-87995269D01*
X120906466Y-88071034D01*
X120825820Y-88095498D01*
X120715506Y-88154463D01*
X120618815Y-88233815D01*
X120539463Y-88330506D01*
X120480498Y-88440820D01*
X120444188Y-88560518D01*
X120431928Y-88685000D01*
X120431928Y-89950001D01*
X110644801Y-89950001D01*
X106225776Y-85530976D01*
X115020000Y-85530976D01*
X115020000Y-85789024D01*
X115070342Y-86042113D01*
X115169093Y-86280518D01*
X115312456Y-86495077D01*
X115494923Y-86677544D01*
X115709482Y-86820907D01*
X115947887Y-86919658D01*
X116200976Y-86970000D01*
X116459024Y-86970000D01*
X116712113Y-86919658D01*
X116950518Y-86820907D01*
X117165077Y-86677544D01*
X117347544Y-86495077D01*
X117490907Y-86280518D01*
X117589658Y-86042113D01*
X117640000Y-85789024D01*
X117640000Y-85530976D01*
X117589658Y-85277887D01*
X117490907Y-85039482D01*
X117347544Y-84824923D01*
X117175940Y-84653319D01*
X117308303Y-84531227D01*
X117459473Y-84323629D01*
X117567238Y-84090528D01*
X117597910Y-83989400D01*
X117474224Y-83787000D01*
X116457000Y-83787000D01*
X116457000Y-83807000D01*
X116203000Y-83807000D01*
X116203000Y-83787000D01*
X115185776Y-83787000D01*
X115062090Y-83989400D01*
X115092762Y-84090528D01*
X115200527Y-84323629D01*
X115351697Y-84531227D01*
X115484060Y-84653319D01*
X115312456Y-84824923D01*
X115169093Y-85039482D01*
X115070342Y-85277887D01*
X115020000Y-85530976D01*
X106225776Y-85530976D01*
X89471557Y-68776758D01*
X89605077Y-68687544D01*
X89772777Y-68519844D01*
X89839208Y-68600792D01*
X90038682Y-68764495D01*
X90266259Y-68886138D01*
X90513195Y-68961045D01*
X90705649Y-68980000D01*
X90834351Y-68980000D01*
X91026805Y-68961045D01*
X91273741Y-68886138D01*
X91501318Y-68764495D01*
X91700792Y-68600792D01*
X91770000Y-68516461D01*
X91839208Y-68600792D01*
X92038682Y-68764495D01*
X92266259Y-68886138D01*
X92513195Y-68961045D01*
X92705649Y-68980000D01*
X92834351Y-68980000D01*
X93026805Y-68961045D01*
X93273741Y-68886138D01*
X93501318Y-68764495D01*
X93700792Y-68600792D01*
X93770000Y-68516461D01*
X93839208Y-68600792D01*
G36*
X138601188Y-74950992D02*
G01*
X138622309Y-74976727D01*
X138602818Y-75013192D01*
X138520764Y-75283691D01*
X138493057Y-75565000D01*
X138520764Y-75846309D01*
X138602818Y-76116808D01*
X138657970Y-76219990D01*
X133014771Y-76219990D01*
X133048011Y-76139743D01*
X133107000Y-75843184D01*
X133107000Y-75540816D01*
X133048011Y-75244257D01*
X132932299Y-74964905D01*
X132764312Y-74713495D01*
X132550505Y-74499688D01*
X132299095Y-74331701D01*
X132019743Y-74215989D01*
X131723184Y-74157000D01*
X131420816Y-74157000D01*
X131124257Y-74215989D01*
X130844905Y-74331701D01*
X130593495Y-74499688D01*
X130527056Y-74566127D01*
X130521502Y-74547820D01*
X130462537Y-74437506D01*
X130383185Y-74340815D01*
X130286494Y-74261463D01*
X130176180Y-74202498D01*
X130056482Y-74166188D01*
X129932000Y-74153928D01*
X129317750Y-74157000D01*
X129159000Y-74315750D01*
X129159000Y-75565000D01*
X129179000Y-75565000D01*
X129179000Y-75819000D01*
X129159000Y-75819000D01*
X129159000Y-75839000D01*
X128905000Y-75839000D01*
X128905000Y-75819000D01*
X127655750Y-75819000D01*
X127497000Y-75977750D01*
X127495789Y-76219990D01*
X127078792Y-76219990D01*
X126007803Y-75149002D01*
X125984000Y-75119998D01*
X125868275Y-75025025D01*
X125736246Y-74954453D01*
X125592985Y-74910996D01*
X125481332Y-74899999D01*
X125481321Y-74899999D01*
X125443999Y-74896323D01*
X125406677Y-74899999D01*
X123280444Y-74899999D01*
X123298599Y-74866034D01*
X123321057Y-74792000D01*
X127493928Y-74792000D01*
X127497000Y-75406250D01*
X127655750Y-75565000D01*
X128905000Y-75565000D01*
X128905000Y-74315750D01*
X128746250Y-74157000D01*
X128132000Y-74153928D01*
X128007518Y-74166188D01*
X127887820Y-74202498D01*
X127777506Y-74261463D01*
X127680815Y-74340815D01*
X127601463Y-74437506D01*
X127542498Y-74547820D01*
X127506188Y-74667518D01*
X127493928Y-74792000D01*
X123321057Y-74792000D01*
X123383513Y-74586111D01*
X123412185Y-74295000D01*
X123383513Y-74003889D01*
X123298599Y-73723966D01*
X123280444Y-73690001D01*
X137340198Y-73690001D01*
X138601188Y-74950992D01*
X138601188Y-74950992D01*
G37*
X138601188Y-74950992D02*
X138622309Y-74976727D01*
X138602818Y-75013192D01*
X138520764Y-75283691D01*
X138493057Y-75565000D01*
X138520764Y-75846309D01*
X138602818Y-76116808D01*
X138657970Y-76219990D01*
X133014771Y-76219990D01*
X133048011Y-76139743D01*
X133107000Y-75843184D01*
X133107000Y-75540816D01*
X133048011Y-75244257D01*
X132932299Y-74964905D01*
X132764312Y-74713495D01*
X132550505Y-74499688D01*
X132299095Y-74331701D01*
X132019743Y-74215989D01*
X131723184Y-74157000D01*
X131420816Y-74157000D01*
X131124257Y-74215989D01*
X130844905Y-74331701D01*
X130593495Y-74499688D01*
X130527056Y-74566127D01*
X130521502Y-74547820D01*
X130462537Y-74437506D01*
X130383185Y-74340815D01*
X130286494Y-74261463D01*
X130176180Y-74202498D01*
X130056482Y-74166188D01*
X129932000Y-74153928D01*
X129317750Y-74157000D01*
X129159000Y-74315750D01*
X129159000Y-75565000D01*
X129179000Y-75565000D01*
X129179000Y-75819000D01*
X129159000Y-75819000D01*
X129159000Y-75839000D01*
X128905000Y-75839000D01*
X128905000Y-75819000D01*
X127655750Y-75819000D01*
X127497000Y-75977750D01*
X127495789Y-76219990D01*
X127078792Y-76219990D01*
X126007803Y-75149002D01*
X125984000Y-75119998D01*
X125868275Y-75025025D01*
X125736246Y-74954453D01*
X125592985Y-74910996D01*
X125481332Y-74899999D01*
X125481321Y-74899999D01*
X125443999Y-74896323D01*
X125406677Y-74899999D01*
X123280444Y-74899999D01*
X123298599Y-74866034D01*
X123321057Y-74792000D01*
X127493928Y-74792000D01*
X127497000Y-75406250D01*
X127655750Y-75565000D01*
X128905000Y-75565000D01*
X128905000Y-74315750D01*
X128746250Y-74157000D01*
X128132000Y-74153928D01*
X128007518Y-74166188D01*
X127887820Y-74202498D01*
X127777506Y-74261463D01*
X127680815Y-74340815D01*
X127601463Y-74437506D01*
X127542498Y-74547820D01*
X127506188Y-74667518D01*
X127493928Y-74792000D01*
X123321057Y-74792000D01*
X123383513Y-74586111D01*
X123412185Y-74295000D01*
X123383513Y-74003889D01*
X123298599Y-73723966D01*
X123280444Y-73690001D01*
X137340198Y-73690001D01*
X138601188Y-74950992D01*
M02*
