%TF.GenerationSoftware,KiCad,Pcbnew,(5.1.0)-1*%
%TF.CreationDate,2019-07-09T03:29:53+01:00*%
%TF.ProjectId,SmartGluttonV1,536d6172-7447-46c7-9574-746f6e56312e,1.0*%
%TF.SameCoordinates,Original*%
%TF.FileFunction,Legend,Top*%
%TF.FilePolarity,Positive*%
%FSLAX46Y46*%
G04 Gerber Fmt 4.6, Leading zero omitted, Abs format (unit mm)*
G04 Created by KiCad (PCBNEW (5.1.0)-1) date 2019-07-09 03:29:53*
%MOMM*%
%LPD*%
G04 APERTURE LIST*
%ADD10C,0.150000*%
%ADD11C,0.120000*%
G04 APERTURE END LIST*
D10*
X170867580Y-71435220D02*
X170296152Y-71435220D01*
X170581866Y-71435220D02*
X170581866Y-70435220D01*
X170486628Y-70578078D01*
X170391390Y-70673316D01*
X170296152Y-70720935D01*
X171486628Y-70435220D02*
X171581866Y-70435220D01*
X171677104Y-70482840D01*
X171724723Y-70530459D01*
X171772342Y-70625697D01*
X171819961Y-70816173D01*
X171819961Y-71054268D01*
X171772342Y-71244744D01*
X171724723Y-71339982D01*
X171677104Y-71387601D01*
X171581866Y-71435220D01*
X171486628Y-71435220D01*
X171391390Y-71387601D01*
X171343771Y-71339982D01*
X171296152Y-71244744D01*
X171248533Y-71054268D01*
X171248533Y-70816173D01*
X171296152Y-70625697D01*
X171343771Y-70530459D01*
X171391390Y-70482840D01*
X171486628Y-70435220D01*
X172439009Y-70435220D02*
X172534247Y-70435220D01*
X172629485Y-70482840D01*
X172677104Y-70530459D01*
X172724723Y-70625697D01*
X172772342Y-70816173D01*
X172772342Y-71054268D01*
X172724723Y-71244744D01*
X172677104Y-71339982D01*
X172629485Y-71387601D01*
X172534247Y-71435220D01*
X172439009Y-71435220D01*
X172343771Y-71387601D01*
X172296152Y-71339982D01*
X172248533Y-71244744D01*
X172200914Y-71054268D01*
X172200914Y-70816173D01*
X172248533Y-70625697D01*
X172296152Y-70530459D01*
X172343771Y-70482840D01*
X172439009Y-70435220D01*
X173200914Y-70768554D02*
X173200914Y-71435220D01*
X173200914Y-70863792D02*
X173248533Y-70816173D01*
X173343771Y-70768554D01*
X173486628Y-70768554D01*
X173581866Y-70816173D01*
X173629485Y-70911411D01*
X173629485Y-71435220D01*
X174439009Y-70911411D02*
X174105676Y-70911411D01*
X174105676Y-71435220D02*
X174105676Y-70435220D01*
X174581866Y-70435220D01*
X197209849Y-57547260D02*
X197400325Y-57547260D01*
X197495563Y-57594880D01*
X197590801Y-57690118D01*
X197638420Y-57880594D01*
X197638420Y-58213927D01*
X197590801Y-58404403D01*
X197495563Y-58499641D01*
X197400325Y-58547260D01*
X197209849Y-58547260D01*
X197114611Y-58499641D01*
X197019373Y-58404403D01*
X196971754Y-58213927D01*
X196971754Y-57880594D01*
X197019373Y-57690118D01*
X197114611Y-57594880D01*
X197209849Y-57547260D01*
X198066992Y-58547260D02*
X198066992Y-57547260D01*
X198447944Y-57547260D01*
X198543182Y-57594880D01*
X198590801Y-57642499D01*
X198638420Y-57737737D01*
X198638420Y-57880594D01*
X198590801Y-57975832D01*
X198543182Y-58023451D01*
X198447944Y-58071070D01*
X198066992Y-58071070D01*
X198924135Y-57547260D02*
X199495563Y-57547260D01*
X199209849Y-58547260D02*
X199209849Y-57547260D01*
X130875851Y-69657220D02*
X130542518Y-69181030D01*
X130304422Y-69657220D02*
X130304422Y-68657220D01*
X130685375Y-68657220D01*
X130780613Y-68704840D01*
X130828232Y-68752459D01*
X130875851Y-68847697D01*
X130875851Y-68990554D01*
X130828232Y-69085792D01*
X130780613Y-69133411D01*
X130685375Y-69181030D01*
X130304422Y-69181030D01*
X131209184Y-68657220D02*
X131828232Y-68657220D01*
X131494899Y-69038173D01*
X131637756Y-69038173D01*
X131732994Y-69085792D01*
X131780613Y-69133411D01*
X131828232Y-69228649D01*
X131828232Y-69466744D01*
X131780613Y-69561982D01*
X131732994Y-69609601D01*
X131637756Y-69657220D01*
X131352041Y-69657220D01*
X131256803Y-69609601D01*
X131209184Y-69561982D01*
X132256803Y-69276268D02*
X133018708Y-69276268D01*
X133637756Y-69085792D02*
X133542518Y-69038173D01*
X133494899Y-68990554D01*
X133447280Y-68895316D01*
X133447280Y-68847697D01*
X133494899Y-68752459D01*
X133542518Y-68704840D01*
X133637756Y-68657220D01*
X133828232Y-68657220D01*
X133923470Y-68704840D01*
X133971089Y-68752459D01*
X134018708Y-68847697D01*
X134018708Y-68895316D01*
X133971089Y-68990554D01*
X133923470Y-69038173D01*
X133828232Y-69085792D01*
X133637756Y-69085792D01*
X133542518Y-69133411D01*
X133494899Y-69181030D01*
X133447280Y-69276268D01*
X133447280Y-69466744D01*
X133494899Y-69561982D01*
X133542518Y-69609601D01*
X133637756Y-69657220D01*
X133828232Y-69657220D01*
X133923470Y-69609601D01*
X133971089Y-69561982D01*
X134018708Y-69466744D01*
X134018708Y-69276268D01*
X133971089Y-69181030D01*
X133923470Y-69133411D01*
X133828232Y-69085792D01*
X135732994Y-69657220D02*
X135161565Y-69657220D01*
X135447280Y-69657220D02*
X135447280Y-68657220D01*
X135352041Y-68800078D01*
X135256803Y-68895316D01*
X135161565Y-68942935D01*
X136685375Y-69657220D02*
X136113946Y-69657220D01*
X136399660Y-69657220D02*
X136399660Y-68657220D01*
X136304422Y-68800078D01*
X136209184Y-68895316D01*
X136113946Y-68942935D01*
X137304422Y-68657220D02*
X137399660Y-68657220D01*
X137494899Y-68704840D01*
X137542518Y-68752459D01*
X137590137Y-68847697D01*
X137637756Y-69038173D01*
X137637756Y-69276268D01*
X137590137Y-69466744D01*
X137542518Y-69561982D01*
X137494899Y-69609601D01*
X137399660Y-69657220D01*
X137304422Y-69657220D01*
X137209184Y-69609601D01*
X137161565Y-69561982D01*
X137113946Y-69466744D01*
X137066327Y-69276268D01*
X137066327Y-69038173D01*
X137113946Y-68847697D01*
X137161565Y-68752459D01*
X137209184Y-68704840D01*
X137304422Y-68657220D01*
X138637756Y-69657220D02*
X138304422Y-69181030D01*
X138066327Y-69657220D02*
X138066327Y-68657220D01*
X138447280Y-68657220D01*
X138542518Y-68704840D01*
X138590137Y-68752459D01*
X138637756Y-68847697D01*
X138637756Y-68990554D01*
X138590137Y-69085792D01*
X138542518Y-69133411D01*
X138447280Y-69181030D01*
X138066327Y-69181030D01*
X113756700Y-98265739D02*
X113756700Y-98837167D01*
X113756700Y-98551453D02*
X112756700Y-98551453D01*
X112899558Y-98646691D01*
X112994796Y-98741929D01*
X113042415Y-98837167D01*
X112756700Y-97646691D02*
X112756700Y-97551453D01*
X112804320Y-97456215D01*
X112851939Y-97408596D01*
X112947177Y-97360977D01*
X113137653Y-97313358D01*
X113375748Y-97313358D01*
X113566224Y-97360977D01*
X113661462Y-97408596D01*
X113709081Y-97456215D01*
X113756700Y-97551453D01*
X113756700Y-97646691D01*
X113709081Y-97741929D01*
X113661462Y-97789548D01*
X113566224Y-97837167D01*
X113375748Y-97884786D01*
X113137653Y-97884786D01*
X112947177Y-97837167D01*
X112851939Y-97789548D01*
X112804320Y-97741929D01*
X112756700Y-97646691D01*
X112756700Y-96694310D02*
X112756700Y-96599072D01*
X112804320Y-96503834D01*
X112851939Y-96456215D01*
X112947177Y-96408596D01*
X113137653Y-96360977D01*
X113375748Y-96360977D01*
X113566224Y-96408596D01*
X113661462Y-96456215D01*
X113709081Y-96503834D01*
X113756700Y-96599072D01*
X113756700Y-96694310D01*
X113709081Y-96789548D01*
X113661462Y-96837167D01*
X113566224Y-96884786D01*
X113375748Y-96932405D01*
X113137653Y-96932405D01*
X112947177Y-96884786D01*
X112851939Y-96837167D01*
X112804320Y-96789548D01*
X112756700Y-96694310D01*
X113090034Y-95932405D02*
X113756700Y-95932405D01*
X113185272Y-95932405D02*
X113137653Y-95884786D01*
X113090034Y-95789548D01*
X113090034Y-95646691D01*
X113137653Y-95551453D01*
X113232891Y-95503834D01*
X113756700Y-95503834D01*
X113232891Y-94694310D02*
X113232891Y-95027643D01*
X113756700Y-95027643D02*
X112756700Y-95027643D01*
X112756700Y-94551453D01*
X181331620Y-97018670D02*
X181331620Y-96828194D01*
X181379240Y-96732956D01*
X181474478Y-96637718D01*
X181664954Y-96590099D01*
X181998287Y-96590099D01*
X182188763Y-96637718D01*
X182284001Y-96732956D01*
X182331620Y-96828194D01*
X182331620Y-97018670D01*
X182284001Y-97113908D01*
X182188763Y-97209146D01*
X181998287Y-97256765D01*
X181664954Y-97256765D01*
X181474478Y-97209146D01*
X181379240Y-97113908D01*
X181331620Y-97018670D01*
X182331620Y-96161527D02*
X181331620Y-96161527D01*
X181331620Y-95780575D01*
X181379240Y-95685337D01*
X181426859Y-95637718D01*
X181522097Y-95590099D01*
X181664954Y-95590099D01*
X181760192Y-95637718D01*
X181807811Y-95685337D01*
X181855430Y-95780575D01*
X181855430Y-96161527D01*
X181331620Y-95304384D02*
X181331620Y-94732956D01*
X182331620Y-95018670D02*
X181331620Y-95018670D01*
X177459735Y-71175619D02*
X177507354Y-71128000D01*
X177602592Y-71080380D01*
X177840687Y-71080380D01*
X177935925Y-71128000D01*
X177983544Y-71175619D01*
X178031163Y-71270857D01*
X178031163Y-71366095D01*
X177983544Y-71508952D01*
X177412116Y-72080380D01*
X178031163Y-72080380D01*
X178364497Y-71080380D02*
X179031163Y-71080380D01*
X178602592Y-72080380D01*
X178930775Y-78343499D02*
X178978394Y-78295880D01*
X179073632Y-78248260D01*
X179311727Y-78248260D01*
X179406965Y-78295880D01*
X179454584Y-78343499D01*
X179502203Y-78438737D01*
X179502203Y-78533975D01*
X179454584Y-78676832D01*
X178883156Y-79248260D01*
X179502203Y-79248260D01*
X179835537Y-78248260D02*
X180502203Y-78248260D01*
X180073632Y-79248260D01*
X181454584Y-79248260D02*
X181121251Y-78772070D01*
X180883156Y-79248260D02*
X180883156Y-78248260D01*
X181264108Y-78248260D01*
X181359346Y-78295880D01*
X181406965Y-78343499D01*
X181454584Y-78438737D01*
X181454584Y-78581594D01*
X181406965Y-78676832D01*
X181359346Y-78724451D01*
X181264108Y-78772070D01*
X180883156Y-78772070D01*
X186877034Y-73023266D02*
X187543700Y-73023266D01*
X186496081Y-73261361D02*
X187210367Y-73499457D01*
X187210367Y-72880409D01*
X186543700Y-72594695D02*
X186543700Y-71928028D01*
X187543700Y-72356600D01*
X186877034Y-71547076D02*
X187877034Y-71547076D01*
X186924653Y-71547076D02*
X186877034Y-71451838D01*
X186877034Y-71261361D01*
X186924653Y-71166123D01*
X186972272Y-71118504D01*
X187067510Y-71070885D01*
X187353224Y-71070885D01*
X187448462Y-71118504D01*
X187496081Y-71166123D01*
X187543700Y-71261361D01*
X187543700Y-71451838D01*
X187496081Y-71547076D01*
X187019891Y-70308980D02*
X187019891Y-70642314D01*
X187543700Y-70642314D02*
X186543700Y-70642314D01*
X186543700Y-70166123D01*
X188202914Y-78133746D02*
X188869580Y-78133746D01*
X187821961Y-78371841D02*
X188536247Y-78609937D01*
X188536247Y-77990889D01*
X187869580Y-77705175D02*
X187869580Y-77038508D01*
X188869580Y-77467080D01*
X188202914Y-76657556D02*
X189202914Y-76657556D01*
X188250533Y-76657556D02*
X188202914Y-76562318D01*
X188202914Y-76371841D01*
X188250533Y-76276603D01*
X188298152Y-76228984D01*
X188393390Y-76181365D01*
X188679104Y-76181365D01*
X188774342Y-76228984D01*
X188821961Y-76276603D01*
X188869580Y-76371841D01*
X188869580Y-76562318D01*
X188821961Y-76657556D01*
X188345771Y-75419460D02*
X188345771Y-75752794D01*
X188869580Y-75752794D02*
X187869580Y-75752794D01*
X187869580Y-75276603D01*
X170664380Y-65603380D02*
X170092952Y-65603380D01*
X170378666Y-65603380D02*
X170378666Y-64603380D01*
X170283428Y-64746238D01*
X170188190Y-64841476D01*
X170092952Y-64889095D01*
X171283428Y-64603380D02*
X171378666Y-64603380D01*
X171473904Y-64651000D01*
X171521523Y-64698619D01*
X171569142Y-64793857D01*
X171616761Y-64984333D01*
X171616761Y-65222428D01*
X171569142Y-65412904D01*
X171521523Y-65508142D01*
X171473904Y-65555761D01*
X171378666Y-65603380D01*
X171283428Y-65603380D01*
X171188190Y-65555761D01*
X171140571Y-65508142D01*
X171092952Y-65412904D01*
X171045333Y-65222428D01*
X171045333Y-64984333D01*
X171092952Y-64793857D01*
X171140571Y-64698619D01*
X171188190Y-64651000D01*
X171283428Y-64603380D01*
X172235809Y-64603380D02*
X172331047Y-64603380D01*
X172426285Y-64651000D01*
X172473904Y-64698619D01*
X172521523Y-64793857D01*
X172569142Y-64984333D01*
X172569142Y-65222428D01*
X172521523Y-65412904D01*
X172473904Y-65508142D01*
X172426285Y-65555761D01*
X172331047Y-65603380D01*
X172235809Y-65603380D01*
X172140571Y-65555761D01*
X172092952Y-65508142D01*
X172045333Y-65412904D01*
X171997714Y-65222428D01*
X171997714Y-64984333D01*
X172045333Y-64793857D01*
X172092952Y-64698619D01*
X172140571Y-64651000D01*
X172235809Y-64603380D01*
X172997714Y-64936714D02*
X172997714Y-65603380D01*
X172997714Y-65031952D02*
X173045333Y-64984333D01*
X173140571Y-64936714D01*
X173283428Y-64936714D01*
X173378666Y-64984333D01*
X173426285Y-65079571D01*
X173426285Y-65603380D01*
X174235809Y-65079571D02*
X173902476Y-65079571D01*
X173902476Y-65603380D02*
X173902476Y-64603380D01*
X174378666Y-64603380D01*
X176832118Y-64235674D02*
X176832118Y-64902340D01*
X176594022Y-63854721D02*
X176355927Y-64569007D01*
X176974975Y-64569007D01*
X177355927Y-64807102D02*
X177403546Y-64854721D01*
X177355927Y-64902340D01*
X177308308Y-64854721D01*
X177355927Y-64807102D01*
X177355927Y-64902340D01*
X177736880Y-63902340D02*
X178403546Y-63902340D01*
X177974975Y-64902340D01*
X179213070Y-64235674D02*
X179213070Y-64902340D01*
X178784499Y-64235674D02*
X178784499Y-64759483D01*
X178832118Y-64854721D01*
X178927356Y-64902340D01*
X179070213Y-64902340D01*
X179165451Y-64854721D01*
X179213070Y-64807102D01*
X180022594Y-64378531D02*
X179689260Y-64378531D01*
X179689260Y-64902340D02*
X179689260Y-63902340D01*
X180165451Y-63902340D01*
X168469060Y-62472984D02*
X168469060Y-62949175D01*
X168945251Y-62996794D01*
X168897632Y-62949175D01*
X168850013Y-62853937D01*
X168850013Y-62615841D01*
X168897632Y-62520603D01*
X168945251Y-62472984D01*
X169040489Y-62425365D01*
X169278584Y-62425365D01*
X169373822Y-62472984D01*
X169421441Y-62520603D01*
X169469060Y-62615841D01*
X169469060Y-62853937D01*
X169421441Y-62949175D01*
X169373822Y-62996794D01*
X169088108Y-61996794D02*
X169088108Y-61234889D01*
X168469060Y-60853937D02*
X168469060Y-60234889D01*
X168850013Y-60568222D01*
X168850013Y-60425365D01*
X168897632Y-60330127D01*
X168945251Y-60282508D01*
X169040489Y-60234889D01*
X169278584Y-60234889D01*
X169373822Y-60282508D01*
X169421441Y-60330127D01*
X169469060Y-60425365D01*
X169469060Y-60711080D01*
X169421441Y-60806318D01*
X169373822Y-60853937D01*
X168469060Y-59949175D02*
X169469060Y-59615841D01*
X168469060Y-59282508D01*
X168469060Y-59044413D02*
X168469060Y-58425365D01*
X168850013Y-58758699D01*
X168850013Y-58615841D01*
X168897632Y-58520603D01*
X168945251Y-58472984D01*
X169040489Y-58425365D01*
X169278584Y-58425365D01*
X169373822Y-58472984D01*
X169421441Y-58520603D01*
X169469060Y-58615841D01*
X169469060Y-58901556D01*
X169421441Y-58996794D01*
X169373822Y-59044413D01*
X196460763Y-92639140D02*
X195984573Y-92639140D01*
X195984573Y-91639140D01*
X196794097Y-92115331D02*
X197127430Y-92115331D01*
X197270287Y-92639140D02*
X196794097Y-92639140D01*
X196794097Y-91639140D01*
X197270287Y-91639140D01*
X197698859Y-92639140D02*
X197698859Y-91639140D01*
X197936954Y-91639140D01*
X198079811Y-91686760D01*
X198175049Y-91781998D01*
X198222668Y-91877236D01*
X198270287Y-92067712D01*
X198270287Y-92210569D01*
X198222668Y-92401045D01*
X198175049Y-92496283D01*
X198079811Y-92591521D01*
X197936954Y-92639140D01*
X197698859Y-92639140D01*
X198698859Y-92258188D02*
X199460763Y-92258188D01*
X200270287Y-92115331D02*
X200413144Y-92162950D01*
X200460763Y-92210569D01*
X200508382Y-92305807D01*
X200508382Y-92448664D01*
X200460763Y-92543902D01*
X200413144Y-92591521D01*
X200317906Y-92639140D01*
X199936954Y-92639140D01*
X199936954Y-91639140D01*
X200270287Y-91639140D01*
X200365525Y-91686760D01*
X200413144Y-91734379D01*
X200460763Y-91829617D01*
X200460763Y-91924855D01*
X200413144Y-92020093D01*
X200365525Y-92067712D01*
X200270287Y-92115331D01*
X199936954Y-92115331D01*
X200889335Y-92353426D02*
X201365525Y-92353426D01*
X200794097Y-92639140D02*
X201127430Y-91639140D01*
X201460763Y-92639140D01*
X202365525Y-92639140D02*
X202032192Y-92162950D01*
X201794097Y-92639140D02*
X201794097Y-91639140D01*
X202175049Y-91639140D01*
X202270287Y-91686760D01*
X202317906Y-91734379D01*
X202365525Y-91829617D01*
X202365525Y-91972474D01*
X202317906Y-92067712D01*
X202270287Y-92115331D01*
X202175049Y-92162950D01*
X201794097Y-92162950D01*
X194928194Y-72060060D02*
X194928194Y-71060060D01*
X195309146Y-71060060D01*
X195404384Y-71107680D01*
X195452003Y-71155299D01*
X195499622Y-71250537D01*
X195499622Y-71393394D01*
X195452003Y-71488632D01*
X195404384Y-71536251D01*
X195309146Y-71583870D01*
X194928194Y-71583870D01*
X195832956Y-71060060D02*
X196071051Y-72060060D01*
X196261527Y-71345775D01*
X196452003Y-72060060D01*
X196690099Y-71060060D01*
X197642480Y-72060060D02*
X197309146Y-71583870D01*
X197071051Y-72060060D02*
X197071051Y-71060060D01*
X197452003Y-71060060D01*
X197547241Y-71107680D01*
X197594860Y-71155299D01*
X197642480Y-71250537D01*
X197642480Y-71393394D01*
X197594860Y-71488632D01*
X197547241Y-71536251D01*
X197452003Y-71583870D01*
X197071051Y-71583870D01*
X198071051Y-71679108D02*
X198832956Y-71679108D01*
X199309146Y-72060060D02*
X199309146Y-71060060D01*
X199785337Y-72060060D02*
X199785337Y-71060060D01*
X200356765Y-72060060D01*
X200356765Y-71060060D01*
X117180575Y-58832500D02*
X117180575Y-59642024D01*
X117228194Y-59737262D01*
X117275813Y-59784881D01*
X117371051Y-59832500D01*
X117561527Y-59832500D01*
X117656765Y-59784881D01*
X117704384Y-59737262D01*
X117752003Y-59642024D01*
X117752003Y-58832500D01*
X118704384Y-59832500D02*
X118228194Y-59832500D01*
X118228194Y-58832500D01*
X118894860Y-58832500D02*
X119466289Y-58832500D01*
X119180575Y-59832500D02*
X119180575Y-58832500D01*
X120371051Y-59832500D02*
X120037718Y-59356310D01*
X119799622Y-59832500D02*
X119799622Y-58832500D01*
X120180575Y-58832500D01*
X120275813Y-58880120D01*
X120323432Y-58927739D01*
X120371051Y-59022977D01*
X120371051Y-59165834D01*
X120323432Y-59261072D01*
X120275813Y-59308691D01*
X120180575Y-59356310D01*
X119799622Y-59356310D01*
X120752003Y-59546786D02*
X121228194Y-59546786D01*
X120656765Y-59832500D02*
X120990099Y-58832500D01*
X121323432Y-59832500D01*
X121609146Y-59784881D02*
X121752003Y-59832500D01*
X121990099Y-59832500D01*
X122085337Y-59784881D01*
X122132956Y-59737262D01*
X122180575Y-59642024D01*
X122180575Y-59546786D01*
X122132956Y-59451548D01*
X122085337Y-59403929D01*
X121990099Y-59356310D01*
X121799622Y-59308691D01*
X121704384Y-59261072D01*
X121656765Y-59213453D01*
X121609146Y-59118215D01*
X121609146Y-59022977D01*
X121656765Y-58927739D01*
X121704384Y-58880120D01*
X121799622Y-58832500D01*
X122037718Y-58832500D01*
X122180575Y-58880120D01*
X122799622Y-58832500D02*
X122990099Y-58832500D01*
X123085337Y-58880120D01*
X123180575Y-58975358D01*
X123228194Y-59165834D01*
X123228194Y-59499167D01*
X123180575Y-59689643D01*
X123085337Y-59784881D01*
X122990099Y-59832500D01*
X122799622Y-59832500D01*
X122704384Y-59784881D01*
X122609146Y-59689643D01*
X122561527Y-59499167D01*
X122561527Y-59165834D01*
X122609146Y-58975358D01*
X122704384Y-58880120D01*
X122799622Y-58832500D01*
X123656765Y-59832500D02*
X123656765Y-58832500D01*
X124228194Y-59832500D01*
X124228194Y-58832500D01*
X124704384Y-59832500D02*
X124704384Y-58832500D01*
X125752003Y-59737262D02*
X125704384Y-59784881D01*
X125561527Y-59832500D01*
X125466289Y-59832500D01*
X125323432Y-59784881D01*
X125228194Y-59689643D01*
X125180575Y-59594405D01*
X125132956Y-59403929D01*
X125132956Y-59261072D01*
X125180575Y-59070596D01*
X125228194Y-58975358D01*
X125323432Y-58880120D01*
X125466289Y-58832500D01*
X125561527Y-58832500D01*
X125704384Y-58880120D01*
X125752003Y-58927739D01*
X160201765Y-70724780D02*
X160201765Y-71534304D01*
X160249384Y-71629542D01*
X160297003Y-71677161D01*
X160392241Y-71724780D01*
X160582718Y-71724780D01*
X160677956Y-71677161D01*
X160725575Y-71629542D01*
X160773194Y-71534304D01*
X160773194Y-70724780D01*
X161201765Y-71439066D02*
X161677956Y-71439066D01*
X161106527Y-71724780D02*
X161439860Y-70724780D01*
X161773194Y-71724780D01*
X162677956Y-71724780D02*
X162344622Y-71248590D01*
X162106527Y-71724780D02*
X162106527Y-70724780D01*
X162487480Y-70724780D01*
X162582718Y-70772400D01*
X162630337Y-70820019D01*
X162677956Y-70915257D01*
X162677956Y-71058114D01*
X162630337Y-71153352D01*
X162582718Y-71200971D01*
X162487480Y-71248590D01*
X162106527Y-71248590D01*
X162963670Y-70724780D02*
X163535099Y-70724780D01*
X163249384Y-71724780D02*
X163249384Y-70724780D01*
X163868432Y-71343828D02*
X164630337Y-71343828D01*
X165106527Y-71724780D02*
X165106527Y-70724780D01*
X165487480Y-70724780D01*
X165582718Y-70772400D01*
X165630337Y-70820019D01*
X165677956Y-70915257D01*
X165677956Y-71058114D01*
X165630337Y-71153352D01*
X165582718Y-71200971D01*
X165487480Y-71248590D01*
X165106527Y-71248590D01*
X166011289Y-70724780D02*
X166249384Y-71724780D01*
X166439860Y-71010495D01*
X166630337Y-71724780D01*
X166868432Y-70724780D01*
X167820813Y-71724780D02*
X167487480Y-71248590D01*
X167249384Y-71724780D02*
X167249384Y-70724780D01*
X167630337Y-70724780D01*
X167725575Y-70772400D01*
X167773194Y-70820019D01*
X167820813Y-70915257D01*
X167820813Y-71058114D01*
X167773194Y-71153352D01*
X167725575Y-71200971D01*
X167630337Y-71248590D01*
X167249384Y-71248590D01*
X130655440Y-94196445D02*
X130607820Y-94291683D01*
X130607820Y-94434540D01*
X130655440Y-94577398D01*
X130750678Y-94672636D01*
X130845916Y-94720255D01*
X131036392Y-94767874D01*
X131179249Y-94767874D01*
X131369725Y-94720255D01*
X131464963Y-94672636D01*
X131560201Y-94577398D01*
X131607820Y-94434540D01*
X131607820Y-94339302D01*
X131560201Y-94196445D01*
X131512582Y-94148826D01*
X131179249Y-94148826D01*
X131179249Y-94339302D01*
X131607820Y-93720255D02*
X130607820Y-93720255D01*
X130607820Y-93339302D01*
X130655440Y-93244064D01*
X130703059Y-93196445D01*
X130798297Y-93148826D01*
X130941154Y-93148826D01*
X131036392Y-93196445D01*
X131084011Y-93244064D01*
X131131630Y-93339302D01*
X131131630Y-93720255D01*
X131560201Y-92767874D02*
X131607820Y-92625017D01*
X131607820Y-92386921D01*
X131560201Y-92291683D01*
X131512582Y-92244064D01*
X131417344Y-92196445D01*
X131322106Y-92196445D01*
X131226868Y-92244064D01*
X131179249Y-92291683D01*
X131131630Y-92386921D01*
X131084011Y-92577398D01*
X131036392Y-92672636D01*
X130988773Y-92720255D01*
X130893535Y-92767874D01*
X130798297Y-92767874D01*
X130703059Y-92720255D01*
X130655440Y-92672636D01*
X130607820Y-92577398D01*
X130607820Y-92339302D01*
X130655440Y-92196445D01*
X99786700Y-78760746D02*
X99120034Y-78760746D01*
X99215272Y-78760746D02*
X99167653Y-78713127D01*
X99120034Y-78617889D01*
X99120034Y-78475032D01*
X99167653Y-78379794D01*
X99262891Y-78332175D01*
X99786700Y-78332175D01*
X99262891Y-78332175D02*
X99167653Y-78284556D01*
X99120034Y-78189318D01*
X99120034Y-78046460D01*
X99167653Y-77951222D01*
X99262891Y-77903603D01*
X99786700Y-77903603D01*
X99786700Y-77427413D02*
X98786700Y-77427413D01*
X98786700Y-77189318D01*
X98834320Y-77046460D01*
X98929558Y-76951222D01*
X99024796Y-76903603D01*
X99215272Y-76855984D01*
X99358129Y-76855984D01*
X99548605Y-76903603D01*
X99643843Y-76951222D01*
X99739081Y-77046460D01*
X99786700Y-77189318D01*
X99786700Y-77427413D01*
X99786700Y-76284556D02*
X99739081Y-76379794D01*
X99691462Y-76427413D01*
X99596224Y-76475032D01*
X99310510Y-76475032D01*
X99215272Y-76427413D01*
X99167653Y-76379794D01*
X99120034Y-76284556D01*
X99120034Y-76141699D01*
X99167653Y-76046460D01*
X99215272Y-75998841D01*
X99310510Y-75951222D01*
X99596224Y-75951222D01*
X99691462Y-75998841D01*
X99739081Y-76046460D01*
X99786700Y-76141699D01*
X99786700Y-76284556D01*
X99120034Y-75665508D02*
X99120034Y-75284556D01*
X98786700Y-75522651D02*
X99643843Y-75522651D01*
X99739081Y-75475032D01*
X99786700Y-75379794D01*
X99786700Y-75284556D01*
X159108001Y-93079201D02*
X159250859Y-93126820D01*
X159488954Y-93126820D01*
X159584192Y-93079201D01*
X159631811Y-93031582D01*
X159679430Y-92936344D01*
X159679430Y-92841106D01*
X159631811Y-92745868D01*
X159584192Y-92698249D01*
X159488954Y-92650630D01*
X159298478Y-92603011D01*
X159203240Y-92555392D01*
X159155620Y-92507773D01*
X159108001Y-92412535D01*
X159108001Y-92317297D01*
X159155620Y-92222059D01*
X159203240Y-92174440D01*
X159298478Y-92126820D01*
X159536573Y-92126820D01*
X159679430Y-92174440D01*
X160108001Y-93126820D02*
X160108001Y-92126820D01*
X160441335Y-92841106D01*
X160774668Y-92126820D01*
X160774668Y-93126820D01*
X161203240Y-92841106D02*
X161679430Y-92841106D01*
X161108001Y-93126820D02*
X161441335Y-92126820D01*
X161774668Y-93126820D01*
X162679430Y-93126820D02*
X162346097Y-92650630D01*
X162108001Y-93126820D02*
X162108001Y-92126820D01*
X162488954Y-92126820D01*
X162584192Y-92174440D01*
X162631811Y-92222059D01*
X162679430Y-92317297D01*
X162679430Y-92460154D01*
X162631811Y-92555392D01*
X162584192Y-92603011D01*
X162488954Y-92650630D01*
X162108001Y-92650630D01*
X162965144Y-92126820D02*
X163536573Y-92126820D01*
X163250859Y-93126820D02*
X163250859Y-92126820D01*
X164393716Y-92174440D02*
X164298478Y-92126820D01*
X164155620Y-92126820D01*
X164012763Y-92174440D01*
X163917525Y-92269678D01*
X163869906Y-92364916D01*
X163822287Y-92555392D01*
X163822287Y-92698249D01*
X163869906Y-92888725D01*
X163917525Y-92983963D01*
X164012763Y-93079201D01*
X164155620Y-93126820D01*
X164250859Y-93126820D01*
X164393716Y-93079201D01*
X164441335Y-93031582D01*
X164441335Y-92698249D01*
X164250859Y-92698249D01*
X165346097Y-93126820D02*
X164869906Y-93126820D01*
X164869906Y-92126820D01*
X165679430Y-92126820D02*
X165679430Y-92936344D01*
X165727049Y-93031582D01*
X165774668Y-93079201D01*
X165869906Y-93126820D01*
X166060382Y-93126820D01*
X166155620Y-93079201D01*
X166203240Y-93031582D01*
X166250859Y-92936344D01*
X166250859Y-92126820D01*
X166584192Y-92126820D02*
X167155620Y-92126820D01*
X166869906Y-93126820D02*
X166869906Y-92126820D01*
X167346097Y-92126820D02*
X167917525Y-92126820D01*
X167631811Y-93126820D02*
X167631811Y-92126820D01*
X168441335Y-92126820D02*
X168631811Y-92126820D01*
X168727049Y-92174440D01*
X168822287Y-92269678D01*
X168869906Y-92460154D01*
X168869906Y-92793487D01*
X168822287Y-92983963D01*
X168727049Y-93079201D01*
X168631811Y-93126820D01*
X168441335Y-93126820D01*
X168346097Y-93079201D01*
X168250859Y-92983963D01*
X168203240Y-92793487D01*
X168203240Y-92460154D01*
X168250859Y-92269678D01*
X168346097Y-92174440D01*
X168441335Y-92126820D01*
X169298478Y-93126820D02*
X169298478Y-92126820D01*
X169869906Y-93126820D01*
X169869906Y-92126820D01*
X170965144Y-92126820D02*
X171298478Y-93126820D01*
X171631811Y-92126820D01*
X172488954Y-93126820D02*
X171917525Y-93126820D01*
X172203239Y-93126820D02*
X172203239Y-92126820D01*
X172108001Y-92269678D01*
X172012763Y-92364916D01*
X171917525Y-92412535D01*
X172917525Y-93031582D02*
X172965144Y-93079201D01*
X172917525Y-93126820D01*
X172869906Y-93079201D01*
X172917525Y-93031582D01*
X172917525Y-93126820D01*
X173584192Y-92126820D02*
X173679430Y-92126820D01*
X173774668Y-92174440D01*
X173822287Y-92222059D01*
X173869906Y-92317297D01*
X173917525Y-92507773D01*
X173917525Y-92745868D01*
X173869906Y-92936344D01*
X173822287Y-93031582D01*
X173774668Y-93079201D01*
X173679430Y-93126820D01*
X173584192Y-93126820D01*
X173488954Y-93079201D01*
X173441335Y-93031582D01*
X173393716Y-92936344D01*
X173346097Y-92745868D01*
X173346097Y-92507773D01*
X173393716Y-92317297D01*
X173441335Y-92222059D01*
X173488954Y-92174440D01*
X173584192Y-92126820D01*
X175060382Y-92222059D02*
X175108001Y-92174440D01*
X175203239Y-92126820D01*
X175441335Y-92126820D01*
X175536573Y-92174440D01*
X175584192Y-92222059D01*
X175631811Y-92317297D01*
X175631811Y-92412535D01*
X175584192Y-92555392D01*
X175012763Y-93126820D01*
X175631811Y-93126820D01*
X176250859Y-92126820D02*
X176346097Y-92126820D01*
X176441335Y-92174440D01*
X176488954Y-92222059D01*
X176536573Y-92317297D01*
X176584192Y-92507773D01*
X176584192Y-92745868D01*
X176536573Y-92936344D01*
X176488954Y-93031582D01*
X176441335Y-93079201D01*
X176346097Y-93126820D01*
X176250859Y-93126820D01*
X176155620Y-93079201D01*
X176108001Y-93031582D01*
X176060382Y-92936344D01*
X176012763Y-92745868D01*
X176012763Y-92507773D01*
X176060382Y-92317297D01*
X176108001Y-92222059D01*
X176155620Y-92174440D01*
X176250859Y-92126820D01*
X177536573Y-93126820D02*
X176965144Y-93126820D01*
X177250859Y-93126820D02*
X177250859Y-92126820D01*
X177155620Y-92269678D01*
X177060382Y-92364916D01*
X176965144Y-92412535D01*
X178012763Y-93126820D02*
X178203239Y-93126820D01*
X178298478Y-93079201D01*
X178346097Y-93031582D01*
X178441335Y-92888725D01*
X178488954Y-92698249D01*
X178488954Y-92317297D01*
X178441335Y-92222059D01*
X178393716Y-92174440D01*
X178298478Y-92126820D01*
X178108001Y-92126820D01*
X178012763Y-92174440D01*
X177965144Y-92222059D01*
X177917525Y-92317297D01*
X177917525Y-92555392D01*
X177965144Y-92650630D01*
X178012763Y-92698249D01*
X178108001Y-92745868D01*
X178298478Y-92745868D01*
X178393716Y-92698249D01*
X178441335Y-92650630D01*
X178488954Y-92555392D01*
X179108001Y-92126820D02*
X179203239Y-92126820D01*
X179298478Y-92174440D01*
X179346097Y-92222059D01*
X179393716Y-92317297D01*
X179441335Y-92507773D01*
X179441335Y-92745868D01*
X179393716Y-92936344D01*
X179346097Y-93031582D01*
X179298478Y-93079201D01*
X179203239Y-93126820D01*
X179108001Y-93126820D01*
X179012763Y-93079201D01*
X178965144Y-93031582D01*
X178917525Y-92936344D01*
X178869906Y-92745868D01*
X178869906Y-92507773D01*
X178917525Y-92317297D01*
X178965144Y-92222059D01*
X179012763Y-92174440D01*
X179108001Y-92126820D01*
X179774668Y-92126820D02*
X180441335Y-92126820D01*
X180012763Y-93126820D01*
X181012763Y-92126820D02*
X181108001Y-92126820D01*
X181203239Y-92174440D01*
X181250859Y-92222059D01*
X181298478Y-92317297D01*
X181346097Y-92507773D01*
X181346097Y-92745868D01*
X181298478Y-92936344D01*
X181250859Y-93031582D01*
X181203239Y-93079201D01*
X181108001Y-93126820D01*
X181012763Y-93126820D01*
X180917525Y-93079201D01*
X180869906Y-93031582D01*
X180822287Y-92936344D01*
X180774668Y-92745868D01*
X180774668Y-92507773D01*
X180822287Y-92317297D01*
X180869906Y-92222059D01*
X180917525Y-92174440D01*
X181012763Y-92126820D01*
X181822287Y-93126820D02*
X182012763Y-93126820D01*
X182108001Y-93079201D01*
X182155620Y-93031582D01*
X182250859Y-92888725D01*
X182298478Y-92698249D01*
X182298478Y-92317297D01*
X182250859Y-92222059D01*
X182203239Y-92174440D01*
X182108001Y-92126820D01*
X181917525Y-92126820D01*
X181822287Y-92174440D01*
X181774668Y-92222059D01*
X181727049Y-92317297D01*
X181727049Y-92555392D01*
X181774668Y-92650630D01*
X181822287Y-92698249D01*
X181917525Y-92745868D01*
X182108001Y-92745868D01*
X182203239Y-92698249D01*
X182250859Y-92650630D01*
X182298478Y-92555392D01*
X120983476Y-69048380D02*
X121602523Y-69048380D01*
X121269190Y-69429333D01*
X121412047Y-69429333D01*
X121507285Y-69476952D01*
X121554904Y-69524571D01*
X121602523Y-69619809D01*
X121602523Y-69857904D01*
X121554904Y-69953142D01*
X121507285Y-70000761D01*
X121412047Y-70048380D01*
X121126333Y-70048380D01*
X121031095Y-70000761D01*
X120983476Y-69953142D01*
X122554904Y-70048380D02*
X121983476Y-70048380D01*
X122269190Y-70048380D02*
X122269190Y-69048380D01*
X122173952Y-69191238D01*
X122078714Y-69286476D01*
X121983476Y-69334095D01*
X123880619Y-90296904D02*
X123833000Y-90249285D01*
X123785380Y-90154047D01*
X123785380Y-89915952D01*
X123833000Y-89820714D01*
X123880619Y-89773095D01*
X123975857Y-89725476D01*
X124071095Y-89725476D01*
X124213952Y-89773095D01*
X124785380Y-90344523D01*
X124785380Y-89725476D01*
X124118714Y-88868333D02*
X124785380Y-88868333D01*
X123737761Y-89106428D02*
X124452047Y-89344523D01*
X124452047Y-88725476D01*
X85471095Y-59872619D02*
X85518714Y-59825000D01*
X85613952Y-59777380D01*
X85852047Y-59777380D01*
X85947285Y-59825000D01*
X85994904Y-59872619D01*
X86042523Y-59967857D01*
X86042523Y-60063095D01*
X85994904Y-60205952D01*
X85423476Y-60777380D01*
X86042523Y-60777380D01*
X86661571Y-59777380D02*
X86756809Y-59777380D01*
X86852047Y-59825000D01*
X86899666Y-59872619D01*
X86947285Y-59967857D01*
X86994904Y-60158333D01*
X86994904Y-60396428D01*
X86947285Y-60586904D01*
X86899666Y-60682142D01*
X86852047Y-60729761D01*
X86756809Y-60777380D01*
X86661571Y-60777380D01*
X86566333Y-60729761D01*
X86518714Y-60682142D01*
X86471095Y-60586904D01*
X86423476Y-60396428D01*
X86423476Y-60158333D01*
X86471095Y-59967857D01*
X86518714Y-59872619D01*
X86566333Y-59825000D01*
X86661571Y-59777380D01*
X109029523Y-60523380D02*
X108458095Y-60523380D01*
X108743809Y-60523380D02*
X108743809Y-59523380D01*
X108648571Y-59666238D01*
X108553333Y-59761476D01*
X108458095Y-59809095D01*
X109981904Y-60523380D02*
X109410476Y-60523380D01*
X109696190Y-60523380D02*
X109696190Y-59523380D01*
X109600952Y-59666238D01*
X109505714Y-59761476D01*
X109410476Y-59809095D01*
X109029523Y-96591380D02*
X108458095Y-96591380D01*
X108743809Y-96591380D02*
X108743809Y-95591380D01*
X108648571Y-95734238D01*
X108553333Y-95829476D01*
X108458095Y-95877095D01*
X109648571Y-95591380D02*
X109743809Y-95591380D01*
X109839047Y-95639000D01*
X109886666Y-95686619D01*
X109934285Y-95781857D01*
X109981904Y-95972333D01*
X109981904Y-96210428D01*
X109934285Y-96400904D01*
X109886666Y-96496142D01*
X109839047Y-96543761D01*
X109743809Y-96591380D01*
X109648571Y-96591380D01*
X109553333Y-96543761D01*
X109505714Y-96496142D01*
X109458095Y-96400904D01*
X109410476Y-96210428D01*
X109410476Y-95972333D01*
X109458095Y-95781857D01*
X109505714Y-95686619D01*
X109553333Y-95639000D01*
X109648571Y-95591380D01*
X86772714Y-96591380D02*
X86201285Y-96591380D01*
X86487000Y-96591380D02*
X86487000Y-95591380D01*
X86391761Y-95734238D01*
X86296523Y-95829476D01*
X86201285Y-95877095D01*
D11*
X126836480Y-62214760D02*
X126836480Y-63544760D01*
X126836480Y-63544760D02*
X125506480Y-63544760D01*
X124236480Y-63544760D02*
X116556480Y-63544760D01*
X116556480Y-60884760D02*
X116556480Y-63544760D01*
X124236480Y-60884760D02*
X116556480Y-60884760D01*
X124236480Y-60884760D02*
X124236480Y-63544760D01*
X192372600Y-63898600D02*
X188112600Y-63898600D01*
X188112600Y-63898600D02*
X188112600Y-76218600D01*
X188112600Y-76218600D02*
X192372600Y-76218600D01*
X196472600Y-63898600D02*
X203712600Y-63898600D01*
X203712600Y-63898600D02*
X203712600Y-76218600D01*
X203712600Y-76218600D02*
X196472600Y-76218600D01*
X187892600Y-68808600D02*
X187392600Y-68308600D01*
X187392600Y-68308600D02*
X187392600Y-69308600D01*
X187392600Y-69308600D02*
X187892600Y-68808600D01*
X80910000Y-90140000D02*
X80910000Y-66040000D01*
X82110000Y-91340000D02*
X80910000Y-90140000D01*
X118010000Y-91340000D02*
X82110000Y-91340000D01*
X118010000Y-66040000D02*
X80910000Y-66040000D01*
X118010000Y-91340000D02*
X118010000Y-66040000D01*
X117390000Y-70600000D02*
X115270000Y-70600000D01*
X117390000Y-86720000D02*
X117390000Y-70600000D01*
X115270000Y-86720000D02*
X115270000Y-70600000D01*
X117390000Y-86720000D02*
X115270000Y-86720000D01*
X107830000Y-68730000D02*
X107830000Y-66610000D01*
X87710000Y-68730000D02*
X87710000Y-66610000D01*
X87710000Y-68730000D02*
X107830000Y-68730000D01*
X87710000Y-66610000D02*
X107830000Y-66610000D01*
X107830000Y-90730000D02*
X107830000Y-88610000D01*
X89770000Y-90730000D02*
X107830000Y-90730000D01*
X89770000Y-88610000D02*
X107830000Y-88610000D01*
X89770000Y-90730000D02*
X89770000Y-88610000D01*
X88770000Y-90730000D02*
X87710000Y-90730000D01*
X87710000Y-90730000D02*
X87710000Y-89670000D01*
X204328800Y-83899400D02*
X204328800Y-96999400D01*
X196528800Y-96999400D02*
X204328800Y-96999400D01*
X196528800Y-83899400D02*
X204328800Y-83899400D01*
X192658800Y-86049400D02*
X192658800Y-94849400D01*
X185622000Y-96273252D02*
X185622000Y-95750748D01*
X184202000Y-96273252D02*
X184202000Y-95750748D01*
X181942000Y-63676000D02*
X181942000Y-60276000D01*
X185342000Y-63676000D02*
X181942000Y-63676000D01*
X185342000Y-60276000D02*
X185342000Y-63676000D01*
X181942000Y-60276000D02*
X185342000Y-60276000D01*
X80596000Y-98982000D02*
X80596000Y-95582000D01*
X83996000Y-98982000D02*
X80596000Y-98982000D01*
X83996000Y-95582000D02*
X83996000Y-98982000D01*
X80596000Y-95582000D02*
X83996000Y-95582000D01*
X163654000Y-75360000D02*
X163654000Y-71960000D01*
X167054000Y-75360000D02*
X163654000Y-75360000D01*
X167054000Y-71960000D02*
X167054000Y-75360000D01*
X163654000Y-71960000D02*
X167054000Y-71960000D01*
X186242000Y-87316000D02*
X186242000Y-88646000D01*
X184912000Y-87316000D02*
X186242000Y-87316000D01*
X183642000Y-87316000D02*
X183642000Y-89976000D01*
X183642000Y-89976000D02*
X160722000Y-89976000D01*
X183642000Y-87316000D02*
X160722000Y-87316000D01*
X160722000Y-87316000D02*
X160722000Y-89976000D01*
X123250000Y-90865000D02*
X121920000Y-90865000D01*
X123250000Y-89535000D02*
X123250000Y-90865000D01*
X123250000Y-88265000D02*
X120590000Y-88265000D01*
X120590000Y-88265000D02*
X120590000Y-70425000D01*
X123250000Y-88265000D02*
X123250000Y-70425000D01*
X123250000Y-70425000D02*
X120590000Y-70425000D01*
X156985000Y-98020000D02*
X131985000Y-98020000D01*
X156985000Y-65020000D02*
X156985000Y-98020000D01*
X131985000Y-65020000D02*
X156985000Y-65020000D01*
X131985000Y-98020000D02*
X131985000Y-65020000D01*
X132655000Y-96520000D02*
X132655000Y-95190000D01*
X132655000Y-95190000D02*
X133985000Y-95190000D01*
X135255000Y-95190000D02*
X155635000Y-95190000D01*
X155635000Y-97850000D02*
X155635000Y-95190000D01*
X135255000Y-97850000D02*
X155635000Y-97850000D01*
X135255000Y-97850000D02*
X135255000Y-95190000D01*
X146395000Y-71695000D02*
X145145000Y-71695000D01*
X146395000Y-89595000D02*
X146395000Y-71695000D01*
X141895000Y-89595000D02*
X146395000Y-89595000D01*
X141895000Y-71695000D02*
X141895000Y-89595000D01*
X143145000Y-71695000D02*
X141895000Y-71695000D01*
X145145000Y-71695000D02*
G75*
G02X143145000Y-71695000I-1000000J0D01*
G01*
X176706684Y-58795955D02*
G75*
G03X172429000Y-59824400I-1827684J-1808445D01*
G01*
X176720741Y-62416275D02*
G75*
G02X172429000Y-61424400I-1841741J1811875D01*
G01*
X176729000Y-62404400D02*
X176729000Y-58804400D01*
D10*
X168250100Y-82246600D02*
X168250100Y-83371600D01*
X176090100Y-82246600D02*
X176090100Y-78096600D01*
X167140100Y-82246600D02*
X167140100Y-78096600D01*
X176090100Y-82246600D02*
X174980100Y-82246600D01*
X176090100Y-78096600D02*
X174980100Y-78096600D01*
X167140100Y-78096600D02*
X168250100Y-78096600D01*
X168250100Y-82246600D02*
X167140100Y-82246600D01*
D11*
X119638000Y-94790000D02*
X119638000Y-96290000D01*
X120888000Y-98790000D02*
X125388000Y-98790000D01*
X126638000Y-96290000D02*
X126638000Y-94790000D01*
X125388000Y-92290000D02*
X120888000Y-92290000D01*
X161580000Y-70138600D02*
X162830000Y-70138600D01*
X161580000Y-64938600D02*
X161580000Y-70138600D01*
X166080000Y-64938600D02*
X161580000Y-64938600D01*
X166080000Y-70138600D02*
X166080000Y-64938600D01*
X164830000Y-70138600D02*
X166080000Y-70138600D01*
X162830000Y-70138600D02*
G75*
G02X164830000Y-70138600I1000000J0D01*
G01*
X195131948Y-60425400D02*
X195654452Y-60425400D01*
X195131948Y-59005400D02*
X195654452Y-59005400D01*
X152960000Y-67048748D02*
X152960000Y-67571252D01*
X154380000Y-67048748D02*
X154380000Y-67571252D01*
X146610000Y-67048748D02*
X146610000Y-67571252D01*
X148030000Y-67048748D02*
X148030000Y-67571252D01*
X140260000Y-67048748D02*
X140260000Y-67571252D01*
X141680000Y-67048748D02*
X141680000Y-67571252D01*
X135111748Y-86562000D02*
X135634252Y-86562000D01*
X135111748Y-85142000D02*
X135634252Y-85142000D01*
X135111748Y-81228000D02*
X135634252Y-81228000D01*
X135111748Y-79808000D02*
X135634252Y-79808000D01*
X135111748Y-76402000D02*
X135634252Y-76402000D01*
X135111748Y-74982000D02*
X135634252Y-74982000D01*
X179790348Y-75995600D02*
X180312852Y-75995600D01*
X179790348Y-74575600D02*
X180312852Y-74575600D01*
X179790348Y-73963600D02*
X180312852Y-73963600D01*
X179790348Y-72543600D02*
X180312852Y-72543600D01*
X85030000Y-95310000D02*
X85030000Y-93980000D01*
X86360000Y-95310000D02*
X85030000Y-95310000D01*
X87630000Y-95310000D02*
X87630000Y-92650000D01*
X87630000Y-92650000D02*
X110550000Y-92650000D01*
X87630000Y-95310000D02*
X110550000Y-95310000D01*
X110550000Y-95310000D02*
X110550000Y-92650000D01*
X110550000Y-61535000D02*
X110550000Y-62865000D01*
X109220000Y-61535000D02*
X110550000Y-61535000D01*
X107950000Y-61535000D02*
X107950000Y-64195000D01*
X107950000Y-64195000D02*
X85030000Y-64195000D01*
X107950000Y-61535000D02*
X85030000Y-61535000D01*
X85030000Y-61535000D02*
X85030000Y-64195000D01*
X184662867Y-68298600D02*
X184320333Y-68298600D01*
X184662867Y-69318600D02*
X184320333Y-69318600D01*
X152590000Y-60670000D02*
X152434000Y-60670000D01*
X154906000Y-60670000D02*
X154750000Y-60670000D01*
X152590163Y-63271130D02*
G75*
G02X152590000Y-61189039I1079837J1041130D01*
G01*
X154749837Y-63271130D02*
G75*
G03X154750000Y-61189039I-1079837J1041130D01*
G01*
X152591392Y-63902335D02*
G75*
G02X152434484Y-60670000I1078608J1672335D01*
G01*
X154748608Y-63902335D02*
G75*
G03X154905516Y-60670000I-1078608J1672335D01*
G01*
X146240000Y-60670000D02*
X146084000Y-60670000D01*
X148556000Y-60670000D02*
X148400000Y-60670000D01*
X146240163Y-63271130D02*
G75*
G02X146240000Y-61189039I1079837J1041130D01*
G01*
X148399837Y-63271130D02*
G75*
G03X148400000Y-61189039I-1079837J1041130D01*
G01*
X146241392Y-63902335D02*
G75*
G02X146084484Y-60670000I1078608J1672335D01*
G01*
X148398608Y-63902335D02*
G75*
G03X148555516Y-60670000I-1078608J1672335D01*
G01*
X139890000Y-60670000D02*
X139734000Y-60670000D01*
X142206000Y-60670000D02*
X142050000Y-60670000D01*
X139890163Y-63271130D02*
G75*
G02X139890000Y-61189039I1079837J1041130D01*
G01*
X142049837Y-63271130D02*
G75*
G03X142050000Y-61189039I-1079837J1041130D01*
G01*
X139891392Y-63902335D02*
G75*
G02X139734484Y-60670000I1078608J1672335D01*
G01*
X142048608Y-63902335D02*
G75*
G03X142205516Y-60670000I-1078608J1672335D01*
G01*
X128742000Y-86932000D02*
X128742000Y-87088000D01*
X128742000Y-84616000D02*
X128742000Y-84772000D01*
X131343130Y-86931837D02*
G75*
G02X129261039Y-86932000I-1041130J1079837D01*
G01*
X131343130Y-84772163D02*
G75*
G03X129261039Y-84772000I-1041130J-1079837D01*
G01*
X131974335Y-86930608D02*
G75*
G02X128742000Y-87087516I-1672335J1078608D01*
G01*
X131974335Y-84773392D02*
G75*
G03X128742000Y-84616484I-1672335J-1078608D01*
G01*
X128742000Y-81598000D02*
X128742000Y-81754000D01*
X128742000Y-79282000D02*
X128742000Y-79438000D01*
X131343130Y-81597837D02*
G75*
G02X129261039Y-81598000I-1041130J1079837D01*
G01*
X131343130Y-79438163D02*
G75*
G03X129261039Y-79438000I-1041130J-1079837D01*
G01*
X131974335Y-81596608D02*
G75*
G02X128742000Y-81753516I-1672335J1078608D01*
G01*
X131974335Y-79439392D02*
G75*
G03X128742000Y-79282484I-1672335J-1078608D01*
G01*
X128742000Y-76772000D02*
X128742000Y-76928000D01*
X128742000Y-74456000D02*
X128742000Y-74612000D01*
X131343130Y-76771837D02*
G75*
G02X129261039Y-76772000I-1041130J1079837D01*
G01*
X131343130Y-74612163D02*
G75*
G03X129261039Y-74612000I-1041130J-1079837D01*
G01*
X131974335Y-76770608D02*
G75*
G02X128742000Y-76927516I-1672335J1078608D01*
G01*
X131974335Y-74613392D02*
G75*
G03X128742000Y-74456484I-1672335J-1078608D01*
G01*
X176557600Y-70113375D02*
X177057600Y-70113375D01*
X176807600Y-70363375D02*
X176807600Y-69863375D01*
X177998600Y-64957600D02*
X178566600Y-64957600D01*
X177764600Y-64997600D02*
X178800600Y-64997600D01*
X177605600Y-65037600D02*
X178959600Y-65037600D01*
X177477600Y-65077600D02*
X179087600Y-65077600D01*
X177367600Y-65117600D02*
X179197600Y-65117600D01*
X177271600Y-65157600D02*
X179293600Y-65157600D01*
X177184600Y-65197600D02*
X179380600Y-65197600D01*
X177104600Y-65237600D02*
X179460600Y-65237600D01*
X179322600Y-65277600D02*
X179533600Y-65277600D01*
X177031600Y-65277600D02*
X177242600Y-65277600D01*
X179322600Y-65317600D02*
X179601600Y-65317600D01*
X176963600Y-65317600D02*
X177242600Y-65317600D01*
X179322600Y-65357600D02*
X179665600Y-65357600D01*
X176899600Y-65357600D02*
X177242600Y-65357600D01*
X179322600Y-65397600D02*
X179725600Y-65397600D01*
X176839600Y-65397600D02*
X177242600Y-65397600D01*
X179322600Y-65437600D02*
X179782600Y-65437600D01*
X176782600Y-65437600D02*
X177242600Y-65437600D01*
X179322600Y-65477600D02*
X179836600Y-65477600D01*
X176728600Y-65477600D02*
X177242600Y-65477600D01*
X179322600Y-65517600D02*
X179887600Y-65517600D01*
X176677600Y-65517600D02*
X177242600Y-65517600D01*
X179322600Y-65557600D02*
X179935600Y-65557600D01*
X176629600Y-65557600D02*
X177242600Y-65557600D01*
X179322600Y-65597600D02*
X179981600Y-65597600D01*
X176583600Y-65597600D02*
X177242600Y-65597600D01*
X179322600Y-65637600D02*
X180025600Y-65637600D01*
X176539600Y-65637600D02*
X177242600Y-65637600D01*
X179322600Y-65677600D02*
X180067600Y-65677600D01*
X176497600Y-65677600D02*
X177242600Y-65677600D01*
X179322600Y-65717600D02*
X180108600Y-65717600D01*
X176456600Y-65717600D02*
X177242600Y-65717600D01*
X179322600Y-65757600D02*
X180146600Y-65757600D01*
X176418600Y-65757600D02*
X177242600Y-65757600D01*
X179322600Y-65797600D02*
X180183600Y-65797600D01*
X176381600Y-65797600D02*
X177242600Y-65797600D01*
X179322600Y-65837600D02*
X180219600Y-65837600D01*
X176345600Y-65837600D02*
X177242600Y-65837600D01*
X179322600Y-65877600D02*
X180253600Y-65877600D01*
X176311600Y-65877600D02*
X177242600Y-65877600D01*
X179322600Y-65917600D02*
X180286600Y-65917600D01*
X176278600Y-65917600D02*
X177242600Y-65917600D01*
X179322600Y-65957600D02*
X180317600Y-65957600D01*
X176247600Y-65957600D02*
X177242600Y-65957600D01*
X179322600Y-65997600D02*
X180347600Y-65997600D01*
X176217600Y-65997600D02*
X177242600Y-65997600D01*
X179322600Y-66037600D02*
X180377600Y-66037600D01*
X176187600Y-66037600D02*
X177242600Y-66037600D01*
X179322600Y-66077600D02*
X180404600Y-66077600D01*
X176160600Y-66077600D02*
X177242600Y-66077600D01*
X179322600Y-66117600D02*
X180431600Y-66117600D01*
X176133600Y-66117600D02*
X177242600Y-66117600D01*
X179322600Y-66157600D02*
X180457600Y-66157600D01*
X176107600Y-66157600D02*
X177242600Y-66157600D01*
X179322600Y-66197600D02*
X180482600Y-66197600D01*
X176082600Y-66197600D02*
X177242600Y-66197600D01*
X179322600Y-66237600D02*
X180506600Y-66237600D01*
X176058600Y-66237600D02*
X177242600Y-66237600D01*
X179322600Y-66277600D02*
X180529600Y-66277600D01*
X176035600Y-66277600D02*
X177242600Y-66277600D01*
X179322600Y-66317600D02*
X180550600Y-66317600D01*
X176014600Y-66317600D02*
X177242600Y-66317600D01*
X179322600Y-66357600D02*
X180572600Y-66357600D01*
X175992600Y-66357600D02*
X177242600Y-66357600D01*
X179322600Y-66397600D02*
X180592600Y-66397600D01*
X175972600Y-66397600D02*
X177242600Y-66397600D01*
X179322600Y-66437600D02*
X180611600Y-66437600D01*
X175953600Y-66437600D02*
X177242600Y-66437600D01*
X179322600Y-66477600D02*
X180630600Y-66477600D01*
X175934600Y-66477600D02*
X177242600Y-66477600D01*
X179322600Y-66517600D02*
X180647600Y-66517600D01*
X175917600Y-66517600D02*
X177242600Y-66517600D01*
X179322600Y-66557600D02*
X180664600Y-66557600D01*
X175900600Y-66557600D02*
X177242600Y-66557600D01*
X179322600Y-66597600D02*
X180680600Y-66597600D01*
X175884600Y-66597600D02*
X177242600Y-66597600D01*
X179322600Y-66637600D02*
X180696600Y-66637600D01*
X175868600Y-66637600D02*
X177242600Y-66637600D01*
X179322600Y-66677600D02*
X180710600Y-66677600D01*
X175854600Y-66677600D02*
X177242600Y-66677600D01*
X179322600Y-66717600D02*
X180724600Y-66717600D01*
X175840600Y-66717600D02*
X177242600Y-66717600D01*
X179322600Y-66757600D02*
X180737600Y-66757600D01*
X175827600Y-66757600D02*
X177242600Y-66757600D01*
X179322600Y-66797600D02*
X180750600Y-66797600D01*
X175814600Y-66797600D02*
X177242600Y-66797600D01*
X179322600Y-66837600D02*
X180762600Y-66837600D01*
X175802600Y-66837600D02*
X177242600Y-66837600D01*
X179322600Y-66878600D02*
X180773600Y-66878600D01*
X175791600Y-66878600D02*
X177242600Y-66878600D01*
X179322600Y-66918600D02*
X180783600Y-66918600D01*
X175781600Y-66918600D02*
X177242600Y-66918600D01*
X179322600Y-66958600D02*
X180793600Y-66958600D01*
X175771600Y-66958600D02*
X177242600Y-66958600D01*
X179322600Y-66998600D02*
X180802600Y-66998600D01*
X175762600Y-66998600D02*
X177242600Y-66998600D01*
X179322600Y-67038600D02*
X180810600Y-67038600D01*
X175754600Y-67038600D02*
X177242600Y-67038600D01*
X179322600Y-67078600D02*
X180818600Y-67078600D01*
X175746600Y-67078600D02*
X177242600Y-67078600D01*
X179322600Y-67118600D02*
X180825600Y-67118600D01*
X175739600Y-67118600D02*
X177242600Y-67118600D01*
X179322600Y-67158600D02*
X180832600Y-67158600D01*
X175732600Y-67158600D02*
X177242600Y-67158600D01*
X179322600Y-67198600D02*
X180838600Y-67198600D01*
X175726600Y-67198600D02*
X177242600Y-67198600D01*
X179322600Y-67238600D02*
X180843600Y-67238600D01*
X175721600Y-67238600D02*
X177242600Y-67238600D01*
X179322600Y-67278600D02*
X180847600Y-67278600D01*
X175717600Y-67278600D02*
X177242600Y-67278600D01*
X179322600Y-67318600D02*
X180851600Y-67318600D01*
X175713600Y-67318600D02*
X177242600Y-67318600D01*
X175709600Y-67358600D02*
X180855600Y-67358600D01*
X175706600Y-67398600D02*
X180858600Y-67398600D01*
X175704600Y-67438600D02*
X180860600Y-67438600D01*
X175703600Y-67478600D02*
X180861600Y-67478600D01*
X175702600Y-67518600D02*
X180862600Y-67518600D01*
X175702600Y-67558600D02*
X180862600Y-67558600D01*
X180902600Y-67558600D02*
G75*
G03X180902600Y-67558600I-2620000J0D01*
G01*
X172642600Y-68044852D02*
X172642600Y-67522348D01*
X171222600Y-68044852D02*
X171222600Y-67522348D01*
X172489652Y-72061000D02*
X171967148Y-72061000D01*
X172489652Y-73481000D02*
X171967148Y-73481000D01*
X184430600Y-75922348D02*
X184430600Y-76444852D01*
X185850600Y-75922348D02*
X185850600Y-76444852D01*
X185850600Y-72616852D02*
X185850600Y-72094348D01*
X184430600Y-72616852D02*
X184430600Y-72094348D01*
X117042000Y-97026252D02*
X117042000Y-96503748D01*
X115622000Y-97026252D02*
X115622000Y-96503748D01*
D10*
X127728860Y-62548093D02*
X128443146Y-62548093D01*
X128586003Y-62595712D01*
X128681241Y-62690950D01*
X128728860Y-62833807D01*
X128728860Y-62929045D01*
X128157432Y-61929045D02*
X128109813Y-62024283D01*
X128062194Y-62071902D01*
X127966956Y-62119521D01*
X127919337Y-62119521D01*
X127824099Y-62071902D01*
X127776480Y-62024283D01*
X127728860Y-61929045D01*
X127728860Y-61738569D01*
X127776480Y-61643331D01*
X127824099Y-61595712D01*
X127919337Y-61548093D01*
X127966956Y-61548093D01*
X128062194Y-61595712D01*
X128109813Y-61643331D01*
X128157432Y-61738569D01*
X128157432Y-61929045D01*
X128205051Y-62024283D01*
X128252670Y-62071902D01*
X128347908Y-62119521D01*
X128538384Y-62119521D01*
X128633622Y-62071902D01*
X128681241Y-62024283D01*
X128728860Y-61929045D01*
X128728860Y-61738569D01*
X128681241Y-61643331D01*
X128633622Y-61595712D01*
X128538384Y-61548093D01*
X128347908Y-61548093D01*
X128252670Y-61595712D01*
X128205051Y-61643331D01*
X128157432Y-61738569D01*
X195373666Y-69302380D02*
X195373666Y-70016666D01*
X195326047Y-70159523D01*
X195230809Y-70254761D01*
X195087952Y-70302380D01*
X194992714Y-70302380D01*
X196278428Y-69302380D02*
X196087952Y-69302380D01*
X195992714Y-69350000D01*
X195945095Y-69397619D01*
X195849857Y-69540476D01*
X195802238Y-69730952D01*
X195802238Y-70111904D01*
X195849857Y-70207142D01*
X195897476Y-70254761D01*
X195992714Y-70302380D01*
X196183190Y-70302380D01*
X196278428Y-70254761D01*
X196326047Y-70207142D01*
X196373666Y-70111904D01*
X196373666Y-69873809D01*
X196326047Y-69778571D01*
X196278428Y-69730952D01*
X196183190Y-69683333D01*
X195992714Y-69683333D01*
X195897476Y-69730952D01*
X195849857Y-69778571D01*
X195802238Y-69873809D01*
X97734380Y-78922333D02*
X96734380Y-78922333D01*
X97448666Y-78589000D01*
X96734380Y-78255666D01*
X97734380Y-78255666D01*
X97639142Y-77208047D02*
X97686761Y-77255666D01*
X97734380Y-77398523D01*
X97734380Y-77493761D01*
X97686761Y-77636619D01*
X97591523Y-77731857D01*
X97496285Y-77779476D01*
X97305809Y-77827095D01*
X97162952Y-77827095D01*
X96972476Y-77779476D01*
X96877238Y-77731857D01*
X96782000Y-77636619D01*
X96734380Y-77493761D01*
X96734380Y-77398523D01*
X96782000Y-77255666D01*
X96829619Y-77208047D01*
X96734380Y-76779476D02*
X97543904Y-76779476D01*
X97639142Y-76731857D01*
X97686761Y-76684238D01*
X97734380Y-76589000D01*
X97734380Y-76398523D01*
X97686761Y-76303285D01*
X97639142Y-76255666D01*
X97543904Y-76208047D01*
X96734380Y-76208047D01*
X97734380Y-75208047D02*
X97734380Y-75779476D01*
X97734380Y-75493761D02*
X96734380Y-75493761D01*
X96877238Y-75589000D01*
X96972476Y-75684238D01*
X97020095Y-75779476D01*
X196516666Y-89876380D02*
X196516666Y-90590666D01*
X196469047Y-90733523D01*
X196373809Y-90828761D01*
X196230952Y-90876380D01*
X196135714Y-90876380D01*
X197469047Y-89876380D02*
X196992857Y-89876380D01*
X196945238Y-90352571D01*
X196992857Y-90304952D01*
X197088095Y-90257333D01*
X197326190Y-90257333D01*
X197421428Y-90304952D01*
X197469047Y-90352571D01*
X197516666Y-90447809D01*
X197516666Y-90685904D01*
X197469047Y-90781142D01*
X197421428Y-90828761D01*
X197326190Y-90876380D01*
X197088095Y-90876380D01*
X196992857Y-90828761D01*
X196945238Y-90781142D01*
X183714380Y-96654857D02*
X183238190Y-96988190D01*
X183714380Y-97226285D02*
X182714380Y-97226285D01*
X182714380Y-96845333D01*
X182762000Y-96750095D01*
X182809619Y-96702476D01*
X182904857Y-96654857D01*
X183047714Y-96654857D01*
X183142952Y-96702476D01*
X183190571Y-96750095D01*
X183238190Y-96845333D01*
X183238190Y-97226285D01*
X183714380Y-95702476D02*
X183714380Y-96273904D01*
X183714380Y-95988190D02*
X182714380Y-95988190D01*
X182857238Y-96083428D01*
X182952476Y-96178666D01*
X183000095Y-96273904D01*
X182714380Y-95083428D02*
X182714380Y-94988190D01*
X182762000Y-94892952D01*
X182809619Y-94845333D01*
X182904857Y-94797714D01*
X183095333Y-94750095D01*
X183333428Y-94750095D01*
X183523904Y-94797714D01*
X183619142Y-94845333D01*
X183666761Y-94892952D01*
X183714380Y-94988190D01*
X183714380Y-95083428D01*
X183666761Y-95178666D01*
X183619142Y-95226285D01*
X183523904Y-95273904D01*
X183333428Y-95321523D01*
X183095333Y-95321523D01*
X182904857Y-95273904D01*
X182809619Y-95226285D01*
X182762000Y-95178666D01*
X182714380Y-95083428D01*
X182380095Y-59030380D02*
X182951523Y-59030380D01*
X182665809Y-60030380D02*
X182665809Y-59030380D01*
X183284857Y-60030380D02*
X183284857Y-59030380D01*
X183665809Y-59030380D01*
X183761047Y-59078000D01*
X183808666Y-59125619D01*
X183856285Y-59220857D01*
X183856285Y-59363714D01*
X183808666Y-59458952D01*
X183761047Y-59506571D01*
X183665809Y-59554190D01*
X183284857Y-59554190D01*
X184189619Y-59030380D02*
X184808666Y-59030380D01*
X184475333Y-59411333D01*
X184618190Y-59411333D01*
X184713428Y-59458952D01*
X184761047Y-59506571D01*
X184808666Y-59601809D01*
X184808666Y-59839904D01*
X184761047Y-59935142D01*
X184713428Y-59982761D01*
X184618190Y-60030380D01*
X184332476Y-60030380D01*
X184237238Y-59982761D01*
X184189619Y-59935142D01*
X81034095Y-94336380D02*
X81605523Y-94336380D01*
X81319809Y-95336380D02*
X81319809Y-94336380D01*
X81938857Y-95336380D02*
X81938857Y-94336380D01*
X82319809Y-94336380D01*
X82415047Y-94384000D01*
X82462666Y-94431619D01*
X82510285Y-94526857D01*
X82510285Y-94669714D01*
X82462666Y-94764952D01*
X82415047Y-94812571D01*
X82319809Y-94860190D01*
X81938857Y-94860190D01*
X82891238Y-94431619D02*
X82938857Y-94384000D01*
X83034095Y-94336380D01*
X83272190Y-94336380D01*
X83367428Y-94384000D01*
X83415047Y-94431619D01*
X83462666Y-94526857D01*
X83462666Y-94622095D01*
X83415047Y-94764952D01*
X82843619Y-95336380D01*
X83462666Y-95336380D01*
X164092095Y-76033380D02*
X164663523Y-76033380D01*
X164377809Y-77033380D02*
X164377809Y-76033380D01*
X164996857Y-77033380D02*
X164996857Y-76033380D01*
X165377809Y-76033380D01*
X165473047Y-76081000D01*
X165520666Y-76128619D01*
X165568285Y-76223857D01*
X165568285Y-76366714D01*
X165520666Y-76461952D01*
X165473047Y-76509571D01*
X165377809Y-76557190D01*
X164996857Y-76557190D01*
X166520666Y-77033380D02*
X165949238Y-77033380D01*
X166234952Y-77033380D02*
X166234952Y-76033380D01*
X166139714Y-76176238D01*
X166044476Y-76271476D01*
X165949238Y-76319095D01*
X184491380Y-91138333D02*
X185205666Y-91138333D01*
X185348523Y-91185952D01*
X185443761Y-91281190D01*
X185491380Y-91424047D01*
X185491380Y-91519285D01*
X184586619Y-90709761D02*
X184539000Y-90662142D01*
X184491380Y-90566904D01*
X184491380Y-90328809D01*
X184539000Y-90233571D01*
X184586619Y-90185952D01*
X184681857Y-90138333D01*
X184777095Y-90138333D01*
X184919952Y-90185952D01*
X185491380Y-90757380D01*
X185491380Y-90138333D01*
X121586666Y-91317380D02*
X121586666Y-92031666D01*
X121539047Y-92174523D01*
X121443809Y-92269761D01*
X121300952Y-92317380D01*
X121205714Y-92317380D01*
X122586666Y-92317380D02*
X122015238Y-92317380D01*
X122300952Y-92317380D02*
X122300952Y-91317380D01*
X122205714Y-91460238D01*
X122110476Y-91555476D01*
X122015238Y-91603095D01*
X130667380Y-96853333D02*
X131381666Y-96853333D01*
X131524523Y-96900952D01*
X131619761Y-96996190D01*
X131667380Y-97139047D01*
X131667380Y-97234285D01*
X130667380Y-96472380D02*
X130667380Y-95805714D01*
X131667380Y-96234285D01*
X143383095Y-70147380D02*
X143383095Y-70956904D01*
X143430714Y-71052142D01*
X143478333Y-71099761D01*
X143573571Y-71147380D01*
X143764047Y-71147380D01*
X143859285Y-71099761D01*
X143906904Y-71052142D01*
X143954523Y-70956904D01*
X143954523Y-70147380D01*
X144335476Y-70147380D02*
X144954523Y-70147380D01*
X144621190Y-70528333D01*
X144764047Y-70528333D01*
X144859285Y-70575952D01*
X144906904Y-70623571D01*
X144954523Y-70718809D01*
X144954523Y-70956904D01*
X144906904Y-71052142D01*
X144859285Y-71099761D01*
X144764047Y-71147380D01*
X144478333Y-71147380D01*
X144383095Y-71099761D01*
X144335476Y-71052142D01*
X169931380Y-61366304D02*
X170740904Y-61366304D01*
X170836142Y-61318685D01*
X170883761Y-61271066D01*
X170931380Y-61175828D01*
X170931380Y-60985352D01*
X170883761Y-60890114D01*
X170836142Y-60842495D01*
X170740904Y-60794876D01*
X169931380Y-60794876D01*
X170026619Y-60366304D02*
X169979000Y-60318685D01*
X169931380Y-60223447D01*
X169931380Y-59985352D01*
X169979000Y-59890114D01*
X170026619Y-59842495D01*
X170121857Y-59794876D01*
X170217095Y-59794876D01*
X170359952Y-59842495D01*
X170931380Y-60413923D01*
X170931380Y-59794876D01*
X165667480Y-80933504D02*
X166477004Y-80933504D01*
X166572242Y-80885885D01*
X166619861Y-80838266D01*
X166667480Y-80743028D01*
X166667480Y-80552552D01*
X166619861Y-80457314D01*
X166572242Y-80409695D01*
X166477004Y-80362076D01*
X165667480Y-80362076D01*
X166667480Y-79362076D02*
X166667480Y-79933504D01*
X166667480Y-79647790D02*
X165667480Y-79647790D01*
X165810338Y-79743028D01*
X165905576Y-79838266D01*
X165953195Y-79933504D01*
X121804666Y-100194761D02*
X121947523Y-100242380D01*
X122185619Y-100242380D01*
X122280857Y-100194761D01*
X122328476Y-100147142D01*
X122376095Y-100051904D01*
X122376095Y-99956666D01*
X122328476Y-99861428D01*
X122280857Y-99813809D01*
X122185619Y-99766190D01*
X121995142Y-99718571D01*
X121899904Y-99670952D01*
X121852285Y-99623333D01*
X121804666Y-99528095D01*
X121804666Y-99432857D01*
X121852285Y-99337619D01*
X121899904Y-99290000D01*
X121995142Y-99242380D01*
X122233238Y-99242380D01*
X122376095Y-99290000D01*
X122709428Y-99242380D02*
X122947523Y-100242380D01*
X123138000Y-99528095D01*
X123328476Y-100242380D01*
X123566571Y-99242380D01*
X123899904Y-99337619D02*
X123947523Y-99290000D01*
X124042761Y-99242380D01*
X124280857Y-99242380D01*
X124376095Y-99290000D01*
X124423714Y-99337619D01*
X124471333Y-99432857D01*
X124471333Y-99528095D01*
X124423714Y-99670952D01*
X123852285Y-100242380D01*
X124471333Y-100242380D01*
X162369666Y-64412761D02*
X162512523Y-64460380D01*
X162750619Y-64460380D01*
X162845857Y-64412761D01*
X162893476Y-64365142D01*
X162941095Y-64269904D01*
X162941095Y-64174666D01*
X162893476Y-64079428D01*
X162845857Y-64031809D01*
X162750619Y-63984190D01*
X162560142Y-63936571D01*
X162464904Y-63888952D01*
X162417285Y-63841333D01*
X162369666Y-63746095D01*
X162369666Y-63650857D01*
X162417285Y-63555619D01*
X162464904Y-63508000D01*
X162560142Y-63460380D01*
X162798238Y-63460380D01*
X162941095Y-63508000D01*
X163274428Y-63460380D02*
X163512523Y-64460380D01*
X163703000Y-63746095D01*
X163893476Y-64460380D01*
X164131571Y-63460380D01*
X165036333Y-64460380D02*
X164464904Y-64460380D01*
X164750619Y-64460380D02*
X164750619Y-63460380D01*
X164655380Y-63603238D01*
X164560142Y-63698476D01*
X164464904Y-63746095D01*
X195226533Y-58517780D02*
X194893200Y-58041590D01*
X194655104Y-58517780D02*
X194655104Y-57517780D01*
X195036057Y-57517780D01*
X195131295Y-57565400D01*
X195178914Y-57613019D01*
X195226533Y-57708257D01*
X195226533Y-57851114D01*
X195178914Y-57946352D01*
X195131295Y-57993971D01*
X195036057Y-58041590D01*
X194655104Y-58041590D01*
X195702723Y-58517780D02*
X195893200Y-58517780D01*
X195988438Y-58470161D01*
X196036057Y-58422542D01*
X196131295Y-58279685D01*
X196178914Y-58089209D01*
X196178914Y-57708257D01*
X196131295Y-57613019D01*
X196083676Y-57565400D01*
X195988438Y-57517780D01*
X195797961Y-57517780D01*
X195702723Y-57565400D01*
X195655104Y-57613019D01*
X195607485Y-57708257D01*
X195607485Y-57946352D01*
X195655104Y-58041590D01*
X195702723Y-58089209D01*
X195797961Y-58136828D01*
X195988438Y-58136828D01*
X196083676Y-58089209D01*
X196131295Y-58041590D01*
X196178914Y-57946352D01*
X155772380Y-67476666D02*
X155296190Y-67810000D01*
X155772380Y-68048095D02*
X154772380Y-68048095D01*
X154772380Y-67667142D01*
X154820000Y-67571904D01*
X154867619Y-67524285D01*
X154962857Y-67476666D01*
X155105714Y-67476666D01*
X155200952Y-67524285D01*
X155248571Y-67571904D01*
X155296190Y-67667142D01*
X155296190Y-68048095D01*
X155200952Y-66905238D02*
X155153333Y-67000476D01*
X155105714Y-67048095D01*
X155010476Y-67095714D01*
X154962857Y-67095714D01*
X154867619Y-67048095D01*
X154820000Y-67000476D01*
X154772380Y-66905238D01*
X154772380Y-66714761D01*
X154820000Y-66619523D01*
X154867619Y-66571904D01*
X154962857Y-66524285D01*
X155010476Y-66524285D01*
X155105714Y-66571904D01*
X155153333Y-66619523D01*
X155200952Y-66714761D01*
X155200952Y-66905238D01*
X155248571Y-67000476D01*
X155296190Y-67048095D01*
X155391428Y-67095714D01*
X155581904Y-67095714D01*
X155677142Y-67048095D01*
X155724761Y-67000476D01*
X155772380Y-66905238D01*
X155772380Y-66714761D01*
X155724761Y-66619523D01*
X155677142Y-66571904D01*
X155581904Y-66524285D01*
X155391428Y-66524285D01*
X155296190Y-66571904D01*
X155248571Y-66619523D01*
X155200952Y-66714761D01*
X149422380Y-67476666D02*
X148946190Y-67810000D01*
X149422380Y-68048095D02*
X148422380Y-68048095D01*
X148422380Y-67667142D01*
X148470000Y-67571904D01*
X148517619Y-67524285D01*
X148612857Y-67476666D01*
X148755714Y-67476666D01*
X148850952Y-67524285D01*
X148898571Y-67571904D01*
X148946190Y-67667142D01*
X148946190Y-68048095D01*
X148422380Y-67143333D02*
X148422380Y-66476666D01*
X149422380Y-66905238D01*
X143072380Y-67476666D02*
X142596190Y-67810000D01*
X143072380Y-68048095D02*
X142072380Y-68048095D01*
X142072380Y-67667142D01*
X142120000Y-67571904D01*
X142167619Y-67524285D01*
X142262857Y-67476666D01*
X142405714Y-67476666D01*
X142500952Y-67524285D01*
X142548571Y-67571904D01*
X142596190Y-67667142D01*
X142596190Y-68048095D01*
X142072380Y-66619523D02*
X142072380Y-66810000D01*
X142120000Y-66905238D01*
X142167619Y-66952857D01*
X142310476Y-67048095D01*
X142500952Y-67095714D01*
X142881904Y-67095714D01*
X142977142Y-67048095D01*
X143024761Y-67000476D01*
X143072380Y-66905238D01*
X143072380Y-66714761D01*
X143024761Y-66619523D01*
X142977142Y-66571904D01*
X142881904Y-66524285D01*
X142643809Y-66524285D01*
X142548571Y-66571904D01*
X142500952Y-66619523D01*
X142453333Y-66714761D01*
X142453333Y-66905238D01*
X142500952Y-67000476D01*
X142548571Y-67048095D01*
X142643809Y-67095714D01*
X135206333Y-84654380D02*
X134873000Y-84178190D01*
X134634904Y-84654380D02*
X134634904Y-83654380D01*
X135015857Y-83654380D01*
X135111095Y-83702000D01*
X135158714Y-83749619D01*
X135206333Y-83844857D01*
X135206333Y-83987714D01*
X135158714Y-84082952D01*
X135111095Y-84130571D01*
X135015857Y-84178190D01*
X134634904Y-84178190D01*
X136111095Y-83654380D02*
X135634904Y-83654380D01*
X135587285Y-84130571D01*
X135634904Y-84082952D01*
X135730142Y-84035333D01*
X135968238Y-84035333D01*
X136063476Y-84082952D01*
X136111095Y-84130571D01*
X136158714Y-84225809D01*
X136158714Y-84463904D01*
X136111095Y-84559142D01*
X136063476Y-84606761D01*
X135968238Y-84654380D01*
X135730142Y-84654380D01*
X135634904Y-84606761D01*
X135587285Y-84559142D01*
X135206333Y-79320380D02*
X134873000Y-78844190D01*
X134634904Y-79320380D02*
X134634904Y-78320380D01*
X135015857Y-78320380D01*
X135111095Y-78368000D01*
X135158714Y-78415619D01*
X135206333Y-78510857D01*
X135206333Y-78653714D01*
X135158714Y-78748952D01*
X135111095Y-78796571D01*
X135015857Y-78844190D01*
X134634904Y-78844190D01*
X136063476Y-78653714D02*
X136063476Y-79320380D01*
X135825380Y-78272761D02*
X135587285Y-78987047D01*
X136206333Y-78987047D01*
X135206333Y-74494380D02*
X134873000Y-74018190D01*
X134634904Y-74494380D02*
X134634904Y-73494380D01*
X135015857Y-73494380D01*
X135111095Y-73542000D01*
X135158714Y-73589619D01*
X135206333Y-73684857D01*
X135206333Y-73827714D01*
X135158714Y-73922952D01*
X135111095Y-73970571D01*
X135015857Y-74018190D01*
X134634904Y-74018190D01*
X135539666Y-73494380D02*
X136158714Y-73494380D01*
X135825380Y-73875333D01*
X135968238Y-73875333D01*
X136063476Y-73922952D01*
X136111095Y-73970571D01*
X136158714Y-74065809D01*
X136158714Y-74303904D01*
X136111095Y-74399142D01*
X136063476Y-74446761D01*
X135968238Y-74494380D01*
X135682523Y-74494380D01*
X135587285Y-74446761D01*
X135539666Y-74399142D01*
X179919333Y-77668380D02*
X179586000Y-77192190D01*
X179347904Y-77668380D02*
X179347904Y-76668380D01*
X179728857Y-76668380D01*
X179824095Y-76716000D01*
X179871714Y-76763619D01*
X179919333Y-76858857D01*
X179919333Y-77001714D01*
X179871714Y-77096952D01*
X179824095Y-77144571D01*
X179728857Y-77192190D01*
X179347904Y-77192190D01*
X180300285Y-76763619D02*
X180347904Y-76716000D01*
X180443142Y-76668380D01*
X180681238Y-76668380D01*
X180776476Y-76716000D01*
X180824095Y-76763619D01*
X180871714Y-76858857D01*
X180871714Y-76954095D01*
X180824095Y-77096952D01*
X180252666Y-77668380D01*
X180871714Y-77668380D01*
X179884933Y-72055980D02*
X179551600Y-71579790D01*
X179313504Y-72055980D02*
X179313504Y-71055980D01*
X179694457Y-71055980D01*
X179789695Y-71103600D01*
X179837314Y-71151219D01*
X179884933Y-71246457D01*
X179884933Y-71389314D01*
X179837314Y-71484552D01*
X179789695Y-71532171D01*
X179694457Y-71579790D01*
X179313504Y-71579790D01*
X180837314Y-72055980D02*
X180265885Y-72055980D01*
X180551600Y-72055980D02*
X180551600Y-71055980D01*
X180456361Y-71198838D01*
X180361123Y-71294076D01*
X180265885Y-71341695D01*
X93519666Y-95718380D02*
X93519666Y-96432666D01*
X93472047Y-96575523D01*
X93376809Y-96670761D01*
X93233952Y-96718380D01*
X93138714Y-96718380D01*
X94424428Y-96051714D02*
X94424428Y-96718380D01*
X94186333Y-95670761D02*
X93948238Y-96385047D01*
X94567285Y-96385047D01*
X111002380Y-63198333D02*
X111716666Y-63198333D01*
X111859523Y-63245952D01*
X111954761Y-63341190D01*
X112002380Y-63484047D01*
X112002380Y-63579285D01*
X111002380Y-62817380D02*
X111002380Y-62198333D01*
X111383333Y-62531666D01*
X111383333Y-62388809D01*
X111430952Y-62293571D01*
X111478571Y-62245952D01*
X111573809Y-62198333D01*
X111811904Y-62198333D01*
X111907142Y-62245952D01*
X111954761Y-62293571D01*
X112002380Y-62388809D01*
X112002380Y-62674523D01*
X111954761Y-62769761D01*
X111907142Y-62817380D01*
X183697666Y-67365571D02*
X183364333Y-67365571D01*
X183364333Y-67889380D02*
X183364333Y-66889380D01*
X183840523Y-66889380D01*
X184554809Y-67365571D02*
X184697666Y-67413190D01*
X184745285Y-67460809D01*
X184792904Y-67556047D01*
X184792904Y-67698904D01*
X184745285Y-67794142D01*
X184697666Y-67841761D01*
X184602428Y-67889380D01*
X184221476Y-67889380D01*
X184221476Y-66889380D01*
X184554809Y-66889380D01*
X184650047Y-66937000D01*
X184697666Y-66984619D01*
X184745285Y-67079857D01*
X184745285Y-67175095D01*
X184697666Y-67270333D01*
X184650047Y-67317952D01*
X184554809Y-67365571D01*
X184221476Y-67365571D01*
X185745285Y-67889380D02*
X185173857Y-67889380D01*
X185459571Y-67889380D02*
X185459571Y-66889380D01*
X185364333Y-67032238D01*
X185269095Y-67127476D01*
X185173857Y-67175095D01*
X157082380Y-62968095D02*
X156082380Y-62968095D01*
X156082380Y-62730000D01*
X156130000Y-62587142D01*
X156225238Y-62491904D01*
X156320476Y-62444285D01*
X156510952Y-62396666D01*
X156653809Y-62396666D01*
X156844285Y-62444285D01*
X156939523Y-62491904D01*
X157034761Y-62587142D01*
X157082380Y-62730000D01*
X157082380Y-62968095D01*
X156082380Y-61539523D02*
X156082380Y-61730000D01*
X156130000Y-61825238D01*
X156177619Y-61872857D01*
X156320476Y-61968095D01*
X156510952Y-62015714D01*
X156891904Y-62015714D01*
X156987142Y-61968095D01*
X157034761Y-61920476D01*
X157082380Y-61825238D01*
X157082380Y-61634761D01*
X157034761Y-61539523D01*
X156987142Y-61491904D01*
X156891904Y-61444285D01*
X156653809Y-61444285D01*
X156558571Y-61491904D01*
X156510952Y-61539523D01*
X156463333Y-61634761D01*
X156463333Y-61825238D01*
X156510952Y-61920476D01*
X156558571Y-61968095D01*
X156653809Y-62015714D01*
X150732380Y-62968095D02*
X149732380Y-62968095D01*
X149732380Y-62730000D01*
X149780000Y-62587142D01*
X149875238Y-62491904D01*
X149970476Y-62444285D01*
X150160952Y-62396666D01*
X150303809Y-62396666D01*
X150494285Y-62444285D01*
X150589523Y-62491904D01*
X150684761Y-62587142D01*
X150732380Y-62730000D01*
X150732380Y-62968095D01*
X149732380Y-61491904D02*
X149732380Y-61968095D01*
X150208571Y-62015714D01*
X150160952Y-61968095D01*
X150113333Y-61872857D01*
X150113333Y-61634761D01*
X150160952Y-61539523D01*
X150208571Y-61491904D01*
X150303809Y-61444285D01*
X150541904Y-61444285D01*
X150637142Y-61491904D01*
X150684761Y-61539523D01*
X150732380Y-61634761D01*
X150732380Y-61872857D01*
X150684761Y-61968095D01*
X150637142Y-62015714D01*
X140819761Y-59459761D02*
X140962619Y-59507380D01*
X141200714Y-59507380D01*
X141295952Y-59459761D01*
X141343571Y-59412142D01*
X141391190Y-59316904D01*
X141391190Y-59221666D01*
X141343571Y-59126428D01*
X141295952Y-59078809D01*
X141200714Y-59031190D01*
X141010238Y-58983571D01*
X140915000Y-58935952D01*
X140867380Y-58888333D01*
X140819761Y-58793095D01*
X140819761Y-58697857D01*
X140867380Y-58602619D01*
X140915000Y-58555000D01*
X141010238Y-58507380D01*
X141248333Y-58507380D01*
X141391190Y-58555000D01*
X141819761Y-59507380D02*
X141819761Y-58507380D01*
X142819761Y-58555000D02*
X142724523Y-58507380D01*
X142581666Y-58507380D01*
X142438809Y-58555000D01*
X142343571Y-58650238D01*
X142295952Y-58745476D01*
X142248333Y-58935952D01*
X142248333Y-59078809D01*
X142295952Y-59269285D01*
X142343571Y-59364523D01*
X142438809Y-59459761D01*
X142581666Y-59507380D01*
X142676904Y-59507380D01*
X142819761Y-59459761D01*
X142867380Y-59412142D01*
X142867380Y-59078809D01*
X142676904Y-59078809D01*
X143295952Y-59507380D02*
X143295952Y-58507380D01*
X143867380Y-59507380D01*
X143867380Y-58507380D01*
X144295952Y-59221666D02*
X144772142Y-59221666D01*
X144200714Y-59507380D02*
X144534047Y-58507380D01*
X144867380Y-59507380D01*
X145676904Y-59507380D02*
X145200714Y-59507380D01*
X145200714Y-58507380D01*
X145772142Y-59602619D02*
X146534047Y-59602619D01*
X146724523Y-59459761D02*
X146867380Y-59507380D01*
X147105476Y-59507380D01*
X147200714Y-59459761D01*
X147248333Y-59412142D01*
X147295952Y-59316904D01*
X147295952Y-59221666D01*
X147248333Y-59126428D01*
X147200714Y-59078809D01*
X147105476Y-59031190D01*
X146915000Y-58983571D01*
X146819761Y-58935952D01*
X146772142Y-58888333D01*
X146724523Y-58793095D01*
X146724523Y-58697857D01*
X146772142Y-58602619D01*
X146819761Y-58555000D01*
X146915000Y-58507380D01*
X147153095Y-58507380D01*
X147295952Y-58555000D01*
X147581666Y-58507380D02*
X148153095Y-58507380D01*
X147867380Y-59507380D02*
X147867380Y-58507380D01*
X149057857Y-59507380D02*
X148724523Y-59031190D01*
X148486428Y-59507380D02*
X148486428Y-58507380D01*
X148867380Y-58507380D01*
X148962619Y-58555000D01*
X149010238Y-58602619D01*
X149057857Y-58697857D01*
X149057857Y-58840714D01*
X149010238Y-58935952D01*
X148962619Y-58983571D01*
X148867380Y-59031190D01*
X148486428Y-59031190D01*
X150010238Y-59507380D02*
X149438809Y-59507380D01*
X149724523Y-59507380D02*
X149724523Y-58507380D01*
X149629285Y-58650238D01*
X149534047Y-58745476D01*
X149438809Y-58793095D01*
X124563904Y-83344380D02*
X124563904Y-82344380D01*
X125135333Y-83344380D01*
X125135333Y-82344380D01*
X125611523Y-82820571D02*
X125944857Y-82820571D01*
X126087714Y-83344380D02*
X125611523Y-83344380D01*
X125611523Y-82344380D01*
X126087714Y-82344380D01*
X126373428Y-82344380D02*
X126944857Y-82344380D01*
X126659142Y-83344380D02*
X126659142Y-82344380D01*
X127182952Y-82344380D02*
X127421047Y-83344380D01*
X127611523Y-82630095D01*
X127802000Y-83344380D01*
X128040095Y-82344380D01*
X128611523Y-82344380D02*
X128802000Y-82344380D01*
X128897238Y-82392000D01*
X128992476Y-82487238D01*
X129040095Y-82677714D01*
X129040095Y-83011047D01*
X128992476Y-83201523D01*
X128897238Y-83296761D01*
X128802000Y-83344380D01*
X128611523Y-83344380D01*
X128516285Y-83296761D01*
X128421047Y-83201523D01*
X128373428Y-83011047D01*
X128373428Y-82677714D01*
X128421047Y-82487238D01*
X128516285Y-82392000D01*
X128611523Y-82344380D01*
X130040095Y-83344380D02*
X129706761Y-82868190D01*
X129468666Y-83344380D02*
X129468666Y-82344380D01*
X129849619Y-82344380D01*
X129944857Y-82392000D01*
X129992476Y-82439619D01*
X130040095Y-82534857D01*
X130040095Y-82677714D01*
X129992476Y-82772952D01*
X129944857Y-82820571D01*
X129849619Y-82868190D01*
X129468666Y-82868190D01*
X130468666Y-83344380D02*
X130468666Y-82344380D01*
X131040095Y-83344380D02*
X130611523Y-82772952D01*
X131040095Y-82344380D02*
X130468666Y-82915809D01*
X131230571Y-83439619D02*
X131992476Y-83439619D01*
X132516285Y-82344380D02*
X132516285Y-83058666D01*
X132468666Y-83201523D01*
X132373428Y-83296761D01*
X132230571Y-83344380D01*
X132135333Y-83344380D01*
X133182952Y-82344380D02*
X133373428Y-82344380D01*
X133468666Y-82392000D01*
X133563904Y-82487238D01*
X133611523Y-82677714D01*
X133611523Y-83011047D01*
X133563904Y-83201523D01*
X133468666Y-83296761D01*
X133373428Y-83344380D01*
X133182952Y-83344380D01*
X133087714Y-83296761D01*
X132992476Y-83201523D01*
X132944857Y-83011047D01*
X132944857Y-82677714D01*
X132992476Y-82487238D01*
X133087714Y-82392000D01*
X133182952Y-82344380D01*
X134040095Y-83344380D02*
X134040095Y-82344380D01*
X134516285Y-83344380D02*
X134516285Y-82344380D01*
X135087714Y-83344380D01*
X135087714Y-82344380D01*
X136087714Y-83344380D02*
X135516285Y-83344380D01*
X135802000Y-83344380D02*
X135802000Y-82344380D01*
X135706761Y-82487238D01*
X135611523Y-82582476D01*
X135516285Y-82630095D01*
X127754380Y-77058000D02*
X127659142Y-77010380D01*
X127516285Y-77010380D01*
X127373428Y-77058000D01*
X127278190Y-77153238D01*
X127230571Y-77248476D01*
X127182952Y-77438952D01*
X127182952Y-77581809D01*
X127230571Y-77772285D01*
X127278190Y-77867523D01*
X127373428Y-77962761D01*
X127516285Y-78010380D01*
X127611523Y-78010380D01*
X127754380Y-77962761D01*
X127802000Y-77915142D01*
X127802000Y-77581809D01*
X127611523Y-77581809D01*
X128230571Y-78010380D02*
X128230571Y-77010380D01*
X128611523Y-77010380D01*
X128706761Y-77058000D01*
X128754380Y-77105619D01*
X128802000Y-77200857D01*
X128802000Y-77343714D01*
X128754380Y-77438952D01*
X128706761Y-77486571D01*
X128611523Y-77534190D01*
X128230571Y-77534190D01*
X129182952Y-77962761D02*
X129325809Y-78010380D01*
X129563904Y-78010380D01*
X129659142Y-77962761D01*
X129706761Y-77915142D01*
X129754380Y-77819904D01*
X129754380Y-77724666D01*
X129706761Y-77629428D01*
X129659142Y-77581809D01*
X129563904Y-77534190D01*
X129373428Y-77486571D01*
X129278190Y-77438952D01*
X129230571Y-77391333D01*
X129182952Y-77296095D01*
X129182952Y-77200857D01*
X129230571Y-77105619D01*
X129278190Y-77058000D01*
X129373428Y-77010380D01*
X129611523Y-77010380D01*
X129754380Y-77058000D01*
X129944857Y-78105619D02*
X130706761Y-78105619D01*
X131516285Y-78010380D02*
X131182952Y-77534190D01*
X130944857Y-78010380D02*
X130944857Y-77010380D01*
X131325809Y-77010380D01*
X131421047Y-77058000D01*
X131468666Y-77105619D01*
X131516285Y-77200857D01*
X131516285Y-77343714D01*
X131468666Y-77438952D01*
X131421047Y-77486571D01*
X131325809Y-77534190D01*
X130944857Y-77534190D01*
X131849619Y-77010380D02*
X132516285Y-78010380D01*
X132516285Y-77010380D02*
X131849619Y-78010380D01*
X133421047Y-78010380D02*
X132849619Y-78010380D01*
X133135333Y-78010380D02*
X133135333Y-77010380D01*
X133040095Y-77153238D01*
X132944857Y-77248476D01*
X132849619Y-77296095D01*
X126349619Y-73184380D02*
X125873428Y-73184380D01*
X125873428Y-72184380D01*
X126873428Y-72184380D02*
X127063904Y-72184380D01*
X127159142Y-72232000D01*
X127254380Y-72327238D01*
X127302000Y-72517714D01*
X127302000Y-72851047D01*
X127254380Y-73041523D01*
X127159142Y-73136761D01*
X127063904Y-73184380D01*
X126873428Y-73184380D01*
X126778190Y-73136761D01*
X126682952Y-73041523D01*
X126635333Y-72851047D01*
X126635333Y-72517714D01*
X126682952Y-72327238D01*
X126778190Y-72232000D01*
X126873428Y-72184380D01*
X128302000Y-73184380D02*
X127968666Y-72708190D01*
X127730571Y-73184380D02*
X127730571Y-72184380D01*
X128111523Y-72184380D01*
X128206761Y-72232000D01*
X128254380Y-72279619D01*
X128302000Y-72374857D01*
X128302000Y-72517714D01*
X128254380Y-72612952D01*
X128206761Y-72660571D01*
X128111523Y-72708190D01*
X127730571Y-72708190D01*
X128682952Y-72898666D02*
X129159142Y-72898666D01*
X128587714Y-73184380D02*
X128921047Y-72184380D01*
X129254380Y-73184380D01*
X129349619Y-73279619D02*
X130111523Y-73279619D01*
X130302000Y-73136761D02*
X130444857Y-73184380D01*
X130682952Y-73184380D01*
X130778190Y-73136761D01*
X130825809Y-73089142D01*
X130873428Y-72993904D01*
X130873428Y-72898666D01*
X130825809Y-72803428D01*
X130778190Y-72755809D01*
X130682952Y-72708190D01*
X130492476Y-72660571D01*
X130397238Y-72612952D01*
X130349619Y-72565333D01*
X130302000Y-72470095D01*
X130302000Y-72374857D01*
X130349619Y-72279619D01*
X130397238Y-72232000D01*
X130492476Y-72184380D01*
X130730571Y-72184380D01*
X130873428Y-72232000D01*
X131302000Y-72660571D02*
X131635333Y-72660571D01*
X131778190Y-73184380D02*
X131302000Y-73184380D01*
X131302000Y-72184380D01*
X131778190Y-72184380D01*
X132206761Y-73184380D02*
X132206761Y-72184380D01*
X132778190Y-73184380D01*
X132778190Y-72184380D01*
X133254380Y-73184380D02*
X133254380Y-72184380D01*
X133492476Y-72184380D01*
X133635333Y-72232000D01*
X133730571Y-72327238D01*
X133778190Y-72422476D01*
X133825809Y-72612952D01*
X133825809Y-72755809D01*
X133778190Y-72946285D01*
X133730571Y-73041523D01*
X133635333Y-73136761D01*
X133492476Y-73184380D01*
X133254380Y-73184380D01*
X134778190Y-73184380D02*
X134206761Y-73184380D01*
X134492476Y-73184380D02*
X134492476Y-72184380D01*
X134397238Y-72327238D01*
X134302000Y-72422476D01*
X134206761Y-72470095D01*
X174889742Y-67725266D02*
X174937361Y-67772885D01*
X174984980Y-67915742D01*
X174984980Y-68010980D01*
X174937361Y-68153838D01*
X174842123Y-68249076D01*
X174746885Y-68296695D01*
X174556409Y-68344314D01*
X174413552Y-68344314D01*
X174223076Y-68296695D01*
X174127838Y-68249076D01*
X174032600Y-68153838D01*
X173984980Y-68010980D01*
X173984980Y-67915742D01*
X174032600Y-67772885D01*
X174080219Y-67725266D01*
X173984980Y-66868123D02*
X173984980Y-67058600D01*
X174032600Y-67153838D01*
X174080219Y-67201457D01*
X174223076Y-67296695D01*
X174413552Y-67344314D01*
X174794504Y-67344314D01*
X174889742Y-67296695D01*
X174937361Y-67249076D01*
X174984980Y-67153838D01*
X174984980Y-66963361D01*
X174937361Y-66868123D01*
X174889742Y-66820504D01*
X174794504Y-66772885D01*
X174556409Y-66772885D01*
X174461171Y-66820504D01*
X174413552Y-66868123D01*
X174365933Y-66963361D01*
X174365933Y-67153838D01*
X174413552Y-67249076D01*
X174461171Y-67296695D01*
X174556409Y-67344314D01*
X170639742Y-67950266D02*
X170687361Y-67997885D01*
X170734980Y-68140742D01*
X170734980Y-68235980D01*
X170687361Y-68378838D01*
X170592123Y-68474076D01*
X170496885Y-68521695D01*
X170306409Y-68569314D01*
X170163552Y-68569314D01*
X169973076Y-68521695D01*
X169877838Y-68474076D01*
X169782600Y-68378838D01*
X169734980Y-68235980D01*
X169734980Y-68140742D01*
X169782600Y-67997885D01*
X169830219Y-67950266D01*
X169734980Y-67045504D02*
X169734980Y-67521695D01*
X170211171Y-67569314D01*
X170163552Y-67521695D01*
X170115933Y-67426457D01*
X170115933Y-67188361D01*
X170163552Y-67093123D01*
X170211171Y-67045504D01*
X170306409Y-66997885D01*
X170544504Y-66997885D01*
X170639742Y-67045504D01*
X170687361Y-67093123D01*
X170734980Y-67188361D01*
X170734980Y-67426457D01*
X170687361Y-67521695D01*
X170639742Y-67569314D01*
X172061733Y-74778142D02*
X172014114Y-74825761D01*
X171871257Y-74873380D01*
X171776019Y-74873380D01*
X171633161Y-74825761D01*
X171537923Y-74730523D01*
X171490304Y-74635285D01*
X171442685Y-74444809D01*
X171442685Y-74301952D01*
X171490304Y-74111476D01*
X171537923Y-74016238D01*
X171633161Y-73921000D01*
X171776019Y-73873380D01*
X171871257Y-73873380D01*
X172014114Y-73921000D01*
X172061733Y-73968619D01*
X172918876Y-74206714D02*
X172918876Y-74873380D01*
X172680780Y-73825761D02*
X172442685Y-74540047D01*
X173061733Y-74540047D01*
X187147742Y-76350266D02*
X187195361Y-76397885D01*
X187242980Y-76540742D01*
X187242980Y-76635980D01*
X187195361Y-76778838D01*
X187100123Y-76874076D01*
X187004885Y-76921695D01*
X186814409Y-76969314D01*
X186671552Y-76969314D01*
X186481076Y-76921695D01*
X186385838Y-76874076D01*
X186290600Y-76778838D01*
X186242980Y-76635980D01*
X186242980Y-76540742D01*
X186290600Y-76397885D01*
X186338219Y-76350266D01*
X186242980Y-76016933D02*
X186242980Y-75397885D01*
X186623933Y-75731219D01*
X186623933Y-75588361D01*
X186671552Y-75493123D01*
X186719171Y-75445504D01*
X186814409Y-75397885D01*
X187052504Y-75397885D01*
X187147742Y-75445504D01*
X187195361Y-75493123D01*
X187242980Y-75588361D01*
X187242980Y-75874076D01*
X187195361Y-75969314D01*
X187147742Y-76016933D01*
X183847742Y-72522266D02*
X183895361Y-72569885D01*
X183942980Y-72712742D01*
X183942980Y-72807980D01*
X183895361Y-72950838D01*
X183800123Y-73046076D01*
X183704885Y-73093695D01*
X183514409Y-73141314D01*
X183371552Y-73141314D01*
X183181076Y-73093695D01*
X183085838Y-73046076D01*
X182990600Y-72950838D01*
X182942980Y-72807980D01*
X182942980Y-72712742D01*
X182990600Y-72569885D01*
X183038219Y-72522266D01*
X183038219Y-72141314D02*
X182990600Y-72093695D01*
X182942980Y-71998457D01*
X182942980Y-71760361D01*
X182990600Y-71665123D01*
X183038219Y-71617504D01*
X183133457Y-71569885D01*
X183228695Y-71569885D01*
X183371552Y-71617504D01*
X183942980Y-72188933D01*
X183942980Y-71569885D01*
X115039142Y-96931666D02*
X115086761Y-96979285D01*
X115134380Y-97122142D01*
X115134380Y-97217380D01*
X115086761Y-97360238D01*
X114991523Y-97455476D01*
X114896285Y-97503095D01*
X114705809Y-97550714D01*
X114562952Y-97550714D01*
X114372476Y-97503095D01*
X114277238Y-97455476D01*
X114182000Y-97360238D01*
X114134380Y-97217380D01*
X114134380Y-97122142D01*
X114182000Y-96979285D01*
X114229619Y-96931666D01*
X115134380Y-95979285D02*
X115134380Y-96550714D01*
X115134380Y-96265000D02*
X114134380Y-96265000D01*
X114277238Y-96360238D01*
X114372476Y-96455476D01*
X114420095Y-96550714D01*
M02*
