%TF.GenerationSoftware,KiCad,Pcbnew,(5.1.0)-1*%
%TF.CreationDate,2019-07-09T02:14:38+01:00*%
%TF.ProjectId,SmartGluttonV1,536d6172-7447-46c7-9574-746f6e56312e,rev?*%
%TF.SameCoordinates,Original*%
%TF.FileFunction,Legend,Top*%
%TF.FilePolarity,Positive*%
%FSLAX46Y46*%
G04 Gerber Fmt 4.6, Leading zero omitted, Abs format (unit mm)*
G04 Created by KiCad (PCBNEW (5.1.0)-1) date 2019-07-09 02:14:38*
%MOMM*%
%LPD*%
G04 APERTURE LIST*
%ADD10C,0.150000*%
%ADD11C,0.120000*%
G04 APERTURE END LIST*
D10*
X159108001Y-93079201D02*
X159250859Y-93126820D01*
X159488954Y-93126820D01*
X159584192Y-93079201D01*
X159631811Y-93031582D01*
X159679430Y-92936344D01*
X159679430Y-92841106D01*
X159631811Y-92745868D01*
X159584192Y-92698249D01*
X159488954Y-92650630D01*
X159298478Y-92603011D01*
X159203240Y-92555392D01*
X159155620Y-92507773D01*
X159108001Y-92412535D01*
X159108001Y-92317297D01*
X159155620Y-92222059D01*
X159203240Y-92174440D01*
X159298478Y-92126820D01*
X159536573Y-92126820D01*
X159679430Y-92174440D01*
X160108001Y-93126820D02*
X160108001Y-92126820D01*
X160441335Y-92841106D01*
X160774668Y-92126820D01*
X160774668Y-93126820D01*
X161203240Y-92841106D02*
X161679430Y-92841106D01*
X161108001Y-93126820D02*
X161441335Y-92126820D01*
X161774668Y-93126820D01*
X162679430Y-93126820D02*
X162346097Y-92650630D01*
X162108001Y-93126820D02*
X162108001Y-92126820D01*
X162488954Y-92126820D01*
X162584192Y-92174440D01*
X162631811Y-92222059D01*
X162679430Y-92317297D01*
X162679430Y-92460154D01*
X162631811Y-92555392D01*
X162584192Y-92603011D01*
X162488954Y-92650630D01*
X162108001Y-92650630D01*
X162965144Y-92126820D02*
X163536573Y-92126820D01*
X163250859Y-93126820D02*
X163250859Y-92126820D01*
X164393716Y-92174440D02*
X164298478Y-92126820D01*
X164155620Y-92126820D01*
X164012763Y-92174440D01*
X163917525Y-92269678D01*
X163869906Y-92364916D01*
X163822287Y-92555392D01*
X163822287Y-92698249D01*
X163869906Y-92888725D01*
X163917525Y-92983963D01*
X164012763Y-93079201D01*
X164155620Y-93126820D01*
X164250859Y-93126820D01*
X164393716Y-93079201D01*
X164441335Y-93031582D01*
X164441335Y-92698249D01*
X164250859Y-92698249D01*
X165346097Y-93126820D02*
X164869906Y-93126820D01*
X164869906Y-92126820D01*
X165679430Y-92126820D02*
X165679430Y-92936344D01*
X165727049Y-93031582D01*
X165774668Y-93079201D01*
X165869906Y-93126820D01*
X166060382Y-93126820D01*
X166155620Y-93079201D01*
X166203240Y-93031582D01*
X166250859Y-92936344D01*
X166250859Y-92126820D01*
X166584192Y-92126820D02*
X167155620Y-92126820D01*
X166869906Y-93126820D02*
X166869906Y-92126820D01*
X167346097Y-92126820D02*
X167917525Y-92126820D01*
X167631811Y-93126820D02*
X167631811Y-92126820D01*
X168441335Y-92126820D02*
X168631811Y-92126820D01*
X168727049Y-92174440D01*
X168822287Y-92269678D01*
X168869906Y-92460154D01*
X168869906Y-92793487D01*
X168822287Y-92983963D01*
X168727049Y-93079201D01*
X168631811Y-93126820D01*
X168441335Y-93126820D01*
X168346097Y-93079201D01*
X168250859Y-92983963D01*
X168203240Y-92793487D01*
X168203240Y-92460154D01*
X168250859Y-92269678D01*
X168346097Y-92174440D01*
X168441335Y-92126820D01*
X169298478Y-93126820D02*
X169298478Y-92126820D01*
X169869906Y-93126820D01*
X169869906Y-92126820D01*
X170965144Y-92126820D02*
X171298478Y-93126820D01*
X171631811Y-92126820D01*
X172488954Y-93126820D02*
X171917525Y-93126820D01*
X172203239Y-93126820D02*
X172203239Y-92126820D01*
X172108001Y-92269678D01*
X172012763Y-92364916D01*
X171917525Y-92412535D01*
X172917525Y-93031582D02*
X172965144Y-93079201D01*
X172917525Y-93126820D01*
X172869906Y-93079201D01*
X172917525Y-93031582D01*
X172917525Y-93126820D01*
X173584192Y-92126820D02*
X173679430Y-92126820D01*
X173774668Y-92174440D01*
X173822287Y-92222059D01*
X173869906Y-92317297D01*
X173917525Y-92507773D01*
X173917525Y-92745868D01*
X173869906Y-92936344D01*
X173822287Y-93031582D01*
X173774668Y-93079201D01*
X173679430Y-93126820D01*
X173584192Y-93126820D01*
X173488954Y-93079201D01*
X173441335Y-93031582D01*
X173393716Y-92936344D01*
X173346097Y-92745868D01*
X173346097Y-92507773D01*
X173393716Y-92317297D01*
X173441335Y-92222059D01*
X173488954Y-92174440D01*
X173584192Y-92126820D01*
X175060382Y-92222059D02*
X175108001Y-92174440D01*
X175203239Y-92126820D01*
X175441335Y-92126820D01*
X175536573Y-92174440D01*
X175584192Y-92222059D01*
X175631811Y-92317297D01*
X175631811Y-92412535D01*
X175584192Y-92555392D01*
X175012763Y-93126820D01*
X175631811Y-93126820D01*
X176250859Y-92126820D02*
X176346097Y-92126820D01*
X176441335Y-92174440D01*
X176488954Y-92222059D01*
X176536573Y-92317297D01*
X176584192Y-92507773D01*
X176584192Y-92745868D01*
X176536573Y-92936344D01*
X176488954Y-93031582D01*
X176441335Y-93079201D01*
X176346097Y-93126820D01*
X176250859Y-93126820D01*
X176155620Y-93079201D01*
X176108001Y-93031582D01*
X176060382Y-92936344D01*
X176012763Y-92745868D01*
X176012763Y-92507773D01*
X176060382Y-92317297D01*
X176108001Y-92222059D01*
X176155620Y-92174440D01*
X176250859Y-92126820D01*
X177536573Y-93126820D02*
X176965144Y-93126820D01*
X177250859Y-93126820D02*
X177250859Y-92126820D01*
X177155620Y-92269678D01*
X177060382Y-92364916D01*
X176965144Y-92412535D01*
X178012763Y-93126820D02*
X178203239Y-93126820D01*
X178298478Y-93079201D01*
X178346097Y-93031582D01*
X178441335Y-92888725D01*
X178488954Y-92698249D01*
X178488954Y-92317297D01*
X178441335Y-92222059D01*
X178393716Y-92174440D01*
X178298478Y-92126820D01*
X178108001Y-92126820D01*
X178012763Y-92174440D01*
X177965144Y-92222059D01*
X177917525Y-92317297D01*
X177917525Y-92555392D01*
X177965144Y-92650630D01*
X178012763Y-92698249D01*
X178108001Y-92745868D01*
X178298478Y-92745868D01*
X178393716Y-92698249D01*
X178441335Y-92650630D01*
X178488954Y-92555392D01*
X179108001Y-92126820D02*
X179203239Y-92126820D01*
X179298478Y-92174440D01*
X179346097Y-92222059D01*
X179393716Y-92317297D01*
X179441335Y-92507773D01*
X179441335Y-92745868D01*
X179393716Y-92936344D01*
X179346097Y-93031582D01*
X179298478Y-93079201D01*
X179203239Y-93126820D01*
X179108001Y-93126820D01*
X179012763Y-93079201D01*
X178965144Y-93031582D01*
X178917525Y-92936344D01*
X178869906Y-92745868D01*
X178869906Y-92507773D01*
X178917525Y-92317297D01*
X178965144Y-92222059D01*
X179012763Y-92174440D01*
X179108001Y-92126820D01*
X179774668Y-92126820D02*
X180441335Y-92126820D01*
X180012763Y-93126820D01*
X181012763Y-92126820D02*
X181108001Y-92126820D01*
X181203239Y-92174440D01*
X181250859Y-92222059D01*
X181298478Y-92317297D01*
X181346097Y-92507773D01*
X181346097Y-92745868D01*
X181298478Y-92936344D01*
X181250859Y-93031582D01*
X181203239Y-93079201D01*
X181108001Y-93126820D01*
X181012763Y-93126820D01*
X180917525Y-93079201D01*
X180869906Y-93031582D01*
X180822287Y-92936344D01*
X180774668Y-92745868D01*
X180774668Y-92507773D01*
X180822287Y-92317297D01*
X180869906Y-92222059D01*
X180917525Y-92174440D01*
X181012763Y-92126820D01*
X181822287Y-93126820D02*
X182012763Y-93126820D01*
X182108001Y-93079201D01*
X182155620Y-93031582D01*
X182250859Y-92888725D01*
X182298478Y-92698249D01*
X182298478Y-92317297D01*
X182250859Y-92222059D01*
X182203239Y-92174440D01*
X182108001Y-92126820D01*
X181917525Y-92126820D01*
X181822287Y-92174440D01*
X181774668Y-92222059D01*
X181727049Y-92317297D01*
X181727049Y-92555392D01*
X181774668Y-92650630D01*
X181822287Y-92698249D01*
X181917525Y-92745868D01*
X182108001Y-92745868D01*
X182203239Y-92698249D01*
X182250859Y-92650630D01*
X182298478Y-92555392D01*
X120983476Y-69048380D02*
X121602523Y-69048380D01*
X121269190Y-69429333D01*
X121412047Y-69429333D01*
X121507285Y-69476952D01*
X121554904Y-69524571D01*
X121602523Y-69619809D01*
X121602523Y-69857904D01*
X121554904Y-69953142D01*
X121507285Y-70000761D01*
X121412047Y-70048380D01*
X121126333Y-70048380D01*
X121031095Y-70000761D01*
X120983476Y-69953142D01*
X122554904Y-70048380D02*
X121983476Y-70048380D01*
X122269190Y-70048380D02*
X122269190Y-69048380D01*
X122173952Y-69191238D01*
X122078714Y-69286476D01*
X121983476Y-69334095D01*
X123880619Y-90296904D02*
X123833000Y-90249285D01*
X123785380Y-90154047D01*
X123785380Y-89915952D01*
X123833000Y-89820714D01*
X123880619Y-89773095D01*
X123975857Y-89725476D01*
X124071095Y-89725476D01*
X124213952Y-89773095D01*
X124785380Y-90344523D01*
X124785380Y-89725476D01*
X124118714Y-88868333D02*
X124785380Y-88868333D01*
X123737761Y-89106428D02*
X124452047Y-89344523D01*
X124452047Y-88725476D01*
X85471095Y-59872619D02*
X85518714Y-59825000D01*
X85613952Y-59777380D01*
X85852047Y-59777380D01*
X85947285Y-59825000D01*
X85994904Y-59872619D01*
X86042523Y-59967857D01*
X86042523Y-60063095D01*
X85994904Y-60205952D01*
X85423476Y-60777380D01*
X86042523Y-60777380D01*
X86661571Y-59777380D02*
X86756809Y-59777380D01*
X86852047Y-59825000D01*
X86899666Y-59872619D01*
X86947285Y-59967857D01*
X86994904Y-60158333D01*
X86994904Y-60396428D01*
X86947285Y-60586904D01*
X86899666Y-60682142D01*
X86852047Y-60729761D01*
X86756809Y-60777380D01*
X86661571Y-60777380D01*
X86566333Y-60729761D01*
X86518714Y-60682142D01*
X86471095Y-60586904D01*
X86423476Y-60396428D01*
X86423476Y-60158333D01*
X86471095Y-59967857D01*
X86518714Y-59872619D01*
X86566333Y-59825000D01*
X86661571Y-59777380D01*
X109029523Y-60523380D02*
X108458095Y-60523380D01*
X108743809Y-60523380D02*
X108743809Y-59523380D01*
X108648571Y-59666238D01*
X108553333Y-59761476D01*
X108458095Y-59809095D01*
X109981904Y-60523380D02*
X109410476Y-60523380D01*
X109696190Y-60523380D02*
X109696190Y-59523380D01*
X109600952Y-59666238D01*
X109505714Y-59761476D01*
X109410476Y-59809095D01*
X109029523Y-96591380D02*
X108458095Y-96591380D01*
X108743809Y-96591380D02*
X108743809Y-95591380D01*
X108648571Y-95734238D01*
X108553333Y-95829476D01*
X108458095Y-95877095D01*
X109648571Y-95591380D02*
X109743809Y-95591380D01*
X109839047Y-95639000D01*
X109886666Y-95686619D01*
X109934285Y-95781857D01*
X109981904Y-95972333D01*
X109981904Y-96210428D01*
X109934285Y-96400904D01*
X109886666Y-96496142D01*
X109839047Y-96543761D01*
X109743809Y-96591380D01*
X109648571Y-96591380D01*
X109553333Y-96543761D01*
X109505714Y-96496142D01*
X109458095Y-96400904D01*
X109410476Y-96210428D01*
X109410476Y-95972333D01*
X109458095Y-95781857D01*
X109505714Y-95686619D01*
X109553333Y-95639000D01*
X109648571Y-95591380D01*
X86772714Y-96591380D02*
X86201285Y-96591380D01*
X86487000Y-96591380D02*
X86487000Y-95591380D01*
X86391761Y-95734238D01*
X86296523Y-95829476D01*
X86201285Y-95877095D01*
D11*
X192372600Y-63898600D02*
X188112600Y-63898600D01*
X188112600Y-63898600D02*
X188112600Y-76218600D01*
X188112600Y-76218600D02*
X192372600Y-76218600D01*
X196472600Y-63898600D02*
X203712600Y-63898600D01*
X203712600Y-63898600D02*
X203712600Y-76218600D01*
X203712600Y-76218600D02*
X196472600Y-76218600D01*
X187892600Y-68808600D02*
X187392600Y-68308600D01*
X187392600Y-68308600D02*
X187392600Y-69308600D01*
X187392600Y-69308600D02*
X187892600Y-68808600D01*
X80910000Y-90140000D02*
X80910000Y-66040000D01*
X82110000Y-91340000D02*
X80910000Y-90140000D01*
X118010000Y-91340000D02*
X82110000Y-91340000D01*
X118010000Y-66040000D02*
X80910000Y-66040000D01*
X118010000Y-91340000D02*
X118010000Y-66040000D01*
X117390000Y-70600000D02*
X115270000Y-70600000D01*
X117390000Y-86720000D02*
X117390000Y-70600000D01*
X115270000Y-86720000D02*
X115270000Y-70600000D01*
X117390000Y-86720000D02*
X115270000Y-86720000D01*
X107830000Y-68730000D02*
X107830000Y-66610000D01*
X87710000Y-68730000D02*
X87710000Y-66610000D01*
X87710000Y-68730000D02*
X107830000Y-68730000D01*
X87710000Y-66610000D02*
X107830000Y-66610000D01*
X107830000Y-90730000D02*
X107830000Y-88610000D01*
X89770000Y-90730000D02*
X107830000Y-90730000D01*
X89770000Y-88610000D02*
X107830000Y-88610000D01*
X89770000Y-90730000D02*
X89770000Y-88610000D01*
X88770000Y-90730000D02*
X87710000Y-90730000D01*
X87710000Y-90730000D02*
X87710000Y-89670000D01*
X204328800Y-83899400D02*
X204328800Y-96999400D01*
X196528800Y-96999400D02*
X204328800Y-96999400D01*
X196528800Y-83899400D02*
X204328800Y-83899400D01*
X192658800Y-86049400D02*
X192658800Y-94849400D01*
X185622000Y-96273252D02*
X185622000Y-95750748D01*
X184202000Y-96273252D02*
X184202000Y-95750748D01*
X181942000Y-63676000D02*
X181942000Y-60276000D01*
X185342000Y-63676000D02*
X181942000Y-63676000D01*
X185342000Y-60276000D02*
X185342000Y-63676000D01*
X181942000Y-60276000D02*
X185342000Y-60276000D01*
X80596000Y-98982000D02*
X80596000Y-95582000D01*
X83996000Y-98982000D02*
X80596000Y-98982000D01*
X83996000Y-95582000D02*
X83996000Y-98982000D01*
X80596000Y-95582000D02*
X83996000Y-95582000D01*
X163654000Y-75360000D02*
X163654000Y-71960000D01*
X167054000Y-75360000D02*
X163654000Y-75360000D01*
X167054000Y-71960000D02*
X167054000Y-75360000D01*
X163654000Y-71960000D02*
X167054000Y-71960000D01*
X186242000Y-87316000D02*
X186242000Y-88646000D01*
X184912000Y-87316000D02*
X186242000Y-87316000D01*
X183642000Y-87316000D02*
X183642000Y-89976000D01*
X183642000Y-89976000D02*
X160722000Y-89976000D01*
X183642000Y-87316000D02*
X160722000Y-87316000D01*
X160722000Y-87316000D02*
X160722000Y-89976000D01*
X123250000Y-90865000D02*
X121920000Y-90865000D01*
X123250000Y-89535000D02*
X123250000Y-90865000D01*
X123250000Y-88265000D02*
X120590000Y-88265000D01*
X120590000Y-88265000D02*
X120590000Y-70425000D01*
X123250000Y-88265000D02*
X123250000Y-70425000D01*
X123250000Y-70425000D02*
X120590000Y-70425000D01*
X156985000Y-98020000D02*
X131985000Y-98020000D01*
X156985000Y-65020000D02*
X156985000Y-98020000D01*
X131985000Y-65020000D02*
X156985000Y-65020000D01*
X131985000Y-98020000D02*
X131985000Y-65020000D01*
X132655000Y-96520000D02*
X132655000Y-95190000D01*
X132655000Y-95190000D02*
X133985000Y-95190000D01*
X135255000Y-95190000D02*
X155635000Y-95190000D01*
X155635000Y-97850000D02*
X155635000Y-95190000D01*
X135255000Y-97850000D02*
X155635000Y-97850000D01*
X135255000Y-97850000D02*
X135255000Y-95190000D01*
X146395000Y-71695000D02*
X145145000Y-71695000D01*
X146395000Y-89595000D02*
X146395000Y-71695000D01*
X141895000Y-89595000D02*
X146395000Y-89595000D01*
X141895000Y-71695000D02*
X141895000Y-89595000D01*
X143145000Y-71695000D02*
X141895000Y-71695000D01*
X145145000Y-71695000D02*
G75*
G02X143145000Y-71695000I-1000000J0D01*
G01*
X176706684Y-58795955D02*
G75*
G03X172429000Y-59824400I-1827684J-1808445D01*
G01*
X176720741Y-62416275D02*
G75*
G02X172429000Y-61424400I-1841741J1811875D01*
G01*
X176729000Y-62404400D02*
X176729000Y-58804400D01*
D10*
X168250100Y-82246600D02*
X168250100Y-83371600D01*
X176090100Y-82246600D02*
X176090100Y-78096600D01*
X167140100Y-82246600D02*
X167140100Y-78096600D01*
X176090100Y-82246600D02*
X174980100Y-82246600D01*
X176090100Y-78096600D02*
X174980100Y-78096600D01*
X167140100Y-78096600D02*
X168250100Y-78096600D01*
X168250100Y-82246600D02*
X167140100Y-82246600D01*
D11*
X119638000Y-94790000D02*
X119638000Y-96290000D01*
X120888000Y-98790000D02*
X125388000Y-98790000D01*
X126638000Y-96290000D02*
X126638000Y-94790000D01*
X125388000Y-92290000D02*
X120888000Y-92290000D01*
X161580000Y-70138600D02*
X162830000Y-70138600D01*
X161580000Y-64938600D02*
X161580000Y-70138600D01*
X166080000Y-64938600D02*
X161580000Y-64938600D01*
X166080000Y-70138600D02*
X166080000Y-64938600D01*
X164830000Y-70138600D02*
X166080000Y-70138600D01*
X162830000Y-70138600D02*
G75*
G02X164830000Y-70138600I1000000J0D01*
G01*
X195131948Y-60425400D02*
X195654452Y-60425400D01*
X195131948Y-59005400D02*
X195654452Y-59005400D01*
X152960000Y-67048748D02*
X152960000Y-67571252D01*
X154380000Y-67048748D02*
X154380000Y-67571252D01*
X146610000Y-67048748D02*
X146610000Y-67571252D01*
X148030000Y-67048748D02*
X148030000Y-67571252D01*
X140260000Y-67048748D02*
X140260000Y-67571252D01*
X141680000Y-67048748D02*
X141680000Y-67571252D01*
X135111748Y-86562000D02*
X135634252Y-86562000D01*
X135111748Y-85142000D02*
X135634252Y-85142000D01*
X135111748Y-81228000D02*
X135634252Y-81228000D01*
X135111748Y-79808000D02*
X135634252Y-79808000D01*
X135111748Y-76402000D02*
X135634252Y-76402000D01*
X135111748Y-74982000D02*
X135634252Y-74982000D01*
X179790348Y-75995600D02*
X180312852Y-75995600D01*
X179790348Y-74575600D02*
X180312852Y-74575600D01*
X179790348Y-73963600D02*
X180312852Y-73963600D01*
X179790348Y-72543600D02*
X180312852Y-72543600D01*
X85030000Y-95310000D02*
X85030000Y-93980000D01*
X86360000Y-95310000D02*
X85030000Y-95310000D01*
X87630000Y-95310000D02*
X87630000Y-92650000D01*
X87630000Y-92650000D02*
X110550000Y-92650000D01*
X87630000Y-95310000D02*
X110550000Y-95310000D01*
X110550000Y-95310000D02*
X110550000Y-92650000D01*
X110550000Y-61535000D02*
X110550000Y-62865000D01*
X109220000Y-61535000D02*
X110550000Y-61535000D01*
X107950000Y-61535000D02*
X107950000Y-64195000D01*
X107950000Y-64195000D02*
X85030000Y-64195000D01*
X107950000Y-61535000D02*
X85030000Y-61535000D01*
X85030000Y-61535000D02*
X85030000Y-64195000D01*
X184662867Y-68298600D02*
X184320333Y-68298600D01*
X184662867Y-69318600D02*
X184320333Y-69318600D01*
X152590000Y-60670000D02*
X152434000Y-60670000D01*
X154906000Y-60670000D02*
X154750000Y-60670000D01*
X152590163Y-63271130D02*
G75*
G02X152590000Y-61189039I1079837J1041130D01*
G01*
X154749837Y-63271130D02*
G75*
G03X154750000Y-61189039I-1079837J1041130D01*
G01*
X152591392Y-63902335D02*
G75*
G02X152434484Y-60670000I1078608J1672335D01*
G01*
X154748608Y-63902335D02*
G75*
G03X154905516Y-60670000I-1078608J1672335D01*
G01*
X146240000Y-60670000D02*
X146084000Y-60670000D01*
X148556000Y-60670000D02*
X148400000Y-60670000D01*
X146240163Y-63271130D02*
G75*
G02X146240000Y-61189039I1079837J1041130D01*
G01*
X148399837Y-63271130D02*
G75*
G03X148400000Y-61189039I-1079837J1041130D01*
G01*
X146241392Y-63902335D02*
G75*
G02X146084484Y-60670000I1078608J1672335D01*
G01*
X148398608Y-63902335D02*
G75*
G03X148555516Y-60670000I-1078608J1672335D01*
G01*
X139890000Y-60670000D02*
X139734000Y-60670000D01*
X142206000Y-60670000D02*
X142050000Y-60670000D01*
X139890163Y-63271130D02*
G75*
G02X139890000Y-61189039I1079837J1041130D01*
G01*
X142049837Y-63271130D02*
G75*
G03X142050000Y-61189039I-1079837J1041130D01*
G01*
X139891392Y-63902335D02*
G75*
G02X139734484Y-60670000I1078608J1672335D01*
G01*
X142048608Y-63902335D02*
G75*
G03X142205516Y-60670000I-1078608J1672335D01*
G01*
X128742000Y-86932000D02*
X128742000Y-87088000D01*
X128742000Y-84616000D02*
X128742000Y-84772000D01*
X131343130Y-86931837D02*
G75*
G02X129261039Y-86932000I-1041130J1079837D01*
G01*
X131343130Y-84772163D02*
G75*
G03X129261039Y-84772000I-1041130J-1079837D01*
G01*
X131974335Y-86930608D02*
G75*
G02X128742000Y-87087516I-1672335J1078608D01*
G01*
X131974335Y-84773392D02*
G75*
G03X128742000Y-84616484I-1672335J-1078608D01*
G01*
X128742000Y-81598000D02*
X128742000Y-81754000D01*
X128742000Y-79282000D02*
X128742000Y-79438000D01*
X131343130Y-81597837D02*
G75*
G02X129261039Y-81598000I-1041130J1079837D01*
G01*
X131343130Y-79438163D02*
G75*
G03X129261039Y-79438000I-1041130J-1079837D01*
G01*
X131974335Y-81596608D02*
G75*
G02X128742000Y-81753516I-1672335J1078608D01*
G01*
X131974335Y-79439392D02*
G75*
G03X128742000Y-79282484I-1672335J-1078608D01*
G01*
X128742000Y-76772000D02*
X128742000Y-76928000D01*
X128742000Y-74456000D02*
X128742000Y-74612000D01*
X131343130Y-76771837D02*
G75*
G02X129261039Y-76772000I-1041130J1079837D01*
G01*
X131343130Y-74612163D02*
G75*
G03X129261039Y-74612000I-1041130J-1079837D01*
G01*
X131974335Y-76770608D02*
G75*
G02X128742000Y-76927516I-1672335J1078608D01*
G01*
X131974335Y-74613392D02*
G75*
G03X128742000Y-74456484I-1672335J-1078608D01*
G01*
X176557600Y-70113375D02*
X177057600Y-70113375D01*
X176807600Y-70363375D02*
X176807600Y-69863375D01*
X177998600Y-64957600D02*
X178566600Y-64957600D01*
X177764600Y-64997600D02*
X178800600Y-64997600D01*
X177605600Y-65037600D02*
X178959600Y-65037600D01*
X177477600Y-65077600D02*
X179087600Y-65077600D01*
X177367600Y-65117600D02*
X179197600Y-65117600D01*
X177271600Y-65157600D02*
X179293600Y-65157600D01*
X177184600Y-65197600D02*
X179380600Y-65197600D01*
X177104600Y-65237600D02*
X179460600Y-65237600D01*
X179322600Y-65277600D02*
X179533600Y-65277600D01*
X177031600Y-65277600D02*
X177242600Y-65277600D01*
X179322600Y-65317600D02*
X179601600Y-65317600D01*
X176963600Y-65317600D02*
X177242600Y-65317600D01*
X179322600Y-65357600D02*
X179665600Y-65357600D01*
X176899600Y-65357600D02*
X177242600Y-65357600D01*
X179322600Y-65397600D02*
X179725600Y-65397600D01*
X176839600Y-65397600D02*
X177242600Y-65397600D01*
X179322600Y-65437600D02*
X179782600Y-65437600D01*
X176782600Y-65437600D02*
X177242600Y-65437600D01*
X179322600Y-65477600D02*
X179836600Y-65477600D01*
X176728600Y-65477600D02*
X177242600Y-65477600D01*
X179322600Y-65517600D02*
X179887600Y-65517600D01*
X176677600Y-65517600D02*
X177242600Y-65517600D01*
X179322600Y-65557600D02*
X179935600Y-65557600D01*
X176629600Y-65557600D02*
X177242600Y-65557600D01*
X179322600Y-65597600D02*
X179981600Y-65597600D01*
X176583600Y-65597600D02*
X177242600Y-65597600D01*
X179322600Y-65637600D02*
X180025600Y-65637600D01*
X176539600Y-65637600D02*
X177242600Y-65637600D01*
X179322600Y-65677600D02*
X180067600Y-65677600D01*
X176497600Y-65677600D02*
X177242600Y-65677600D01*
X179322600Y-65717600D02*
X180108600Y-65717600D01*
X176456600Y-65717600D02*
X177242600Y-65717600D01*
X179322600Y-65757600D02*
X180146600Y-65757600D01*
X176418600Y-65757600D02*
X177242600Y-65757600D01*
X179322600Y-65797600D02*
X180183600Y-65797600D01*
X176381600Y-65797600D02*
X177242600Y-65797600D01*
X179322600Y-65837600D02*
X180219600Y-65837600D01*
X176345600Y-65837600D02*
X177242600Y-65837600D01*
X179322600Y-65877600D02*
X180253600Y-65877600D01*
X176311600Y-65877600D02*
X177242600Y-65877600D01*
X179322600Y-65917600D02*
X180286600Y-65917600D01*
X176278600Y-65917600D02*
X177242600Y-65917600D01*
X179322600Y-65957600D02*
X180317600Y-65957600D01*
X176247600Y-65957600D02*
X177242600Y-65957600D01*
X179322600Y-65997600D02*
X180347600Y-65997600D01*
X176217600Y-65997600D02*
X177242600Y-65997600D01*
X179322600Y-66037600D02*
X180377600Y-66037600D01*
X176187600Y-66037600D02*
X177242600Y-66037600D01*
X179322600Y-66077600D02*
X180404600Y-66077600D01*
X176160600Y-66077600D02*
X177242600Y-66077600D01*
X179322600Y-66117600D02*
X180431600Y-66117600D01*
X176133600Y-66117600D02*
X177242600Y-66117600D01*
X179322600Y-66157600D02*
X180457600Y-66157600D01*
X176107600Y-66157600D02*
X177242600Y-66157600D01*
X179322600Y-66197600D02*
X180482600Y-66197600D01*
X176082600Y-66197600D02*
X177242600Y-66197600D01*
X179322600Y-66237600D02*
X180506600Y-66237600D01*
X176058600Y-66237600D02*
X177242600Y-66237600D01*
X179322600Y-66277600D02*
X180529600Y-66277600D01*
X176035600Y-66277600D02*
X177242600Y-66277600D01*
X179322600Y-66317600D02*
X180550600Y-66317600D01*
X176014600Y-66317600D02*
X177242600Y-66317600D01*
X179322600Y-66357600D02*
X180572600Y-66357600D01*
X175992600Y-66357600D02*
X177242600Y-66357600D01*
X179322600Y-66397600D02*
X180592600Y-66397600D01*
X175972600Y-66397600D02*
X177242600Y-66397600D01*
X179322600Y-66437600D02*
X180611600Y-66437600D01*
X175953600Y-66437600D02*
X177242600Y-66437600D01*
X179322600Y-66477600D02*
X180630600Y-66477600D01*
X175934600Y-66477600D02*
X177242600Y-66477600D01*
X179322600Y-66517600D02*
X180647600Y-66517600D01*
X175917600Y-66517600D02*
X177242600Y-66517600D01*
X179322600Y-66557600D02*
X180664600Y-66557600D01*
X175900600Y-66557600D02*
X177242600Y-66557600D01*
X179322600Y-66597600D02*
X180680600Y-66597600D01*
X175884600Y-66597600D02*
X177242600Y-66597600D01*
X179322600Y-66637600D02*
X180696600Y-66637600D01*
X175868600Y-66637600D02*
X177242600Y-66637600D01*
X179322600Y-66677600D02*
X180710600Y-66677600D01*
X175854600Y-66677600D02*
X177242600Y-66677600D01*
X179322600Y-66717600D02*
X180724600Y-66717600D01*
X175840600Y-66717600D02*
X177242600Y-66717600D01*
X179322600Y-66757600D02*
X180737600Y-66757600D01*
X175827600Y-66757600D02*
X177242600Y-66757600D01*
X179322600Y-66797600D02*
X180750600Y-66797600D01*
X175814600Y-66797600D02*
X177242600Y-66797600D01*
X179322600Y-66837600D02*
X180762600Y-66837600D01*
X175802600Y-66837600D02*
X177242600Y-66837600D01*
X179322600Y-66878600D02*
X180773600Y-66878600D01*
X175791600Y-66878600D02*
X177242600Y-66878600D01*
X179322600Y-66918600D02*
X180783600Y-66918600D01*
X175781600Y-66918600D02*
X177242600Y-66918600D01*
X179322600Y-66958600D02*
X180793600Y-66958600D01*
X175771600Y-66958600D02*
X177242600Y-66958600D01*
X179322600Y-66998600D02*
X180802600Y-66998600D01*
X175762600Y-66998600D02*
X177242600Y-66998600D01*
X179322600Y-67038600D02*
X180810600Y-67038600D01*
X175754600Y-67038600D02*
X177242600Y-67038600D01*
X179322600Y-67078600D02*
X180818600Y-67078600D01*
X175746600Y-67078600D02*
X177242600Y-67078600D01*
X179322600Y-67118600D02*
X180825600Y-67118600D01*
X175739600Y-67118600D02*
X177242600Y-67118600D01*
X179322600Y-67158600D02*
X180832600Y-67158600D01*
X175732600Y-67158600D02*
X177242600Y-67158600D01*
X179322600Y-67198600D02*
X180838600Y-67198600D01*
X175726600Y-67198600D02*
X177242600Y-67198600D01*
X179322600Y-67238600D02*
X180843600Y-67238600D01*
X175721600Y-67238600D02*
X177242600Y-67238600D01*
X179322600Y-67278600D02*
X180847600Y-67278600D01*
X175717600Y-67278600D02*
X177242600Y-67278600D01*
X179322600Y-67318600D02*
X180851600Y-67318600D01*
X175713600Y-67318600D02*
X177242600Y-67318600D01*
X175709600Y-67358600D02*
X180855600Y-67358600D01*
X175706600Y-67398600D02*
X180858600Y-67398600D01*
X175704600Y-67438600D02*
X180860600Y-67438600D01*
X175703600Y-67478600D02*
X180861600Y-67478600D01*
X175702600Y-67518600D02*
X180862600Y-67518600D01*
X175702600Y-67558600D02*
X180862600Y-67558600D01*
X180902600Y-67558600D02*
G75*
G03X180902600Y-67558600I-2620000J0D01*
G01*
X172642600Y-68044852D02*
X172642600Y-67522348D01*
X171222600Y-68044852D02*
X171222600Y-67522348D01*
X172489652Y-72061000D02*
X171967148Y-72061000D01*
X172489652Y-73481000D02*
X171967148Y-73481000D01*
X184430600Y-75922348D02*
X184430600Y-76444852D01*
X185850600Y-75922348D02*
X185850600Y-76444852D01*
X185850600Y-72616852D02*
X185850600Y-72094348D01*
X184430600Y-72616852D02*
X184430600Y-72094348D01*
X117042000Y-97026252D02*
X117042000Y-96503748D01*
X115622000Y-97026252D02*
X115622000Y-96503748D01*
D10*
X195373666Y-69302380D02*
X195373666Y-70016666D01*
X195326047Y-70159523D01*
X195230809Y-70254761D01*
X195087952Y-70302380D01*
X194992714Y-70302380D01*
X196278428Y-69302380D02*
X196087952Y-69302380D01*
X195992714Y-69350000D01*
X195945095Y-69397619D01*
X195849857Y-69540476D01*
X195802238Y-69730952D01*
X195802238Y-70111904D01*
X195849857Y-70207142D01*
X195897476Y-70254761D01*
X195992714Y-70302380D01*
X196183190Y-70302380D01*
X196278428Y-70254761D01*
X196326047Y-70207142D01*
X196373666Y-70111904D01*
X196373666Y-69873809D01*
X196326047Y-69778571D01*
X196278428Y-69730952D01*
X196183190Y-69683333D01*
X195992714Y-69683333D01*
X195897476Y-69730952D01*
X195849857Y-69778571D01*
X195802238Y-69873809D01*
X97734380Y-78755666D02*
X97067714Y-78755666D01*
X97162952Y-78755666D02*
X97115333Y-78708047D01*
X97067714Y-78612809D01*
X97067714Y-78469952D01*
X97115333Y-78374714D01*
X97210571Y-78327095D01*
X97734380Y-78327095D01*
X97210571Y-78327095D02*
X97115333Y-78279476D01*
X97067714Y-78184238D01*
X97067714Y-78041380D01*
X97115333Y-77946142D01*
X97210571Y-77898523D01*
X97734380Y-77898523D01*
X97734380Y-77422333D02*
X96734380Y-77422333D01*
X96734380Y-77184238D01*
X96782000Y-77041380D01*
X96877238Y-76946142D01*
X96972476Y-76898523D01*
X97162952Y-76850904D01*
X97305809Y-76850904D01*
X97496285Y-76898523D01*
X97591523Y-76946142D01*
X97686761Y-77041380D01*
X97734380Y-77184238D01*
X97734380Y-77422333D01*
X97734380Y-76279476D02*
X97686761Y-76374714D01*
X97639142Y-76422333D01*
X97543904Y-76469952D01*
X97258190Y-76469952D01*
X97162952Y-76422333D01*
X97115333Y-76374714D01*
X97067714Y-76279476D01*
X97067714Y-76136619D01*
X97115333Y-76041380D01*
X97162952Y-75993761D01*
X97258190Y-75946142D01*
X97543904Y-75946142D01*
X97639142Y-75993761D01*
X97686761Y-76041380D01*
X97734380Y-76136619D01*
X97734380Y-76279476D01*
X97067714Y-75660428D02*
X97067714Y-75279476D01*
X96734380Y-75517571D02*
X97591523Y-75517571D01*
X97686761Y-75469952D01*
X97734380Y-75374714D01*
X97734380Y-75279476D01*
X196516666Y-89876380D02*
X196516666Y-90590666D01*
X196469047Y-90733523D01*
X196373809Y-90828761D01*
X196230952Y-90876380D01*
X196135714Y-90876380D01*
X197469047Y-89876380D02*
X196992857Y-89876380D01*
X196945238Y-90352571D01*
X196992857Y-90304952D01*
X197088095Y-90257333D01*
X197326190Y-90257333D01*
X197421428Y-90304952D01*
X197469047Y-90352571D01*
X197516666Y-90447809D01*
X197516666Y-90685904D01*
X197469047Y-90781142D01*
X197421428Y-90828761D01*
X197326190Y-90876380D01*
X197088095Y-90876380D01*
X196992857Y-90828761D01*
X196945238Y-90781142D01*
X183714380Y-96654857D02*
X183238190Y-96988190D01*
X183714380Y-97226285D02*
X182714380Y-97226285D01*
X182714380Y-96845333D01*
X182762000Y-96750095D01*
X182809619Y-96702476D01*
X182904857Y-96654857D01*
X183047714Y-96654857D01*
X183142952Y-96702476D01*
X183190571Y-96750095D01*
X183238190Y-96845333D01*
X183238190Y-97226285D01*
X183714380Y-95702476D02*
X183714380Y-96273904D01*
X183714380Y-95988190D02*
X182714380Y-95988190D01*
X182857238Y-96083428D01*
X182952476Y-96178666D01*
X183000095Y-96273904D01*
X182714380Y-95083428D02*
X182714380Y-94988190D01*
X182762000Y-94892952D01*
X182809619Y-94845333D01*
X182904857Y-94797714D01*
X183095333Y-94750095D01*
X183333428Y-94750095D01*
X183523904Y-94797714D01*
X183619142Y-94845333D01*
X183666761Y-94892952D01*
X183714380Y-94988190D01*
X183714380Y-95083428D01*
X183666761Y-95178666D01*
X183619142Y-95226285D01*
X183523904Y-95273904D01*
X183333428Y-95321523D01*
X183095333Y-95321523D01*
X182904857Y-95273904D01*
X182809619Y-95226285D01*
X182762000Y-95178666D01*
X182714380Y-95083428D01*
X182880095Y-59078000D02*
X182784857Y-59030380D01*
X182642000Y-59030380D01*
X182499142Y-59078000D01*
X182403904Y-59173238D01*
X182356285Y-59268476D01*
X182308666Y-59458952D01*
X182308666Y-59601809D01*
X182356285Y-59792285D01*
X182403904Y-59887523D01*
X182499142Y-59982761D01*
X182642000Y-60030380D01*
X182737238Y-60030380D01*
X182880095Y-59982761D01*
X182927714Y-59935142D01*
X182927714Y-59601809D01*
X182737238Y-59601809D01*
X183356285Y-60030380D02*
X183356285Y-59030380D01*
X183927714Y-60030380D01*
X183927714Y-59030380D01*
X184403904Y-60030380D02*
X184403904Y-59030380D01*
X184642000Y-59030380D01*
X184784857Y-59078000D01*
X184880095Y-59173238D01*
X184927714Y-59268476D01*
X184975333Y-59458952D01*
X184975333Y-59601809D01*
X184927714Y-59792285D01*
X184880095Y-59887523D01*
X184784857Y-59982761D01*
X184642000Y-60030380D01*
X184403904Y-60030380D01*
X81057904Y-94336380D02*
X81676952Y-94336380D01*
X81343619Y-94717333D01*
X81486476Y-94717333D01*
X81581714Y-94764952D01*
X81629333Y-94812571D01*
X81676952Y-94907809D01*
X81676952Y-95145904D01*
X81629333Y-95241142D01*
X81581714Y-95288761D01*
X81486476Y-95336380D01*
X81200761Y-95336380D01*
X81105523Y-95288761D01*
X81057904Y-95241142D01*
X81962666Y-94336380D02*
X82296000Y-95336380D01*
X82629333Y-94336380D01*
X82867428Y-94336380D02*
X83486476Y-94336380D01*
X83153142Y-94717333D01*
X83296000Y-94717333D01*
X83391238Y-94764952D01*
X83438857Y-94812571D01*
X83486476Y-94907809D01*
X83486476Y-95145904D01*
X83438857Y-95241142D01*
X83391238Y-95288761D01*
X83296000Y-95336380D01*
X83010285Y-95336380D01*
X82915047Y-95288761D01*
X82867428Y-95241142D01*
X162568285Y-76509571D02*
X162234952Y-76509571D01*
X162234952Y-77033380D02*
X162234952Y-76033380D01*
X162711142Y-76033380D01*
X163092095Y-77033380D02*
X163092095Y-76033380D01*
X164044476Y-77033380D02*
X163568285Y-77033380D01*
X163568285Y-76033380D01*
X164234952Y-76033380D02*
X164806380Y-76033380D01*
X164520666Y-77033380D02*
X164520666Y-76033380D01*
X165139714Y-76509571D02*
X165473047Y-76509571D01*
X165615904Y-77033380D02*
X165139714Y-77033380D01*
X165139714Y-76033380D01*
X165615904Y-76033380D01*
X166615904Y-77033380D02*
X166282571Y-76557190D01*
X166044476Y-77033380D02*
X166044476Y-76033380D01*
X166425428Y-76033380D01*
X166520666Y-76081000D01*
X166568285Y-76128619D01*
X166615904Y-76223857D01*
X166615904Y-76366714D01*
X166568285Y-76461952D01*
X166520666Y-76509571D01*
X166425428Y-76557190D01*
X166044476Y-76557190D01*
X167044476Y-76509571D02*
X167377809Y-76509571D01*
X167520666Y-77033380D02*
X167044476Y-77033380D01*
X167044476Y-76033380D01*
X167520666Y-76033380D01*
X167949238Y-77033380D02*
X167949238Y-76033380D01*
X168187333Y-76033380D01*
X168330190Y-76081000D01*
X168425428Y-76176238D01*
X168473047Y-76271476D01*
X168520666Y-76461952D01*
X168520666Y-76604809D01*
X168473047Y-76795285D01*
X168425428Y-76890523D01*
X168330190Y-76985761D01*
X168187333Y-77033380D01*
X167949238Y-77033380D01*
X184491380Y-91138333D02*
X185205666Y-91138333D01*
X185348523Y-91185952D01*
X185443761Y-91281190D01*
X185491380Y-91424047D01*
X185491380Y-91519285D01*
X184586619Y-90709761D02*
X184539000Y-90662142D01*
X184491380Y-90566904D01*
X184491380Y-90328809D01*
X184539000Y-90233571D01*
X184586619Y-90185952D01*
X184681857Y-90138333D01*
X184777095Y-90138333D01*
X184919952Y-90185952D01*
X185491380Y-90757380D01*
X185491380Y-90138333D01*
X121586666Y-91317380D02*
X121586666Y-92031666D01*
X121539047Y-92174523D01*
X121443809Y-92269761D01*
X121300952Y-92317380D01*
X121205714Y-92317380D01*
X122586666Y-92317380D02*
X122015238Y-92317380D01*
X122300952Y-92317380D02*
X122300952Y-91317380D01*
X122205714Y-91460238D01*
X122110476Y-91555476D01*
X122015238Y-91603095D01*
X130667380Y-96853333D02*
X131381666Y-96853333D01*
X131524523Y-96900952D01*
X131619761Y-96996190D01*
X131667380Y-97139047D01*
X131667380Y-97234285D01*
X130667380Y-96472380D02*
X130667380Y-95805714D01*
X131667380Y-96234285D01*
X141145000Y-71147380D02*
X140668809Y-71147380D01*
X140668809Y-70147380D01*
X141478333Y-70623571D02*
X141811666Y-70623571D01*
X141954523Y-71147380D02*
X141478333Y-71147380D01*
X141478333Y-70147380D01*
X141954523Y-70147380D01*
X142383095Y-71147380D02*
X142383095Y-70147380D01*
X142621190Y-70147380D01*
X142764047Y-70195000D01*
X142859285Y-70290238D01*
X142906904Y-70385476D01*
X142954523Y-70575952D01*
X142954523Y-70718809D01*
X142906904Y-70909285D01*
X142859285Y-71004523D01*
X142764047Y-71099761D01*
X142621190Y-71147380D01*
X142383095Y-71147380D01*
X144145000Y-71147380D02*
X144145000Y-70147380D01*
X144716428Y-71147380D01*
X144716428Y-70147380D01*
X145145000Y-70861666D02*
X145621190Y-70861666D01*
X145049761Y-71147380D02*
X145383095Y-70147380D01*
X145716428Y-71147380D01*
X146049761Y-71147380D02*
X146049761Y-70147380D01*
X146621190Y-71147380D01*
X146621190Y-70147380D01*
X147097380Y-71147380D02*
X147097380Y-70147380D01*
X147335476Y-70147380D01*
X147478333Y-70195000D01*
X147573571Y-70290238D01*
X147621190Y-70385476D01*
X147668809Y-70575952D01*
X147668809Y-70718809D01*
X147621190Y-70909285D01*
X147573571Y-71004523D01*
X147478333Y-71099761D01*
X147335476Y-71147380D01*
X147097380Y-71147380D01*
X169931380Y-62985352D02*
X169931380Y-63461542D01*
X170407571Y-63509161D01*
X170359952Y-63461542D01*
X170312333Y-63366304D01*
X170312333Y-63128209D01*
X170359952Y-63032971D01*
X170407571Y-62985352D01*
X170502809Y-62937733D01*
X170740904Y-62937733D01*
X170836142Y-62985352D01*
X170883761Y-63032971D01*
X170931380Y-63128209D01*
X170931380Y-63366304D01*
X170883761Y-63461542D01*
X170836142Y-63509161D01*
X170550428Y-62509161D02*
X170550428Y-61747257D01*
X170264714Y-61271066D02*
X170550428Y-60509161D01*
X170836142Y-61271066D01*
X169931380Y-60128209D02*
X169931380Y-59509161D01*
X170312333Y-59842495D01*
X170312333Y-59699638D01*
X170359952Y-59604400D01*
X170407571Y-59556780D01*
X170502809Y-59509161D01*
X170740904Y-59509161D01*
X170836142Y-59556780D01*
X170883761Y-59604400D01*
X170931380Y-59699638D01*
X170931380Y-59985352D01*
X170883761Y-60080590D01*
X170836142Y-60128209D01*
X169931380Y-59223447D02*
X170931380Y-58890114D01*
X169931380Y-58556780D01*
X169931380Y-58318685D02*
X169931380Y-57699638D01*
X170312333Y-58032971D01*
X170312333Y-57890114D01*
X170359952Y-57794876D01*
X170407571Y-57747257D01*
X170502809Y-57699638D01*
X170740904Y-57699638D01*
X170836142Y-57747257D01*
X170883761Y-57794876D01*
X170931380Y-57890114D01*
X170931380Y-58175828D01*
X170883761Y-58271066D01*
X170836142Y-58318685D01*
X166143671Y-81147790D02*
X166143671Y-81481123D01*
X166667480Y-81481123D02*
X165667480Y-81481123D01*
X165667480Y-81004933D01*
X165667480Y-80766838D02*
X165667480Y-80195409D01*
X166667480Y-80481123D02*
X165667480Y-80481123D01*
X166667480Y-79862076D02*
X165667480Y-79862076D01*
X165667480Y-79623980D01*
X165715100Y-79481123D01*
X165810338Y-79385885D01*
X165905576Y-79338266D01*
X166096052Y-79290647D01*
X166238909Y-79290647D01*
X166429385Y-79338266D01*
X166524623Y-79385885D01*
X166619861Y-79481123D01*
X166667480Y-79623980D01*
X166667480Y-79862076D01*
X166667480Y-78862076D02*
X165667480Y-78862076D01*
X121804666Y-100194761D02*
X121947523Y-100242380D01*
X122185619Y-100242380D01*
X122280857Y-100194761D01*
X122328476Y-100147142D01*
X122376095Y-100051904D01*
X122376095Y-99956666D01*
X122328476Y-99861428D01*
X122280857Y-99813809D01*
X122185619Y-99766190D01*
X121995142Y-99718571D01*
X121899904Y-99670952D01*
X121852285Y-99623333D01*
X121804666Y-99528095D01*
X121804666Y-99432857D01*
X121852285Y-99337619D01*
X121899904Y-99290000D01*
X121995142Y-99242380D01*
X122233238Y-99242380D01*
X122376095Y-99290000D01*
X122709428Y-99242380D02*
X122947523Y-100242380D01*
X123138000Y-99528095D01*
X123328476Y-100242380D01*
X123566571Y-99242380D01*
X123899904Y-99337619D02*
X123947523Y-99290000D01*
X124042761Y-99242380D01*
X124280857Y-99242380D01*
X124376095Y-99290000D01*
X124423714Y-99337619D01*
X124471333Y-99432857D01*
X124471333Y-99528095D01*
X124423714Y-99670952D01*
X123852285Y-100242380D01*
X124471333Y-100242380D01*
X160679190Y-63460380D02*
X160679190Y-64269904D01*
X160726809Y-64365142D01*
X160774428Y-64412761D01*
X160869666Y-64460380D01*
X161060142Y-64460380D01*
X161155380Y-64412761D01*
X161203000Y-64365142D01*
X161250619Y-64269904D01*
X161250619Y-63460380D01*
X161679190Y-64174666D02*
X162155380Y-64174666D01*
X161583952Y-64460380D02*
X161917285Y-63460380D01*
X162250619Y-64460380D01*
X163155380Y-64460380D02*
X162822047Y-63984190D01*
X162583952Y-64460380D02*
X162583952Y-63460380D01*
X162964904Y-63460380D01*
X163060142Y-63508000D01*
X163107761Y-63555619D01*
X163155380Y-63650857D01*
X163155380Y-63793714D01*
X163107761Y-63888952D01*
X163060142Y-63936571D01*
X162964904Y-63984190D01*
X162583952Y-63984190D01*
X163441095Y-63460380D02*
X164012523Y-63460380D01*
X163726809Y-64460380D02*
X163726809Y-63460380D01*
X164107761Y-64555619D02*
X164869666Y-64555619D01*
X165298238Y-63460380D02*
X165488714Y-63460380D01*
X165583952Y-63508000D01*
X165679190Y-63603238D01*
X165726809Y-63793714D01*
X165726809Y-64127047D01*
X165679190Y-64317523D01*
X165583952Y-64412761D01*
X165488714Y-64460380D01*
X165298238Y-64460380D01*
X165203000Y-64412761D01*
X165107761Y-64317523D01*
X165060142Y-64127047D01*
X165060142Y-63793714D01*
X165107761Y-63603238D01*
X165203000Y-63508000D01*
X165298238Y-63460380D01*
X166155380Y-64460380D02*
X166155380Y-63460380D01*
X166726809Y-64460380D01*
X166726809Y-63460380D01*
X195226533Y-58517780D02*
X194893200Y-58041590D01*
X194655104Y-58517780D02*
X194655104Y-57517780D01*
X195036057Y-57517780D01*
X195131295Y-57565400D01*
X195178914Y-57613019D01*
X195226533Y-57708257D01*
X195226533Y-57851114D01*
X195178914Y-57946352D01*
X195131295Y-57993971D01*
X195036057Y-58041590D01*
X194655104Y-58041590D01*
X195702723Y-58517780D02*
X195893200Y-58517780D01*
X195988438Y-58470161D01*
X196036057Y-58422542D01*
X196131295Y-58279685D01*
X196178914Y-58089209D01*
X196178914Y-57708257D01*
X196131295Y-57613019D01*
X196083676Y-57565400D01*
X195988438Y-57517780D01*
X195797961Y-57517780D01*
X195702723Y-57565400D01*
X195655104Y-57613019D01*
X195607485Y-57708257D01*
X195607485Y-57946352D01*
X195655104Y-58041590D01*
X195702723Y-58089209D01*
X195797961Y-58136828D01*
X195988438Y-58136828D01*
X196083676Y-58089209D01*
X196131295Y-58041590D01*
X196178914Y-57946352D01*
X155772380Y-67476666D02*
X155296190Y-67810000D01*
X155772380Y-68048095D02*
X154772380Y-68048095D01*
X154772380Y-67667142D01*
X154820000Y-67571904D01*
X154867619Y-67524285D01*
X154962857Y-67476666D01*
X155105714Y-67476666D01*
X155200952Y-67524285D01*
X155248571Y-67571904D01*
X155296190Y-67667142D01*
X155296190Y-68048095D01*
X155200952Y-66905238D02*
X155153333Y-67000476D01*
X155105714Y-67048095D01*
X155010476Y-67095714D01*
X154962857Y-67095714D01*
X154867619Y-67048095D01*
X154820000Y-67000476D01*
X154772380Y-66905238D01*
X154772380Y-66714761D01*
X154820000Y-66619523D01*
X154867619Y-66571904D01*
X154962857Y-66524285D01*
X155010476Y-66524285D01*
X155105714Y-66571904D01*
X155153333Y-66619523D01*
X155200952Y-66714761D01*
X155200952Y-66905238D01*
X155248571Y-67000476D01*
X155296190Y-67048095D01*
X155391428Y-67095714D01*
X155581904Y-67095714D01*
X155677142Y-67048095D01*
X155724761Y-67000476D01*
X155772380Y-66905238D01*
X155772380Y-66714761D01*
X155724761Y-66619523D01*
X155677142Y-66571904D01*
X155581904Y-66524285D01*
X155391428Y-66524285D01*
X155296190Y-66571904D01*
X155248571Y-66619523D01*
X155200952Y-66714761D01*
X149422380Y-67476666D02*
X148946190Y-67810000D01*
X149422380Y-68048095D02*
X148422380Y-68048095D01*
X148422380Y-67667142D01*
X148470000Y-67571904D01*
X148517619Y-67524285D01*
X148612857Y-67476666D01*
X148755714Y-67476666D01*
X148850952Y-67524285D01*
X148898571Y-67571904D01*
X148946190Y-67667142D01*
X148946190Y-68048095D01*
X148422380Y-67143333D02*
X148422380Y-66476666D01*
X149422380Y-66905238D01*
X143072380Y-67476666D02*
X142596190Y-67810000D01*
X143072380Y-68048095D02*
X142072380Y-68048095D01*
X142072380Y-67667142D01*
X142120000Y-67571904D01*
X142167619Y-67524285D01*
X142262857Y-67476666D01*
X142405714Y-67476666D01*
X142500952Y-67524285D01*
X142548571Y-67571904D01*
X142596190Y-67667142D01*
X142596190Y-68048095D01*
X142072380Y-66619523D02*
X142072380Y-66810000D01*
X142120000Y-66905238D01*
X142167619Y-66952857D01*
X142310476Y-67048095D01*
X142500952Y-67095714D01*
X142881904Y-67095714D01*
X142977142Y-67048095D01*
X143024761Y-67000476D01*
X143072380Y-66905238D01*
X143072380Y-66714761D01*
X143024761Y-66619523D01*
X142977142Y-66571904D01*
X142881904Y-66524285D01*
X142643809Y-66524285D01*
X142548571Y-66571904D01*
X142500952Y-66619523D01*
X142453333Y-66714761D01*
X142453333Y-66905238D01*
X142500952Y-67000476D01*
X142548571Y-67048095D01*
X142643809Y-67095714D01*
X135206333Y-84654380D02*
X134873000Y-84178190D01*
X134634904Y-84654380D02*
X134634904Y-83654380D01*
X135015857Y-83654380D01*
X135111095Y-83702000D01*
X135158714Y-83749619D01*
X135206333Y-83844857D01*
X135206333Y-83987714D01*
X135158714Y-84082952D01*
X135111095Y-84130571D01*
X135015857Y-84178190D01*
X134634904Y-84178190D01*
X136111095Y-83654380D02*
X135634904Y-83654380D01*
X135587285Y-84130571D01*
X135634904Y-84082952D01*
X135730142Y-84035333D01*
X135968238Y-84035333D01*
X136063476Y-84082952D01*
X136111095Y-84130571D01*
X136158714Y-84225809D01*
X136158714Y-84463904D01*
X136111095Y-84559142D01*
X136063476Y-84606761D01*
X135968238Y-84654380D01*
X135730142Y-84654380D01*
X135634904Y-84606761D01*
X135587285Y-84559142D01*
X135206333Y-79320380D02*
X134873000Y-78844190D01*
X134634904Y-79320380D02*
X134634904Y-78320380D01*
X135015857Y-78320380D01*
X135111095Y-78368000D01*
X135158714Y-78415619D01*
X135206333Y-78510857D01*
X135206333Y-78653714D01*
X135158714Y-78748952D01*
X135111095Y-78796571D01*
X135015857Y-78844190D01*
X134634904Y-78844190D01*
X136063476Y-78653714D02*
X136063476Y-79320380D01*
X135825380Y-78272761D02*
X135587285Y-78987047D01*
X136206333Y-78987047D01*
X135206333Y-74494380D02*
X134873000Y-74018190D01*
X134634904Y-74494380D02*
X134634904Y-73494380D01*
X135015857Y-73494380D01*
X135111095Y-73542000D01*
X135158714Y-73589619D01*
X135206333Y-73684857D01*
X135206333Y-73827714D01*
X135158714Y-73922952D01*
X135111095Y-73970571D01*
X135015857Y-74018190D01*
X134634904Y-74018190D01*
X135539666Y-73494380D02*
X136158714Y-73494380D01*
X135825380Y-73875333D01*
X135968238Y-73875333D01*
X136063476Y-73922952D01*
X136111095Y-73970571D01*
X136158714Y-74065809D01*
X136158714Y-74303904D01*
X136111095Y-74399142D01*
X136063476Y-74446761D01*
X135968238Y-74494380D01*
X135682523Y-74494380D01*
X135587285Y-74446761D01*
X135539666Y-74399142D01*
X179919333Y-77668380D02*
X179586000Y-77192190D01*
X179347904Y-77668380D02*
X179347904Y-76668380D01*
X179728857Y-76668380D01*
X179824095Y-76716000D01*
X179871714Y-76763619D01*
X179919333Y-76858857D01*
X179919333Y-77001714D01*
X179871714Y-77096952D01*
X179824095Y-77144571D01*
X179728857Y-77192190D01*
X179347904Y-77192190D01*
X180300285Y-76763619D02*
X180347904Y-76716000D01*
X180443142Y-76668380D01*
X180681238Y-76668380D01*
X180776476Y-76716000D01*
X180824095Y-76763619D01*
X180871714Y-76858857D01*
X180871714Y-76954095D01*
X180824095Y-77096952D01*
X180252666Y-77668380D01*
X180871714Y-77668380D01*
X179884933Y-72055980D02*
X179551600Y-71579790D01*
X179313504Y-72055980D02*
X179313504Y-71055980D01*
X179694457Y-71055980D01*
X179789695Y-71103600D01*
X179837314Y-71151219D01*
X179884933Y-71246457D01*
X179884933Y-71389314D01*
X179837314Y-71484552D01*
X179789695Y-71532171D01*
X179694457Y-71579790D01*
X179313504Y-71579790D01*
X180837314Y-72055980D02*
X180265885Y-72055980D01*
X180551600Y-72055980D02*
X180551600Y-71055980D01*
X180456361Y-71198838D01*
X180361123Y-71294076D01*
X180265885Y-71341695D01*
X93519666Y-95718380D02*
X93519666Y-96432666D01*
X93472047Y-96575523D01*
X93376809Y-96670761D01*
X93233952Y-96718380D01*
X93138714Y-96718380D01*
X94424428Y-96051714D02*
X94424428Y-96718380D01*
X94186333Y-95670761D02*
X93948238Y-96385047D01*
X94567285Y-96385047D01*
X111002380Y-63198333D02*
X111716666Y-63198333D01*
X111859523Y-63245952D01*
X111954761Y-63341190D01*
X112002380Y-63484047D01*
X112002380Y-63579285D01*
X111002380Y-62817380D02*
X111002380Y-62198333D01*
X111383333Y-62531666D01*
X111383333Y-62388809D01*
X111430952Y-62293571D01*
X111478571Y-62245952D01*
X111573809Y-62198333D01*
X111811904Y-62198333D01*
X111907142Y-62245952D01*
X111954761Y-62293571D01*
X112002380Y-62388809D01*
X112002380Y-62674523D01*
X111954761Y-62769761D01*
X111907142Y-62817380D01*
X183697666Y-67365571D02*
X183364333Y-67365571D01*
X183364333Y-67889380D02*
X183364333Y-66889380D01*
X183840523Y-66889380D01*
X184554809Y-67365571D02*
X184697666Y-67413190D01*
X184745285Y-67460809D01*
X184792904Y-67556047D01*
X184792904Y-67698904D01*
X184745285Y-67794142D01*
X184697666Y-67841761D01*
X184602428Y-67889380D01*
X184221476Y-67889380D01*
X184221476Y-66889380D01*
X184554809Y-66889380D01*
X184650047Y-66937000D01*
X184697666Y-66984619D01*
X184745285Y-67079857D01*
X184745285Y-67175095D01*
X184697666Y-67270333D01*
X184650047Y-67317952D01*
X184554809Y-67365571D01*
X184221476Y-67365571D01*
X185745285Y-67889380D02*
X185173857Y-67889380D01*
X185459571Y-67889380D02*
X185459571Y-66889380D01*
X185364333Y-67032238D01*
X185269095Y-67127476D01*
X185173857Y-67175095D01*
X157082380Y-62968095D02*
X156082380Y-62968095D01*
X156082380Y-62730000D01*
X156130000Y-62587142D01*
X156225238Y-62491904D01*
X156320476Y-62444285D01*
X156510952Y-62396666D01*
X156653809Y-62396666D01*
X156844285Y-62444285D01*
X156939523Y-62491904D01*
X157034761Y-62587142D01*
X157082380Y-62730000D01*
X157082380Y-62968095D01*
X156082380Y-61539523D02*
X156082380Y-61730000D01*
X156130000Y-61825238D01*
X156177619Y-61872857D01*
X156320476Y-61968095D01*
X156510952Y-62015714D01*
X156891904Y-62015714D01*
X156987142Y-61968095D01*
X157034761Y-61920476D01*
X157082380Y-61825238D01*
X157082380Y-61634761D01*
X157034761Y-61539523D01*
X156987142Y-61491904D01*
X156891904Y-61444285D01*
X156653809Y-61444285D01*
X156558571Y-61491904D01*
X156510952Y-61539523D01*
X156463333Y-61634761D01*
X156463333Y-61825238D01*
X156510952Y-61920476D01*
X156558571Y-61968095D01*
X156653809Y-62015714D01*
X150732380Y-62968095D02*
X149732380Y-62968095D01*
X149732380Y-62730000D01*
X149780000Y-62587142D01*
X149875238Y-62491904D01*
X149970476Y-62444285D01*
X150160952Y-62396666D01*
X150303809Y-62396666D01*
X150494285Y-62444285D01*
X150589523Y-62491904D01*
X150684761Y-62587142D01*
X150732380Y-62730000D01*
X150732380Y-62968095D01*
X149732380Y-61491904D02*
X149732380Y-61968095D01*
X150208571Y-62015714D01*
X150160952Y-61968095D01*
X150113333Y-61872857D01*
X150113333Y-61634761D01*
X150160952Y-61539523D01*
X150208571Y-61491904D01*
X150303809Y-61444285D01*
X150541904Y-61444285D01*
X150637142Y-61491904D01*
X150684761Y-61539523D01*
X150732380Y-61634761D01*
X150732380Y-61872857D01*
X150684761Y-61968095D01*
X150637142Y-62015714D01*
X140819761Y-59459761D02*
X140962619Y-59507380D01*
X141200714Y-59507380D01*
X141295952Y-59459761D01*
X141343571Y-59412142D01*
X141391190Y-59316904D01*
X141391190Y-59221666D01*
X141343571Y-59126428D01*
X141295952Y-59078809D01*
X141200714Y-59031190D01*
X141010238Y-58983571D01*
X140915000Y-58935952D01*
X140867380Y-58888333D01*
X140819761Y-58793095D01*
X140819761Y-58697857D01*
X140867380Y-58602619D01*
X140915000Y-58555000D01*
X141010238Y-58507380D01*
X141248333Y-58507380D01*
X141391190Y-58555000D01*
X141819761Y-59507380D02*
X141819761Y-58507380D01*
X142819761Y-58555000D02*
X142724523Y-58507380D01*
X142581666Y-58507380D01*
X142438809Y-58555000D01*
X142343571Y-58650238D01*
X142295952Y-58745476D01*
X142248333Y-58935952D01*
X142248333Y-59078809D01*
X142295952Y-59269285D01*
X142343571Y-59364523D01*
X142438809Y-59459761D01*
X142581666Y-59507380D01*
X142676904Y-59507380D01*
X142819761Y-59459761D01*
X142867380Y-59412142D01*
X142867380Y-59078809D01*
X142676904Y-59078809D01*
X143295952Y-59507380D02*
X143295952Y-58507380D01*
X143867380Y-59507380D01*
X143867380Y-58507380D01*
X144295952Y-59221666D02*
X144772142Y-59221666D01*
X144200714Y-59507380D02*
X144534047Y-58507380D01*
X144867380Y-59507380D01*
X145676904Y-59507380D02*
X145200714Y-59507380D01*
X145200714Y-58507380D01*
X145772142Y-59602619D02*
X146534047Y-59602619D01*
X146724523Y-59459761D02*
X146867380Y-59507380D01*
X147105476Y-59507380D01*
X147200714Y-59459761D01*
X147248333Y-59412142D01*
X147295952Y-59316904D01*
X147295952Y-59221666D01*
X147248333Y-59126428D01*
X147200714Y-59078809D01*
X147105476Y-59031190D01*
X146915000Y-58983571D01*
X146819761Y-58935952D01*
X146772142Y-58888333D01*
X146724523Y-58793095D01*
X146724523Y-58697857D01*
X146772142Y-58602619D01*
X146819761Y-58555000D01*
X146915000Y-58507380D01*
X147153095Y-58507380D01*
X147295952Y-58555000D01*
X147581666Y-58507380D02*
X148153095Y-58507380D01*
X147867380Y-59507380D02*
X147867380Y-58507380D01*
X149057857Y-59507380D02*
X148724523Y-59031190D01*
X148486428Y-59507380D02*
X148486428Y-58507380D01*
X148867380Y-58507380D01*
X148962619Y-58555000D01*
X149010238Y-58602619D01*
X149057857Y-58697857D01*
X149057857Y-58840714D01*
X149010238Y-58935952D01*
X148962619Y-58983571D01*
X148867380Y-59031190D01*
X148486428Y-59031190D01*
X150010238Y-59507380D02*
X149438809Y-59507380D01*
X149724523Y-59507380D02*
X149724523Y-58507380D01*
X149629285Y-58650238D01*
X149534047Y-58745476D01*
X149438809Y-58793095D01*
X125040095Y-83344380D02*
X125040095Y-82344380D01*
X125611523Y-83344380D01*
X125611523Y-82344380D01*
X126087714Y-82820571D02*
X126421047Y-82820571D01*
X126563904Y-83344380D02*
X126087714Y-83344380D01*
X126087714Y-82344380D01*
X126563904Y-82344380D01*
X126849619Y-82344380D02*
X127421047Y-82344380D01*
X127135333Y-83344380D02*
X127135333Y-82344380D01*
X127659142Y-82344380D02*
X127897238Y-83344380D01*
X128087714Y-82630095D01*
X128278190Y-83344380D01*
X128516285Y-82344380D01*
X129087714Y-82344380D02*
X129278190Y-82344380D01*
X129373428Y-82392000D01*
X129468666Y-82487238D01*
X129516285Y-82677714D01*
X129516285Y-83011047D01*
X129468666Y-83201523D01*
X129373428Y-83296761D01*
X129278190Y-83344380D01*
X129087714Y-83344380D01*
X128992476Y-83296761D01*
X128897238Y-83201523D01*
X128849619Y-83011047D01*
X128849619Y-82677714D01*
X128897238Y-82487238D01*
X128992476Y-82392000D01*
X129087714Y-82344380D01*
X130516285Y-83344380D02*
X130182952Y-82868190D01*
X129944857Y-83344380D02*
X129944857Y-82344380D01*
X130325809Y-82344380D01*
X130421047Y-82392000D01*
X130468666Y-82439619D01*
X130516285Y-82534857D01*
X130516285Y-82677714D01*
X130468666Y-82772952D01*
X130421047Y-82820571D01*
X130325809Y-82868190D01*
X129944857Y-82868190D01*
X130944857Y-83344380D02*
X130944857Y-82344380D01*
X131516285Y-83344380D02*
X131087714Y-82772952D01*
X131516285Y-82344380D02*
X130944857Y-82915809D01*
X131706761Y-83439619D02*
X132468666Y-83439619D01*
X132992476Y-82344380D02*
X132992476Y-83058666D01*
X132944857Y-83201523D01*
X132849619Y-83296761D01*
X132706761Y-83344380D01*
X132611523Y-83344380D01*
X133659142Y-82344380D02*
X133849619Y-82344380D01*
X133944857Y-82392000D01*
X134040095Y-82487238D01*
X134087714Y-82677714D01*
X134087714Y-83011047D01*
X134040095Y-83201523D01*
X133944857Y-83296761D01*
X133849619Y-83344380D01*
X133659142Y-83344380D01*
X133563904Y-83296761D01*
X133468666Y-83201523D01*
X133421047Y-83011047D01*
X133421047Y-82677714D01*
X133468666Y-82487238D01*
X133563904Y-82392000D01*
X133659142Y-82344380D01*
X134516285Y-83344380D02*
X134516285Y-82344380D01*
X134992476Y-83344380D02*
X134992476Y-82344380D01*
X135563904Y-83344380D01*
X135563904Y-82344380D01*
X128230571Y-77058000D02*
X128135333Y-77010380D01*
X127992476Y-77010380D01*
X127849619Y-77058000D01*
X127754380Y-77153238D01*
X127706761Y-77248476D01*
X127659142Y-77438952D01*
X127659142Y-77581809D01*
X127706761Y-77772285D01*
X127754380Y-77867523D01*
X127849619Y-77962761D01*
X127992476Y-78010380D01*
X128087714Y-78010380D01*
X128230571Y-77962761D01*
X128278190Y-77915142D01*
X128278190Y-77581809D01*
X128087714Y-77581809D01*
X128706761Y-78010380D02*
X128706761Y-77010380D01*
X129087714Y-77010380D01*
X129182952Y-77058000D01*
X129230571Y-77105619D01*
X129278190Y-77200857D01*
X129278190Y-77343714D01*
X129230571Y-77438952D01*
X129182952Y-77486571D01*
X129087714Y-77534190D01*
X128706761Y-77534190D01*
X129659142Y-77962761D02*
X129802000Y-78010380D01*
X130040095Y-78010380D01*
X130135333Y-77962761D01*
X130182952Y-77915142D01*
X130230571Y-77819904D01*
X130230571Y-77724666D01*
X130182952Y-77629428D01*
X130135333Y-77581809D01*
X130040095Y-77534190D01*
X129849619Y-77486571D01*
X129754380Y-77438952D01*
X129706761Y-77391333D01*
X129659142Y-77296095D01*
X129659142Y-77200857D01*
X129706761Y-77105619D01*
X129754380Y-77058000D01*
X129849619Y-77010380D01*
X130087714Y-77010380D01*
X130230571Y-77058000D01*
X130421047Y-78105619D02*
X131182952Y-78105619D01*
X131992476Y-78010380D02*
X131659142Y-77534190D01*
X131421047Y-78010380D02*
X131421047Y-77010380D01*
X131802000Y-77010380D01*
X131897238Y-77058000D01*
X131944857Y-77105619D01*
X131992476Y-77200857D01*
X131992476Y-77343714D01*
X131944857Y-77438952D01*
X131897238Y-77486571D01*
X131802000Y-77534190D01*
X131421047Y-77534190D01*
X132325809Y-77010380D02*
X132992476Y-78010380D01*
X132992476Y-77010380D02*
X132325809Y-78010380D01*
X126825809Y-73184380D02*
X126349619Y-73184380D01*
X126349619Y-72184380D01*
X127349619Y-72184380D02*
X127540095Y-72184380D01*
X127635333Y-72232000D01*
X127730571Y-72327238D01*
X127778190Y-72517714D01*
X127778190Y-72851047D01*
X127730571Y-73041523D01*
X127635333Y-73136761D01*
X127540095Y-73184380D01*
X127349619Y-73184380D01*
X127254380Y-73136761D01*
X127159142Y-73041523D01*
X127111523Y-72851047D01*
X127111523Y-72517714D01*
X127159142Y-72327238D01*
X127254380Y-72232000D01*
X127349619Y-72184380D01*
X128778190Y-73184380D02*
X128444857Y-72708190D01*
X128206761Y-73184380D02*
X128206761Y-72184380D01*
X128587714Y-72184380D01*
X128682952Y-72232000D01*
X128730571Y-72279619D01*
X128778190Y-72374857D01*
X128778190Y-72517714D01*
X128730571Y-72612952D01*
X128682952Y-72660571D01*
X128587714Y-72708190D01*
X128206761Y-72708190D01*
X129159142Y-72898666D02*
X129635333Y-72898666D01*
X129063904Y-73184380D02*
X129397238Y-72184380D01*
X129730571Y-73184380D01*
X129825809Y-73279619D02*
X130587714Y-73279619D01*
X130778190Y-73136761D02*
X130921047Y-73184380D01*
X131159142Y-73184380D01*
X131254380Y-73136761D01*
X131302000Y-73089142D01*
X131349619Y-72993904D01*
X131349619Y-72898666D01*
X131302000Y-72803428D01*
X131254380Y-72755809D01*
X131159142Y-72708190D01*
X130968666Y-72660571D01*
X130873428Y-72612952D01*
X130825809Y-72565333D01*
X130778190Y-72470095D01*
X130778190Y-72374857D01*
X130825809Y-72279619D01*
X130873428Y-72232000D01*
X130968666Y-72184380D01*
X131206761Y-72184380D01*
X131349619Y-72232000D01*
X131778190Y-72660571D02*
X132111523Y-72660571D01*
X132254380Y-73184380D02*
X131778190Y-73184380D01*
X131778190Y-72184380D01*
X132254380Y-72184380D01*
X132682952Y-73184380D02*
X132682952Y-72184380D01*
X133254380Y-73184380D01*
X133254380Y-72184380D01*
X133730571Y-73184380D02*
X133730571Y-72184380D01*
X133968666Y-72184380D01*
X134111523Y-72232000D01*
X134206761Y-72327238D01*
X134254380Y-72422476D01*
X134302000Y-72612952D01*
X134302000Y-72755809D01*
X134254380Y-72946285D01*
X134206761Y-73041523D01*
X134111523Y-73136761D01*
X133968666Y-73184380D01*
X133730571Y-73184380D01*
X174889742Y-67725266D02*
X174937361Y-67772885D01*
X174984980Y-67915742D01*
X174984980Y-68010980D01*
X174937361Y-68153838D01*
X174842123Y-68249076D01*
X174746885Y-68296695D01*
X174556409Y-68344314D01*
X174413552Y-68344314D01*
X174223076Y-68296695D01*
X174127838Y-68249076D01*
X174032600Y-68153838D01*
X173984980Y-68010980D01*
X173984980Y-67915742D01*
X174032600Y-67772885D01*
X174080219Y-67725266D01*
X173984980Y-66868123D02*
X173984980Y-67058600D01*
X174032600Y-67153838D01*
X174080219Y-67201457D01*
X174223076Y-67296695D01*
X174413552Y-67344314D01*
X174794504Y-67344314D01*
X174889742Y-67296695D01*
X174937361Y-67249076D01*
X174984980Y-67153838D01*
X174984980Y-66963361D01*
X174937361Y-66868123D01*
X174889742Y-66820504D01*
X174794504Y-66772885D01*
X174556409Y-66772885D01*
X174461171Y-66820504D01*
X174413552Y-66868123D01*
X174365933Y-66963361D01*
X174365933Y-67153838D01*
X174413552Y-67249076D01*
X174461171Y-67296695D01*
X174556409Y-67344314D01*
X170639742Y-67950266D02*
X170687361Y-67997885D01*
X170734980Y-68140742D01*
X170734980Y-68235980D01*
X170687361Y-68378838D01*
X170592123Y-68474076D01*
X170496885Y-68521695D01*
X170306409Y-68569314D01*
X170163552Y-68569314D01*
X169973076Y-68521695D01*
X169877838Y-68474076D01*
X169782600Y-68378838D01*
X169734980Y-68235980D01*
X169734980Y-68140742D01*
X169782600Y-67997885D01*
X169830219Y-67950266D01*
X169734980Y-67045504D02*
X169734980Y-67521695D01*
X170211171Y-67569314D01*
X170163552Y-67521695D01*
X170115933Y-67426457D01*
X170115933Y-67188361D01*
X170163552Y-67093123D01*
X170211171Y-67045504D01*
X170306409Y-66997885D01*
X170544504Y-66997885D01*
X170639742Y-67045504D01*
X170687361Y-67093123D01*
X170734980Y-67188361D01*
X170734980Y-67426457D01*
X170687361Y-67521695D01*
X170639742Y-67569314D01*
X172061733Y-74778142D02*
X172014114Y-74825761D01*
X171871257Y-74873380D01*
X171776019Y-74873380D01*
X171633161Y-74825761D01*
X171537923Y-74730523D01*
X171490304Y-74635285D01*
X171442685Y-74444809D01*
X171442685Y-74301952D01*
X171490304Y-74111476D01*
X171537923Y-74016238D01*
X171633161Y-73921000D01*
X171776019Y-73873380D01*
X171871257Y-73873380D01*
X172014114Y-73921000D01*
X172061733Y-73968619D01*
X172918876Y-74206714D02*
X172918876Y-74873380D01*
X172680780Y-73825761D02*
X172442685Y-74540047D01*
X173061733Y-74540047D01*
X187147742Y-76350266D02*
X187195361Y-76397885D01*
X187242980Y-76540742D01*
X187242980Y-76635980D01*
X187195361Y-76778838D01*
X187100123Y-76874076D01*
X187004885Y-76921695D01*
X186814409Y-76969314D01*
X186671552Y-76969314D01*
X186481076Y-76921695D01*
X186385838Y-76874076D01*
X186290600Y-76778838D01*
X186242980Y-76635980D01*
X186242980Y-76540742D01*
X186290600Y-76397885D01*
X186338219Y-76350266D01*
X186242980Y-76016933D02*
X186242980Y-75397885D01*
X186623933Y-75731219D01*
X186623933Y-75588361D01*
X186671552Y-75493123D01*
X186719171Y-75445504D01*
X186814409Y-75397885D01*
X187052504Y-75397885D01*
X187147742Y-75445504D01*
X187195361Y-75493123D01*
X187242980Y-75588361D01*
X187242980Y-75874076D01*
X187195361Y-75969314D01*
X187147742Y-76016933D01*
X183847742Y-72522266D02*
X183895361Y-72569885D01*
X183942980Y-72712742D01*
X183942980Y-72807980D01*
X183895361Y-72950838D01*
X183800123Y-73046076D01*
X183704885Y-73093695D01*
X183514409Y-73141314D01*
X183371552Y-73141314D01*
X183181076Y-73093695D01*
X183085838Y-73046076D01*
X182990600Y-72950838D01*
X182942980Y-72807980D01*
X182942980Y-72712742D01*
X182990600Y-72569885D01*
X183038219Y-72522266D01*
X183038219Y-72141314D02*
X182990600Y-72093695D01*
X182942980Y-71998457D01*
X182942980Y-71760361D01*
X182990600Y-71665123D01*
X183038219Y-71617504D01*
X183133457Y-71569885D01*
X183228695Y-71569885D01*
X183371552Y-71617504D01*
X183942980Y-72188933D01*
X183942980Y-71569885D01*
X115039142Y-96931666D02*
X115086761Y-96979285D01*
X115134380Y-97122142D01*
X115134380Y-97217380D01*
X115086761Y-97360238D01*
X114991523Y-97455476D01*
X114896285Y-97503095D01*
X114705809Y-97550714D01*
X114562952Y-97550714D01*
X114372476Y-97503095D01*
X114277238Y-97455476D01*
X114182000Y-97360238D01*
X114134380Y-97217380D01*
X114134380Y-97122142D01*
X114182000Y-96979285D01*
X114229619Y-96931666D01*
X115134380Y-95979285D02*
X115134380Y-96550714D01*
X115134380Y-96265000D02*
X114134380Y-96265000D01*
X114277238Y-96360238D01*
X114372476Y-96455476D01*
X114420095Y-96550714D01*
M02*
