M48
; DRILL file {KiCad (5.1.0)-1} date 28/04/2019 08:02:42
; FORMAT={-:-/ absolute / inch / decimal}
; #@! TF.CreationDate,2019-04-28T08:02:42+01:00
; #@! TF.GenerationSoftware,Kicad,Pcbnew,(5.1.0)-1
; #@! TF.FileFunction,Plated,1,2,PTH
FMAT,2
INCH
T1C0.0157
T2C0.0236
T3C0.0295
T4C0.0315
T5C0.0354
T6C0.0362
T7C0.0394
T8C0.0433
T9C0.0906
%
G90
G05
T1
X5.635Y-3.555
X6.71Y-3.32
X6.744Y-2.989
X6.769Y-3.201
X7.217Y-2.807
X7.4045Y-3.7345
X7.41Y-3.52
X7.41Y-3.6
X7.655Y-3.525
X7.665Y-3.6
X7.733Y-2.403
T3
X6.835Y-2.386
X6.885Y-2.336
X6.885Y-2.436
T4
X6.3Y-2.609
X6.3Y-2.709
X6.6Y-2.609
X6.6Y-2.709
X7.019Y-2.6106
X7.019Y-2.709
X3.4949Y-2.6642
X3.4949Y-3.5303
X3.5736Y-2.6642
X3.5736Y-3.5303
X3.6524Y-2.6642
X3.6524Y-3.5303
X3.7311Y-2.6642
X3.7311Y-3.5303
X3.8098Y-2.6642
X3.8098Y-3.5303
X3.8886Y-2.6642
X3.8886Y-3.5303
X3.9673Y-2.6642
X3.9673Y-3.5303
X4.0461Y-2.6642
X4.0461Y-3.5303
X4.1248Y-2.6642
X4.1248Y-3.5303
X4.2035Y-2.6642
X4.2035Y-3.5303
X4.5799Y-2.8213
X4.5799Y-2.9
X4.5799Y-2.9787
X4.5799Y-3.0575
X4.5799Y-3.1362
X4.5799Y-3.215
X4.5799Y-3.2937
X4.5799Y-3.3724
X5.525Y-2.875
X5.525Y-2.975
X5.525Y-3.075
X5.525Y-3.175
X5.525Y-3.275
X5.525Y-3.375
X5.525Y-3.475
X5.825Y-2.875
X5.825Y-2.975
X5.825Y-3.075
X5.825Y-3.175
X5.825Y-3.275
X5.825Y-3.375
X5.825Y-3.475
T5
X5.55Y-2.4
X5.55Y-2.5
X6.05Y-2.4
X6.05Y-2.5
X5.08Y-3.17
X5.18Y-3.17
X5.08Y-2.98
X5.18Y-2.98
X5.08Y-3.38
X5.18Y-3.38
X5.8Y-2.4
X5.8Y-2.5
T6
X7.469Y-2.709
X7.469Y-2.8074
X7.5477Y-2.709
X7.5477Y-2.8074
T7
X4.8Y-2.825
X4.8Y-2.925
X4.8Y-3.025
X4.8Y-3.125
X4.8Y-3.225
X4.8Y-3.325
X4.8Y-3.425
X4.8Y-3.525
X6.38Y-3.49
X6.48Y-3.49
X6.58Y-3.49
X6.68Y-3.49
X6.78Y-3.49
X6.88Y-3.49
X6.98Y-3.49
X7.08Y-3.49
X7.18Y-3.49
X7.28Y-3.49
X3.4Y-3.7
X3.5Y-3.7
X3.6Y-3.7
X3.7Y-3.7
X3.8Y-3.7
X3.9Y-3.7
X4.0Y-3.7
X4.1Y-3.7
X4.2Y-3.7
X4.3Y-3.7
X3.4Y-2.475
X3.5Y-2.475
X3.6Y-2.475
X3.7Y-2.475
X3.8Y-2.475
X3.9Y-2.475
X4.0Y-2.475
X4.1Y-2.475
X4.2Y-2.475
X4.3Y-2.475
X5.275Y-3.8
X5.375Y-3.8
X5.475Y-3.8
X5.575Y-3.8
X5.675Y-3.8
X5.775Y-3.8
X5.875Y-3.8
X5.975Y-3.8
X6.075Y-3.8
T8
X4.72Y-3.6728
X4.72Y-3.85
X4.9759Y-3.6728
X4.9759Y-3.85
T9
X7.6563Y-3.3023
X7.6563Y-3.8197
T2
G00X7.6347Y-2.5397
M15
G01X7.6741Y-2.5397
M16
G05
G00X7.6347Y-2.9767
M15
G01X7.6741Y-2.9767
M16
G05
T0
M30
