%TF.GenerationSoftware,KiCad,Pcbnew,(5.1.0)-1*%
%TF.CreationDate,2019-07-09T03:29:53+01:00*%
%TF.ProjectId,SmartGluttonV1,536d6172-7447-46c7-9574-746f6e56312e,1.0*%
%TF.SameCoordinates,Original*%
%TF.FileFunction,Soldermask,Bot*%
%TF.FilePolarity,Negative*%
%FSLAX46Y46*%
G04 Gerber Fmt 4.6, Leading zero omitted, Abs format (unit mm)*
G04 Created by KiCad (PCBNEW (5.1.0)-1) date 2019-07-09 03:29:53*
%MOMM*%
%LPD*%
G04 APERTURE LIST*
%ADD10C,0.100000*%
G04 APERTURE END LIST*
D10*
G36*
X126694564Y-96779389D02*
G01*
X126885833Y-96858615D01*
X126885835Y-96858616D01*
X127057973Y-96973635D01*
X127204365Y-97120027D01*
X127306431Y-97272779D01*
X127319385Y-97292167D01*
X127398611Y-97483436D01*
X127439000Y-97686484D01*
X127439000Y-97893516D01*
X127398611Y-98096564D01*
X127319385Y-98287833D01*
X127319384Y-98287835D01*
X127204365Y-98459973D01*
X127057973Y-98606365D01*
X126885835Y-98721384D01*
X126885834Y-98721385D01*
X126885833Y-98721385D01*
X126694564Y-98800611D01*
X126491516Y-98841000D01*
X126284484Y-98841000D01*
X126081436Y-98800611D01*
X125890167Y-98721385D01*
X125890166Y-98721385D01*
X125890165Y-98721384D01*
X125718027Y-98606365D01*
X125571635Y-98459973D01*
X125456616Y-98287835D01*
X125456615Y-98287833D01*
X125377389Y-98096564D01*
X125337000Y-97893516D01*
X125337000Y-97686484D01*
X125377389Y-97483436D01*
X125456615Y-97292167D01*
X125469570Y-97272779D01*
X125571635Y-97120027D01*
X125718027Y-96973635D01*
X125890165Y-96858616D01*
X125890167Y-96858615D01*
X126081436Y-96779389D01*
X126284484Y-96739000D01*
X126491516Y-96739000D01*
X126694564Y-96779389D01*
X126694564Y-96779389D01*
G37*
G36*
X120194564Y-96779389D02*
G01*
X120385833Y-96858615D01*
X120385835Y-96858616D01*
X120557973Y-96973635D01*
X120704365Y-97120027D01*
X120806431Y-97272779D01*
X120819385Y-97292167D01*
X120898611Y-97483436D01*
X120939000Y-97686484D01*
X120939000Y-97893516D01*
X120898611Y-98096564D01*
X120819385Y-98287833D01*
X120819384Y-98287835D01*
X120704365Y-98459973D01*
X120557973Y-98606365D01*
X120385835Y-98721384D01*
X120385834Y-98721385D01*
X120385833Y-98721385D01*
X120194564Y-98800611D01*
X119991516Y-98841000D01*
X119784484Y-98841000D01*
X119581436Y-98800611D01*
X119390167Y-98721385D01*
X119390166Y-98721385D01*
X119390165Y-98721384D01*
X119218027Y-98606365D01*
X119071635Y-98459973D01*
X118956616Y-98287835D01*
X118956615Y-98287833D01*
X118877389Y-98096564D01*
X118837000Y-97893516D01*
X118837000Y-97686484D01*
X118877389Y-97483436D01*
X118956615Y-97292167D01*
X118969570Y-97272779D01*
X119071635Y-97120027D01*
X119218027Y-96973635D01*
X119390165Y-96858616D01*
X119390167Y-96858615D01*
X119581436Y-96779389D01*
X119784484Y-96739000D01*
X119991516Y-96739000D01*
X120194564Y-96779389D01*
X120194564Y-96779389D01*
G37*
G36*
X194994131Y-95287611D02*
G01*
X195321892Y-95423374D01*
X195616870Y-95620472D01*
X195867728Y-95871330D01*
X196064826Y-96166308D01*
X196200589Y-96494069D01*
X196269800Y-96842016D01*
X196269800Y-97196784D01*
X196200589Y-97544731D01*
X196064826Y-97872492D01*
X195867728Y-98167470D01*
X195616870Y-98418328D01*
X195321892Y-98615426D01*
X194994131Y-98751189D01*
X194646184Y-98820400D01*
X194291416Y-98820400D01*
X193943469Y-98751189D01*
X193615708Y-98615426D01*
X193320730Y-98418328D01*
X193069872Y-98167470D01*
X192872774Y-97872492D01*
X192737011Y-97544731D01*
X192667800Y-97196784D01*
X192667800Y-96842016D01*
X192737011Y-96494069D01*
X192872774Y-96166308D01*
X193069872Y-95871330D01*
X193320730Y-95620472D01*
X193615708Y-95423374D01*
X193943469Y-95287611D01*
X194291416Y-95218400D01*
X194646184Y-95218400D01*
X194994131Y-95287611D01*
X194994131Y-95287611D01*
G37*
G36*
X149335442Y-95625518D02*
G01*
X149401627Y-95632037D01*
X149571466Y-95683557D01*
X149727991Y-95767222D01*
X149763729Y-95796552D01*
X149865186Y-95879814D01*
X149948448Y-95981271D01*
X149977778Y-96017009D01*
X150061443Y-96173534D01*
X150112963Y-96343373D01*
X150130359Y-96520000D01*
X150112963Y-96696627D01*
X150061443Y-96866466D01*
X149977778Y-97022991D01*
X149948448Y-97058729D01*
X149865186Y-97160186D01*
X149763729Y-97243448D01*
X149727991Y-97272778D01*
X149571466Y-97356443D01*
X149401627Y-97407963D01*
X149335442Y-97414482D01*
X149269260Y-97421000D01*
X149180740Y-97421000D01*
X149114558Y-97414482D01*
X149048373Y-97407963D01*
X148878534Y-97356443D01*
X148722009Y-97272778D01*
X148686271Y-97243448D01*
X148584814Y-97160186D01*
X148501552Y-97058729D01*
X148472222Y-97022991D01*
X148388557Y-96866466D01*
X148337037Y-96696627D01*
X148319641Y-96520000D01*
X148337037Y-96343373D01*
X148388557Y-96173534D01*
X148472222Y-96017009D01*
X148501552Y-95981271D01*
X148584814Y-95879814D01*
X148686271Y-95796552D01*
X148722009Y-95767222D01*
X148878534Y-95683557D01*
X149048373Y-95632037D01*
X149114558Y-95625518D01*
X149180740Y-95619000D01*
X149269260Y-95619000D01*
X149335442Y-95625518D01*
X149335442Y-95625518D01*
G37*
G36*
X154415442Y-95625518D02*
G01*
X154481627Y-95632037D01*
X154651466Y-95683557D01*
X154807991Y-95767222D01*
X154843729Y-95796552D01*
X154945186Y-95879814D01*
X155028448Y-95981271D01*
X155057778Y-96017009D01*
X155141443Y-96173534D01*
X155192963Y-96343373D01*
X155210359Y-96520000D01*
X155192963Y-96696627D01*
X155141443Y-96866466D01*
X155057778Y-97022991D01*
X155028448Y-97058729D01*
X154945186Y-97160186D01*
X154843729Y-97243448D01*
X154807991Y-97272778D01*
X154651466Y-97356443D01*
X154481627Y-97407963D01*
X154415442Y-97414482D01*
X154349260Y-97421000D01*
X154260740Y-97421000D01*
X154194558Y-97414482D01*
X154128373Y-97407963D01*
X153958534Y-97356443D01*
X153802009Y-97272778D01*
X153766271Y-97243448D01*
X153664814Y-97160186D01*
X153581552Y-97058729D01*
X153552222Y-97022991D01*
X153468557Y-96866466D01*
X153417037Y-96696627D01*
X153399641Y-96520000D01*
X153417037Y-96343373D01*
X153468557Y-96173534D01*
X153552222Y-96017009D01*
X153581552Y-95981271D01*
X153664814Y-95879814D01*
X153766271Y-95796552D01*
X153802009Y-95767222D01*
X153958534Y-95683557D01*
X154128373Y-95632037D01*
X154194558Y-95625518D01*
X154260740Y-95619000D01*
X154349260Y-95619000D01*
X154415442Y-95625518D01*
X154415442Y-95625518D01*
G37*
G36*
X134886000Y-97421000D02*
G01*
X133084000Y-97421000D01*
X133084000Y-95619000D01*
X134886000Y-95619000D01*
X134886000Y-97421000D01*
X134886000Y-97421000D01*
G37*
G36*
X136635442Y-95625518D02*
G01*
X136701627Y-95632037D01*
X136871466Y-95683557D01*
X137027991Y-95767222D01*
X137063729Y-95796552D01*
X137165186Y-95879814D01*
X137248448Y-95981271D01*
X137277778Y-96017009D01*
X137361443Y-96173534D01*
X137412963Y-96343373D01*
X137430359Y-96520000D01*
X137412963Y-96696627D01*
X137361443Y-96866466D01*
X137277778Y-97022991D01*
X137248448Y-97058729D01*
X137165186Y-97160186D01*
X137063729Y-97243448D01*
X137027991Y-97272778D01*
X136871466Y-97356443D01*
X136701627Y-97407963D01*
X136635442Y-97414482D01*
X136569260Y-97421000D01*
X136480740Y-97421000D01*
X136414558Y-97414482D01*
X136348373Y-97407963D01*
X136178534Y-97356443D01*
X136022009Y-97272778D01*
X135986271Y-97243448D01*
X135884814Y-97160186D01*
X135801552Y-97058729D01*
X135772222Y-97022991D01*
X135688557Y-96866466D01*
X135637037Y-96696627D01*
X135619641Y-96520000D01*
X135637037Y-96343373D01*
X135688557Y-96173534D01*
X135772222Y-96017009D01*
X135801552Y-95981271D01*
X135884814Y-95879814D01*
X135986271Y-95796552D01*
X136022009Y-95767222D01*
X136178534Y-95683557D01*
X136348373Y-95632037D01*
X136414558Y-95625518D01*
X136480740Y-95619000D01*
X136569260Y-95619000D01*
X136635442Y-95625518D01*
X136635442Y-95625518D01*
G37*
G36*
X139175442Y-95625518D02*
G01*
X139241627Y-95632037D01*
X139411466Y-95683557D01*
X139567991Y-95767222D01*
X139603729Y-95796552D01*
X139705186Y-95879814D01*
X139788448Y-95981271D01*
X139817778Y-96017009D01*
X139901443Y-96173534D01*
X139952963Y-96343373D01*
X139970359Y-96520000D01*
X139952963Y-96696627D01*
X139901443Y-96866466D01*
X139817778Y-97022991D01*
X139788448Y-97058729D01*
X139705186Y-97160186D01*
X139603729Y-97243448D01*
X139567991Y-97272778D01*
X139411466Y-97356443D01*
X139241627Y-97407963D01*
X139175442Y-97414482D01*
X139109260Y-97421000D01*
X139020740Y-97421000D01*
X138954558Y-97414482D01*
X138888373Y-97407963D01*
X138718534Y-97356443D01*
X138562009Y-97272778D01*
X138526271Y-97243448D01*
X138424814Y-97160186D01*
X138341552Y-97058729D01*
X138312222Y-97022991D01*
X138228557Y-96866466D01*
X138177037Y-96696627D01*
X138159641Y-96520000D01*
X138177037Y-96343373D01*
X138228557Y-96173534D01*
X138312222Y-96017009D01*
X138341552Y-95981271D01*
X138424814Y-95879814D01*
X138526271Y-95796552D01*
X138562009Y-95767222D01*
X138718534Y-95683557D01*
X138888373Y-95632037D01*
X138954558Y-95625518D01*
X139020740Y-95619000D01*
X139109260Y-95619000D01*
X139175442Y-95625518D01*
X139175442Y-95625518D01*
G37*
G36*
X141715442Y-95625518D02*
G01*
X141781627Y-95632037D01*
X141951466Y-95683557D01*
X142107991Y-95767222D01*
X142143729Y-95796552D01*
X142245186Y-95879814D01*
X142328448Y-95981271D01*
X142357778Y-96017009D01*
X142441443Y-96173534D01*
X142492963Y-96343373D01*
X142510359Y-96520000D01*
X142492963Y-96696627D01*
X142441443Y-96866466D01*
X142357778Y-97022991D01*
X142328448Y-97058729D01*
X142245186Y-97160186D01*
X142143729Y-97243448D01*
X142107991Y-97272778D01*
X141951466Y-97356443D01*
X141781627Y-97407963D01*
X141715442Y-97414482D01*
X141649260Y-97421000D01*
X141560740Y-97421000D01*
X141494558Y-97414482D01*
X141428373Y-97407963D01*
X141258534Y-97356443D01*
X141102009Y-97272778D01*
X141066271Y-97243448D01*
X140964814Y-97160186D01*
X140881552Y-97058729D01*
X140852222Y-97022991D01*
X140768557Y-96866466D01*
X140717037Y-96696627D01*
X140699641Y-96520000D01*
X140717037Y-96343373D01*
X140768557Y-96173534D01*
X140852222Y-96017009D01*
X140881552Y-95981271D01*
X140964814Y-95879814D01*
X141066271Y-95796552D01*
X141102009Y-95767222D01*
X141258534Y-95683557D01*
X141428373Y-95632037D01*
X141494558Y-95625518D01*
X141560740Y-95619000D01*
X141649260Y-95619000D01*
X141715442Y-95625518D01*
X141715442Y-95625518D01*
G37*
G36*
X144255442Y-95625518D02*
G01*
X144321627Y-95632037D01*
X144491466Y-95683557D01*
X144647991Y-95767222D01*
X144683729Y-95796552D01*
X144785186Y-95879814D01*
X144868448Y-95981271D01*
X144897778Y-96017009D01*
X144981443Y-96173534D01*
X145032963Y-96343373D01*
X145050359Y-96520000D01*
X145032963Y-96696627D01*
X144981443Y-96866466D01*
X144897778Y-97022991D01*
X144868448Y-97058729D01*
X144785186Y-97160186D01*
X144683729Y-97243448D01*
X144647991Y-97272778D01*
X144491466Y-97356443D01*
X144321627Y-97407963D01*
X144255442Y-97414482D01*
X144189260Y-97421000D01*
X144100740Y-97421000D01*
X144034558Y-97414482D01*
X143968373Y-97407963D01*
X143798534Y-97356443D01*
X143642009Y-97272778D01*
X143606271Y-97243448D01*
X143504814Y-97160186D01*
X143421552Y-97058729D01*
X143392222Y-97022991D01*
X143308557Y-96866466D01*
X143257037Y-96696627D01*
X143239641Y-96520000D01*
X143257037Y-96343373D01*
X143308557Y-96173534D01*
X143392222Y-96017009D01*
X143421552Y-95981271D01*
X143504814Y-95879814D01*
X143606271Y-95796552D01*
X143642009Y-95767222D01*
X143798534Y-95683557D01*
X143968373Y-95632037D01*
X144034558Y-95625518D01*
X144100740Y-95619000D01*
X144189260Y-95619000D01*
X144255442Y-95625518D01*
X144255442Y-95625518D01*
G37*
G36*
X146795442Y-95625518D02*
G01*
X146861627Y-95632037D01*
X147031466Y-95683557D01*
X147187991Y-95767222D01*
X147223729Y-95796552D01*
X147325186Y-95879814D01*
X147408448Y-95981271D01*
X147437778Y-96017009D01*
X147521443Y-96173534D01*
X147572963Y-96343373D01*
X147590359Y-96520000D01*
X147572963Y-96696627D01*
X147521443Y-96866466D01*
X147437778Y-97022991D01*
X147408448Y-97058729D01*
X147325186Y-97160186D01*
X147223729Y-97243448D01*
X147187991Y-97272778D01*
X147031466Y-97356443D01*
X146861627Y-97407963D01*
X146795442Y-97414482D01*
X146729260Y-97421000D01*
X146640740Y-97421000D01*
X146574558Y-97414482D01*
X146508373Y-97407963D01*
X146338534Y-97356443D01*
X146182009Y-97272778D01*
X146146271Y-97243448D01*
X146044814Y-97160186D01*
X145961552Y-97058729D01*
X145932222Y-97022991D01*
X145848557Y-96866466D01*
X145797037Y-96696627D01*
X145779641Y-96520000D01*
X145797037Y-96343373D01*
X145848557Y-96173534D01*
X145932222Y-96017009D01*
X145961552Y-95981271D01*
X146044814Y-95879814D01*
X146146271Y-95796552D01*
X146182009Y-95767222D01*
X146338534Y-95683557D01*
X146508373Y-95632037D01*
X146574558Y-95625518D01*
X146640740Y-95619000D01*
X146729260Y-95619000D01*
X146795442Y-95625518D01*
X146795442Y-95625518D01*
G37*
G36*
X151875442Y-95625518D02*
G01*
X151941627Y-95632037D01*
X152111466Y-95683557D01*
X152267991Y-95767222D01*
X152303729Y-95796552D01*
X152405186Y-95879814D01*
X152488448Y-95981271D01*
X152517778Y-96017009D01*
X152601443Y-96173534D01*
X152652963Y-96343373D01*
X152670359Y-96520000D01*
X152652963Y-96696627D01*
X152601443Y-96866466D01*
X152517778Y-97022991D01*
X152488448Y-97058729D01*
X152405186Y-97160186D01*
X152303729Y-97243448D01*
X152267991Y-97272778D01*
X152111466Y-97356443D01*
X151941627Y-97407963D01*
X151875442Y-97414482D01*
X151809260Y-97421000D01*
X151720740Y-97421000D01*
X151654558Y-97414482D01*
X151588373Y-97407963D01*
X151418534Y-97356443D01*
X151262009Y-97272778D01*
X151226271Y-97243448D01*
X151124814Y-97160186D01*
X151041552Y-97058729D01*
X151012222Y-97022991D01*
X150928557Y-96866466D01*
X150877037Y-96696627D01*
X150859641Y-96520000D01*
X150877037Y-96343373D01*
X150928557Y-96173534D01*
X151012222Y-96017009D01*
X151041552Y-95981271D01*
X151124814Y-95879814D01*
X151226271Y-95796552D01*
X151262009Y-95767222D01*
X151418534Y-95683557D01*
X151588373Y-95632037D01*
X151654558Y-95625518D01*
X151720740Y-95619000D01*
X151809260Y-95619000D01*
X151875442Y-95625518D01*
X151875442Y-95625518D01*
G37*
G36*
X106790443Y-93085519D02*
G01*
X106856627Y-93092037D01*
X107026466Y-93143557D01*
X107182991Y-93227222D01*
X107218729Y-93256552D01*
X107320186Y-93339814D01*
X107364257Y-93393516D01*
X107432778Y-93477009D01*
X107516443Y-93633534D01*
X107567963Y-93803373D01*
X107585359Y-93980000D01*
X107567963Y-94156627D01*
X107516443Y-94326466D01*
X107432778Y-94482991D01*
X107403448Y-94518729D01*
X107320186Y-94620186D01*
X107218729Y-94703448D01*
X107182991Y-94732778D01*
X107026466Y-94816443D01*
X106856627Y-94867963D01*
X106790443Y-94874481D01*
X106724260Y-94881000D01*
X106635740Y-94881000D01*
X106569557Y-94874481D01*
X106503373Y-94867963D01*
X106333534Y-94816443D01*
X106177009Y-94732778D01*
X106141271Y-94703448D01*
X106039814Y-94620186D01*
X105956552Y-94518729D01*
X105927222Y-94482991D01*
X105843557Y-94326466D01*
X105792037Y-94156627D01*
X105774641Y-93980000D01*
X105792037Y-93803373D01*
X105843557Y-93633534D01*
X105927222Y-93477009D01*
X105995743Y-93393516D01*
X106039814Y-93339814D01*
X106141271Y-93256552D01*
X106177009Y-93227222D01*
X106333534Y-93143557D01*
X106503373Y-93092037D01*
X106569557Y-93085519D01*
X106635740Y-93079000D01*
X106724260Y-93079000D01*
X106790443Y-93085519D01*
X106790443Y-93085519D01*
G37*
G36*
X87261000Y-94881000D02*
G01*
X85459000Y-94881000D01*
X85459000Y-93079000D01*
X87261000Y-93079000D01*
X87261000Y-94881000D01*
X87261000Y-94881000D01*
G37*
G36*
X89010443Y-93085519D02*
G01*
X89076627Y-93092037D01*
X89246466Y-93143557D01*
X89402991Y-93227222D01*
X89438729Y-93256552D01*
X89540186Y-93339814D01*
X89584257Y-93393516D01*
X89652778Y-93477009D01*
X89736443Y-93633534D01*
X89787963Y-93803373D01*
X89805359Y-93980000D01*
X89787963Y-94156627D01*
X89736443Y-94326466D01*
X89652778Y-94482991D01*
X89623448Y-94518729D01*
X89540186Y-94620186D01*
X89438729Y-94703448D01*
X89402991Y-94732778D01*
X89246466Y-94816443D01*
X89076627Y-94867963D01*
X89010443Y-94874481D01*
X88944260Y-94881000D01*
X88855740Y-94881000D01*
X88789557Y-94874481D01*
X88723373Y-94867963D01*
X88553534Y-94816443D01*
X88397009Y-94732778D01*
X88361271Y-94703448D01*
X88259814Y-94620186D01*
X88176552Y-94518729D01*
X88147222Y-94482991D01*
X88063557Y-94326466D01*
X88012037Y-94156627D01*
X87994641Y-93980000D01*
X88012037Y-93803373D01*
X88063557Y-93633534D01*
X88147222Y-93477009D01*
X88215743Y-93393516D01*
X88259814Y-93339814D01*
X88361271Y-93256552D01*
X88397009Y-93227222D01*
X88553534Y-93143557D01*
X88723373Y-93092037D01*
X88789557Y-93085519D01*
X88855740Y-93079000D01*
X88944260Y-93079000D01*
X89010443Y-93085519D01*
X89010443Y-93085519D01*
G37*
G36*
X91550443Y-93085519D02*
G01*
X91616627Y-93092037D01*
X91786466Y-93143557D01*
X91942991Y-93227222D01*
X91978729Y-93256552D01*
X92080186Y-93339814D01*
X92124257Y-93393516D01*
X92192778Y-93477009D01*
X92276443Y-93633534D01*
X92327963Y-93803373D01*
X92345359Y-93980000D01*
X92327963Y-94156627D01*
X92276443Y-94326466D01*
X92192778Y-94482991D01*
X92163448Y-94518729D01*
X92080186Y-94620186D01*
X91978729Y-94703448D01*
X91942991Y-94732778D01*
X91786466Y-94816443D01*
X91616627Y-94867963D01*
X91550443Y-94874481D01*
X91484260Y-94881000D01*
X91395740Y-94881000D01*
X91329557Y-94874481D01*
X91263373Y-94867963D01*
X91093534Y-94816443D01*
X90937009Y-94732778D01*
X90901271Y-94703448D01*
X90799814Y-94620186D01*
X90716552Y-94518729D01*
X90687222Y-94482991D01*
X90603557Y-94326466D01*
X90552037Y-94156627D01*
X90534641Y-93980000D01*
X90552037Y-93803373D01*
X90603557Y-93633534D01*
X90687222Y-93477009D01*
X90755743Y-93393516D01*
X90799814Y-93339814D01*
X90901271Y-93256552D01*
X90937009Y-93227222D01*
X91093534Y-93143557D01*
X91263373Y-93092037D01*
X91329557Y-93085519D01*
X91395740Y-93079000D01*
X91484260Y-93079000D01*
X91550443Y-93085519D01*
X91550443Y-93085519D01*
G37*
G36*
X99170443Y-93085519D02*
G01*
X99236627Y-93092037D01*
X99406466Y-93143557D01*
X99562991Y-93227222D01*
X99598729Y-93256552D01*
X99700186Y-93339814D01*
X99744257Y-93393516D01*
X99812778Y-93477009D01*
X99896443Y-93633534D01*
X99947963Y-93803373D01*
X99965359Y-93980000D01*
X99947963Y-94156627D01*
X99896443Y-94326466D01*
X99812778Y-94482991D01*
X99783448Y-94518729D01*
X99700186Y-94620186D01*
X99598729Y-94703448D01*
X99562991Y-94732778D01*
X99406466Y-94816443D01*
X99236627Y-94867963D01*
X99170443Y-94874481D01*
X99104260Y-94881000D01*
X99015740Y-94881000D01*
X98949557Y-94874481D01*
X98883373Y-94867963D01*
X98713534Y-94816443D01*
X98557009Y-94732778D01*
X98521271Y-94703448D01*
X98419814Y-94620186D01*
X98336552Y-94518729D01*
X98307222Y-94482991D01*
X98223557Y-94326466D01*
X98172037Y-94156627D01*
X98154641Y-93980000D01*
X98172037Y-93803373D01*
X98223557Y-93633534D01*
X98307222Y-93477009D01*
X98375743Y-93393516D01*
X98419814Y-93339814D01*
X98521271Y-93256552D01*
X98557009Y-93227222D01*
X98713534Y-93143557D01*
X98883373Y-93092037D01*
X98949557Y-93085519D01*
X99015740Y-93079000D01*
X99104260Y-93079000D01*
X99170443Y-93085519D01*
X99170443Y-93085519D01*
G37*
G36*
X109330443Y-93085519D02*
G01*
X109396627Y-93092037D01*
X109566466Y-93143557D01*
X109722991Y-93227222D01*
X109758729Y-93256552D01*
X109860186Y-93339814D01*
X109904257Y-93393516D01*
X109972778Y-93477009D01*
X110056443Y-93633534D01*
X110107963Y-93803373D01*
X110125359Y-93980000D01*
X110107963Y-94156627D01*
X110056443Y-94326466D01*
X109972778Y-94482991D01*
X109943448Y-94518729D01*
X109860186Y-94620186D01*
X109758729Y-94703448D01*
X109722991Y-94732778D01*
X109566466Y-94816443D01*
X109396627Y-94867963D01*
X109330443Y-94874481D01*
X109264260Y-94881000D01*
X109175740Y-94881000D01*
X109109557Y-94874481D01*
X109043373Y-94867963D01*
X108873534Y-94816443D01*
X108717009Y-94732778D01*
X108681271Y-94703448D01*
X108579814Y-94620186D01*
X108496552Y-94518729D01*
X108467222Y-94482991D01*
X108383557Y-94326466D01*
X108332037Y-94156627D01*
X108314641Y-93980000D01*
X108332037Y-93803373D01*
X108383557Y-93633534D01*
X108467222Y-93477009D01*
X108535743Y-93393516D01*
X108579814Y-93339814D01*
X108681271Y-93256552D01*
X108717009Y-93227222D01*
X108873534Y-93143557D01*
X109043373Y-93092037D01*
X109109557Y-93085519D01*
X109175740Y-93079000D01*
X109264260Y-93079000D01*
X109330443Y-93085519D01*
X109330443Y-93085519D01*
G37*
G36*
X104250443Y-93085519D02*
G01*
X104316627Y-93092037D01*
X104486466Y-93143557D01*
X104642991Y-93227222D01*
X104678729Y-93256552D01*
X104780186Y-93339814D01*
X104824257Y-93393516D01*
X104892778Y-93477009D01*
X104976443Y-93633534D01*
X105027963Y-93803373D01*
X105045359Y-93980000D01*
X105027963Y-94156627D01*
X104976443Y-94326466D01*
X104892778Y-94482991D01*
X104863448Y-94518729D01*
X104780186Y-94620186D01*
X104678729Y-94703448D01*
X104642991Y-94732778D01*
X104486466Y-94816443D01*
X104316627Y-94867963D01*
X104250443Y-94874481D01*
X104184260Y-94881000D01*
X104095740Y-94881000D01*
X104029557Y-94874481D01*
X103963373Y-94867963D01*
X103793534Y-94816443D01*
X103637009Y-94732778D01*
X103601271Y-94703448D01*
X103499814Y-94620186D01*
X103416552Y-94518729D01*
X103387222Y-94482991D01*
X103303557Y-94326466D01*
X103252037Y-94156627D01*
X103234641Y-93980000D01*
X103252037Y-93803373D01*
X103303557Y-93633534D01*
X103387222Y-93477009D01*
X103455743Y-93393516D01*
X103499814Y-93339814D01*
X103601271Y-93256552D01*
X103637009Y-93227222D01*
X103793534Y-93143557D01*
X103963373Y-93092037D01*
X104029557Y-93085519D01*
X104095740Y-93079000D01*
X104184260Y-93079000D01*
X104250443Y-93085519D01*
X104250443Y-93085519D01*
G37*
G36*
X96630443Y-93085519D02*
G01*
X96696627Y-93092037D01*
X96866466Y-93143557D01*
X97022991Y-93227222D01*
X97058729Y-93256552D01*
X97160186Y-93339814D01*
X97204257Y-93393516D01*
X97272778Y-93477009D01*
X97356443Y-93633534D01*
X97407963Y-93803373D01*
X97425359Y-93980000D01*
X97407963Y-94156627D01*
X97356443Y-94326466D01*
X97272778Y-94482991D01*
X97243448Y-94518729D01*
X97160186Y-94620186D01*
X97058729Y-94703448D01*
X97022991Y-94732778D01*
X96866466Y-94816443D01*
X96696627Y-94867963D01*
X96630443Y-94874481D01*
X96564260Y-94881000D01*
X96475740Y-94881000D01*
X96409557Y-94874481D01*
X96343373Y-94867963D01*
X96173534Y-94816443D01*
X96017009Y-94732778D01*
X95981271Y-94703448D01*
X95879814Y-94620186D01*
X95796552Y-94518729D01*
X95767222Y-94482991D01*
X95683557Y-94326466D01*
X95632037Y-94156627D01*
X95614641Y-93980000D01*
X95632037Y-93803373D01*
X95683557Y-93633534D01*
X95767222Y-93477009D01*
X95835743Y-93393516D01*
X95879814Y-93339814D01*
X95981271Y-93256552D01*
X96017009Y-93227222D01*
X96173534Y-93143557D01*
X96343373Y-93092037D01*
X96409557Y-93085519D01*
X96475740Y-93079000D01*
X96564260Y-93079000D01*
X96630443Y-93085519D01*
X96630443Y-93085519D01*
G37*
G36*
X101710443Y-93085519D02*
G01*
X101776627Y-93092037D01*
X101946466Y-93143557D01*
X102102991Y-93227222D01*
X102138729Y-93256552D01*
X102240186Y-93339814D01*
X102284257Y-93393516D01*
X102352778Y-93477009D01*
X102436443Y-93633534D01*
X102487963Y-93803373D01*
X102505359Y-93980000D01*
X102487963Y-94156627D01*
X102436443Y-94326466D01*
X102352778Y-94482991D01*
X102323448Y-94518729D01*
X102240186Y-94620186D01*
X102138729Y-94703448D01*
X102102991Y-94732778D01*
X101946466Y-94816443D01*
X101776627Y-94867963D01*
X101710443Y-94874481D01*
X101644260Y-94881000D01*
X101555740Y-94881000D01*
X101489557Y-94874481D01*
X101423373Y-94867963D01*
X101253534Y-94816443D01*
X101097009Y-94732778D01*
X101061271Y-94703448D01*
X100959814Y-94620186D01*
X100876552Y-94518729D01*
X100847222Y-94482991D01*
X100763557Y-94326466D01*
X100712037Y-94156627D01*
X100694641Y-93980000D01*
X100712037Y-93803373D01*
X100763557Y-93633534D01*
X100847222Y-93477009D01*
X100915743Y-93393516D01*
X100959814Y-93339814D01*
X101061271Y-93256552D01*
X101097009Y-93227222D01*
X101253534Y-93143557D01*
X101423373Y-93092037D01*
X101489557Y-93085519D01*
X101555740Y-93079000D01*
X101644260Y-93079000D01*
X101710443Y-93085519D01*
X101710443Y-93085519D01*
G37*
G36*
X94090443Y-93085519D02*
G01*
X94156627Y-93092037D01*
X94326466Y-93143557D01*
X94482991Y-93227222D01*
X94518729Y-93256552D01*
X94620186Y-93339814D01*
X94664257Y-93393516D01*
X94732778Y-93477009D01*
X94816443Y-93633534D01*
X94867963Y-93803373D01*
X94885359Y-93980000D01*
X94867963Y-94156627D01*
X94816443Y-94326466D01*
X94732778Y-94482991D01*
X94703448Y-94518729D01*
X94620186Y-94620186D01*
X94518729Y-94703448D01*
X94482991Y-94732778D01*
X94326466Y-94816443D01*
X94156627Y-94867963D01*
X94090443Y-94874481D01*
X94024260Y-94881000D01*
X93935740Y-94881000D01*
X93869557Y-94874481D01*
X93803373Y-94867963D01*
X93633534Y-94816443D01*
X93477009Y-94732778D01*
X93441271Y-94703448D01*
X93339814Y-94620186D01*
X93256552Y-94518729D01*
X93227222Y-94482991D01*
X93143557Y-94326466D01*
X93092037Y-94156627D01*
X93074641Y-93980000D01*
X93092037Y-93803373D01*
X93143557Y-93633534D01*
X93227222Y-93477009D01*
X93295743Y-93393516D01*
X93339814Y-93339814D01*
X93441271Y-93256552D01*
X93477009Y-93227222D01*
X93633534Y-93143557D01*
X93803373Y-93092037D01*
X93869557Y-93085519D01*
X93935740Y-93079000D01*
X94024260Y-93079000D01*
X94090443Y-93085519D01*
X94090443Y-93085519D01*
G37*
G36*
X120194564Y-92279389D02*
G01*
X120385833Y-92358615D01*
X120385835Y-92358616D01*
X120557973Y-92473635D01*
X120704365Y-92620027D01*
X120819385Y-92792167D01*
X120898611Y-92983436D01*
X120939000Y-93186484D01*
X120939000Y-93393516D01*
X120898611Y-93596564D01*
X120819385Y-93787833D01*
X120819384Y-93787835D01*
X120704365Y-93959973D01*
X120557973Y-94106365D01*
X120385835Y-94221384D01*
X120385834Y-94221385D01*
X120385833Y-94221385D01*
X120194564Y-94300611D01*
X119991516Y-94341000D01*
X119784484Y-94341000D01*
X119581436Y-94300611D01*
X119390167Y-94221385D01*
X119390166Y-94221385D01*
X119390165Y-94221384D01*
X119218027Y-94106365D01*
X119071635Y-93959973D01*
X118956616Y-93787835D01*
X118956615Y-93787833D01*
X118877389Y-93596564D01*
X118837000Y-93393516D01*
X118837000Y-93186484D01*
X118877389Y-92983436D01*
X118956615Y-92792167D01*
X119071635Y-92620027D01*
X119218027Y-92473635D01*
X119390165Y-92358616D01*
X119390167Y-92358615D01*
X119581436Y-92279389D01*
X119784484Y-92239000D01*
X119991516Y-92239000D01*
X120194564Y-92279389D01*
X120194564Y-92279389D01*
G37*
G36*
X126694564Y-92279389D02*
G01*
X126885833Y-92358615D01*
X126885835Y-92358616D01*
X127057973Y-92473635D01*
X127204365Y-92620027D01*
X127319385Y-92792167D01*
X127398611Y-92983436D01*
X127439000Y-93186484D01*
X127439000Y-93393516D01*
X127398611Y-93596564D01*
X127319385Y-93787833D01*
X127319384Y-93787835D01*
X127204365Y-93959973D01*
X127057973Y-94106365D01*
X126885835Y-94221384D01*
X126885834Y-94221385D01*
X126885833Y-94221385D01*
X126694564Y-94300611D01*
X126491516Y-94341000D01*
X126284484Y-94341000D01*
X126081436Y-94300611D01*
X125890167Y-94221385D01*
X125890166Y-94221385D01*
X125890165Y-94221384D01*
X125718027Y-94106365D01*
X125571635Y-93959973D01*
X125456616Y-93787835D01*
X125456615Y-93787833D01*
X125377389Y-93596564D01*
X125337000Y-93393516D01*
X125337000Y-93186484D01*
X125377389Y-92983436D01*
X125456615Y-92792167D01*
X125571635Y-92620027D01*
X125718027Y-92473635D01*
X125890165Y-92358616D01*
X125890167Y-92358615D01*
X126081436Y-92279389D01*
X126284484Y-92239000D01*
X126491516Y-92239000D01*
X126694564Y-92279389D01*
X126694564Y-92279389D01*
G37*
G36*
X122821000Y-90436000D02*
G01*
X121019000Y-90436000D01*
X121019000Y-88634000D01*
X122821000Y-88634000D01*
X122821000Y-90436000D01*
X122821000Y-90436000D01*
G37*
G36*
X102841213Y-88947502D02*
G01*
X102912321Y-88954505D01*
X103037466Y-88992468D01*
X103049175Y-88996020D01*
X103175294Y-89063432D01*
X103285843Y-89154157D01*
X103376568Y-89264706D01*
X103443980Y-89390825D01*
X103443981Y-89390828D01*
X103485495Y-89527679D01*
X103499512Y-89670000D01*
X103485495Y-89812321D01*
X103443981Y-89949172D01*
X103443980Y-89949175D01*
X103376568Y-90075294D01*
X103285843Y-90185843D01*
X103175294Y-90276568D01*
X103049175Y-90343980D01*
X103049172Y-90343981D01*
X102912321Y-90385495D01*
X102841213Y-90392498D01*
X102805660Y-90396000D01*
X102734340Y-90396000D01*
X102698787Y-90392498D01*
X102627679Y-90385495D01*
X102490828Y-90343981D01*
X102490825Y-90343980D01*
X102364706Y-90276568D01*
X102254157Y-90185843D01*
X102163432Y-90075294D01*
X102096020Y-89949175D01*
X102096019Y-89949172D01*
X102054505Y-89812321D01*
X102040488Y-89670000D01*
X102054505Y-89527679D01*
X102096019Y-89390828D01*
X102096020Y-89390825D01*
X102163432Y-89264706D01*
X102254157Y-89154157D01*
X102364706Y-89063432D01*
X102490825Y-88996020D01*
X102502534Y-88992468D01*
X102627679Y-88954505D01*
X102698787Y-88947502D01*
X102734340Y-88944000D01*
X102805660Y-88944000D01*
X102841213Y-88947502D01*
X102841213Y-88947502D01*
G37*
G36*
X106841213Y-88947502D02*
G01*
X106912321Y-88954505D01*
X107037466Y-88992468D01*
X107049175Y-88996020D01*
X107175294Y-89063432D01*
X107285843Y-89154157D01*
X107376568Y-89264706D01*
X107443980Y-89390825D01*
X107443981Y-89390828D01*
X107485495Y-89527679D01*
X107499512Y-89670000D01*
X107485495Y-89812321D01*
X107443981Y-89949172D01*
X107443980Y-89949175D01*
X107376568Y-90075294D01*
X107285843Y-90185843D01*
X107175294Y-90276568D01*
X107049175Y-90343980D01*
X107049172Y-90343981D01*
X106912321Y-90385495D01*
X106841213Y-90392498D01*
X106805660Y-90396000D01*
X106734340Y-90396000D01*
X106698787Y-90392498D01*
X106627679Y-90385495D01*
X106490828Y-90343981D01*
X106490825Y-90343980D01*
X106364706Y-90276568D01*
X106254157Y-90185843D01*
X106163432Y-90075294D01*
X106096020Y-89949175D01*
X106096019Y-89949172D01*
X106054505Y-89812321D01*
X106040488Y-89670000D01*
X106054505Y-89527679D01*
X106096019Y-89390828D01*
X106096020Y-89390825D01*
X106163432Y-89264706D01*
X106254157Y-89154157D01*
X106364706Y-89063432D01*
X106490825Y-88996020D01*
X106502534Y-88992468D01*
X106627679Y-88954505D01*
X106698787Y-88947502D01*
X106734340Y-88944000D01*
X106805660Y-88944000D01*
X106841213Y-88947502D01*
X106841213Y-88947502D01*
G37*
G36*
X100841213Y-88947502D02*
G01*
X100912321Y-88954505D01*
X101037466Y-88992468D01*
X101049175Y-88996020D01*
X101175294Y-89063432D01*
X101285843Y-89154157D01*
X101376568Y-89264706D01*
X101443980Y-89390825D01*
X101443981Y-89390828D01*
X101485495Y-89527679D01*
X101499512Y-89670000D01*
X101485495Y-89812321D01*
X101443981Y-89949172D01*
X101443980Y-89949175D01*
X101376568Y-90075294D01*
X101285843Y-90185843D01*
X101175294Y-90276568D01*
X101049175Y-90343980D01*
X101049172Y-90343981D01*
X100912321Y-90385495D01*
X100841213Y-90392498D01*
X100805660Y-90396000D01*
X100734340Y-90396000D01*
X100698787Y-90392498D01*
X100627679Y-90385495D01*
X100490828Y-90343981D01*
X100490825Y-90343980D01*
X100364706Y-90276568D01*
X100254157Y-90185843D01*
X100163432Y-90075294D01*
X100096020Y-89949175D01*
X100096019Y-89949172D01*
X100054505Y-89812321D01*
X100040488Y-89670000D01*
X100054505Y-89527679D01*
X100096019Y-89390828D01*
X100096020Y-89390825D01*
X100163432Y-89264706D01*
X100254157Y-89154157D01*
X100364706Y-89063432D01*
X100490825Y-88996020D01*
X100502534Y-88992468D01*
X100627679Y-88954505D01*
X100698787Y-88947502D01*
X100734340Y-88944000D01*
X100805660Y-88944000D01*
X100841213Y-88947502D01*
X100841213Y-88947502D01*
G37*
G36*
X98841213Y-88947502D02*
G01*
X98912321Y-88954505D01*
X99037466Y-88992468D01*
X99049175Y-88996020D01*
X99175294Y-89063432D01*
X99285843Y-89154157D01*
X99376568Y-89264706D01*
X99443980Y-89390825D01*
X99443981Y-89390828D01*
X99485495Y-89527679D01*
X99499512Y-89670000D01*
X99485495Y-89812321D01*
X99443981Y-89949172D01*
X99443980Y-89949175D01*
X99376568Y-90075294D01*
X99285843Y-90185843D01*
X99175294Y-90276568D01*
X99049175Y-90343980D01*
X99049172Y-90343981D01*
X98912321Y-90385495D01*
X98841213Y-90392498D01*
X98805660Y-90396000D01*
X98734340Y-90396000D01*
X98698787Y-90392498D01*
X98627679Y-90385495D01*
X98490828Y-90343981D01*
X98490825Y-90343980D01*
X98364706Y-90276568D01*
X98254157Y-90185843D01*
X98163432Y-90075294D01*
X98096020Y-89949175D01*
X98096019Y-89949172D01*
X98054505Y-89812321D01*
X98040488Y-89670000D01*
X98054505Y-89527679D01*
X98096019Y-89390828D01*
X98096020Y-89390825D01*
X98163432Y-89264706D01*
X98254157Y-89154157D01*
X98364706Y-89063432D01*
X98490825Y-88996020D01*
X98502534Y-88992468D01*
X98627679Y-88954505D01*
X98698787Y-88947502D01*
X98734340Y-88944000D01*
X98805660Y-88944000D01*
X98841213Y-88947502D01*
X98841213Y-88947502D01*
G37*
G36*
X94841213Y-88947502D02*
G01*
X94912321Y-88954505D01*
X95037466Y-88992468D01*
X95049175Y-88996020D01*
X95175294Y-89063432D01*
X95285843Y-89154157D01*
X95376568Y-89264706D01*
X95443980Y-89390825D01*
X95443981Y-89390828D01*
X95485495Y-89527679D01*
X95499512Y-89670000D01*
X95485495Y-89812321D01*
X95443981Y-89949172D01*
X95443980Y-89949175D01*
X95376568Y-90075294D01*
X95285843Y-90185843D01*
X95175294Y-90276568D01*
X95049175Y-90343980D01*
X95049172Y-90343981D01*
X94912321Y-90385495D01*
X94841213Y-90392498D01*
X94805660Y-90396000D01*
X94734340Y-90396000D01*
X94698787Y-90392498D01*
X94627679Y-90385495D01*
X94490828Y-90343981D01*
X94490825Y-90343980D01*
X94364706Y-90276568D01*
X94254157Y-90185843D01*
X94163432Y-90075294D01*
X94096020Y-89949175D01*
X94096019Y-89949172D01*
X94054505Y-89812321D01*
X94040488Y-89670000D01*
X94054505Y-89527679D01*
X94096019Y-89390828D01*
X94096020Y-89390825D01*
X94163432Y-89264706D01*
X94254157Y-89154157D01*
X94364706Y-89063432D01*
X94490825Y-88996020D01*
X94502534Y-88992468D01*
X94627679Y-88954505D01*
X94698787Y-88947502D01*
X94734340Y-88944000D01*
X94805660Y-88944000D01*
X94841213Y-88947502D01*
X94841213Y-88947502D01*
G37*
G36*
X92841213Y-88947502D02*
G01*
X92912321Y-88954505D01*
X93037466Y-88992468D01*
X93049175Y-88996020D01*
X93175294Y-89063432D01*
X93285843Y-89154157D01*
X93376568Y-89264706D01*
X93443980Y-89390825D01*
X93443981Y-89390828D01*
X93485495Y-89527679D01*
X93499512Y-89670000D01*
X93485495Y-89812321D01*
X93443981Y-89949172D01*
X93443980Y-89949175D01*
X93376568Y-90075294D01*
X93285843Y-90185843D01*
X93175294Y-90276568D01*
X93049175Y-90343980D01*
X93049172Y-90343981D01*
X92912321Y-90385495D01*
X92841213Y-90392498D01*
X92805660Y-90396000D01*
X92734340Y-90396000D01*
X92698787Y-90392498D01*
X92627679Y-90385495D01*
X92490828Y-90343981D01*
X92490825Y-90343980D01*
X92364706Y-90276568D01*
X92254157Y-90185843D01*
X92163432Y-90075294D01*
X92096020Y-89949175D01*
X92096019Y-89949172D01*
X92054505Y-89812321D01*
X92040488Y-89670000D01*
X92054505Y-89527679D01*
X92096019Y-89390828D01*
X92096020Y-89390825D01*
X92163432Y-89264706D01*
X92254157Y-89154157D01*
X92364706Y-89063432D01*
X92490825Y-88996020D01*
X92502534Y-88992468D01*
X92627679Y-88954505D01*
X92698787Y-88947502D01*
X92734340Y-88944000D01*
X92805660Y-88944000D01*
X92841213Y-88947502D01*
X92841213Y-88947502D01*
G37*
G36*
X90841213Y-88947502D02*
G01*
X90912321Y-88954505D01*
X91037466Y-88992468D01*
X91049175Y-88996020D01*
X91175294Y-89063432D01*
X91285843Y-89154157D01*
X91376568Y-89264706D01*
X91443980Y-89390825D01*
X91443981Y-89390828D01*
X91485495Y-89527679D01*
X91499512Y-89670000D01*
X91485495Y-89812321D01*
X91443981Y-89949172D01*
X91443980Y-89949175D01*
X91376568Y-90075294D01*
X91285843Y-90185843D01*
X91175294Y-90276568D01*
X91049175Y-90343980D01*
X91049172Y-90343981D01*
X90912321Y-90385495D01*
X90841213Y-90392498D01*
X90805660Y-90396000D01*
X90734340Y-90396000D01*
X90698787Y-90392498D01*
X90627679Y-90385495D01*
X90490828Y-90343981D01*
X90490825Y-90343980D01*
X90364706Y-90276568D01*
X90254157Y-90185843D01*
X90163432Y-90075294D01*
X90096020Y-89949175D01*
X90096019Y-89949172D01*
X90054505Y-89812321D01*
X90040488Y-89670000D01*
X90054505Y-89527679D01*
X90096019Y-89390828D01*
X90096020Y-89390825D01*
X90163432Y-89264706D01*
X90254157Y-89154157D01*
X90364706Y-89063432D01*
X90490825Y-88996020D01*
X90502534Y-88992468D01*
X90627679Y-88954505D01*
X90698787Y-88947502D01*
X90734340Y-88944000D01*
X90805660Y-88944000D01*
X90841213Y-88947502D01*
X90841213Y-88947502D01*
G37*
G36*
X96841213Y-88947502D02*
G01*
X96912321Y-88954505D01*
X97037466Y-88992468D01*
X97049175Y-88996020D01*
X97175294Y-89063432D01*
X97285843Y-89154157D01*
X97376568Y-89264706D01*
X97443980Y-89390825D01*
X97443981Y-89390828D01*
X97485495Y-89527679D01*
X97499512Y-89670000D01*
X97485495Y-89812321D01*
X97443981Y-89949172D01*
X97443980Y-89949175D01*
X97376568Y-90075294D01*
X97285843Y-90185843D01*
X97175294Y-90276568D01*
X97049175Y-90343980D01*
X97049172Y-90343981D01*
X96912321Y-90385495D01*
X96841213Y-90392498D01*
X96805660Y-90396000D01*
X96734340Y-90396000D01*
X96698787Y-90392498D01*
X96627679Y-90385495D01*
X96490828Y-90343981D01*
X96490825Y-90343980D01*
X96364706Y-90276568D01*
X96254157Y-90185843D01*
X96163432Y-90075294D01*
X96096020Y-89949175D01*
X96096019Y-89949172D01*
X96054505Y-89812321D01*
X96040488Y-89670000D01*
X96054505Y-89527679D01*
X96096019Y-89390828D01*
X96096020Y-89390825D01*
X96163432Y-89264706D01*
X96254157Y-89154157D01*
X96364706Y-89063432D01*
X96490825Y-88996020D01*
X96502534Y-88992468D01*
X96627679Y-88954505D01*
X96698787Y-88947502D01*
X96734340Y-88944000D01*
X96805660Y-88944000D01*
X96841213Y-88947502D01*
X96841213Y-88947502D01*
G37*
G36*
X89496000Y-90396000D02*
G01*
X88044000Y-90396000D01*
X88044000Y-88944000D01*
X89496000Y-88944000D01*
X89496000Y-90396000D01*
X89496000Y-90396000D01*
G37*
G36*
X104841213Y-88947502D02*
G01*
X104912321Y-88954505D01*
X105037466Y-88992468D01*
X105049175Y-88996020D01*
X105175294Y-89063432D01*
X105285843Y-89154157D01*
X105376568Y-89264706D01*
X105443980Y-89390825D01*
X105443981Y-89390828D01*
X105485495Y-89527679D01*
X105499512Y-89670000D01*
X105485495Y-89812321D01*
X105443981Y-89949172D01*
X105443980Y-89949175D01*
X105376568Y-90075294D01*
X105285843Y-90185843D01*
X105175294Y-90276568D01*
X105049175Y-90343980D01*
X105049172Y-90343981D01*
X104912321Y-90385495D01*
X104841213Y-90392498D01*
X104805660Y-90396000D01*
X104734340Y-90396000D01*
X104698787Y-90392498D01*
X104627679Y-90385495D01*
X104490828Y-90343981D01*
X104490825Y-90343980D01*
X104364706Y-90276568D01*
X104254157Y-90185843D01*
X104163432Y-90075294D01*
X104096020Y-89949175D01*
X104096019Y-89949172D01*
X104054505Y-89812321D01*
X104040488Y-89670000D01*
X104054505Y-89527679D01*
X104096019Y-89390828D01*
X104096020Y-89390825D01*
X104163432Y-89264706D01*
X104254157Y-89154157D01*
X104364706Y-89063432D01*
X104490825Y-88996020D01*
X104502534Y-88992468D01*
X104627679Y-88954505D01*
X104698787Y-88947502D01*
X104734340Y-88944000D01*
X104805660Y-88944000D01*
X104841213Y-88947502D01*
X104841213Y-88947502D01*
G37*
G36*
X172322442Y-87751518D02*
G01*
X172388627Y-87758037D01*
X172558466Y-87809557D01*
X172714991Y-87893222D01*
X172750729Y-87922552D01*
X172852186Y-88005814D01*
X172927985Y-88098177D01*
X172964778Y-88143009D01*
X173048443Y-88299534D01*
X173099963Y-88469373D01*
X173117359Y-88646000D01*
X173099963Y-88822627D01*
X173048443Y-88992466D01*
X172964778Y-89148991D01*
X172960538Y-89154157D01*
X172852186Y-89286186D01*
X172750729Y-89369448D01*
X172714991Y-89398778D01*
X172558466Y-89482443D01*
X172388627Y-89533963D01*
X172322442Y-89540482D01*
X172256260Y-89547000D01*
X172167740Y-89547000D01*
X172101558Y-89540482D01*
X172035373Y-89533963D01*
X171865534Y-89482443D01*
X171709009Y-89398778D01*
X171673271Y-89369448D01*
X171571814Y-89286186D01*
X171463462Y-89154157D01*
X171459222Y-89148991D01*
X171375557Y-88992466D01*
X171324037Y-88822627D01*
X171306641Y-88646000D01*
X171324037Y-88469373D01*
X171375557Y-88299534D01*
X171459222Y-88143009D01*
X171496015Y-88098177D01*
X171571814Y-88005814D01*
X171673271Y-87922552D01*
X171709009Y-87893222D01*
X171865534Y-87809557D01*
X172035373Y-87758037D01*
X172101558Y-87751518D01*
X172167740Y-87745000D01*
X172256260Y-87745000D01*
X172322442Y-87751518D01*
X172322442Y-87751518D01*
G37*
G36*
X179942442Y-87751518D02*
G01*
X180008627Y-87758037D01*
X180178466Y-87809557D01*
X180334991Y-87893222D01*
X180370729Y-87922552D01*
X180472186Y-88005814D01*
X180547985Y-88098177D01*
X180584778Y-88143009D01*
X180668443Y-88299534D01*
X180719963Y-88469373D01*
X180737359Y-88646000D01*
X180719963Y-88822627D01*
X180668443Y-88992466D01*
X180584778Y-89148991D01*
X180580538Y-89154157D01*
X180472186Y-89286186D01*
X180370729Y-89369448D01*
X180334991Y-89398778D01*
X180178466Y-89482443D01*
X180008627Y-89533963D01*
X179942442Y-89540482D01*
X179876260Y-89547000D01*
X179787740Y-89547000D01*
X179721558Y-89540482D01*
X179655373Y-89533963D01*
X179485534Y-89482443D01*
X179329009Y-89398778D01*
X179293271Y-89369448D01*
X179191814Y-89286186D01*
X179083462Y-89154157D01*
X179079222Y-89148991D01*
X178995557Y-88992466D01*
X178944037Y-88822627D01*
X178926641Y-88646000D01*
X178944037Y-88469373D01*
X178995557Y-88299534D01*
X179079222Y-88143009D01*
X179116015Y-88098177D01*
X179191814Y-88005814D01*
X179293271Y-87922552D01*
X179329009Y-87893222D01*
X179485534Y-87809557D01*
X179655373Y-87758037D01*
X179721558Y-87751518D01*
X179787740Y-87745000D01*
X179876260Y-87745000D01*
X179942442Y-87751518D01*
X179942442Y-87751518D01*
G37*
G36*
X177402442Y-87751518D02*
G01*
X177468627Y-87758037D01*
X177638466Y-87809557D01*
X177794991Y-87893222D01*
X177830729Y-87922552D01*
X177932186Y-88005814D01*
X178007985Y-88098177D01*
X178044778Y-88143009D01*
X178128443Y-88299534D01*
X178179963Y-88469373D01*
X178197359Y-88646000D01*
X178179963Y-88822627D01*
X178128443Y-88992466D01*
X178044778Y-89148991D01*
X178040538Y-89154157D01*
X177932186Y-89286186D01*
X177830729Y-89369448D01*
X177794991Y-89398778D01*
X177638466Y-89482443D01*
X177468627Y-89533963D01*
X177402442Y-89540482D01*
X177336260Y-89547000D01*
X177247740Y-89547000D01*
X177181558Y-89540482D01*
X177115373Y-89533963D01*
X176945534Y-89482443D01*
X176789009Y-89398778D01*
X176753271Y-89369448D01*
X176651814Y-89286186D01*
X176543462Y-89154157D01*
X176539222Y-89148991D01*
X176455557Y-88992466D01*
X176404037Y-88822627D01*
X176386641Y-88646000D01*
X176404037Y-88469373D01*
X176455557Y-88299534D01*
X176539222Y-88143009D01*
X176576015Y-88098177D01*
X176651814Y-88005814D01*
X176753271Y-87922552D01*
X176789009Y-87893222D01*
X176945534Y-87809557D01*
X177115373Y-87758037D01*
X177181558Y-87751518D01*
X177247740Y-87745000D01*
X177336260Y-87745000D01*
X177402442Y-87751518D01*
X177402442Y-87751518D01*
G37*
G36*
X174862442Y-87751518D02*
G01*
X174928627Y-87758037D01*
X175098466Y-87809557D01*
X175254991Y-87893222D01*
X175290729Y-87922552D01*
X175392186Y-88005814D01*
X175467985Y-88098177D01*
X175504778Y-88143009D01*
X175588443Y-88299534D01*
X175639963Y-88469373D01*
X175657359Y-88646000D01*
X175639963Y-88822627D01*
X175588443Y-88992466D01*
X175504778Y-89148991D01*
X175500538Y-89154157D01*
X175392186Y-89286186D01*
X175290729Y-89369448D01*
X175254991Y-89398778D01*
X175098466Y-89482443D01*
X174928627Y-89533963D01*
X174862442Y-89540482D01*
X174796260Y-89547000D01*
X174707740Y-89547000D01*
X174641558Y-89540482D01*
X174575373Y-89533963D01*
X174405534Y-89482443D01*
X174249009Y-89398778D01*
X174213271Y-89369448D01*
X174111814Y-89286186D01*
X174003462Y-89154157D01*
X173999222Y-89148991D01*
X173915557Y-88992466D01*
X173864037Y-88822627D01*
X173846641Y-88646000D01*
X173864037Y-88469373D01*
X173915557Y-88299534D01*
X173999222Y-88143009D01*
X174036015Y-88098177D01*
X174111814Y-88005814D01*
X174213271Y-87922552D01*
X174249009Y-87893222D01*
X174405534Y-87809557D01*
X174575373Y-87758037D01*
X174641558Y-87751518D01*
X174707740Y-87745000D01*
X174796260Y-87745000D01*
X174862442Y-87751518D01*
X174862442Y-87751518D01*
G37*
G36*
X169782442Y-87751518D02*
G01*
X169848627Y-87758037D01*
X170018466Y-87809557D01*
X170174991Y-87893222D01*
X170210729Y-87922552D01*
X170312186Y-88005814D01*
X170387985Y-88098177D01*
X170424778Y-88143009D01*
X170508443Y-88299534D01*
X170559963Y-88469373D01*
X170577359Y-88646000D01*
X170559963Y-88822627D01*
X170508443Y-88992466D01*
X170424778Y-89148991D01*
X170420538Y-89154157D01*
X170312186Y-89286186D01*
X170210729Y-89369448D01*
X170174991Y-89398778D01*
X170018466Y-89482443D01*
X169848627Y-89533963D01*
X169782442Y-89540482D01*
X169716260Y-89547000D01*
X169627740Y-89547000D01*
X169561558Y-89540482D01*
X169495373Y-89533963D01*
X169325534Y-89482443D01*
X169169009Y-89398778D01*
X169133271Y-89369448D01*
X169031814Y-89286186D01*
X168923462Y-89154157D01*
X168919222Y-89148991D01*
X168835557Y-88992466D01*
X168784037Y-88822627D01*
X168766641Y-88646000D01*
X168784037Y-88469373D01*
X168835557Y-88299534D01*
X168919222Y-88143009D01*
X168956015Y-88098177D01*
X169031814Y-88005814D01*
X169133271Y-87922552D01*
X169169009Y-87893222D01*
X169325534Y-87809557D01*
X169495373Y-87758037D01*
X169561558Y-87751518D01*
X169627740Y-87745000D01*
X169716260Y-87745000D01*
X169782442Y-87751518D01*
X169782442Y-87751518D01*
G37*
G36*
X167242442Y-87751518D02*
G01*
X167308627Y-87758037D01*
X167478466Y-87809557D01*
X167634991Y-87893222D01*
X167670729Y-87922552D01*
X167772186Y-88005814D01*
X167847985Y-88098177D01*
X167884778Y-88143009D01*
X167968443Y-88299534D01*
X168019963Y-88469373D01*
X168037359Y-88646000D01*
X168019963Y-88822627D01*
X167968443Y-88992466D01*
X167884778Y-89148991D01*
X167880538Y-89154157D01*
X167772186Y-89286186D01*
X167670729Y-89369448D01*
X167634991Y-89398778D01*
X167478466Y-89482443D01*
X167308627Y-89533963D01*
X167242442Y-89540482D01*
X167176260Y-89547000D01*
X167087740Y-89547000D01*
X167021558Y-89540482D01*
X166955373Y-89533963D01*
X166785534Y-89482443D01*
X166629009Y-89398778D01*
X166593271Y-89369448D01*
X166491814Y-89286186D01*
X166383462Y-89154157D01*
X166379222Y-89148991D01*
X166295557Y-88992466D01*
X166244037Y-88822627D01*
X166226641Y-88646000D01*
X166244037Y-88469373D01*
X166295557Y-88299534D01*
X166379222Y-88143009D01*
X166416015Y-88098177D01*
X166491814Y-88005814D01*
X166593271Y-87922552D01*
X166629009Y-87893222D01*
X166785534Y-87809557D01*
X166955373Y-87758037D01*
X167021558Y-87751518D01*
X167087740Y-87745000D01*
X167176260Y-87745000D01*
X167242442Y-87751518D01*
X167242442Y-87751518D01*
G37*
G36*
X164702442Y-87751518D02*
G01*
X164768627Y-87758037D01*
X164938466Y-87809557D01*
X165094991Y-87893222D01*
X165130729Y-87922552D01*
X165232186Y-88005814D01*
X165307985Y-88098177D01*
X165344778Y-88143009D01*
X165428443Y-88299534D01*
X165479963Y-88469373D01*
X165497359Y-88646000D01*
X165479963Y-88822627D01*
X165428443Y-88992466D01*
X165344778Y-89148991D01*
X165340538Y-89154157D01*
X165232186Y-89286186D01*
X165130729Y-89369448D01*
X165094991Y-89398778D01*
X164938466Y-89482443D01*
X164768627Y-89533963D01*
X164702442Y-89540482D01*
X164636260Y-89547000D01*
X164547740Y-89547000D01*
X164481558Y-89540482D01*
X164415373Y-89533963D01*
X164245534Y-89482443D01*
X164089009Y-89398778D01*
X164053271Y-89369448D01*
X163951814Y-89286186D01*
X163843462Y-89154157D01*
X163839222Y-89148991D01*
X163755557Y-88992466D01*
X163704037Y-88822627D01*
X163686641Y-88646000D01*
X163704037Y-88469373D01*
X163755557Y-88299534D01*
X163839222Y-88143009D01*
X163876015Y-88098177D01*
X163951814Y-88005814D01*
X164053271Y-87922552D01*
X164089009Y-87893222D01*
X164245534Y-87809557D01*
X164415373Y-87758037D01*
X164481558Y-87751518D01*
X164547740Y-87745000D01*
X164636260Y-87745000D01*
X164702442Y-87751518D01*
X164702442Y-87751518D01*
G37*
G36*
X162162442Y-87751518D02*
G01*
X162228627Y-87758037D01*
X162398466Y-87809557D01*
X162554991Y-87893222D01*
X162590729Y-87922552D01*
X162692186Y-88005814D01*
X162767985Y-88098177D01*
X162804778Y-88143009D01*
X162888443Y-88299534D01*
X162939963Y-88469373D01*
X162957359Y-88646000D01*
X162939963Y-88822627D01*
X162888443Y-88992466D01*
X162804778Y-89148991D01*
X162800538Y-89154157D01*
X162692186Y-89286186D01*
X162590729Y-89369448D01*
X162554991Y-89398778D01*
X162398466Y-89482443D01*
X162228627Y-89533963D01*
X162162442Y-89540482D01*
X162096260Y-89547000D01*
X162007740Y-89547000D01*
X161941558Y-89540482D01*
X161875373Y-89533963D01*
X161705534Y-89482443D01*
X161549009Y-89398778D01*
X161513271Y-89369448D01*
X161411814Y-89286186D01*
X161303462Y-89154157D01*
X161299222Y-89148991D01*
X161215557Y-88992466D01*
X161164037Y-88822627D01*
X161146641Y-88646000D01*
X161164037Y-88469373D01*
X161215557Y-88299534D01*
X161299222Y-88143009D01*
X161336015Y-88098177D01*
X161411814Y-88005814D01*
X161513271Y-87922552D01*
X161549009Y-87893222D01*
X161705534Y-87809557D01*
X161875373Y-87758037D01*
X161941558Y-87751518D01*
X162007740Y-87745000D01*
X162096260Y-87745000D01*
X162162442Y-87751518D01*
X162162442Y-87751518D01*
G37*
G36*
X185813000Y-89547000D02*
G01*
X184011000Y-89547000D01*
X184011000Y-87745000D01*
X185813000Y-87745000D01*
X185813000Y-89547000D01*
X185813000Y-89547000D01*
G37*
G36*
X182482442Y-87751518D02*
G01*
X182548627Y-87758037D01*
X182718466Y-87809557D01*
X182874991Y-87893222D01*
X182910729Y-87922552D01*
X183012186Y-88005814D01*
X183087985Y-88098177D01*
X183124778Y-88143009D01*
X183208443Y-88299534D01*
X183259963Y-88469373D01*
X183277359Y-88646000D01*
X183259963Y-88822627D01*
X183208443Y-88992466D01*
X183124778Y-89148991D01*
X183120538Y-89154157D01*
X183012186Y-89286186D01*
X182910729Y-89369448D01*
X182874991Y-89398778D01*
X182718466Y-89482443D01*
X182548627Y-89533963D01*
X182482442Y-89540482D01*
X182416260Y-89547000D01*
X182327740Y-89547000D01*
X182261558Y-89540482D01*
X182195373Y-89533963D01*
X182025534Y-89482443D01*
X181869009Y-89398778D01*
X181833271Y-89369448D01*
X181731814Y-89286186D01*
X181623462Y-89154157D01*
X181619222Y-89148991D01*
X181535557Y-88992466D01*
X181484037Y-88822627D01*
X181466641Y-88646000D01*
X181484037Y-88469373D01*
X181535557Y-88299534D01*
X181619222Y-88143009D01*
X181656015Y-88098177D01*
X181731814Y-88005814D01*
X181833271Y-87922552D01*
X181869009Y-87893222D01*
X182025534Y-87809557D01*
X182195373Y-87758037D01*
X182261558Y-87751518D01*
X182327740Y-87745000D01*
X182416260Y-87745000D01*
X182482442Y-87751518D01*
X182482442Y-87751518D01*
G37*
G36*
X148521823Y-87426313D02*
G01*
X148682242Y-87474976D01*
X148814906Y-87545886D01*
X148830078Y-87553996D01*
X148959659Y-87660341D01*
X149066004Y-87789922D01*
X149066005Y-87789924D01*
X149145024Y-87937758D01*
X149193687Y-88098177D01*
X149210117Y-88265000D01*
X149193687Y-88431823D01*
X149145024Y-88592242D01*
X149074114Y-88724906D01*
X149066004Y-88740078D01*
X148959659Y-88869659D01*
X148830078Y-88976004D01*
X148830076Y-88976005D01*
X148682242Y-89055024D01*
X148682239Y-89055025D01*
X148652380Y-89064083D01*
X148521823Y-89103687D01*
X148396804Y-89116000D01*
X147513196Y-89116000D01*
X147388177Y-89103687D01*
X147257620Y-89064083D01*
X147227761Y-89055025D01*
X147227758Y-89055024D01*
X147079924Y-88976005D01*
X147079922Y-88976004D01*
X146950341Y-88869659D01*
X146843996Y-88740078D01*
X146835886Y-88724906D01*
X146764976Y-88592242D01*
X146716313Y-88431823D01*
X146699883Y-88265000D01*
X146716313Y-88098177D01*
X146764976Y-87937758D01*
X146843995Y-87789924D01*
X146843996Y-87789922D01*
X146950341Y-87660341D01*
X147079922Y-87553996D01*
X147095094Y-87545886D01*
X147227758Y-87474976D01*
X147388177Y-87426313D01*
X147513196Y-87414000D01*
X148396804Y-87414000D01*
X148521823Y-87426313D01*
X148521823Y-87426313D01*
G37*
G36*
X140901823Y-87426313D02*
G01*
X141062242Y-87474976D01*
X141194906Y-87545886D01*
X141210078Y-87553996D01*
X141339659Y-87660341D01*
X141446004Y-87789922D01*
X141446005Y-87789924D01*
X141525024Y-87937758D01*
X141573687Y-88098177D01*
X141590117Y-88265000D01*
X141573687Y-88431823D01*
X141525024Y-88592242D01*
X141454114Y-88724906D01*
X141446004Y-88740078D01*
X141339659Y-88869659D01*
X141210078Y-88976004D01*
X141210076Y-88976005D01*
X141062242Y-89055024D01*
X141062239Y-89055025D01*
X141032380Y-89064083D01*
X140901823Y-89103687D01*
X140776804Y-89116000D01*
X139893196Y-89116000D01*
X139768177Y-89103687D01*
X139637620Y-89064083D01*
X139607761Y-89055025D01*
X139607758Y-89055024D01*
X139459924Y-88976005D01*
X139459922Y-88976004D01*
X139330341Y-88869659D01*
X139223996Y-88740078D01*
X139215886Y-88724906D01*
X139144976Y-88592242D01*
X139096313Y-88431823D01*
X139079883Y-88265000D01*
X139096313Y-88098177D01*
X139144976Y-87937758D01*
X139223995Y-87789924D01*
X139223996Y-87789922D01*
X139330341Y-87660341D01*
X139459922Y-87553996D01*
X139475094Y-87545886D01*
X139607758Y-87474976D01*
X139768177Y-87426313D01*
X139893196Y-87414000D01*
X140776804Y-87414000D01*
X140901823Y-87426313D01*
X140901823Y-87426313D01*
G37*
G36*
X122030442Y-86100518D02*
G01*
X122096627Y-86107037D01*
X122266466Y-86158557D01*
X122422991Y-86242222D01*
X122458729Y-86271552D01*
X122560186Y-86354814D01*
X122643448Y-86456271D01*
X122672778Y-86492009D01*
X122672779Y-86492011D01*
X122725525Y-86590690D01*
X122756443Y-86648534D01*
X122807963Y-86818373D01*
X122825359Y-86995000D01*
X122807963Y-87171627D01*
X122756443Y-87341466D01*
X122672778Y-87497991D01*
X122643448Y-87533729D01*
X122560186Y-87635186D01*
X122458729Y-87718448D01*
X122422991Y-87747778D01*
X122266466Y-87831443D01*
X122096627Y-87882963D01*
X122030443Y-87889481D01*
X121964260Y-87896000D01*
X121875740Y-87896000D01*
X121809557Y-87889481D01*
X121743373Y-87882963D01*
X121573534Y-87831443D01*
X121417009Y-87747778D01*
X121381271Y-87718448D01*
X121279814Y-87635186D01*
X121196552Y-87533729D01*
X121167222Y-87497991D01*
X121083557Y-87341466D01*
X121032037Y-87171627D01*
X121014641Y-86995000D01*
X121032037Y-86818373D01*
X121083557Y-86648534D01*
X121114476Y-86590690D01*
X121167221Y-86492011D01*
X121167222Y-86492009D01*
X121196552Y-86456271D01*
X121279814Y-86354814D01*
X121381271Y-86271552D01*
X121417009Y-86242222D01*
X121573534Y-86158557D01*
X121743373Y-86107037D01*
X121809558Y-86100518D01*
X121875740Y-86094000D01*
X121964260Y-86094000D01*
X122030442Y-86100518D01*
X122030442Y-86100518D01*
G37*
G36*
X131849395Y-84937546D02*
G01*
X132022466Y-85009234D01*
X132033530Y-85016627D01*
X132178227Y-85113310D01*
X132310690Y-85245773D01*
X132357687Y-85316110D01*
X132414766Y-85401534D01*
X132486454Y-85574605D01*
X132523000Y-85758333D01*
X132523000Y-85945667D01*
X132486454Y-86129395D01*
X132414766Y-86302466D01*
X132414765Y-86302467D01*
X132310690Y-86458227D01*
X132178227Y-86590690D01*
X132099818Y-86643081D01*
X132022466Y-86694766D01*
X131849395Y-86766454D01*
X131665667Y-86803000D01*
X131478333Y-86803000D01*
X131294605Y-86766454D01*
X131121534Y-86694766D01*
X131044182Y-86643081D01*
X130965773Y-86590690D01*
X130833310Y-86458227D01*
X130729235Y-86302467D01*
X130729234Y-86302466D01*
X130657546Y-86129395D01*
X130621000Y-85945667D01*
X130621000Y-85758333D01*
X130657546Y-85574605D01*
X130729234Y-85401534D01*
X130786313Y-85316110D01*
X130833310Y-85245773D01*
X130965773Y-85113310D01*
X131110470Y-85016627D01*
X131121534Y-85009234D01*
X131294605Y-84937546D01*
X131478333Y-84901000D01*
X131665667Y-84901000D01*
X131849395Y-84937546D01*
X131849395Y-84937546D01*
G37*
G36*
X129983000Y-86803000D02*
G01*
X128081000Y-86803000D01*
X128081000Y-84901000D01*
X129983000Y-84901000D01*
X129983000Y-86803000D01*
X129983000Y-86803000D01*
G37*
G36*
X148521823Y-84886313D02*
G01*
X148682242Y-84934976D01*
X148732611Y-84961899D01*
X148830078Y-85013996D01*
X148959659Y-85120341D01*
X149066004Y-85249922D01*
X149066005Y-85249924D01*
X149145024Y-85397758D01*
X149145025Y-85397761D01*
X149154083Y-85427620D01*
X149193687Y-85558177D01*
X149210117Y-85725000D01*
X149193687Y-85891823D01*
X149145024Y-86052242D01*
X149115735Y-86107037D01*
X149066004Y-86200078D01*
X148959659Y-86329659D01*
X148830078Y-86436004D01*
X148830076Y-86436005D01*
X148682242Y-86515024D01*
X148521823Y-86563687D01*
X148396804Y-86576000D01*
X147513196Y-86576000D01*
X147388177Y-86563687D01*
X147227758Y-86515024D01*
X147079924Y-86436005D01*
X147079922Y-86436004D01*
X146950341Y-86329659D01*
X146843996Y-86200078D01*
X146794265Y-86107037D01*
X146764976Y-86052242D01*
X146716313Y-85891823D01*
X146699883Y-85725000D01*
X146716313Y-85558177D01*
X146755917Y-85427620D01*
X146764975Y-85397761D01*
X146764976Y-85397758D01*
X146843995Y-85249924D01*
X146843996Y-85249922D01*
X146950341Y-85120341D01*
X147079922Y-85013996D01*
X147177389Y-84961899D01*
X147227758Y-84934976D01*
X147388177Y-84886313D01*
X147513196Y-84874000D01*
X148396804Y-84874000D01*
X148521823Y-84886313D01*
X148521823Y-84886313D01*
G37*
G36*
X140901823Y-84886313D02*
G01*
X141062242Y-84934976D01*
X141112611Y-84961899D01*
X141210078Y-85013996D01*
X141339659Y-85120341D01*
X141446004Y-85249922D01*
X141446005Y-85249924D01*
X141525024Y-85397758D01*
X141525025Y-85397761D01*
X141534083Y-85427620D01*
X141573687Y-85558177D01*
X141590117Y-85725000D01*
X141573687Y-85891823D01*
X141525024Y-86052242D01*
X141495735Y-86107037D01*
X141446004Y-86200078D01*
X141339659Y-86329659D01*
X141210078Y-86436004D01*
X141210076Y-86436005D01*
X141062242Y-86515024D01*
X140901823Y-86563687D01*
X140776804Y-86576000D01*
X139893196Y-86576000D01*
X139768177Y-86563687D01*
X139607758Y-86515024D01*
X139459924Y-86436005D01*
X139459922Y-86436004D01*
X139330341Y-86329659D01*
X139223996Y-86200078D01*
X139174265Y-86107037D01*
X139144976Y-86052242D01*
X139096313Y-85891823D01*
X139079883Y-85725000D01*
X139096313Y-85558177D01*
X139135917Y-85427620D01*
X139144975Y-85397761D01*
X139144976Y-85397758D01*
X139223995Y-85249924D01*
X139223996Y-85249922D01*
X139330341Y-85120341D01*
X139459922Y-85013996D01*
X139557389Y-84961899D01*
X139607758Y-84934976D01*
X139768177Y-84886313D01*
X139893196Y-84874000D01*
X140776804Y-84874000D01*
X140901823Y-84886313D01*
X140901823Y-84886313D01*
G37*
G36*
X116541766Y-84961899D02*
G01*
X116673888Y-85016626D01*
X116673890Y-85016627D01*
X116792798Y-85096079D01*
X116893921Y-85197202D01*
X116956890Y-85291442D01*
X116973374Y-85316112D01*
X117028101Y-85448234D01*
X117056000Y-85588494D01*
X117056000Y-85731506D01*
X117028101Y-85871766D01*
X116997490Y-85945667D01*
X116973373Y-86003890D01*
X116893921Y-86122798D01*
X116792798Y-86223921D01*
X116673890Y-86303373D01*
X116673889Y-86303374D01*
X116673888Y-86303374D01*
X116541766Y-86358101D01*
X116401506Y-86386000D01*
X116258494Y-86386000D01*
X116118234Y-86358101D01*
X115986112Y-86303374D01*
X115986111Y-86303374D01*
X115986110Y-86303373D01*
X115867202Y-86223921D01*
X115766079Y-86122798D01*
X115686627Y-86003890D01*
X115662510Y-85945667D01*
X115631899Y-85871766D01*
X115604000Y-85731506D01*
X115604000Y-85588494D01*
X115631899Y-85448234D01*
X115686626Y-85316112D01*
X115703110Y-85291442D01*
X115766079Y-85197202D01*
X115867202Y-85096079D01*
X115986110Y-85016627D01*
X115986112Y-85016626D01*
X116118234Y-84961899D01*
X116258494Y-84934000D01*
X116401506Y-84934000D01*
X116541766Y-84961899D01*
X116541766Y-84961899D01*
G37*
G36*
X194994131Y-82147611D02*
G01*
X195321892Y-82283374D01*
X195616870Y-82480472D01*
X195867728Y-82731330D01*
X196064826Y-83026308D01*
X196200589Y-83354069D01*
X196269800Y-83702016D01*
X196269800Y-84056784D01*
X196200589Y-84404731D01*
X196064826Y-84732492D01*
X195867728Y-85027470D01*
X195616870Y-85278328D01*
X195321892Y-85475426D01*
X194994131Y-85611189D01*
X194646184Y-85680400D01*
X194291416Y-85680400D01*
X193943469Y-85611189D01*
X193615708Y-85475426D01*
X193320730Y-85278328D01*
X193069872Y-85027470D01*
X192872774Y-84732492D01*
X192737011Y-84404731D01*
X192667800Y-84056784D01*
X192667800Y-83702016D01*
X192737011Y-83354069D01*
X192872774Y-83026308D01*
X193069872Y-82731330D01*
X193320730Y-82480472D01*
X193615708Y-82283374D01*
X193943469Y-82147611D01*
X194291416Y-82078400D01*
X194646184Y-82078400D01*
X194994131Y-82147611D01*
X194994131Y-82147611D01*
G37*
G36*
X122030443Y-83560519D02*
G01*
X122096627Y-83567037D01*
X122266466Y-83618557D01*
X122422991Y-83702222D01*
X122458729Y-83731552D01*
X122560186Y-83814814D01*
X122643448Y-83916271D01*
X122672778Y-83952009D01*
X122756443Y-84108534D01*
X122807963Y-84278373D01*
X122825359Y-84455000D01*
X122807963Y-84631627D01*
X122756443Y-84801466D01*
X122672778Y-84957991D01*
X122643448Y-84993729D01*
X122560186Y-85095186D01*
X122458729Y-85178448D01*
X122422991Y-85207778D01*
X122266466Y-85291443D01*
X122096627Y-85342963D01*
X122030442Y-85349482D01*
X121964260Y-85356000D01*
X121875740Y-85356000D01*
X121809558Y-85349482D01*
X121743373Y-85342963D01*
X121573534Y-85291443D01*
X121417009Y-85207778D01*
X121381271Y-85178448D01*
X121279814Y-85095186D01*
X121196552Y-84993729D01*
X121167222Y-84957991D01*
X121083557Y-84801466D01*
X121032037Y-84631627D01*
X121014641Y-84455000D01*
X121032037Y-84278373D01*
X121083557Y-84108534D01*
X121167222Y-83952009D01*
X121196552Y-83916271D01*
X121279814Y-83814814D01*
X121381271Y-83731552D01*
X121417009Y-83702222D01*
X121573534Y-83618557D01*
X121743373Y-83567037D01*
X121809557Y-83560519D01*
X121875740Y-83554000D01*
X121964260Y-83554000D01*
X122030443Y-83560519D01*
X122030443Y-83560519D01*
G37*
G36*
X116401213Y-82937502D02*
G01*
X116472321Y-82944505D01*
X116609172Y-82986019D01*
X116609175Y-82986020D01*
X116735294Y-83053432D01*
X116845843Y-83144157D01*
X116936568Y-83254706D01*
X117003980Y-83380825D01*
X117003981Y-83380828D01*
X117045495Y-83517679D01*
X117059512Y-83660000D01*
X117045495Y-83802321D01*
X117017076Y-83896004D01*
X117003980Y-83939175D01*
X116936568Y-84065294D01*
X116845843Y-84175843D01*
X116735294Y-84266568D01*
X116609175Y-84333980D01*
X116609172Y-84333981D01*
X116472321Y-84375495D01*
X116401213Y-84382498D01*
X116365660Y-84386000D01*
X116294340Y-84386000D01*
X116258787Y-84382498D01*
X116187679Y-84375495D01*
X116050828Y-84333981D01*
X116050825Y-84333980D01*
X115924706Y-84266568D01*
X115814157Y-84175843D01*
X115723432Y-84065294D01*
X115656020Y-83939175D01*
X115642924Y-83896004D01*
X115614505Y-83802321D01*
X115600488Y-83660000D01*
X115614505Y-83517679D01*
X115656019Y-83380828D01*
X115656020Y-83380825D01*
X115723432Y-83254706D01*
X115814157Y-83144157D01*
X115924706Y-83053432D01*
X116050825Y-82986020D01*
X116050828Y-82986019D01*
X116187679Y-82944505D01*
X116258787Y-82937502D01*
X116294340Y-82934000D01*
X116365660Y-82934000D01*
X116401213Y-82937502D01*
X116401213Y-82937502D01*
G37*
G36*
X148521823Y-82346313D02*
G01*
X148682242Y-82394976D01*
X148814906Y-82465886D01*
X148830078Y-82473996D01*
X148959659Y-82580341D01*
X149066004Y-82709922D01*
X149066005Y-82709924D01*
X149145024Y-82857758D01*
X149193687Y-83018177D01*
X149210117Y-83185000D01*
X149193687Y-83351823D01*
X149145024Y-83512242D01*
X149115735Y-83567037D01*
X149066004Y-83660078D01*
X148959659Y-83789659D01*
X148830078Y-83896004D01*
X148830076Y-83896005D01*
X148682242Y-83975024D01*
X148521823Y-84023687D01*
X148396804Y-84036000D01*
X147513196Y-84036000D01*
X147388177Y-84023687D01*
X147227758Y-83975024D01*
X147079924Y-83896005D01*
X147079922Y-83896004D01*
X146950341Y-83789659D01*
X146843996Y-83660078D01*
X146794265Y-83567037D01*
X146764976Y-83512242D01*
X146716313Y-83351823D01*
X146699883Y-83185000D01*
X146716313Y-83018177D01*
X146764976Y-82857758D01*
X146843995Y-82709924D01*
X146843996Y-82709922D01*
X146950341Y-82580341D01*
X147079922Y-82473996D01*
X147095094Y-82465886D01*
X147227758Y-82394976D01*
X147388177Y-82346313D01*
X147513196Y-82334000D01*
X148396804Y-82334000D01*
X148521823Y-82346313D01*
X148521823Y-82346313D01*
G37*
G36*
X140901823Y-82346313D02*
G01*
X141062242Y-82394976D01*
X141194906Y-82465886D01*
X141210078Y-82473996D01*
X141339659Y-82580341D01*
X141446004Y-82709922D01*
X141446005Y-82709924D01*
X141525024Y-82857758D01*
X141573687Y-83018177D01*
X141590117Y-83185000D01*
X141573687Y-83351823D01*
X141525024Y-83512242D01*
X141495735Y-83567037D01*
X141446004Y-83660078D01*
X141339659Y-83789659D01*
X141210078Y-83896004D01*
X141210076Y-83896005D01*
X141062242Y-83975024D01*
X140901823Y-84023687D01*
X140776804Y-84036000D01*
X139893196Y-84036000D01*
X139768177Y-84023687D01*
X139607758Y-83975024D01*
X139459924Y-83896005D01*
X139459922Y-83896004D01*
X139330341Y-83789659D01*
X139223996Y-83660078D01*
X139174265Y-83567037D01*
X139144976Y-83512242D01*
X139096313Y-83351823D01*
X139079883Y-83185000D01*
X139096313Y-83018177D01*
X139144976Y-82857758D01*
X139223995Y-82709924D01*
X139223996Y-82709922D01*
X139330341Y-82580341D01*
X139459922Y-82473996D01*
X139475094Y-82465886D01*
X139607758Y-82394976D01*
X139768177Y-82346313D01*
X139893196Y-82334000D01*
X140776804Y-82334000D01*
X140901823Y-82346313D01*
X140901823Y-82346313D01*
G37*
G36*
X122030442Y-81020518D02*
G01*
X122096627Y-81027037D01*
X122266466Y-81078557D01*
X122422991Y-81162222D01*
X122458729Y-81191552D01*
X122560186Y-81274814D01*
X122630723Y-81360765D01*
X122672778Y-81412009D01*
X122756443Y-81568534D01*
X122807963Y-81738373D01*
X122825359Y-81915000D01*
X122807963Y-82091627D01*
X122790980Y-82147611D01*
X122756442Y-82261468D01*
X122753716Y-82266568D01*
X122672778Y-82417991D01*
X122643448Y-82453729D01*
X122560186Y-82555186D01*
X122458729Y-82638448D01*
X122422991Y-82667778D01*
X122422989Y-82667779D01*
X122304095Y-82731330D01*
X122266466Y-82751443D01*
X122096627Y-82802963D01*
X122030442Y-82809482D01*
X121964260Y-82816000D01*
X121875740Y-82816000D01*
X121809558Y-82809482D01*
X121743373Y-82802963D01*
X121573534Y-82751443D01*
X121535906Y-82731330D01*
X121417011Y-82667779D01*
X121417009Y-82667778D01*
X121381271Y-82638448D01*
X121279814Y-82555186D01*
X121196552Y-82453729D01*
X121167222Y-82417991D01*
X121086284Y-82266568D01*
X121083558Y-82261468D01*
X121049020Y-82147611D01*
X121032037Y-82091627D01*
X121014641Y-81915000D01*
X121032037Y-81738373D01*
X121083557Y-81568534D01*
X121167222Y-81412009D01*
X121209277Y-81360765D01*
X121279814Y-81274814D01*
X121381271Y-81191552D01*
X121417009Y-81162222D01*
X121573534Y-81078557D01*
X121743373Y-81027037D01*
X121809558Y-81020518D01*
X121875740Y-81014000D01*
X121964260Y-81014000D01*
X122030442Y-81020518D01*
X122030442Y-81020518D01*
G37*
G36*
X116401213Y-80937502D02*
G01*
X116472321Y-80944505D01*
X116609172Y-80986019D01*
X116609175Y-80986020D01*
X116735294Y-81053432D01*
X116845843Y-81144157D01*
X116936568Y-81254706D01*
X117003980Y-81380825D01*
X117003981Y-81380828D01*
X117045495Y-81517679D01*
X117059512Y-81660000D01*
X117045495Y-81802321D01*
X117003981Y-81939172D01*
X117003980Y-81939175D01*
X116936568Y-82065294D01*
X116845843Y-82175843D01*
X116735294Y-82266568D01*
X116609175Y-82333980D01*
X116609172Y-82333981D01*
X116472321Y-82375495D01*
X116401213Y-82382498D01*
X116365660Y-82386000D01*
X116294340Y-82386000D01*
X116258787Y-82382498D01*
X116187679Y-82375495D01*
X116050828Y-82333981D01*
X116050825Y-82333980D01*
X115924706Y-82266568D01*
X115814157Y-82175843D01*
X115723432Y-82065294D01*
X115656020Y-81939175D01*
X115656019Y-81939172D01*
X115614505Y-81802321D01*
X115600488Y-81660000D01*
X115614505Y-81517679D01*
X115656019Y-81380828D01*
X115656020Y-81380825D01*
X115723432Y-81254706D01*
X115814157Y-81144157D01*
X115924706Y-81053432D01*
X116050825Y-80986020D01*
X116050828Y-80986019D01*
X116187679Y-80944505D01*
X116258787Y-80937502D01*
X116294340Y-80934000D01*
X116365660Y-80934000D01*
X116401213Y-80937502D01*
X116401213Y-80937502D01*
G37*
G36*
X148521823Y-79806313D02*
G01*
X148682242Y-79854976D01*
X148788505Y-79911775D01*
X148830078Y-79933996D01*
X148959659Y-80040341D01*
X149066004Y-80169922D01*
X149066005Y-80169924D01*
X149145024Y-80317758D01*
X149193687Y-80478177D01*
X149210117Y-80645000D01*
X149193687Y-80811823D01*
X149193686Y-80811825D01*
X149146170Y-80968466D01*
X149145024Y-80972242D01*
X149115735Y-81027037D01*
X149066004Y-81120078D01*
X148959659Y-81249659D01*
X148830078Y-81356004D01*
X148830076Y-81356005D01*
X148682242Y-81435024D01*
X148521823Y-81483687D01*
X148396804Y-81496000D01*
X147513196Y-81496000D01*
X147388177Y-81483687D01*
X147227758Y-81435024D01*
X147079924Y-81356005D01*
X147079922Y-81356004D01*
X146950341Y-81249659D01*
X146843996Y-81120078D01*
X146794265Y-81027037D01*
X146764976Y-80972242D01*
X146763831Y-80968466D01*
X146716314Y-80811825D01*
X146716313Y-80811823D01*
X146699883Y-80645000D01*
X146716313Y-80478177D01*
X146764976Y-80317758D01*
X146843995Y-80169924D01*
X146843996Y-80169922D01*
X146950341Y-80040341D01*
X147079922Y-79933996D01*
X147121495Y-79911775D01*
X147227758Y-79854976D01*
X147388177Y-79806313D01*
X147513196Y-79794000D01*
X148396804Y-79794000D01*
X148521823Y-79806313D01*
X148521823Y-79806313D01*
G37*
G36*
X140901823Y-79806313D02*
G01*
X141062242Y-79854976D01*
X141168505Y-79911775D01*
X141210078Y-79933996D01*
X141339659Y-80040341D01*
X141446004Y-80169922D01*
X141446005Y-80169924D01*
X141525024Y-80317758D01*
X141573687Y-80478177D01*
X141590117Y-80645000D01*
X141573687Y-80811823D01*
X141573686Y-80811825D01*
X141526170Y-80968466D01*
X141525024Y-80972242D01*
X141495735Y-81027037D01*
X141446004Y-81120078D01*
X141339659Y-81249659D01*
X141210078Y-81356004D01*
X141210076Y-81356005D01*
X141062242Y-81435024D01*
X140901823Y-81483687D01*
X140776804Y-81496000D01*
X139893196Y-81496000D01*
X139768177Y-81483687D01*
X139607758Y-81435024D01*
X139459924Y-81356005D01*
X139459922Y-81356004D01*
X139330341Y-81249659D01*
X139223996Y-81120078D01*
X139174265Y-81027037D01*
X139144976Y-80972242D01*
X139143831Y-80968466D01*
X139096314Y-80811825D01*
X139096313Y-80811823D01*
X139079883Y-80645000D01*
X139096313Y-80478177D01*
X139144976Y-80317758D01*
X139223995Y-80169924D01*
X139223996Y-80169922D01*
X139330341Y-80040341D01*
X139459922Y-79933996D01*
X139501495Y-79911775D01*
X139607758Y-79854976D01*
X139768177Y-79806313D01*
X139893196Y-79794000D01*
X140776804Y-79794000D01*
X140901823Y-79806313D01*
X140901823Y-79806313D01*
G37*
G36*
X131849395Y-79603546D02*
G01*
X132022466Y-79675234D01*
X132022467Y-79675235D01*
X132178227Y-79779310D01*
X132310690Y-79911773D01*
X132310691Y-79911775D01*
X132414766Y-80067534D01*
X132486454Y-80240605D01*
X132523000Y-80424333D01*
X132523000Y-80611667D01*
X132486454Y-80795395D01*
X132414766Y-80968466D01*
X132414765Y-80968467D01*
X132310690Y-81124227D01*
X132178227Y-81256690D01*
X132151102Y-81274814D01*
X132022466Y-81360766D01*
X131849395Y-81432454D01*
X131665667Y-81469000D01*
X131478333Y-81469000D01*
X131294605Y-81432454D01*
X131121534Y-81360766D01*
X130992898Y-81274814D01*
X130965773Y-81256690D01*
X130833310Y-81124227D01*
X130729235Y-80968467D01*
X130729234Y-80968466D01*
X130657546Y-80795395D01*
X130621000Y-80611667D01*
X130621000Y-80424333D01*
X130657546Y-80240605D01*
X130729234Y-80067534D01*
X130833309Y-79911775D01*
X130833310Y-79911773D01*
X130965773Y-79779310D01*
X131121533Y-79675235D01*
X131121534Y-79675234D01*
X131294605Y-79603546D01*
X131478333Y-79567000D01*
X131665667Y-79567000D01*
X131849395Y-79603546D01*
X131849395Y-79603546D01*
G37*
G36*
X129983000Y-81469000D02*
G01*
X128081000Y-81469000D01*
X128081000Y-79567000D01*
X129983000Y-79567000D01*
X129983000Y-81469000D01*
X129983000Y-81469000D01*
G37*
G36*
X116401213Y-78937502D02*
G01*
X116472321Y-78944505D01*
X116609172Y-78986019D01*
X116609175Y-78986020D01*
X116735294Y-79053432D01*
X116845843Y-79144157D01*
X116936568Y-79254706D01*
X117003980Y-79380825D01*
X117003981Y-79380828D01*
X117045495Y-79517679D01*
X117059512Y-79660000D01*
X117045495Y-79802321D01*
X117012292Y-79911775D01*
X117003980Y-79939175D01*
X116936568Y-80065294D01*
X116845843Y-80175843D01*
X116735294Y-80266568D01*
X116609175Y-80333980D01*
X116609172Y-80333981D01*
X116472321Y-80375495D01*
X116401213Y-80382498D01*
X116365660Y-80386000D01*
X116294340Y-80386000D01*
X116258787Y-80382498D01*
X116187679Y-80375495D01*
X116050828Y-80333981D01*
X116050825Y-80333980D01*
X115924706Y-80266568D01*
X115814157Y-80175843D01*
X115723432Y-80065294D01*
X115656020Y-79939175D01*
X115647708Y-79911775D01*
X115614505Y-79802321D01*
X115600488Y-79660000D01*
X115614505Y-79517679D01*
X115656019Y-79380828D01*
X115656020Y-79380825D01*
X115723432Y-79254706D01*
X115814157Y-79144157D01*
X115924706Y-79053432D01*
X116050825Y-78986020D01*
X116050828Y-78986019D01*
X116187679Y-78944505D01*
X116258787Y-78937502D01*
X116294340Y-78934000D01*
X116365660Y-78934000D01*
X116401213Y-78937502D01*
X116401213Y-78937502D01*
G37*
G36*
X122030442Y-78480518D02*
G01*
X122096627Y-78487037D01*
X122266466Y-78538557D01*
X122422991Y-78622222D01*
X122458729Y-78651552D01*
X122560186Y-78734814D01*
X122643448Y-78836271D01*
X122672778Y-78872009D01*
X122756443Y-79028534D01*
X122807963Y-79198373D01*
X122825359Y-79375000D01*
X122807963Y-79551627D01*
X122792213Y-79603547D01*
X122756442Y-79721468D01*
X122717672Y-79794000D01*
X122672778Y-79877991D01*
X122645054Y-79911773D01*
X122560186Y-80015186D01*
X122458729Y-80098448D01*
X122422991Y-80127778D01*
X122266466Y-80211443D01*
X122096627Y-80262963D01*
X122030442Y-80269482D01*
X121964260Y-80276000D01*
X121875740Y-80276000D01*
X121809558Y-80269482D01*
X121743373Y-80262963D01*
X121573534Y-80211443D01*
X121417009Y-80127778D01*
X121381271Y-80098448D01*
X121279814Y-80015186D01*
X121194946Y-79911773D01*
X121167222Y-79877991D01*
X121122328Y-79794000D01*
X121083558Y-79721468D01*
X121047787Y-79603547D01*
X121032037Y-79551627D01*
X121014641Y-79375000D01*
X121032037Y-79198373D01*
X121083557Y-79028534D01*
X121167222Y-78872009D01*
X121196552Y-78836271D01*
X121279814Y-78734814D01*
X121381271Y-78651552D01*
X121417009Y-78622222D01*
X121573534Y-78538557D01*
X121743373Y-78487037D01*
X121809558Y-78480518D01*
X121875740Y-78474000D01*
X121964260Y-78474000D01*
X122030442Y-78480518D01*
X122030442Y-78480518D01*
G37*
G36*
X148521823Y-77266313D02*
G01*
X148682242Y-77314976D01*
X148805437Y-77380825D01*
X148830078Y-77393996D01*
X148959659Y-77500341D01*
X149066004Y-77629922D01*
X149066005Y-77629924D01*
X149145024Y-77777758D01*
X149193687Y-77938177D01*
X149210117Y-78105000D01*
X149193687Y-78271823D01*
X149145024Y-78432242D01*
X149115735Y-78487037D01*
X149066004Y-78580078D01*
X148959659Y-78709659D01*
X148830078Y-78816004D01*
X148830076Y-78816005D01*
X148682242Y-78895024D01*
X148521823Y-78943687D01*
X148396804Y-78956000D01*
X147513196Y-78956000D01*
X147388177Y-78943687D01*
X147227758Y-78895024D01*
X147079924Y-78816005D01*
X147079922Y-78816004D01*
X146950341Y-78709659D01*
X146843996Y-78580078D01*
X146794265Y-78487037D01*
X146764976Y-78432242D01*
X146716313Y-78271823D01*
X146699883Y-78105000D01*
X146716313Y-77938177D01*
X146764976Y-77777758D01*
X146843995Y-77629924D01*
X146843996Y-77629922D01*
X146950341Y-77500341D01*
X147079922Y-77393996D01*
X147104563Y-77380825D01*
X147227758Y-77314976D01*
X147388177Y-77266313D01*
X147513196Y-77254000D01*
X148396804Y-77254000D01*
X148521823Y-77266313D01*
X148521823Y-77266313D01*
G37*
G36*
X140901823Y-77266313D02*
G01*
X141062242Y-77314976D01*
X141185437Y-77380825D01*
X141210078Y-77393996D01*
X141339659Y-77500341D01*
X141446004Y-77629922D01*
X141446005Y-77629924D01*
X141525024Y-77777758D01*
X141573687Y-77938177D01*
X141590117Y-78105000D01*
X141573687Y-78271823D01*
X141525024Y-78432242D01*
X141495735Y-78487037D01*
X141446004Y-78580078D01*
X141339659Y-78709659D01*
X141210078Y-78816004D01*
X141210076Y-78816005D01*
X141062242Y-78895024D01*
X140901823Y-78943687D01*
X140776804Y-78956000D01*
X139893196Y-78956000D01*
X139768177Y-78943687D01*
X139607758Y-78895024D01*
X139459924Y-78816005D01*
X139459922Y-78816004D01*
X139330341Y-78709659D01*
X139223996Y-78580078D01*
X139174265Y-78487037D01*
X139144976Y-78432242D01*
X139096313Y-78271823D01*
X139079883Y-78105000D01*
X139096313Y-77938177D01*
X139144976Y-77777758D01*
X139223995Y-77629924D01*
X139223996Y-77629922D01*
X139330341Y-77500341D01*
X139459922Y-77393996D01*
X139484563Y-77380825D01*
X139607758Y-77314976D01*
X139768177Y-77266313D01*
X139893196Y-77254000D01*
X140776804Y-77254000D01*
X140901823Y-77266313D01*
X140901823Y-77266313D01*
G37*
G36*
X116401213Y-76937502D02*
G01*
X116472321Y-76944505D01*
X116599480Y-76983079D01*
X116609175Y-76986020D01*
X116735294Y-77053432D01*
X116845843Y-77144157D01*
X116936568Y-77254706D01*
X117003980Y-77380825D01*
X117003981Y-77380828D01*
X117045495Y-77517679D01*
X117059512Y-77660000D01*
X117045495Y-77802321D01*
X117004283Y-77938175D01*
X117003980Y-77939175D01*
X116936568Y-78065294D01*
X116845843Y-78175843D01*
X116735294Y-78266568D01*
X116609175Y-78333980D01*
X116609172Y-78333981D01*
X116472321Y-78375495D01*
X116401213Y-78382498D01*
X116365660Y-78386000D01*
X116294340Y-78386000D01*
X116258787Y-78382498D01*
X116187679Y-78375495D01*
X116050828Y-78333981D01*
X116050825Y-78333980D01*
X115924706Y-78266568D01*
X115814157Y-78175843D01*
X115723432Y-78065294D01*
X115656020Y-77939175D01*
X115655717Y-77938175D01*
X115614505Y-77802321D01*
X115600488Y-77660000D01*
X115614505Y-77517679D01*
X115656019Y-77380828D01*
X115656020Y-77380825D01*
X115723432Y-77254706D01*
X115814157Y-77144157D01*
X115924706Y-77053432D01*
X116050825Y-76986020D01*
X116060520Y-76983079D01*
X116187679Y-76944505D01*
X116258787Y-76937502D01*
X116294340Y-76934000D01*
X116365660Y-76934000D01*
X116401213Y-76937502D01*
X116401213Y-76937502D01*
G37*
G36*
X122030442Y-75940518D02*
G01*
X122096627Y-75947037D01*
X122266466Y-75998557D01*
X122422991Y-76082222D01*
X122458729Y-76111552D01*
X122560186Y-76194814D01*
X122643448Y-76296271D01*
X122672778Y-76332009D01*
X122673832Y-76333981D01*
X122725525Y-76430690D01*
X122756443Y-76488534D01*
X122807963Y-76658373D01*
X122825359Y-76835000D01*
X122807963Y-77011627D01*
X122756443Y-77181466D01*
X122672778Y-77337991D01*
X122643448Y-77373729D01*
X122560186Y-77475186D01*
X122458729Y-77558448D01*
X122422991Y-77587778D01*
X122266466Y-77671443D01*
X122096627Y-77722963D01*
X122030443Y-77729481D01*
X121964260Y-77736000D01*
X121875740Y-77736000D01*
X121809557Y-77729481D01*
X121743373Y-77722963D01*
X121573534Y-77671443D01*
X121417009Y-77587778D01*
X121381271Y-77558448D01*
X121279814Y-77475186D01*
X121196552Y-77373729D01*
X121167222Y-77337991D01*
X121083557Y-77181466D01*
X121032037Y-77011627D01*
X121014641Y-76835000D01*
X121032037Y-76658373D01*
X121083557Y-76488534D01*
X121114476Y-76430690D01*
X121166168Y-76333981D01*
X121167222Y-76332009D01*
X121196552Y-76296271D01*
X121279814Y-76194814D01*
X121381271Y-76111552D01*
X121417009Y-76082222D01*
X121573534Y-75998557D01*
X121743373Y-75947037D01*
X121809558Y-75940518D01*
X121875740Y-75934000D01*
X121964260Y-75934000D01*
X122030442Y-75940518D01*
X122030442Y-75940518D01*
G37*
G36*
X194725185Y-74087402D02*
G01*
X194875010Y-74117204D01*
X195157274Y-74234121D01*
X195411305Y-74403859D01*
X195627341Y-74619895D01*
X195797079Y-74873926D01*
X195913996Y-75156190D01*
X195913996Y-75156191D01*
X195973600Y-75455839D01*
X195973600Y-75761361D01*
X195947567Y-75892239D01*
X195913996Y-76061010D01*
X195797079Y-76343274D01*
X195627341Y-76597305D01*
X195411305Y-76813341D01*
X195157274Y-76983079D01*
X194875010Y-77099996D01*
X194725185Y-77129798D01*
X194575361Y-77159600D01*
X194269839Y-77159600D01*
X194120015Y-77129798D01*
X193970190Y-77099996D01*
X193687926Y-76983079D01*
X193433895Y-76813341D01*
X193217859Y-76597305D01*
X193048121Y-76343274D01*
X192931204Y-76061010D01*
X192897633Y-75892239D01*
X192871600Y-75761361D01*
X192871600Y-75455839D01*
X192931204Y-75156191D01*
X192931204Y-75156190D01*
X193048121Y-74873926D01*
X193217859Y-74619895D01*
X193433895Y-74403859D01*
X193687926Y-74234121D01*
X193970190Y-74117204D01*
X194120015Y-74087402D01*
X194269839Y-74057600D01*
X194575361Y-74057600D01*
X194725185Y-74087402D01*
X194725185Y-74087402D01*
G37*
G36*
X131849395Y-74777546D02*
G01*
X132022466Y-74849234D01*
X132059420Y-74873926D01*
X132178227Y-74953310D01*
X132310690Y-75085773D01*
X132349701Y-75144157D01*
X132414766Y-75241534D01*
X132486454Y-75414605D01*
X132523000Y-75598333D01*
X132523000Y-75785667D01*
X132486454Y-75969395D01*
X132414766Y-76142466D01*
X132414765Y-76142467D01*
X132310690Y-76298227D01*
X132178227Y-76430690D01*
X132099818Y-76483081D01*
X132022466Y-76534766D01*
X131849395Y-76606454D01*
X131665667Y-76643000D01*
X131478333Y-76643000D01*
X131294605Y-76606454D01*
X131121534Y-76534766D01*
X131044182Y-76483081D01*
X130965773Y-76430690D01*
X130833310Y-76298227D01*
X130729235Y-76142467D01*
X130729234Y-76142466D01*
X130657546Y-75969395D01*
X130621000Y-75785667D01*
X130621000Y-75598333D01*
X130657546Y-75414605D01*
X130729234Y-75241534D01*
X130794299Y-75144157D01*
X130833310Y-75085773D01*
X130965773Y-74953310D01*
X131084580Y-74873926D01*
X131121534Y-74849234D01*
X131294605Y-74777546D01*
X131478333Y-74741000D01*
X131665667Y-74741000D01*
X131849395Y-74777546D01*
X131849395Y-74777546D01*
G37*
G36*
X129983000Y-76643000D02*
G01*
X128081000Y-76643000D01*
X128081000Y-74741000D01*
X129983000Y-74741000D01*
X129983000Y-76643000D01*
X129983000Y-76643000D01*
G37*
G36*
X148521823Y-74726313D02*
G01*
X148682242Y-74774976D01*
X148814906Y-74845886D01*
X148830078Y-74853996D01*
X148959659Y-74960341D01*
X149066004Y-75089922D01*
X149066005Y-75089924D01*
X149145024Y-75237758D01*
X149145025Y-75237761D01*
X149150165Y-75254705D01*
X149193687Y-75398177D01*
X149210117Y-75565000D01*
X149193687Y-75731823D01*
X149145024Y-75892242D01*
X149115735Y-75947037D01*
X149066004Y-76040078D01*
X148959659Y-76169659D01*
X148830078Y-76276004D01*
X148830076Y-76276005D01*
X148682242Y-76355024D01*
X148521823Y-76403687D01*
X148396804Y-76416000D01*
X147513196Y-76416000D01*
X147388177Y-76403687D01*
X147227758Y-76355024D01*
X147079924Y-76276005D01*
X147079922Y-76276004D01*
X146950341Y-76169659D01*
X146843996Y-76040078D01*
X146794265Y-75947037D01*
X146764976Y-75892242D01*
X146716313Y-75731823D01*
X146699883Y-75565000D01*
X146716313Y-75398177D01*
X146759835Y-75254705D01*
X146764975Y-75237761D01*
X146764976Y-75237758D01*
X146843995Y-75089924D01*
X146843996Y-75089922D01*
X146950341Y-74960341D01*
X147079922Y-74853996D01*
X147095094Y-74845886D01*
X147227758Y-74774976D01*
X147388177Y-74726313D01*
X147513196Y-74714000D01*
X148396804Y-74714000D01*
X148521823Y-74726313D01*
X148521823Y-74726313D01*
G37*
G36*
X140901823Y-74726313D02*
G01*
X141062242Y-74774976D01*
X141194906Y-74845886D01*
X141210078Y-74853996D01*
X141339659Y-74960341D01*
X141446004Y-75089922D01*
X141446005Y-75089924D01*
X141525024Y-75237758D01*
X141525025Y-75237761D01*
X141530165Y-75254705D01*
X141573687Y-75398177D01*
X141590117Y-75565000D01*
X141573687Y-75731823D01*
X141525024Y-75892242D01*
X141495735Y-75947037D01*
X141446004Y-76040078D01*
X141339659Y-76169659D01*
X141210078Y-76276004D01*
X141210076Y-76276005D01*
X141062242Y-76355024D01*
X140901823Y-76403687D01*
X140776804Y-76416000D01*
X139893196Y-76416000D01*
X139768177Y-76403687D01*
X139607758Y-76355024D01*
X139459924Y-76276005D01*
X139459922Y-76276004D01*
X139330341Y-76169659D01*
X139223996Y-76040078D01*
X139174265Y-75947037D01*
X139144976Y-75892242D01*
X139096313Y-75731823D01*
X139079883Y-75565000D01*
X139096313Y-75398177D01*
X139139835Y-75254705D01*
X139144975Y-75237761D01*
X139144976Y-75237758D01*
X139223995Y-75089924D01*
X139223996Y-75089922D01*
X139330341Y-74960341D01*
X139459922Y-74853996D01*
X139475094Y-74845886D01*
X139607758Y-74774976D01*
X139768177Y-74726313D01*
X139893196Y-74714000D01*
X140776804Y-74714000D01*
X140901823Y-74726313D01*
X140901823Y-74726313D01*
G37*
G36*
X116401213Y-74937502D02*
G01*
X116472321Y-74944505D01*
X116609172Y-74986019D01*
X116609175Y-74986020D01*
X116735294Y-75053432D01*
X116845843Y-75144157D01*
X116936568Y-75254706D01*
X117003980Y-75380825D01*
X117003981Y-75380828D01*
X117045495Y-75517679D01*
X117059512Y-75660000D01*
X117045495Y-75802321D01*
X117018218Y-75892239D01*
X117003980Y-75939175D01*
X116936568Y-76065294D01*
X116845843Y-76175843D01*
X116735294Y-76266568D01*
X116609175Y-76333980D01*
X116609172Y-76333981D01*
X116472321Y-76375495D01*
X116401213Y-76382498D01*
X116365660Y-76386000D01*
X116294340Y-76386000D01*
X116258787Y-76382498D01*
X116187679Y-76375495D01*
X116050828Y-76333981D01*
X116050825Y-76333980D01*
X115924706Y-76266568D01*
X115814157Y-76175843D01*
X115723432Y-76065294D01*
X115656020Y-75939175D01*
X115641782Y-75892239D01*
X115614505Y-75802321D01*
X115600488Y-75660000D01*
X115614505Y-75517679D01*
X115656019Y-75380828D01*
X115656020Y-75380825D01*
X115723432Y-75254706D01*
X115814157Y-75144157D01*
X115924706Y-75053432D01*
X116050825Y-74986020D01*
X116050828Y-74986019D01*
X116187679Y-74944505D01*
X116258787Y-74937502D01*
X116294340Y-74934000D01*
X116365660Y-74934000D01*
X116401213Y-74937502D01*
X116401213Y-74937502D01*
G37*
G36*
X122030443Y-73400519D02*
G01*
X122096627Y-73407037D01*
X122266466Y-73458557D01*
X122422991Y-73542222D01*
X122458729Y-73571552D01*
X122560186Y-73654814D01*
X122643448Y-73756271D01*
X122672778Y-73792009D01*
X122672779Y-73792011D01*
X122751441Y-73939175D01*
X122756443Y-73948534D01*
X122807963Y-74118373D01*
X122825359Y-74295000D01*
X122807963Y-74471627D01*
X122756443Y-74641466D01*
X122672778Y-74797991D01*
X122643448Y-74833729D01*
X122560186Y-74935186D01*
X122458729Y-75018448D01*
X122422991Y-75047778D01*
X122266466Y-75131443D01*
X122096627Y-75182963D01*
X122030442Y-75189482D01*
X121964260Y-75196000D01*
X121875740Y-75196000D01*
X121809558Y-75189482D01*
X121743373Y-75182963D01*
X121573534Y-75131443D01*
X121417009Y-75047778D01*
X121381271Y-75018448D01*
X121279814Y-74935186D01*
X121196552Y-74833729D01*
X121167222Y-74797991D01*
X121083557Y-74641466D01*
X121032037Y-74471627D01*
X121014641Y-74295000D01*
X121032037Y-74118373D01*
X121083557Y-73948534D01*
X121088560Y-73939175D01*
X121167221Y-73792011D01*
X121167222Y-73792009D01*
X121196552Y-73756271D01*
X121279814Y-73654814D01*
X121381271Y-73571552D01*
X121417009Y-73542222D01*
X121573534Y-73458557D01*
X121743373Y-73407037D01*
X121809557Y-73400519D01*
X121875740Y-73394000D01*
X121964260Y-73394000D01*
X122030443Y-73400519D01*
X122030443Y-73400519D01*
G37*
G36*
X116401213Y-72937502D02*
G01*
X116472321Y-72944505D01*
X116609172Y-72986019D01*
X116609175Y-72986020D01*
X116735294Y-73053432D01*
X116845843Y-73144157D01*
X116936568Y-73254706D01*
X117003980Y-73380825D01*
X117003981Y-73380828D01*
X117045495Y-73517679D01*
X117059512Y-73660000D01*
X117045495Y-73802321D01*
X117023144Y-73876000D01*
X117003980Y-73939175D01*
X116936568Y-74065294D01*
X116845843Y-74175843D01*
X116735294Y-74266568D01*
X116609175Y-74333980D01*
X116609172Y-74333981D01*
X116472321Y-74375495D01*
X116401213Y-74382498D01*
X116365660Y-74386000D01*
X116294340Y-74386000D01*
X116258787Y-74382498D01*
X116187679Y-74375495D01*
X116050828Y-74333981D01*
X116050825Y-74333980D01*
X115924706Y-74266568D01*
X115814157Y-74175843D01*
X115723432Y-74065294D01*
X115656020Y-73939175D01*
X115636856Y-73876000D01*
X115614505Y-73802321D01*
X115600488Y-73660000D01*
X115614505Y-73517679D01*
X115656019Y-73380828D01*
X115656020Y-73380825D01*
X115723432Y-73254706D01*
X115814157Y-73144157D01*
X115924706Y-73053432D01*
X116050825Y-72986020D01*
X116050828Y-72986019D01*
X116187679Y-72944505D01*
X116258787Y-72937502D01*
X116294340Y-72934000D01*
X116365660Y-72934000D01*
X116401213Y-72937502D01*
X116401213Y-72937502D01*
G37*
G36*
X148521823Y-72186313D02*
G01*
X148682242Y-72234976D01*
X148741346Y-72266568D01*
X148830078Y-72313996D01*
X148959659Y-72420341D01*
X149066004Y-72549922D01*
X149066005Y-72549924D01*
X149145024Y-72697758D01*
X149193687Y-72858177D01*
X149210117Y-73025000D01*
X149193687Y-73191823D01*
X149145024Y-73352242D01*
X149115735Y-73407037D01*
X149066004Y-73500078D01*
X148959659Y-73629659D01*
X148830078Y-73736004D01*
X148830076Y-73736005D01*
X148682242Y-73815024D01*
X148521823Y-73863687D01*
X148396804Y-73876000D01*
X147513196Y-73876000D01*
X147388177Y-73863687D01*
X147227758Y-73815024D01*
X147079924Y-73736005D01*
X147079922Y-73736004D01*
X146950341Y-73629659D01*
X146843996Y-73500078D01*
X146794265Y-73407037D01*
X146764976Y-73352242D01*
X146716313Y-73191823D01*
X146699883Y-73025000D01*
X146716313Y-72858177D01*
X146764976Y-72697758D01*
X146843995Y-72549924D01*
X146843996Y-72549922D01*
X146950341Y-72420341D01*
X147079922Y-72313996D01*
X147168654Y-72266568D01*
X147227758Y-72234976D01*
X147388177Y-72186313D01*
X147513196Y-72174000D01*
X148396804Y-72174000D01*
X148521823Y-72186313D01*
X148521823Y-72186313D01*
G37*
G36*
X141586000Y-73876000D02*
G01*
X139084000Y-73876000D01*
X139084000Y-72174000D01*
X141586000Y-72174000D01*
X141586000Y-73876000D01*
X141586000Y-73876000D01*
G37*
G36*
X122030442Y-70860518D02*
G01*
X122096627Y-70867037D01*
X122266466Y-70918557D01*
X122422991Y-71002222D01*
X122458729Y-71031552D01*
X122560186Y-71114814D01*
X122631607Y-71201842D01*
X122672778Y-71252009D01*
X122756443Y-71408534D01*
X122807963Y-71578373D01*
X122825359Y-71755000D01*
X122807963Y-71931627D01*
X122756443Y-72101466D01*
X122672778Y-72257991D01*
X122665739Y-72266568D01*
X122560186Y-72395186D01*
X122458729Y-72478448D01*
X122422991Y-72507778D01*
X122266466Y-72591443D01*
X122096627Y-72642963D01*
X122030443Y-72649481D01*
X121964260Y-72656000D01*
X121875740Y-72656000D01*
X121809557Y-72649481D01*
X121743373Y-72642963D01*
X121573534Y-72591443D01*
X121417009Y-72507778D01*
X121381271Y-72478448D01*
X121279814Y-72395186D01*
X121174261Y-72266568D01*
X121167222Y-72257991D01*
X121083557Y-72101466D01*
X121032037Y-71931627D01*
X121014641Y-71755000D01*
X121032037Y-71578373D01*
X121083557Y-71408534D01*
X121167222Y-71252009D01*
X121208393Y-71201842D01*
X121279814Y-71114814D01*
X121381271Y-71031552D01*
X121417009Y-71002222D01*
X121573534Y-70918557D01*
X121743373Y-70867037D01*
X121809558Y-70860518D01*
X121875740Y-70854000D01*
X121964260Y-70854000D01*
X122030442Y-70860518D01*
X122030442Y-70860518D01*
G37*
G36*
X116401213Y-70937502D02*
G01*
X116472321Y-70944505D01*
X116609172Y-70986019D01*
X116609175Y-70986020D01*
X116735294Y-71053432D01*
X116845843Y-71144157D01*
X116936568Y-71254706D01*
X117003980Y-71380825D01*
X117003981Y-71380828D01*
X117045495Y-71517679D01*
X117059512Y-71660000D01*
X117045495Y-71802321D01*
X117021035Y-71882953D01*
X117003980Y-71939175D01*
X116936568Y-72065294D01*
X116845843Y-72175843D01*
X116735294Y-72266568D01*
X116609175Y-72333980D01*
X116609172Y-72333981D01*
X116472321Y-72375495D01*
X116401213Y-72382498D01*
X116365660Y-72386000D01*
X116294340Y-72386000D01*
X116258787Y-72382498D01*
X116187679Y-72375495D01*
X116050828Y-72333981D01*
X116050825Y-72333980D01*
X115924706Y-72266568D01*
X115814157Y-72175843D01*
X115723432Y-72065294D01*
X115656020Y-71939175D01*
X115638965Y-71882953D01*
X115614505Y-71802321D01*
X115600488Y-71660000D01*
X115614505Y-71517679D01*
X115656019Y-71380828D01*
X115656020Y-71380825D01*
X115723432Y-71254706D01*
X115814157Y-71144157D01*
X115924706Y-71053432D01*
X116050825Y-70986020D01*
X116050828Y-70986019D01*
X116187679Y-70944505D01*
X116258787Y-70937502D01*
X116294340Y-70934000D01*
X116365660Y-70934000D01*
X116401213Y-70937502D01*
X116401213Y-70937502D01*
G37*
G36*
X189826112Y-70412527D02*
G01*
X189975412Y-70442224D01*
X190139384Y-70510144D01*
X190286954Y-70608747D01*
X190412453Y-70734246D01*
X190511056Y-70881816D01*
X190578976Y-71045788D01*
X190590005Y-71101238D01*
X190597116Y-71124678D01*
X190608667Y-71146289D01*
X190624213Y-71165231D01*
X190643155Y-71180776D01*
X190664765Y-71192327D01*
X190688214Y-71199440D01*
X190712600Y-71201842D01*
X190736987Y-71199440D01*
X190760435Y-71192327D01*
X190782046Y-71180776D01*
X190800988Y-71165230D01*
X190816533Y-71146288D01*
X190828084Y-71124678D01*
X190835195Y-71101238D01*
X190846224Y-71045788D01*
X190914144Y-70881816D01*
X191012747Y-70734246D01*
X191138246Y-70608747D01*
X191285816Y-70510144D01*
X191449788Y-70442224D01*
X191599088Y-70412527D01*
X191623858Y-70407600D01*
X191801342Y-70407600D01*
X191826112Y-70412527D01*
X191975412Y-70442224D01*
X192139384Y-70510144D01*
X192286954Y-70608747D01*
X192412453Y-70734246D01*
X192511056Y-70881816D01*
X192578976Y-71045788D01*
X192613600Y-71219859D01*
X192613600Y-71397341D01*
X192578976Y-71571412D01*
X192511056Y-71735384D01*
X192412453Y-71882954D01*
X192286954Y-72008453D01*
X192139384Y-72107056D01*
X191975412Y-72174976D01*
X191826112Y-72204673D01*
X191801342Y-72209600D01*
X191623858Y-72209600D01*
X191599088Y-72204673D01*
X191449788Y-72174976D01*
X191285816Y-72107056D01*
X191138246Y-72008453D01*
X191012747Y-71882954D01*
X190914144Y-71735384D01*
X190846224Y-71571412D01*
X190835195Y-71515962D01*
X190828084Y-71492522D01*
X190816533Y-71470911D01*
X190800987Y-71451969D01*
X190782045Y-71436424D01*
X190760435Y-71424873D01*
X190736986Y-71417760D01*
X190712600Y-71415358D01*
X190688213Y-71417760D01*
X190664765Y-71424873D01*
X190643154Y-71436424D01*
X190624212Y-71451970D01*
X190608667Y-71470912D01*
X190597116Y-71492522D01*
X190590005Y-71515962D01*
X190578976Y-71571412D01*
X190511056Y-71735384D01*
X190412453Y-71882954D01*
X190286954Y-72008453D01*
X190139384Y-72107056D01*
X189975412Y-72174976D01*
X189826112Y-72204673D01*
X189801342Y-72209600D01*
X189623858Y-72209600D01*
X189599088Y-72204673D01*
X189449788Y-72174976D01*
X189285816Y-72107056D01*
X189138246Y-72008453D01*
X189012747Y-71882954D01*
X188914144Y-71735384D01*
X188846224Y-71571412D01*
X188811600Y-71397341D01*
X188811600Y-71219859D01*
X188846224Y-71045788D01*
X188914144Y-70881816D01*
X189012747Y-70734246D01*
X189138246Y-70608747D01*
X189285816Y-70510144D01*
X189449788Y-70442224D01*
X189599088Y-70412527D01*
X189623858Y-70407600D01*
X189801342Y-70407600D01*
X189826112Y-70412527D01*
X189826112Y-70412527D01*
G37*
G36*
X190613600Y-68478983D02*
G01*
X190616002Y-68503369D01*
X190623115Y-68526818D01*
X190634666Y-68548429D01*
X190650211Y-68567371D01*
X190669153Y-68582916D01*
X190690764Y-68594467D01*
X190714213Y-68601580D01*
X190738599Y-68603982D01*
X190762985Y-68601580D01*
X190786434Y-68594467D01*
X190808045Y-68582916D01*
X190826987Y-68567371D01*
X190842532Y-68548429D01*
X190854077Y-68526829D01*
X190914144Y-68381816D01*
X191012747Y-68234246D01*
X191138246Y-68108747D01*
X191285816Y-68010144D01*
X191449788Y-67942224D01*
X191599088Y-67912527D01*
X191623858Y-67907600D01*
X191801342Y-67907600D01*
X191826112Y-67912527D01*
X191975412Y-67942224D01*
X192139384Y-68010144D01*
X192286954Y-68108747D01*
X192412453Y-68234246D01*
X192511056Y-68381816D01*
X192578976Y-68545788D01*
X192613600Y-68719859D01*
X192613600Y-68897341D01*
X192578976Y-69071412D01*
X192511056Y-69235384D01*
X192412453Y-69382954D01*
X192286954Y-69508453D01*
X192139384Y-69607056D01*
X191975412Y-69674976D01*
X191826112Y-69704673D01*
X191801342Y-69709600D01*
X191623858Y-69709600D01*
X191599088Y-69704673D01*
X191449788Y-69674976D01*
X191285816Y-69607056D01*
X191138246Y-69508453D01*
X191012747Y-69382954D01*
X190914144Y-69235384D01*
X190854077Y-69090371D01*
X190842532Y-69068771D01*
X190826987Y-69049829D01*
X190808045Y-69034284D01*
X190786434Y-69022733D01*
X190762985Y-69015620D01*
X190738599Y-69013218D01*
X190714213Y-69015620D01*
X190690764Y-69022733D01*
X190669153Y-69034284D01*
X190650211Y-69049829D01*
X190634666Y-69068771D01*
X190623115Y-69090382D01*
X190616002Y-69113831D01*
X190613600Y-69138217D01*
X190613600Y-69709600D01*
X188811600Y-69709600D01*
X188811600Y-67907600D01*
X190613600Y-67907600D01*
X190613600Y-68478983D01*
X190613600Y-68478983D01*
G37*
G36*
X160586823Y-67969913D02*
G01*
X160717380Y-68009517D01*
X160731795Y-68013890D01*
X160747242Y-68018576D01*
X160879906Y-68089486D01*
X160895078Y-68097596D01*
X161024659Y-68203941D01*
X161131004Y-68333522D01*
X161131005Y-68333524D01*
X161210024Y-68481358D01*
X161258687Y-68641777D01*
X161275117Y-68808600D01*
X161258687Y-68975423D01*
X161210024Y-69135842D01*
X161139114Y-69268506D01*
X161131004Y-69283678D01*
X161024659Y-69413259D01*
X160895078Y-69519604D01*
X160895076Y-69519605D01*
X160747242Y-69598624D01*
X160586823Y-69647287D01*
X160461804Y-69659600D01*
X159578196Y-69659600D01*
X159453177Y-69647287D01*
X159292758Y-69598624D01*
X159144924Y-69519605D01*
X159144922Y-69519604D01*
X159015341Y-69413259D01*
X158908996Y-69283678D01*
X158900886Y-69268506D01*
X158829976Y-69135842D01*
X158781313Y-68975423D01*
X158764883Y-68808600D01*
X158781313Y-68641777D01*
X158829976Y-68481358D01*
X158908995Y-68333524D01*
X158908996Y-68333522D01*
X159015341Y-68203941D01*
X159144922Y-68097596D01*
X159160094Y-68089486D01*
X159292758Y-68018576D01*
X159308206Y-68013890D01*
X159322620Y-68009517D01*
X159453177Y-67969913D01*
X159578196Y-67957600D01*
X160461804Y-67957600D01*
X160586823Y-67969913D01*
X160586823Y-67969913D01*
G37*
G36*
X168891000Y-69659600D02*
G01*
X166389000Y-69659600D01*
X166389000Y-67957600D01*
X168891000Y-67957600D01*
X168891000Y-69659600D01*
X168891000Y-69659600D01*
G37*
G36*
X179133600Y-69659600D02*
G01*
X177431600Y-69659600D01*
X177431600Y-67957600D01*
X179133600Y-67957600D01*
X179133600Y-69659600D01*
X179133600Y-69659600D01*
G37*
G36*
X88981766Y-66971899D02*
G01*
X89113888Y-67026626D01*
X89113890Y-67026627D01*
X89232798Y-67106079D01*
X89333921Y-67207202D01*
X89333922Y-67207204D01*
X89413374Y-67326112D01*
X89468101Y-67458234D01*
X89496000Y-67598494D01*
X89496000Y-67741506D01*
X89468101Y-67881766D01*
X89414925Y-68010144D01*
X89413373Y-68013890D01*
X89333921Y-68132798D01*
X89232798Y-68233921D01*
X89113890Y-68313373D01*
X89113889Y-68313374D01*
X89113888Y-68313374D01*
X88981766Y-68368101D01*
X88841506Y-68396000D01*
X88698494Y-68396000D01*
X88558234Y-68368101D01*
X88426112Y-68313374D01*
X88426111Y-68313374D01*
X88426110Y-68313373D01*
X88307202Y-68233921D01*
X88206079Y-68132798D01*
X88126627Y-68013890D01*
X88125075Y-68010144D01*
X88071899Y-67881766D01*
X88044000Y-67741506D01*
X88044000Y-67598494D01*
X88071899Y-67458234D01*
X88126626Y-67326112D01*
X88206078Y-67207204D01*
X88206079Y-67207202D01*
X88307202Y-67106079D01*
X88426110Y-67026627D01*
X88426112Y-67026626D01*
X88558234Y-66971899D01*
X88698494Y-66944000D01*
X88841506Y-66944000D01*
X88981766Y-66971899D01*
X88981766Y-66971899D01*
G37*
G36*
X90841213Y-66947502D02*
G01*
X90912321Y-66954505D01*
X91049172Y-66996019D01*
X91049175Y-66996020D01*
X91175294Y-67063432D01*
X91285843Y-67154157D01*
X91376568Y-67264706D01*
X91443980Y-67390825D01*
X91443981Y-67390828D01*
X91485495Y-67527679D01*
X91499512Y-67670000D01*
X91485495Y-67812321D01*
X91456592Y-67907600D01*
X91443980Y-67949175D01*
X91376568Y-68075294D01*
X91285843Y-68185843D01*
X91175294Y-68276568D01*
X91049175Y-68343980D01*
X91049172Y-68343981D01*
X90912321Y-68385495D01*
X90841213Y-68392498D01*
X90805660Y-68396000D01*
X90734340Y-68396000D01*
X90698787Y-68392498D01*
X90627679Y-68385495D01*
X90490828Y-68343981D01*
X90490825Y-68343980D01*
X90364706Y-68276568D01*
X90254157Y-68185843D01*
X90163432Y-68075294D01*
X90096020Y-67949175D01*
X90083408Y-67907600D01*
X90054505Y-67812321D01*
X90040488Y-67670000D01*
X90054505Y-67527679D01*
X90096019Y-67390828D01*
X90096020Y-67390825D01*
X90163432Y-67264706D01*
X90254157Y-67154157D01*
X90364706Y-67063432D01*
X90490825Y-66996020D01*
X90490828Y-66996019D01*
X90627679Y-66954505D01*
X90698787Y-66947502D01*
X90734340Y-66944000D01*
X90805660Y-66944000D01*
X90841213Y-66947502D01*
X90841213Y-66947502D01*
G37*
G36*
X92841213Y-66947502D02*
G01*
X92912321Y-66954505D01*
X93049172Y-66996019D01*
X93049175Y-66996020D01*
X93175294Y-67063432D01*
X93285843Y-67154157D01*
X93376568Y-67264706D01*
X93443980Y-67390825D01*
X93443981Y-67390828D01*
X93485495Y-67527679D01*
X93499512Y-67670000D01*
X93485495Y-67812321D01*
X93456592Y-67907600D01*
X93443980Y-67949175D01*
X93376568Y-68075294D01*
X93285843Y-68185843D01*
X93175294Y-68276568D01*
X93049175Y-68343980D01*
X93049172Y-68343981D01*
X92912321Y-68385495D01*
X92841213Y-68392498D01*
X92805660Y-68396000D01*
X92734340Y-68396000D01*
X92698787Y-68392498D01*
X92627679Y-68385495D01*
X92490828Y-68343981D01*
X92490825Y-68343980D01*
X92364706Y-68276568D01*
X92254157Y-68185843D01*
X92163432Y-68075294D01*
X92096020Y-67949175D01*
X92083408Y-67907600D01*
X92054505Y-67812321D01*
X92040488Y-67670000D01*
X92054505Y-67527679D01*
X92096019Y-67390828D01*
X92096020Y-67390825D01*
X92163432Y-67264706D01*
X92254157Y-67154157D01*
X92364706Y-67063432D01*
X92490825Y-66996020D01*
X92490828Y-66996019D01*
X92627679Y-66954505D01*
X92698787Y-66947502D01*
X92734340Y-66944000D01*
X92805660Y-66944000D01*
X92841213Y-66947502D01*
X92841213Y-66947502D01*
G37*
G36*
X96841213Y-66947502D02*
G01*
X96912321Y-66954505D01*
X97049172Y-66996019D01*
X97049175Y-66996020D01*
X97175294Y-67063432D01*
X97285843Y-67154157D01*
X97376568Y-67264706D01*
X97443980Y-67390825D01*
X97443981Y-67390828D01*
X97485495Y-67527679D01*
X97499512Y-67670000D01*
X97485495Y-67812321D01*
X97456592Y-67907600D01*
X97443980Y-67949175D01*
X97376568Y-68075294D01*
X97285843Y-68185843D01*
X97175294Y-68276568D01*
X97049175Y-68343980D01*
X97049172Y-68343981D01*
X96912321Y-68385495D01*
X96841213Y-68392498D01*
X96805660Y-68396000D01*
X96734340Y-68396000D01*
X96698787Y-68392498D01*
X96627679Y-68385495D01*
X96490828Y-68343981D01*
X96490825Y-68343980D01*
X96364706Y-68276568D01*
X96254157Y-68185843D01*
X96163432Y-68075294D01*
X96096020Y-67949175D01*
X96083408Y-67907600D01*
X96054505Y-67812321D01*
X96040488Y-67670000D01*
X96054505Y-67527679D01*
X96096019Y-67390828D01*
X96096020Y-67390825D01*
X96163432Y-67264706D01*
X96254157Y-67154157D01*
X96364706Y-67063432D01*
X96490825Y-66996020D01*
X96490828Y-66996019D01*
X96627679Y-66954505D01*
X96698787Y-66947502D01*
X96734340Y-66944000D01*
X96805660Y-66944000D01*
X96841213Y-66947502D01*
X96841213Y-66947502D01*
G37*
G36*
X98841213Y-66947502D02*
G01*
X98912321Y-66954505D01*
X99049172Y-66996019D01*
X99049175Y-66996020D01*
X99175294Y-67063432D01*
X99285843Y-67154157D01*
X99376568Y-67264706D01*
X99443980Y-67390825D01*
X99443981Y-67390828D01*
X99485495Y-67527679D01*
X99499512Y-67670000D01*
X99485495Y-67812321D01*
X99456592Y-67907600D01*
X99443980Y-67949175D01*
X99376568Y-68075294D01*
X99285843Y-68185843D01*
X99175294Y-68276568D01*
X99049175Y-68343980D01*
X99049172Y-68343981D01*
X98912321Y-68385495D01*
X98841213Y-68392498D01*
X98805660Y-68396000D01*
X98734340Y-68396000D01*
X98698787Y-68392498D01*
X98627679Y-68385495D01*
X98490828Y-68343981D01*
X98490825Y-68343980D01*
X98364706Y-68276568D01*
X98254157Y-68185843D01*
X98163432Y-68075294D01*
X98096020Y-67949175D01*
X98083408Y-67907600D01*
X98054505Y-67812321D01*
X98040488Y-67670000D01*
X98054505Y-67527679D01*
X98096019Y-67390828D01*
X98096020Y-67390825D01*
X98163432Y-67264706D01*
X98254157Y-67154157D01*
X98364706Y-67063432D01*
X98490825Y-66996020D01*
X98490828Y-66996019D01*
X98627679Y-66954505D01*
X98698787Y-66947502D01*
X98734340Y-66944000D01*
X98805660Y-66944000D01*
X98841213Y-66947502D01*
X98841213Y-66947502D01*
G37*
G36*
X102841213Y-66947502D02*
G01*
X102912321Y-66954505D01*
X103049172Y-66996019D01*
X103049175Y-66996020D01*
X103175294Y-67063432D01*
X103285843Y-67154157D01*
X103376568Y-67264706D01*
X103443980Y-67390825D01*
X103443981Y-67390828D01*
X103485495Y-67527679D01*
X103499512Y-67670000D01*
X103485495Y-67812321D01*
X103456592Y-67907600D01*
X103443980Y-67949175D01*
X103376568Y-68075294D01*
X103285843Y-68185843D01*
X103175294Y-68276568D01*
X103049175Y-68343980D01*
X103049172Y-68343981D01*
X102912321Y-68385495D01*
X102841213Y-68392498D01*
X102805660Y-68396000D01*
X102734340Y-68396000D01*
X102698787Y-68392498D01*
X102627679Y-68385495D01*
X102490828Y-68343981D01*
X102490825Y-68343980D01*
X102364706Y-68276568D01*
X102254157Y-68185843D01*
X102163432Y-68075294D01*
X102096020Y-67949175D01*
X102083408Y-67907600D01*
X102054505Y-67812321D01*
X102040488Y-67670000D01*
X102054505Y-67527679D01*
X102096019Y-67390828D01*
X102096020Y-67390825D01*
X102163432Y-67264706D01*
X102254157Y-67154157D01*
X102364706Y-67063432D01*
X102490825Y-66996020D01*
X102490828Y-66996019D01*
X102627679Y-66954505D01*
X102698787Y-66947502D01*
X102734340Y-66944000D01*
X102805660Y-66944000D01*
X102841213Y-66947502D01*
X102841213Y-66947502D01*
G37*
G36*
X100841213Y-66947502D02*
G01*
X100912321Y-66954505D01*
X101049172Y-66996019D01*
X101049175Y-66996020D01*
X101175294Y-67063432D01*
X101285843Y-67154157D01*
X101376568Y-67264706D01*
X101443980Y-67390825D01*
X101443981Y-67390828D01*
X101485495Y-67527679D01*
X101499512Y-67670000D01*
X101485495Y-67812321D01*
X101456592Y-67907600D01*
X101443980Y-67949175D01*
X101376568Y-68075294D01*
X101285843Y-68185843D01*
X101175294Y-68276568D01*
X101049175Y-68343980D01*
X101049172Y-68343981D01*
X100912321Y-68385495D01*
X100841213Y-68392498D01*
X100805660Y-68396000D01*
X100734340Y-68396000D01*
X100698787Y-68392498D01*
X100627679Y-68385495D01*
X100490828Y-68343981D01*
X100490825Y-68343980D01*
X100364706Y-68276568D01*
X100254157Y-68185843D01*
X100163432Y-68075294D01*
X100096020Y-67949175D01*
X100083408Y-67907600D01*
X100054505Y-67812321D01*
X100040488Y-67670000D01*
X100054505Y-67527679D01*
X100096019Y-67390828D01*
X100096020Y-67390825D01*
X100163432Y-67264706D01*
X100254157Y-67154157D01*
X100364706Y-67063432D01*
X100490825Y-66996020D01*
X100490828Y-66996019D01*
X100627679Y-66954505D01*
X100698787Y-66947502D01*
X100734340Y-66944000D01*
X100805660Y-66944000D01*
X100841213Y-66947502D01*
X100841213Y-66947502D01*
G37*
G36*
X94841213Y-66947502D02*
G01*
X94912321Y-66954505D01*
X95049172Y-66996019D01*
X95049175Y-66996020D01*
X95175294Y-67063432D01*
X95285843Y-67154157D01*
X95376568Y-67264706D01*
X95443980Y-67390825D01*
X95443981Y-67390828D01*
X95485495Y-67527679D01*
X95499512Y-67670000D01*
X95485495Y-67812321D01*
X95456592Y-67907600D01*
X95443980Y-67949175D01*
X95376568Y-68075294D01*
X95285843Y-68185843D01*
X95175294Y-68276568D01*
X95049175Y-68343980D01*
X95049172Y-68343981D01*
X94912321Y-68385495D01*
X94841213Y-68392498D01*
X94805660Y-68396000D01*
X94734340Y-68396000D01*
X94698787Y-68392498D01*
X94627679Y-68385495D01*
X94490828Y-68343981D01*
X94490825Y-68343980D01*
X94364706Y-68276568D01*
X94254157Y-68185843D01*
X94163432Y-68075294D01*
X94096020Y-67949175D01*
X94083408Y-67907600D01*
X94054505Y-67812321D01*
X94040488Y-67670000D01*
X94054505Y-67527679D01*
X94096019Y-67390828D01*
X94096020Y-67390825D01*
X94163432Y-67264706D01*
X94254157Y-67154157D01*
X94364706Y-67063432D01*
X94490825Y-66996020D01*
X94490828Y-66996019D01*
X94627679Y-66954505D01*
X94698787Y-66947502D01*
X94734340Y-66944000D01*
X94805660Y-66944000D01*
X94841213Y-66947502D01*
X94841213Y-66947502D01*
G37*
G36*
X106841213Y-66947502D02*
G01*
X106912321Y-66954505D01*
X107049172Y-66996019D01*
X107049175Y-66996020D01*
X107175294Y-67063432D01*
X107285843Y-67154157D01*
X107376568Y-67264706D01*
X107443980Y-67390825D01*
X107443981Y-67390828D01*
X107485495Y-67527679D01*
X107499512Y-67670000D01*
X107485495Y-67812321D01*
X107456592Y-67907600D01*
X107443980Y-67949175D01*
X107376568Y-68075294D01*
X107285843Y-68185843D01*
X107175294Y-68276568D01*
X107049175Y-68343980D01*
X107049172Y-68343981D01*
X106912321Y-68385495D01*
X106841213Y-68392498D01*
X106805660Y-68396000D01*
X106734340Y-68396000D01*
X106698787Y-68392498D01*
X106627679Y-68385495D01*
X106490828Y-68343981D01*
X106490825Y-68343980D01*
X106364706Y-68276568D01*
X106254157Y-68185843D01*
X106163432Y-68075294D01*
X106096020Y-67949175D01*
X106083408Y-67907600D01*
X106054505Y-67812321D01*
X106040488Y-67670000D01*
X106054505Y-67527679D01*
X106096019Y-67390828D01*
X106096020Y-67390825D01*
X106163432Y-67264706D01*
X106254157Y-67154157D01*
X106364706Y-67063432D01*
X106490825Y-66996020D01*
X106490828Y-66996019D01*
X106627679Y-66954505D01*
X106698787Y-66947502D01*
X106734340Y-66944000D01*
X106805660Y-66944000D01*
X106841213Y-66947502D01*
X106841213Y-66947502D01*
G37*
G36*
X104841213Y-66947502D02*
G01*
X104912321Y-66954505D01*
X105049172Y-66996019D01*
X105049175Y-66996020D01*
X105175294Y-67063432D01*
X105285843Y-67154157D01*
X105376568Y-67264706D01*
X105443980Y-67390825D01*
X105443981Y-67390828D01*
X105485495Y-67527679D01*
X105499512Y-67670000D01*
X105485495Y-67812321D01*
X105456592Y-67907600D01*
X105443980Y-67949175D01*
X105376568Y-68075294D01*
X105285843Y-68185843D01*
X105175294Y-68276568D01*
X105049175Y-68343980D01*
X105049172Y-68343981D01*
X104912321Y-68385495D01*
X104841213Y-68392498D01*
X104805660Y-68396000D01*
X104734340Y-68396000D01*
X104698787Y-68392498D01*
X104627679Y-68385495D01*
X104490828Y-68343981D01*
X104490825Y-68343980D01*
X104364706Y-68276568D01*
X104254157Y-68185843D01*
X104163432Y-68075294D01*
X104096020Y-67949175D01*
X104083408Y-67907600D01*
X104054505Y-67812321D01*
X104040488Y-67670000D01*
X104054505Y-67527679D01*
X104096019Y-67390828D01*
X104096020Y-67390825D01*
X104163432Y-67264706D01*
X104254157Y-67154157D01*
X104364706Y-67063432D01*
X104490825Y-66996020D01*
X104490828Y-66996019D01*
X104627679Y-66954505D01*
X104698787Y-66947502D01*
X104734340Y-66944000D01*
X104805660Y-66944000D01*
X104841213Y-66947502D01*
X104841213Y-66947502D01*
G37*
G36*
X178530828Y-65490303D02*
G01*
X178685700Y-65554453D01*
X178825081Y-65647585D01*
X178943615Y-65766119D01*
X179036747Y-65905500D01*
X179100897Y-66060372D01*
X179133600Y-66224784D01*
X179133600Y-66392416D01*
X179100897Y-66556828D01*
X179036747Y-66711700D01*
X178943615Y-66851081D01*
X178825081Y-66969615D01*
X178685700Y-67062747D01*
X178530828Y-67126897D01*
X178366416Y-67159600D01*
X178198784Y-67159600D01*
X178034372Y-67126897D01*
X177879500Y-67062747D01*
X177740119Y-66969615D01*
X177621585Y-66851081D01*
X177528453Y-66711700D01*
X177464303Y-66556828D01*
X177431600Y-66392416D01*
X177431600Y-66224784D01*
X177464303Y-66060372D01*
X177528453Y-65905500D01*
X177621585Y-65766119D01*
X177740119Y-65647585D01*
X177879500Y-65554453D01*
X178034372Y-65490303D01*
X178198784Y-65457600D01*
X178366416Y-65457600D01*
X178530828Y-65490303D01*
X178530828Y-65490303D01*
G37*
G36*
X168206823Y-65429913D02*
G01*
X168367242Y-65478576D01*
X168402281Y-65497305D01*
X168515078Y-65557596D01*
X168644659Y-65663941D01*
X168751004Y-65793522D01*
X168751005Y-65793524D01*
X168830024Y-65941358D01*
X168878687Y-66101777D01*
X168895117Y-66268600D01*
X168878687Y-66435423D01*
X168830024Y-66595842D01*
X168759114Y-66728506D01*
X168751004Y-66743678D01*
X168644659Y-66873259D01*
X168515078Y-66979604D01*
X168515076Y-66979605D01*
X168367242Y-67058624D01*
X168367239Y-67058625D01*
X168353647Y-67062748D01*
X168206823Y-67107287D01*
X168081804Y-67119600D01*
X167198196Y-67119600D01*
X167073177Y-67107287D01*
X166926353Y-67062748D01*
X166912761Y-67058625D01*
X166912758Y-67058624D01*
X166764924Y-66979605D01*
X166764922Y-66979604D01*
X166635341Y-66873259D01*
X166528996Y-66743678D01*
X166520886Y-66728506D01*
X166449976Y-66595842D01*
X166401313Y-66435423D01*
X166384883Y-66268600D01*
X166401313Y-66101777D01*
X166449976Y-65941358D01*
X166528995Y-65793524D01*
X166528996Y-65793522D01*
X166635341Y-65663941D01*
X166764922Y-65557596D01*
X166877719Y-65497305D01*
X166912758Y-65478576D01*
X167073177Y-65429913D01*
X167198196Y-65417600D01*
X168081804Y-65417600D01*
X168206823Y-65429913D01*
X168206823Y-65429913D01*
G37*
G36*
X160586823Y-65429913D02*
G01*
X160747242Y-65478576D01*
X160782281Y-65497305D01*
X160895078Y-65557596D01*
X161024659Y-65663941D01*
X161131004Y-65793522D01*
X161131005Y-65793524D01*
X161210024Y-65941358D01*
X161258687Y-66101777D01*
X161275117Y-66268600D01*
X161258687Y-66435423D01*
X161210024Y-66595842D01*
X161139114Y-66728506D01*
X161131004Y-66743678D01*
X161024659Y-66873259D01*
X160895078Y-66979604D01*
X160895076Y-66979605D01*
X160747242Y-67058624D01*
X160747239Y-67058625D01*
X160733647Y-67062748D01*
X160586823Y-67107287D01*
X160461804Y-67119600D01*
X159578196Y-67119600D01*
X159453177Y-67107287D01*
X159306353Y-67062748D01*
X159292761Y-67058625D01*
X159292758Y-67058624D01*
X159144924Y-66979605D01*
X159144922Y-66979604D01*
X159015341Y-66873259D01*
X158908996Y-66743678D01*
X158900886Y-66728506D01*
X158829976Y-66595842D01*
X158781313Y-66435423D01*
X158764883Y-66268600D01*
X158781313Y-66101777D01*
X158829976Y-65941358D01*
X158908995Y-65793524D01*
X158908996Y-65793522D01*
X159015341Y-65663941D01*
X159144922Y-65557596D01*
X159257719Y-65497305D01*
X159292758Y-65478576D01*
X159453177Y-65429913D01*
X159578196Y-65417600D01*
X160461804Y-65417600D01*
X160586823Y-65429913D01*
X160586823Y-65429913D01*
G37*
G36*
X194625322Y-62967538D02*
G01*
X194875010Y-63017204D01*
X195157274Y-63134121D01*
X195411305Y-63303859D01*
X195627341Y-63519895D01*
X195797079Y-63773926D01*
X195913996Y-64056190D01*
X195923949Y-64106227D01*
X195971000Y-64342766D01*
X195973600Y-64355840D01*
X195973600Y-64661360D01*
X195913996Y-64961010D01*
X195797079Y-65243274D01*
X195627341Y-65497305D01*
X195411305Y-65713341D01*
X195157274Y-65883079D01*
X194875010Y-65999996D01*
X194725185Y-66029798D01*
X194575361Y-66059600D01*
X194269839Y-66059600D01*
X194120015Y-66029798D01*
X193970190Y-65999996D01*
X193687926Y-65883079D01*
X193433895Y-65713341D01*
X193217859Y-65497305D01*
X193048121Y-65243274D01*
X192931204Y-64961010D01*
X192871600Y-64661360D01*
X192871600Y-64355840D01*
X192874201Y-64342766D01*
X192921251Y-64106227D01*
X192931204Y-64056190D01*
X193048121Y-63773926D01*
X193217859Y-63519895D01*
X193433895Y-63303859D01*
X193687926Y-63134121D01*
X193970190Y-63017204D01*
X194219878Y-62967538D01*
X194269839Y-62957600D01*
X194575361Y-62957600D01*
X194625322Y-62967538D01*
X194625322Y-62967538D01*
G37*
G36*
X141247395Y-62585546D02*
G01*
X141420466Y-62657234D01*
X141420467Y-62657235D01*
X141576227Y-62761310D01*
X141708690Y-62893773D01*
X141708691Y-62893775D01*
X141812766Y-63049534D01*
X141884454Y-63222605D01*
X141921000Y-63406333D01*
X141921000Y-63593667D01*
X141884454Y-63777395D01*
X141812766Y-63950466D01*
X141812765Y-63950467D01*
X141708690Y-64106227D01*
X141576227Y-64238690D01*
X141497818Y-64291081D01*
X141420466Y-64342766D01*
X141247395Y-64414454D01*
X141063667Y-64451000D01*
X140876333Y-64451000D01*
X140692605Y-64414454D01*
X140519534Y-64342766D01*
X140442182Y-64291081D01*
X140363773Y-64238690D01*
X140231310Y-64106227D01*
X140127235Y-63950467D01*
X140127234Y-63950466D01*
X140055546Y-63777395D01*
X140019000Y-63593667D01*
X140019000Y-63406333D01*
X140055546Y-63222605D01*
X140127234Y-63049534D01*
X140231309Y-62893775D01*
X140231310Y-62893773D01*
X140363773Y-62761310D01*
X140519533Y-62657235D01*
X140519534Y-62657234D01*
X140692605Y-62585546D01*
X140876333Y-62549000D01*
X141063667Y-62549000D01*
X141247395Y-62585546D01*
X141247395Y-62585546D01*
G37*
G36*
X153947395Y-62585546D02*
G01*
X154120466Y-62657234D01*
X154120467Y-62657235D01*
X154276227Y-62761310D01*
X154408690Y-62893773D01*
X154408691Y-62893775D01*
X154512766Y-63049534D01*
X154584454Y-63222605D01*
X154621000Y-63406333D01*
X154621000Y-63593667D01*
X154584454Y-63777395D01*
X154512766Y-63950466D01*
X154512765Y-63950467D01*
X154408690Y-64106227D01*
X154276227Y-64238690D01*
X154197818Y-64291081D01*
X154120466Y-64342766D01*
X153947395Y-64414454D01*
X153763667Y-64451000D01*
X153576333Y-64451000D01*
X153392605Y-64414454D01*
X153219534Y-64342766D01*
X153142182Y-64291081D01*
X153063773Y-64238690D01*
X152931310Y-64106227D01*
X152827235Y-63950467D01*
X152827234Y-63950466D01*
X152755546Y-63777395D01*
X152719000Y-63593667D01*
X152719000Y-63406333D01*
X152755546Y-63222605D01*
X152827234Y-63049534D01*
X152931309Y-62893775D01*
X152931310Y-62893773D01*
X153063773Y-62761310D01*
X153219533Y-62657235D01*
X153219534Y-62657234D01*
X153392605Y-62585546D01*
X153576333Y-62549000D01*
X153763667Y-62549000D01*
X153947395Y-62585546D01*
X153947395Y-62585546D01*
G37*
G36*
X147597395Y-62585546D02*
G01*
X147770466Y-62657234D01*
X147770467Y-62657235D01*
X147926227Y-62761310D01*
X148058690Y-62893773D01*
X148058691Y-62893775D01*
X148162766Y-63049534D01*
X148234454Y-63222605D01*
X148271000Y-63406333D01*
X148271000Y-63593667D01*
X148234454Y-63777395D01*
X148162766Y-63950466D01*
X148162765Y-63950467D01*
X148058690Y-64106227D01*
X147926227Y-64238690D01*
X147847818Y-64291081D01*
X147770466Y-64342766D01*
X147597395Y-64414454D01*
X147413667Y-64451000D01*
X147226333Y-64451000D01*
X147042605Y-64414454D01*
X146869534Y-64342766D01*
X146792182Y-64291081D01*
X146713773Y-64238690D01*
X146581310Y-64106227D01*
X146477235Y-63950467D01*
X146477234Y-63950466D01*
X146405546Y-63777395D01*
X146369000Y-63593667D01*
X146369000Y-63406333D01*
X146405546Y-63222605D01*
X146477234Y-63049534D01*
X146581309Y-62893775D01*
X146581310Y-62893773D01*
X146713773Y-62761310D01*
X146869533Y-62657235D01*
X146869534Y-62657234D01*
X147042605Y-62585546D01*
X147226333Y-62549000D01*
X147413667Y-62549000D01*
X147597395Y-62585546D01*
X147597395Y-62585546D01*
G37*
G36*
X86470443Y-61970519D02*
G01*
X86536627Y-61977037D01*
X86706466Y-62028557D01*
X86862991Y-62112222D01*
X86898729Y-62141552D01*
X87000186Y-62224814D01*
X87083448Y-62326271D01*
X87112778Y-62362009D01*
X87196443Y-62518534D01*
X87247963Y-62688373D01*
X87265359Y-62865000D01*
X87247963Y-63041627D01*
X87196443Y-63211466D01*
X87112778Y-63367991D01*
X87083448Y-63403729D01*
X87000186Y-63505186D01*
X86898729Y-63588448D01*
X86862991Y-63617778D01*
X86706466Y-63701443D01*
X86536627Y-63752963D01*
X86470442Y-63759482D01*
X86404260Y-63766000D01*
X86315740Y-63766000D01*
X86249558Y-63759482D01*
X86183373Y-63752963D01*
X86013534Y-63701443D01*
X85857009Y-63617778D01*
X85821271Y-63588448D01*
X85719814Y-63505186D01*
X85636552Y-63403729D01*
X85607222Y-63367991D01*
X85523557Y-63211466D01*
X85472037Y-63041627D01*
X85454641Y-62865000D01*
X85472037Y-62688373D01*
X85523557Y-62518534D01*
X85607222Y-62362009D01*
X85636552Y-62326271D01*
X85719814Y-62224814D01*
X85821271Y-62141552D01*
X85857009Y-62112222D01*
X86013534Y-62028557D01*
X86183373Y-61977037D01*
X86249557Y-61970519D01*
X86315740Y-61964000D01*
X86404260Y-61964000D01*
X86470443Y-61970519D01*
X86470443Y-61970519D01*
G37*
G36*
X89010443Y-61970519D02*
G01*
X89076627Y-61977037D01*
X89246466Y-62028557D01*
X89402991Y-62112222D01*
X89438729Y-62141552D01*
X89540186Y-62224814D01*
X89623448Y-62326271D01*
X89652778Y-62362009D01*
X89736443Y-62518534D01*
X89787963Y-62688373D01*
X89805359Y-62865000D01*
X89787963Y-63041627D01*
X89736443Y-63211466D01*
X89652778Y-63367991D01*
X89623448Y-63403729D01*
X89540186Y-63505186D01*
X89438729Y-63588448D01*
X89402991Y-63617778D01*
X89246466Y-63701443D01*
X89076627Y-63752963D01*
X89010442Y-63759482D01*
X88944260Y-63766000D01*
X88855740Y-63766000D01*
X88789558Y-63759482D01*
X88723373Y-63752963D01*
X88553534Y-63701443D01*
X88397009Y-63617778D01*
X88361271Y-63588448D01*
X88259814Y-63505186D01*
X88176552Y-63403729D01*
X88147222Y-63367991D01*
X88063557Y-63211466D01*
X88012037Y-63041627D01*
X87994641Y-62865000D01*
X88012037Y-62688373D01*
X88063557Y-62518534D01*
X88147222Y-62362009D01*
X88176552Y-62326271D01*
X88259814Y-62224814D01*
X88361271Y-62141552D01*
X88397009Y-62112222D01*
X88553534Y-62028557D01*
X88723373Y-61977037D01*
X88789557Y-61970519D01*
X88855740Y-61964000D01*
X88944260Y-61964000D01*
X89010443Y-61970519D01*
X89010443Y-61970519D01*
G37*
G36*
X110121000Y-63766000D02*
G01*
X108319000Y-63766000D01*
X108319000Y-61964000D01*
X110121000Y-61964000D01*
X110121000Y-63766000D01*
X110121000Y-63766000D01*
G37*
G36*
X106790443Y-61970519D02*
G01*
X106856627Y-61977037D01*
X107026466Y-62028557D01*
X107182991Y-62112222D01*
X107218729Y-62141552D01*
X107320186Y-62224814D01*
X107403448Y-62326271D01*
X107432778Y-62362009D01*
X107516443Y-62518534D01*
X107567963Y-62688373D01*
X107585359Y-62865000D01*
X107567963Y-63041627D01*
X107516443Y-63211466D01*
X107432778Y-63367991D01*
X107403448Y-63403729D01*
X107320186Y-63505186D01*
X107218729Y-63588448D01*
X107182991Y-63617778D01*
X107026466Y-63701443D01*
X106856627Y-63752963D01*
X106790442Y-63759482D01*
X106724260Y-63766000D01*
X106635740Y-63766000D01*
X106569558Y-63759482D01*
X106503373Y-63752963D01*
X106333534Y-63701443D01*
X106177009Y-63617778D01*
X106141271Y-63588448D01*
X106039814Y-63505186D01*
X105956552Y-63403729D01*
X105927222Y-63367991D01*
X105843557Y-63211466D01*
X105792037Y-63041627D01*
X105774641Y-62865000D01*
X105792037Y-62688373D01*
X105843557Y-62518534D01*
X105927222Y-62362009D01*
X105956552Y-62326271D01*
X106039814Y-62224814D01*
X106141271Y-62141552D01*
X106177009Y-62112222D01*
X106333534Y-62028557D01*
X106503373Y-61977037D01*
X106569557Y-61970519D01*
X106635740Y-61964000D01*
X106724260Y-61964000D01*
X106790443Y-61970519D01*
X106790443Y-61970519D01*
G37*
G36*
X101710443Y-61970519D02*
G01*
X101776627Y-61977037D01*
X101946466Y-62028557D01*
X102102991Y-62112222D01*
X102138729Y-62141552D01*
X102240186Y-62224814D01*
X102323448Y-62326271D01*
X102352778Y-62362009D01*
X102436443Y-62518534D01*
X102487963Y-62688373D01*
X102505359Y-62865000D01*
X102487963Y-63041627D01*
X102436443Y-63211466D01*
X102352778Y-63367991D01*
X102323448Y-63403729D01*
X102240186Y-63505186D01*
X102138729Y-63588448D01*
X102102991Y-63617778D01*
X101946466Y-63701443D01*
X101776627Y-63752963D01*
X101710442Y-63759482D01*
X101644260Y-63766000D01*
X101555740Y-63766000D01*
X101489558Y-63759482D01*
X101423373Y-63752963D01*
X101253534Y-63701443D01*
X101097009Y-63617778D01*
X101061271Y-63588448D01*
X100959814Y-63505186D01*
X100876552Y-63403729D01*
X100847222Y-63367991D01*
X100763557Y-63211466D01*
X100712037Y-63041627D01*
X100694641Y-62865000D01*
X100712037Y-62688373D01*
X100763557Y-62518534D01*
X100847222Y-62362009D01*
X100876552Y-62326271D01*
X100959814Y-62224814D01*
X101061271Y-62141552D01*
X101097009Y-62112222D01*
X101253534Y-62028557D01*
X101423373Y-61977037D01*
X101489557Y-61970519D01*
X101555740Y-61964000D01*
X101644260Y-61964000D01*
X101710443Y-61970519D01*
X101710443Y-61970519D01*
G37*
G36*
X104250443Y-61970519D02*
G01*
X104316627Y-61977037D01*
X104486466Y-62028557D01*
X104642991Y-62112222D01*
X104678729Y-62141552D01*
X104780186Y-62224814D01*
X104863448Y-62326271D01*
X104892778Y-62362009D01*
X104976443Y-62518534D01*
X105027963Y-62688373D01*
X105045359Y-62865000D01*
X105027963Y-63041627D01*
X104976443Y-63211466D01*
X104892778Y-63367991D01*
X104863448Y-63403729D01*
X104780186Y-63505186D01*
X104678729Y-63588448D01*
X104642991Y-63617778D01*
X104486466Y-63701443D01*
X104316627Y-63752963D01*
X104250442Y-63759482D01*
X104184260Y-63766000D01*
X104095740Y-63766000D01*
X104029558Y-63759482D01*
X103963373Y-63752963D01*
X103793534Y-63701443D01*
X103637009Y-63617778D01*
X103601271Y-63588448D01*
X103499814Y-63505186D01*
X103416552Y-63403729D01*
X103387222Y-63367991D01*
X103303557Y-63211466D01*
X103252037Y-63041627D01*
X103234641Y-62865000D01*
X103252037Y-62688373D01*
X103303557Y-62518534D01*
X103387222Y-62362009D01*
X103416552Y-62326271D01*
X103499814Y-62224814D01*
X103601271Y-62141552D01*
X103637009Y-62112222D01*
X103793534Y-62028557D01*
X103963373Y-61977037D01*
X104029557Y-61970519D01*
X104095740Y-61964000D01*
X104184260Y-61964000D01*
X104250443Y-61970519D01*
X104250443Y-61970519D01*
G37*
G36*
X99170443Y-61970519D02*
G01*
X99236627Y-61977037D01*
X99406466Y-62028557D01*
X99562991Y-62112222D01*
X99598729Y-62141552D01*
X99700186Y-62224814D01*
X99783448Y-62326271D01*
X99812778Y-62362009D01*
X99896443Y-62518534D01*
X99947963Y-62688373D01*
X99965359Y-62865000D01*
X99947963Y-63041627D01*
X99896443Y-63211466D01*
X99812778Y-63367991D01*
X99783448Y-63403729D01*
X99700186Y-63505186D01*
X99598729Y-63588448D01*
X99562991Y-63617778D01*
X99406466Y-63701443D01*
X99236627Y-63752963D01*
X99170442Y-63759482D01*
X99104260Y-63766000D01*
X99015740Y-63766000D01*
X98949558Y-63759482D01*
X98883373Y-63752963D01*
X98713534Y-63701443D01*
X98557009Y-63617778D01*
X98521271Y-63588448D01*
X98419814Y-63505186D01*
X98336552Y-63403729D01*
X98307222Y-63367991D01*
X98223557Y-63211466D01*
X98172037Y-63041627D01*
X98154641Y-62865000D01*
X98172037Y-62688373D01*
X98223557Y-62518534D01*
X98307222Y-62362009D01*
X98336552Y-62326271D01*
X98419814Y-62224814D01*
X98521271Y-62141552D01*
X98557009Y-62112222D01*
X98713534Y-62028557D01*
X98883373Y-61977037D01*
X98949557Y-61970519D01*
X99015740Y-61964000D01*
X99104260Y-61964000D01*
X99170443Y-61970519D01*
X99170443Y-61970519D01*
G37*
G36*
X91550443Y-61970519D02*
G01*
X91616627Y-61977037D01*
X91786466Y-62028557D01*
X91942991Y-62112222D01*
X91978729Y-62141552D01*
X92080186Y-62224814D01*
X92163448Y-62326271D01*
X92192778Y-62362009D01*
X92276443Y-62518534D01*
X92327963Y-62688373D01*
X92345359Y-62865000D01*
X92327963Y-63041627D01*
X92276443Y-63211466D01*
X92192778Y-63367991D01*
X92163448Y-63403729D01*
X92080186Y-63505186D01*
X91978729Y-63588448D01*
X91942991Y-63617778D01*
X91786466Y-63701443D01*
X91616627Y-63752963D01*
X91550442Y-63759482D01*
X91484260Y-63766000D01*
X91395740Y-63766000D01*
X91329558Y-63759482D01*
X91263373Y-63752963D01*
X91093534Y-63701443D01*
X90937009Y-63617778D01*
X90901271Y-63588448D01*
X90799814Y-63505186D01*
X90716552Y-63403729D01*
X90687222Y-63367991D01*
X90603557Y-63211466D01*
X90552037Y-63041627D01*
X90534641Y-62865000D01*
X90552037Y-62688373D01*
X90603557Y-62518534D01*
X90687222Y-62362009D01*
X90716552Y-62326271D01*
X90799814Y-62224814D01*
X90901271Y-62141552D01*
X90937009Y-62112222D01*
X91093534Y-62028557D01*
X91263373Y-61977037D01*
X91329557Y-61970519D01*
X91395740Y-61964000D01*
X91484260Y-61964000D01*
X91550443Y-61970519D01*
X91550443Y-61970519D01*
G37*
G36*
X94090443Y-61970519D02*
G01*
X94156627Y-61977037D01*
X94326466Y-62028557D01*
X94482991Y-62112222D01*
X94518729Y-62141552D01*
X94620186Y-62224814D01*
X94703448Y-62326271D01*
X94732778Y-62362009D01*
X94816443Y-62518534D01*
X94867963Y-62688373D01*
X94885359Y-62865000D01*
X94867963Y-63041627D01*
X94816443Y-63211466D01*
X94732778Y-63367991D01*
X94703448Y-63403729D01*
X94620186Y-63505186D01*
X94518729Y-63588448D01*
X94482991Y-63617778D01*
X94326466Y-63701443D01*
X94156627Y-63752963D01*
X94090442Y-63759482D01*
X94024260Y-63766000D01*
X93935740Y-63766000D01*
X93869558Y-63759482D01*
X93803373Y-63752963D01*
X93633534Y-63701443D01*
X93477009Y-63617778D01*
X93441271Y-63588448D01*
X93339814Y-63505186D01*
X93256552Y-63403729D01*
X93227222Y-63367991D01*
X93143557Y-63211466D01*
X93092037Y-63041627D01*
X93074641Y-62865000D01*
X93092037Y-62688373D01*
X93143557Y-62518534D01*
X93227222Y-62362009D01*
X93256552Y-62326271D01*
X93339814Y-62224814D01*
X93441271Y-62141552D01*
X93477009Y-62112222D01*
X93633534Y-62028557D01*
X93803373Y-61977037D01*
X93869557Y-61970519D01*
X93935740Y-61964000D01*
X94024260Y-61964000D01*
X94090443Y-61970519D01*
X94090443Y-61970519D01*
G37*
G36*
X96630443Y-61970519D02*
G01*
X96696627Y-61977037D01*
X96866466Y-62028557D01*
X97022991Y-62112222D01*
X97058729Y-62141552D01*
X97160186Y-62224814D01*
X97243448Y-62326271D01*
X97272778Y-62362009D01*
X97356443Y-62518534D01*
X97407963Y-62688373D01*
X97425359Y-62865000D01*
X97407963Y-63041627D01*
X97356443Y-63211466D01*
X97272778Y-63367991D01*
X97243448Y-63403729D01*
X97160186Y-63505186D01*
X97058729Y-63588448D01*
X97022991Y-63617778D01*
X96866466Y-63701443D01*
X96696627Y-63752963D01*
X96630442Y-63759482D01*
X96564260Y-63766000D01*
X96475740Y-63766000D01*
X96409558Y-63759482D01*
X96343373Y-63752963D01*
X96173534Y-63701443D01*
X96017009Y-63617778D01*
X95981271Y-63588448D01*
X95879814Y-63505186D01*
X95796552Y-63403729D01*
X95767222Y-63367991D01*
X95683557Y-63211466D01*
X95632037Y-63041627D01*
X95614641Y-62865000D01*
X95632037Y-62688373D01*
X95683557Y-62518534D01*
X95767222Y-62362009D01*
X95796552Y-62326271D01*
X95879814Y-62224814D01*
X95981271Y-62141552D01*
X96017009Y-62112222D01*
X96173534Y-62028557D01*
X96343373Y-61977037D01*
X96409557Y-61970519D01*
X96475740Y-61964000D01*
X96564260Y-61964000D01*
X96630443Y-61970519D01*
X96630443Y-61970519D01*
G37*
G36*
X123076923Y-61320279D02*
G01*
X123143107Y-61326797D01*
X123312946Y-61378317D01*
X123469471Y-61461982D01*
X123505209Y-61491312D01*
X123606666Y-61574574D01*
X123689928Y-61676031D01*
X123719258Y-61711769D01*
X123802923Y-61868294D01*
X123854443Y-62038133D01*
X123871839Y-62214760D01*
X123854443Y-62391387D01*
X123802923Y-62561226D01*
X123719258Y-62717751D01*
X123689928Y-62753489D01*
X123606666Y-62854946D01*
X123505209Y-62938208D01*
X123469471Y-62967538D01*
X123469469Y-62967539D01*
X123316069Y-63049534D01*
X123312946Y-63051203D01*
X123143107Y-63102723D01*
X123076923Y-63109241D01*
X123010740Y-63115760D01*
X122922220Y-63115760D01*
X122856037Y-63109241D01*
X122789853Y-63102723D01*
X122620014Y-63051203D01*
X122616892Y-63049534D01*
X122463491Y-62967539D01*
X122463489Y-62967538D01*
X122427751Y-62938208D01*
X122326294Y-62854946D01*
X122243032Y-62753489D01*
X122213702Y-62717751D01*
X122130037Y-62561226D01*
X122078517Y-62391387D01*
X122061121Y-62214760D01*
X122078517Y-62038133D01*
X122130037Y-61868294D01*
X122213702Y-61711769D01*
X122243032Y-61676031D01*
X122326294Y-61574574D01*
X122427751Y-61491312D01*
X122463489Y-61461982D01*
X122620014Y-61378317D01*
X122789853Y-61326797D01*
X122856037Y-61320279D01*
X122922220Y-61313760D01*
X123010740Y-61313760D01*
X123076923Y-61320279D01*
X123076923Y-61320279D01*
G37*
G36*
X117996923Y-61320279D02*
G01*
X118063107Y-61326797D01*
X118232946Y-61378317D01*
X118389471Y-61461982D01*
X118425209Y-61491312D01*
X118526666Y-61574574D01*
X118609928Y-61676031D01*
X118639258Y-61711769D01*
X118722923Y-61868294D01*
X118774443Y-62038133D01*
X118791839Y-62214760D01*
X118774443Y-62391387D01*
X118722923Y-62561226D01*
X118639258Y-62717751D01*
X118609928Y-62753489D01*
X118526666Y-62854946D01*
X118425209Y-62938208D01*
X118389471Y-62967538D01*
X118389469Y-62967539D01*
X118236069Y-63049534D01*
X118232946Y-63051203D01*
X118063107Y-63102723D01*
X117996923Y-63109241D01*
X117930740Y-63115760D01*
X117842220Y-63115760D01*
X117776037Y-63109241D01*
X117709853Y-63102723D01*
X117540014Y-63051203D01*
X117536892Y-63049534D01*
X117383491Y-62967539D01*
X117383489Y-62967538D01*
X117347751Y-62938208D01*
X117246294Y-62854946D01*
X117163032Y-62753489D01*
X117133702Y-62717751D01*
X117050037Y-62561226D01*
X116998517Y-62391387D01*
X116981121Y-62214760D01*
X116998517Y-62038133D01*
X117050037Y-61868294D01*
X117133702Y-61711769D01*
X117163032Y-61676031D01*
X117246294Y-61574574D01*
X117347751Y-61491312D01*
X117383489Y-61461982D01*
X117540014Y-61378317D01*
X117709853Y-61326797D01*
X117776037Y-61320279D01*
X117842220Y-61313760D01*
X117930740Y-61313760D01*
X117996923Y-61320279D01*
X117996923Y-61320279D01*
G37*
G36*
X120536923Y-61320279D02*
G01*
X120603107Y-61326797D01*
X120772946Y-61378317D01*
X120929471Y-61461982D01*
X120965209Y-61491312D01*
X121066666Y-61574574D01*
X121149928Y-61676031D01*
X121179258Y-61711769D01*
X121262923Y-61868294D01*
X121314443Y-62038133D01*
X121331839Y-62214760D01*
X121314443Y-62391387D01*
X121262923Y-62561226D01*
X121179258Y-62717751D01*
X121149928Y-62753489D01*
X121066666Y-62854946D01*
X120965209Y-62938208D01*
X120929471Y-62967538D01*
X120929469Y-62967539D01*
X120776069Y-63049534D01*
X120772946Y-63051203D01*
X120603107Y-63102723D01*
X120536923Y-63109241D01*
X120470740Y-63115760D01*
X120382220Y-63115760D01*
X120316037Y-63109241D01*
X120249853Y-63102723D01*
X120080014Y-63051203D01*
X120076892Y-63049534D01*
X119923491Y-62967539D01*
X119923489Y-62967538D01*
X119887751Y-62938208D01*
X119786294Y-62854946D01*
X119703032Y-62753489D01*
X119673702Y-62717751D01*
X119590037Y-62561226D01*
X119538517Y-62391387D01*
X119521121Y-62214760D01*
X119538517Y-62038133D01*
X119590037Y-61868294D01*
X119673702Y-61711769D01*
X119703032Y-61676031D01*
X119786294Y-61574574D01*
X119887751Y-61491312D01*
X119923489Y-61461982D01*
X120080014Y-61378317D01*
X120249853Y-61326797D01*
X120316037Y-61320279D01*
X120382220Y-61313760D01*
X120470740Y-61313760D01*
X120536923Y-61320279D01*
X120536923Y-61320279D01*
G37*
G36*
X126407480Y-63115760D02*
G01*
X124605480Y-63115760D01*
X124605480Y-61313760D01*
X126407480Y-61313760D01*
X126407480Y-63115760D01*
X126407480Y-63115760D01*
G37*
G36*
X176230000Y-62475400D02*
G01*
X174328000Y-62475400D01*
X174328000Y-61273400D01*
X176230000Y-61273400D01*
X176230000Y-62475400D01*
X176230000Y-62475400D01*
G37*
G36*
X154621000Y-61911000D02*
G01*
X152719000Y-61911000D01*
X152719000Y-60009000D01*
X154621000Y-60009000D01*
X154621000Y-61911000D01*
X154621000Y-61911000D01*
G37*
G36*
X148271000Y-61911000D02*
G01*
X146369000Y-61911000D01*
X146369000Y-60009000D01*
X148271000Y-60009000D01*
X148271000Y-61911000D01*
X148271000Y-61911000D01*
G37*
G36*
X141921000Y-61911000D02*
G01*
X140019000Y-61911000D01*
X140019000Y-60009000D01*
X141921000Y-60009000D01*
X141921000Y-61911000D01*
X141921000Y-61911000D01*
G37*
G36*
X173968315Y-60008566D02*
G01*
X174012843Y-60022074D01*
X174053892Y-60044015D01*
X174089864Y-60073536D01*
X174119385Y-60109508D01*
X174141326Y-60150557D01*
X174154834Y-60195085D01*
X174160000Y-60247540D01*
X174160000Y-60961260D01*
X174154834Y-61013715D01*
X174141325Y-61058247D01*
X174124632Y-61089477D01*
X174118583Y-61104080D01*
X174106376Y-61115144D01*
X174089864Y-61135264D01*
X174053892Y-61164785D01*
X174012843Y-61186726D01*
X173968315Y-61200234D01*
X173915860Y-61205400D01*
X172502140Y-61205400D01*
X172449685Y-61200234D01*
X172405157Y-61186726D01*
X172364108Y-61164785D01*
X172328136Y-61135264D01*
X172298615Y-61099292D01*
X172276674Y-61058243D01*
X172263166Y-61013715D01*
X172258000Y-60961260D01*
X172258000Y-60247540D01*
X172263166Y-60195085D01*
X172276674Y-60150557D01*
X172298615Y-60109508D01*
X172328136Y-60073536D01*
X172364108Y-60044015D01*
X172405157Y-60022074D01*
X172449685Y-60008566D01*
X172502140Y-60003400D01*
X173915860Y-60003400D01*
X173968315Y-60008566D01*
X173968315Y-60008566D01*
G37*
G36*
X176038315Y-58738566D02*
G01*
X176082843Y-58752074D01*
X176123892Y-58774015D01*
X176159864Y-58803536D01*
X176189385Y-58839508D01*
X176211326Y-58880557D01*
X176224834Y-58925085D01*
X176230000Y-58977540D01*
X176230000Y-59691260D01*
X176224834Y-59743715D01*
X176211326Y-59788243D01*
X176189385Y-59829292D01*
X176159864Y-59865264D01*
X176123892Y-59894785D01*
X176082843Y-59916726D01*
X176038315Y-59930234D01*
X175985860Y-59935400D01*
X174572140Y-59935400D01*
X174519685Y-59930234D01*
X174475157Y-59916726D01*
X174434108Y-59894785D01*
X174398136Y-59865264D01*
X174368615Y-59829292D01*
X174346674Y-59788243D01*
X174333166Y-59743715D01*
X174328000Y-59691260D01*
X174328000Y-58977540D01*
X174333166Y-58925085D01*
X174346674Y-58880557D01*
X174368615Y-58839508D01*
X174398136Y-58803536D01*
X174434108Y-58774015D01*
X174475157Y-58752074D01*
X174519685Y-58738566D01*
X174572140Y-58733400D01*
X175985860Y-58733400D01*
X176038315Y-58738566D01*
X176038315Y-58738566D01*
G37*
M02*
